<?xml version="1.0" encoding="UTF-8"?>
<svg width="600" height="600" version="1.1" viewBox="0 0 600.00001 600.00001" xmlns="http://www.w3.org/2000/svg">
 <g transform="translate(0 -452.36)">
  <g transform="matrix(2.3644 0 0 2.3644 -1390.6 -1659.3)">
   <path d="m722.14 1103.5c-1.65-0.1924-9.3775-1.6513-17.172-3.2421-10.356-2.1135-16.145-3.8852-21.5-6.5798-20.72-10.427-28.078-19.03-31.756-37.131-0.91805-4.5185-1.9206-8.4668-2.2278-8.7741-0.30724-0.3072-3.8853-1.2358-7.9512-2.0636-13.566-2.7619-27.327-11.213-32.426-19.914-3.1198-5.3236-5.4426-13.446-5.4426-19.033 0-8.5808 5.9521-23.986 11.873-30.729 4.1012-4.6709 11.004-8.0847 14.548-7.195 1.724 0.43268 3.2272 0.14197 4.3454-0.8404 2.63-2.3104 12.958-4.909 18.1-4.5537 4.1298 0.28538 4.5786 0.11017 4.3065-1.6814-0.56348-3.7107-5.6667-9.8308-10.196-12.228-3.7433-1.9811-5.3408-2.2695-9.5-1.7148-2.75 0.36674-5.5625 1.1215-6.25 1.6773-1.7156 1.3868-4.25-0.8327-4.25-3.722 0-7.5676 12.935-11.798 24.266-7.9373 6.6455 2.2644 13.095 8.3831 16.827 15.963 3.3956 6.8974 5.2075 9.0118 6.8517 7.9957 0.568-0.35105 2.5002 0.0327 4.2938 0.85276 2.1706 0.99243 8.4441 1.718 18.761 2.1697 9.6576 0.42285 16.819 1.2183 19 2.1103 1.925 0.78738 5.8179 3.9186 8.6509 6.9584l5.1509 5.5268 3.2551-6.1071c4.344-8.1502 14.052-17.193 21.414-19.948 17.064-6.3845 37.529 2.6925 31.494 13.969-1.2437 2.3238-2.7913 2.4271-6.6005 0.44042-1.6858-0.87919-5.5611-1.4964-9.4185-1.5-5.5178-5e-3 -7.276 0.45158-11.119 2.8887-5.0762 3.2192-8.9867 7.8501-11.296 13.377-2.1203 5.0746-2.059 5.2511 2.6803 7.7214 3.0755 1.603 5.1959 2.0375 7.8626 1.6111 2.0082-0.32113 6.9757-0.13017 11.039 0.42437 4.0631 0.55454 11.887 1.1125 17.387 1.2398 11.803 0.27336 15.667 1.7836 22.557 8.8168 8.9868 9.1738 15.337 25.447 16.529 42.361 0.69599 9.8698-1.9583 21.25-6.8548 29.389-6.6943 11.128-20.65 20.909-35.232 24.691-3.3 0.8559-10.725 1.7729-16.5 2.0378-5.775 0.2648-14.1 0.9122-18.5 1.4385-9.3787 1.1219-22.733 1.7329-27 1.2353z" fill="#f1d2a2"/>
   <path d="m711.14 1100.1c-4.95-1.0801-11.258-2.3597-14.017-2.8436-10.092-1.7697-26.655-11.081-33.822-19.014-5.1834-5.7373-7.5034-10.928-9.298-20.804-0.87376-4.8083-1.7202-9.2305-1.881-9.8272s-4.0475-1.8723-8.6371-2.8347c-14.951-3.1351-28.181-11.039-33.162-19.812-3.0843-5.4318-5.1222-15.413-4.3951-21.527 0.68525-5.762 5.7353-19.167 9.1842-24.378 3.077-4.6497 7.3053-6.9847 14.454-7.982 3.133-0.43707 5.7808-1.3922 6.2668-2.2606 0.46284-0.82704 2.8645-1.8071 5.337-2.1779 2.4725-0.37077 4.7415-1.0722 5.0422-1.5588 0.77723-1.2576 5.1184-1.0953 7.3098 0.27321 2.5056 1.5648 5.1189 0.39636 5.1189-2.2886 0-6.5565-10.743-16.869-17.573-16.869-1.75 0-3.742-0.675-4.4267-1.5s-2.0898-1.5-3.1224-1.5c-3.5656 0-1.8605-1.7754 3.3382-3.4758 4.5525-1.489 5.9776-1.5443 11.208-0.43435 5.0744 1.0768 6.8232 2.0765 11.418 6.5267 4.222 4.0893 5.2997 5.7362 4.8583 7.4241-0.31197 1.193 0.14047 3.6531 1.0054 5.467 1.5791 3.3115 4.204 4.4924 9.9857 4.4924 1.3424 0 3.4237 0.53872 4.625 1.1972s5.3343 1.3098 9.1843 1.4475c23.307 0.8335 25.127 1.0007 28.075 2.5794 3.55 1.9007 8.9341 7.6148 12.274 13.026 1.2729 2.0625 2.643 3.75 3.0447 3.75 0.92608 0 4.3039-4.5471 6.4253-8.6495 1.5699-3.036 1.5575-3.1309-0.34507-2.6334-3.0225 0.79039-2.4821-2.4043 0.93783-5.544 4.569-4.1948 4.8464-4.4788 7.7993-7.984 2.1552-2.5583 4.3803-3.745 9.7892-5.2209 8.5695-2.3383 13.086-2.4908 13.862-0.46824 0.31658 0.825 1.6936 1.5 3.0599 1.5 2.9062 0 7.5784 1.9485 7.5784 3.1605 0 0.88975-0.96524 1.1331-5 1.2605-1.8042 0.057-2.4182 0.56598-2.2062 1.829 0.24567 1.4631-0.49196 1.7515-4.5 1.7594-10.226 0.02-22.978 11.439-24.454 21.899-0.27791 1.9689 0.48103 2.8577 4.1601 4.872 3.9735 2.1755 5.5904 2.4414 13.82 2.2724 7.2884-0.14968 9.8796 0.17553 11.889 1.4922 2.2175 1.4529 3.0915 1.5113 6.3804 0.42584 4.7933-1.5819 13.679-0.63966 18.851 1.999 12.32 6.2851 20.572 20.732 23.668 41.434 1.6779 11.221 1.0026 18.215-2.7192 28.163-5.4567 14.584-20.623 26.814-38.454 31.007-7.2293 1.7002-27.694 3.3114-49.935 3.9314-10.229 0.2852-14.919-0.056-22-1.6013zm-1.5-98.904c0-0.55-0.70156-1-1.559-1s-1.2809 0.45-0.94098 1 1.0415 1 1.559 1 0.94098-0.45 0.94098-1zm-20.75-1.0526c2.0625-0.57281 3.75-1.4703 3.75-1.9944 0-1.7421-6.7268-0.99597-9.1392 1.0137-2.2208 1.8501-2.2422 1.9684-0.36078 1.9944 1.1 0.015 3.6875-0.4409 5.75-1.0137zm40.735-2.6974c0.0219-1.7861-1.6571-1.5462-2.381 0.34024-0.83287 2.1704 0.39545 4.0191 1.506 2.2665 0.47283-0.7462 0.86658-1.9192 0.875-2.6067zm29.744 3.1458c-0.3323-0.3323-1.1948-0.3678-1.9167-0.079-0.79773 0.3192-0.56078 0.5562 0.60417 0.6042 1.0542 0.043 1.6448-0.193 1.3125-0.5253zm11.771-1.3958c0.33992-0.55-0.057-1-0.88197-1-0.825 0-1.7781 0.45-2.118 1s0.057 1 0.88197 1c0.825 0 1.7781-0.45004 2.118-1zm-64.5-6c0-0.55-0.87344-1-1.941-1s-2.2191 0.45-2.559 1c-0.35052 0.56716 0.48962 1 1.941 1 1.4075 0 2.559-0.45 2.559-1z" fill="#fab832"/>
   <path d="m720.14 1101.2c0.62508-1.0114-13.189-3.3144-14.61-2.4358-0.73476 0.4541-0.93184 0.3133-0.51212-0.3658 0.87947-1.423-5.3905-2.6504-9.1167-1.7847-1.7752 0.4124-2.2777 0.3207-1.4116-0.2577 1.0084-0.6733 0.68401-1.064-1.296-1.561-1.4526-0.3645-3.1398-0.3545-3.7495 0.022-0.71789 0.4437-0.82277 0.2228-0.29764-0.6269 0.6041-0.9775 0.26064-1.1681-1.3469-0.7478-1.3964 0.3652-1.923 0.1844-1.4923-0.5124 0.42493-0.6875 0.0452-0.8387-1.0506-0.4182-1.1564 0.4438-1.4825 0.2807-1-0.5s0.15641-0.9437-1-0.5c-1.1564 0.4438-1.4825 0.2807-1-0.5 0.4949-0.8007 0.13437-0.9353-1.1676-0.4357-1.036 0.3976-1.5626 0.4019-1.1704 0.01 1.0416-1.0416-3.0702-3.6366-4.4304-2.7959-0.66917 0.4135-0.8826 0.2753-0.50876-0.3296 0.3542-0.5731-1.7941-3.1249-4.7739-5.6707-7.0321-6.0077-9.0979-9.5041-10.999-18.615-4.3227-20.72 0.43546-37.784 14.518-52.064 5.3984-5.4739 7.5934-6.9723 12.158-8.2991 6.3596-1.8488 8.7619-2.0314 8.7619-0.6662 0 0.5553 2.0788 0.7066 4.9822 0.3628 2.9938-0.3546 5.5038-0.1573 6.289 0.4944 0.86329 0.7164 2.9902 0.8029 6.2678 0.2548 4.6827-0.7831 4.7506-0.8363 1.211-0.9473-2.0625-0.065-3.75-0.5505-3.75-1.0795 0-0.5489-2.7038-0.8204-6.2972-0.6324-5.5603 0.291-6.3136 0.111-6.4378-1.5381-0.0774-1.0272 0.35635-1.8676 0.96384-1.8676 0.60748 0 0.83989-0.26463 0.51646-0.58806s-1.9679 0.43211-3.6544 1.679-3.3718 1.9615-3.7453 1.5881c-0.37343-0.37375-0.15396-0.67928 0.4877-0.67928 0.64167 0 1.1667-0.39148 1.1667-0.86995s-2.1375-1.1201-4.75-1.4259c-4.1805-0.48926-5.6285-0.0852-12.077 3.37-4.0297 2.1592-7.5172 3.9259-7.75 3.9259-0.23277 0-0.42322-1.7476-0.42322-3.8834 0-3.1825-0.40611-3.9919-2.25-4.4844-3.4821-0.93015-4.75 1.7757-4.75 10.137 0 6.3507-0.48082 8.3932-3.4272 14.559-3.4435 7.206-6.5728 17.534-6.5728 21.694 0 2.0887-0.27547 2.1807-4.25 1.419-2.3375-0.448-5.8945-0.843-7.9045-0.8778-2.01-0.035-3.4021-0.4717-3.0936-0.9709 0.30849-0.4991-0.4101-0.6536-1.5969-0.3432-1.3964 0.3651-1.923 0.1843-1.4923-0.5124 0.42493-0.6876 0.0453-0.8387-1.0506-0.4182-1.1564 0.4437-1.4825 0.2807-1-0.5s0.15641-0.9438-1-0.5c-1.1564 0.4437-1.4825 0.2807-1-0.5s0.15641-0.9438-1-0.5c-1.1564 0.4437-1.4825 0.2807-1-0.5s0.15641-0.9438-1-0.5c-0.94379 0.3621-1.4723 0.2642-1.1746-0.2176 0.29779-0.4818-1.8704-2.9365-4.8181-5.4549-7.767-6.6355-9.0267-9.8494-9.0774-23.16-0.0397-10.416 0.13178-11.366 3.1596-17.5 4.282-8.6752 11.593-16.217 17.757-18.318 2.635-0.89784 5.1999-1.3797 5.6996-1.0708 0.49978 0.30888 4.8311 0.74611 9.6251 0.97162 6.6676 0.31365 8.1345 0.1653 6.2405-0.6311-1.8523-0.7789-2.1403-1.2486-1.1432-1.8648 0.88795-0.54879 0.37935-0.81706-1.5241-0.80391-1.5712 0.0109-2.2943 0.2171-1.6068 0.45833 2.1582 0.75725 1.3587 2.4266-1 2.0882-1.661-0.23829-2.1876-0.91097-2.0118-2.5696 0.28805-2.7168-2.6976-3.038-7.0651-0.76004-2.025 1.0562-2.7112 1.1254-2.419 0.24384 0.22435-0.67681 2.4743-1.6806 4.9999-2.2306s4.9266-1.3375 5.3356-1.75c1.1195-1.1291 5.1954-0.90115 7.2914 0.40782 2.5056 1.5648 5.1189 0.39636 5.1189-2.2886 0-6.5565-10.743-16.869-17.573-16.869-1.75 0-3.742-0.675-4.4267-1.5s-2.0898-1.5-3.1224-1.5c-3.5656 0-1.8605-1.7754 3.3382-3.4758 4.5525-1.489 5.9776-1.5443 11.208-0.43435 5.0744 1.0768 6.8232 2.0765 11.418 6.5267 4.222 4.0893 5.2997 5.7362 4.8583 7.4241-0.31197 1.193 0.15359 3.6806 1.0346 5.5281 1.3906 2.9162 2.206 3.4336 6.1838 3.9241 6.2962 0.77647 9.6254 1.9407 9.3516 3.2704-0.16672 0.80977 0.59232 0.83219 2.7468 0.0811 1.6375-0.57083 5.3411-0.75608 8.2304-0.41168 2.8892 0.34441 9.0782 0.74289 13.753 0.88552 5.545 0.16916 9.5691 0.8317 11.575 1.9058 3.55 1.9007 8.9341 7.6148 12.274 13.026 1.2729 2.0625 2.643 3.75 3.0447 3.75 0.92608 0 4.3039-4.5471 6.4253-8.6495 1.5699-3.036 1.5575-3.1309-0.34507-2.6334-3.0225 0.79039-2.4821-2.4043 0.93783-5.544 4.569-4.1948 4.8464-4.4788 7.7993-7.984 2.1552-2.5583 4.3803-3.745 9.7892-5.2209 8.5695-2.3383 13.086-2.4908 13.862-0.46824 0.31658 0.825 1.6936 1.5 3.0599 1.5 2.9062 0 7.5784 1.9485 7.5784 3.1605 0 0.88975-0.96524 1.1331-5 1.2605-1.8042 0.057-2.4182 0.56598-2.2062 1.829 0.24567 1.4631-0.49196 1.7515-4.5 1.7594-10.265 0.0201-23.014 11.474-24.454 21.968-0.27407 1.9976 0.33812 2.8003 3.1601 4.1432 1.925 0.91609 3.5109 2.2762 3.5241 3.0224 0.0144 0.81076 0.81928 1.2007 2 0.969 1.0867-0.21327 5.7157-0.58461 10.287-0.8252 6.6461-0.34981 8.8272-0.099 10.889 1.2519 2.2267 1.459 3.098 1.5178 6.3892 0.43164 4.7933-1.5819 13.679-0.63966 18.851 1.999 12.392 6.3218 20.619 20.811 23.706 41.749 1.3784 9.3482 1.3739 11.101-0.0464 18.067-2.9303 14.372-10.23 25.138-22.285 32.868-11.227 7.1986-25.781 10.592-43.016 10.03-6.1318-0.1998-9.9709 0.039-9.6249 0.5989 0.34142 0.5524-0.7975 0.6597-2.7995 0.2637-2.494-0.4933-2.9835-0.3947-1.8751 0.3778 1.1304 0.7877 0.26792 1.0453-3.5 1.0453-3.593 0-4.5779-0.2728-3.5-0.9694 1.1052-0.7142 0.44734-0.9693-2.5-0.9693-2.5345 0-3.516 0.3069-2.6789 0.8376 0.7822 0.496-1.5502 0.8376-5.7181 0.8376-3.8716 0-6.8447-0.3146-6.6071-0.6992zm37.233-2.6108c-0.3323-0.3323-1.1948-0.3678-1.9167-0.079-0.79773 0.3192-0.56078 0.5562 0.60417 0.6042 1.0542 0.043 1.6448-0.193 1.3125-0.5253zm12.021-0.085c-0.9625-0.2515-2.5375-0.2515-3.5 0s-0.175 0.4573 1.75 0.4573 2.7125-0.2058 1.75-0.4573zm-68.025-33.733c1.5831-1.3321 3.7551-2.3446 4.8267-2.25 1.7997 0.1588 2.0037-0.7661 2.6729-12.121 0.84095-14.27 2.6968-19.987 2.7451-8.4569 0.0295 7.0404 1.232 9.5686 2.378 5 1.0416-4.1522 1.9288-18.512 1.2988-21.023-0.48311-1.9249-1.6263-2.7367-5.0778-3.6058-6.1669-1.5528-6.026-1.5916-10.452 2.8784-3.3033 3.3365-4.622 4-7.9498 4-3.1373 0-4.4891 0.5947-6.3284 2.7841-2.2053 2.625-2.3389 3.5753-2.3389 16.634 0 12.09 0.22192 13.991 1.7465 14.959 1.3108 0.832 2.28 0.7755 3.8847-0.2267 1.903-1.1884 2.4232-1.0501 4.7307 1.2573 3.205 3.205 4.2303 3.2273 7.8629 0.1707zm73.068-10.239c0.2326-4.7589-0.72382-9.6088-4.6186-23.421-2.7016-9.5804-5.2135-19.091-5.5821-21.134s-1.1791-4.0295-1.8013-4.414c-0.76779-0.4746-0.90065-0.098-0.41355 1.171 0.39471 1.0286 1.6228 7.2636 2.7292 13.856s2.2034 12.296 2.4378 12.675c0.23442 0.3793 0.88804 5.9576 1.4525 12.396 0.56445 6.4387 1.5014 12.594 2.0822 13.68 1.8574 3.4706 3.4073 1.4637 3.7139-4.809zm-103.43 3.1512c0.31854-0.8301 1.1322-1.3926 1.8082-1.25 3.1448 0.6635 6.0294-21.06 3.8643-29.101-0.9702-3.6031-0.87944-5.2351 0.5426-9.7561 0.93924-2.9861 1.4516-5.6853 1.1387-5.9983-2.3141-2.3141-11.711 11.08-15.269 21.765-2.5332 7.6065-2.5747 8.0799-1.044 11.906 0.87678 2.1913 1.5941 4.6645 1.5941 5.4961 0 0.8315 0.65204 3.0724 1.449 4.9797 1.5332 3.6695 4.8397 4.7641 5.9162 1.9586zm64.75-1.4906c-0.21144-1.375-0.41046-6.8537-0.44226-12.175l-0.0578-9.6748-3.4538-0.6479c-2.3629-0.4433-3.7103-0.2329-4.266 0.6661-2.0834 3.371-2.3578 20.657-0.37888 23.859 0.36668 0.5933 2.5379 0.9423 4.8249 0.7757 3.8099-0.2777 4.126-0.5124 3.7738-2.803zm-94.27-36.422c1.4599-0.7819 3.4418-1.6677 4.4043-1.9686 1.4103-0.4409 1.75-1.7065 1.75-6.5194 0-5.5516 1.2435-8.7434 2.2777-5.8467 0.99699 2.7925 2.0778-0.6718 2.5034-8.0238 0.49503-8.5513 0.0224-9.4974-5.3137-10.636-2.5241-0.53866-3.5195-0.13887-5.9371 2.3845-1.9214 2.0055-3.8822 3.0317-5.7931 3.0317-5.2314 0-6.8519 3.1834-7.3286 14.397-0.47216 11.107 0.26617 13.053 4.5913 12.103 1.7793-0.3908 3.1125-0.069 3.9631 0.9555 1.5642 1.8847 1.5917 1.8854 4.8826 0.1229zm-21.141-6.3507c2.8724-2.2505 4.9793-16.966 3.1715-22.152-0.86029-2.4678-0.84512-4.2383 0.0623-7.2668 0.65981-2.2022 0.94622-4.2575 0.63647-4.5673-1.7009-1.7009-8.4251 8.0255-11.221 16.231-1.4033 4.1185-1.4463 5.5057-0.32192 10.39 2.2034 9.5715 3.3955 10.716 7.6727 7.3646zm114.79-8.2163c0.35034-0.5669-0.0511-0.7345-0.94098-0.393-1.7324 0.6648-2.0494 1.3816-0.61096 1.3816 0.51754 0 1.2159-0.4449 1.5519-0.9886zm17.507 0.5826c0-0.2233-2.0973-1.1207-4.6607-1.9941-5.1134-1.7423-5.1286-0.8139-0.0175 1.074 3.5196 1.3 4.6782 1.5279 4.6782 0.9201zm4.5-3.6741c-4.2338-0.7505-5.0339-0.5928-4.1608 0.8198 0.29669 0.4801 2.2542 0.6515 4.3501 0.381l3.8107-0.4918-4-0.709zm21.059-0.4517c-1.0676-0.8076-2.3051-1.4682-2.75-1.4682s-0.80887-0.42153-0.80887-0.93668 1.4625-1.1181 3.25-1.34l3.25-0.40333-3.1276-0.16003c-1.7202-0.088-3.673 0.4972-4.3397 1.3005-1.0025 1.208-0.63464 1.7126 2.1276 2.9184 4.2994 1.8768 4.7859 1.8949 2.3986 0.089zm-48.574-4.2182c0.0219-1.7861-1.6571-1.5462-2.381 0.34024-0.83287 2.1704 0.39545 4.0191 1.506 2.2665 0.47283-0.7462 0.86658-1.9192 0.875-2.6067zm29.744 3.1458c-0.3323-0.3323-1.1948-0.3678-1.9167-0.079-0.79773 0.3192-0.56078 0.5562 0.60417 0.6042 1.0542 0.043 1.6448-0.193 1.3125-0.5253zm-46-1c-0.3323-0.33229-1.1948-0.36781-1.9167-0.0789-0.79773 0.31922-0.56078 0.55621 0.60417 0.60421 1.0542 0.043 1.6448-0.19298 1.3125-0.52527zm57.771-0.39583c0.33992-0.55-0.057-1-0.88197-1-0.825 0-1.7781 0.45-2.118 1s0.057 1 0.88197 1c0.825 0 1.7781-0.45004 2.118-1zm-66.25-0.70573c-1.2375-0.23836-3.2625-0.23836-4.5 0-1.2375 0.23835-0.225 0.43337 2.25 0.43337s3.4875-0.19502 2.25-0.43337zm20.795-4.6488c-1.4758-1.4758-3.2062 0.26554-1.7855 1.7967 0.89541 0.96504 1.4369 1.0222 1.9484 0.20549 0.3896-0.62203 0.31631-1.523-0.16287-2.0022zm-30.604 0.82271c1.906-1.4417 1.9033-1.4682-0.15066-1.4682-1.56 0-2.3642-0.95332-3.1633-3.75l-1.0715-3.75 0.52107 4.6673c0.43693 3.9137 0.23061 4.7426-1.2778 5.134-1.2595 0.32679-1.0493 0.49198 0.70113 0.55094 1.375 0.0463 3.3735-0.5765 4.4411-1.384zm10.809 0.86952c-0.6875-0.27741-1.8125-0.27741-2.5 0s-0.125 0.50439 1.25 0.50439 1.9375-0.22698 1.25-0.50439zm0.75-2.3377c0-0.55-0.87344-1-1.941-1s-2.2191 0.45-2.559 1c-0.35052 0.56716 0.48962 1 1.941 1 1.4075 0 2.559-0.45 2.559-1zm-24-19c0-0.55 1.2375-1.0518 2.75-1.115 2.1567-0.0902 1.887-0.28319-1.25-0.89456-2.2-0.42876-4.1875-0.60201-4.4167-0.385-0.22916 0.21701 0.10834 0.39456 0.75 0.39456 0.64167 0 1.1667 0.45 1.1667 1 0 1.6023-2.5844 1.1571-5.0979-0.87817-1.8176-1.4718-2.7031-1.6386-4.0924-0.77095-1.5346 0.95835-1.204 1.2606 2.4587 2.2476 5.589 1.5062 7.7316 1.6174 7.7316 0.40156zm18.137-2.0901c-1.1286-0.91387-1.7711-1.9424-1.4278-2.2857s-0.12586-0.62414-1.0425-0.62414c-1.5451 0-2.0261 0.93143-1.4167 2.7432 0.1375 0.40877 0.85766 0.60367 1.6004 0.43312 0.7427-0.17055 1.1132 0.0736 0.82342 0.5425-0.28981 0.46893 0.38255 0.8526 1.4941 0.8526 2.0157 0 2.0156-4e-3 -0.0309-1.6616zm-39.265 104.34c-1.2439-1.5861-1.2085-1.6215 0.37756-0.3776 1.6658 1.3064 2.1955 2.1276 1.3724 2.1276-0.20765 0-0.99515-0.7875-1.75-1.75zm-7.7619-20c-1.6917-10.183-1.6276-10.026-4.2994-10.536-2.1014-0.4013-2.0671-0.4537 0.37758-0.5776 2.4285-0.123 2.7478-0.5958 3.2997-4.8861 1.1718-9.1104 2.6332-13.789 6.0606-19.401 1.8981-3.1079 3.451-6.7836 3.451-8.1682s0.27314-3.2293 0.60699-4.0993c0.67331-1.7546 4.393-2.1968 4.393-0.5222 0 0.5827 2.1375-0.6976 4.75-2.8452 5.0208-4.1272 11.41-8.2143 12.841-8.2143 0.46996 0-0.2228 0.75455-1.5395 1.6768-2.27 1.59-2.2945 1.7158-0.4725 2.4298 1.7128 0.6711 1.664 0.7605-0.44978 0.8232-3.4589 0.1025-16.922 14.092-20.937 21.756-5.2867 10.091-7.4518 20.124-6.7037 31.064 0.34791 5.0875 0.46997 9.25 0.27125 9.25-0.19873 0-0.9407-3.4875-1.6488-7.75zm-47.674-44.828c-0.37758-2.5179-0.42462-6.4887-0.10454-8.824 0.74988-5.4709 5.8973-18.834 9.1453-23.742 2.8475-4.3029 9.0542-7.9235 13.233-7.7195 2.6856 0.1311 2.6971 0.15351 0.30748 0.6-10.478 1.9577-23.128 24.366-21.664 38.374 0.727 6.9556 0.0696 7.8953-0.91771 1.3117zm101.07-9.4106c-0.35034-0.5668 0.0511-0.7345 0.94098-0.393 1.7324 0.6648 2.0494 1.3816 0.61096 1.3816-0.51754 0-1.2159-0.4449-1.5519-0.9886z" fill="#dfa85b"/>
   <path d="m712.64 1099.1c-4.675-1.0443-10.75-2.3172-13.5-2.8286-10.833-2.0148-18.839-5.9082-27.827-13.534-8.1274-6.895-10.151-10.162-12.11-19.554-4.3227-20.72 0.43546-37.784 14.518-52.064 5.3984-5.4739 7.5934-6.9723 12.158-8.2991 6.3596-1.8488 8.7619-2.0314 8.7619-0.6662 0 0.5552 2.0788 0.7066 4.9822 0.3628 2.9594-0.3505 5.5052-0.1561 6.2702 0.4788 1.658 1.3761 16.972-0.6213 16.463-2.1473-0.55138-1.6541-4.4874-2.2081-15.464-2.1766-5.6366 0.0162-10.249-0.25997-10.25-0.61362-3e-3 -1.0258 2.888-1.857 6.4577-1.857 1.8127 0 3.856-0.675 4.5407-1.5 1.5881-1.9135 6.0474-1.9309 8.5589-0.0334 1.252 0.94588 3.095 1.2614 5.1911 0.88871 3.0846-0.54846 3.25-0.4221 3.25 2.4825 0 2.2953 0.83608 3.6981 3.3444 5.6113 6.0525 4.6165 8.2078 3.1393 8.5034-5.8283 0.23324-7.0745 0.67047-7.949 3.2768-6.5542 1.4605 0.78162 2.3921 0.74938 3.4384-0.11899 1.599-1.327 6.4419 0.1484 8.4571 2.5766 0.81918 0.98705 3.4103 1.1704 10.533 0.74549 5.9388-0.35431 9.4467-0.19648 9.4467 0.42504 0 1.3616-6.8867 3.3052-11.711 3.3052-2.646 0-4.5578 0.63963-5.7069 1.9093-1.4127 1.561-2.3062 1.7434-4.8984 1-4.4439-1.2745-5.6837-1.1403-5.6837 0.6154 0 1.5399 3.2013 3.1592 8.25 4.173 1.9594 0.3935 2.75 0.1475 2.75-0.8557 0-0.9498 2.197-1.8097 6.75-2.642 7.3717-1.3476 10.928-0.7674 16.903 2.7576 4.1298 2.4366 4.3473 2.4652 4.3473 0.5722 0-0.8086-1.7965-2.4961-3.9923-3.75s-3.9958-2.6173-4-3.0298c-4e-3 -0.4125 3.3673-0.75 7.4923-0.75 4.3333 0 7.5-0.42222 7.5-1 0-1.7496 5.3295-1.0602 10.5 1.3582 14.352 6.7129 24.42 29.22 23.266 52.008-0.56603 11.173-3.1427 18.383-9.6153 26.905-7.363 9.695-20.099 17.253-33.287 19.754-2.5871 0.4906-10.628 1.1323-17.868 1.426s-13.595 0.8008-14.123 1.1268c-0.52747 0.3259-6.9021 0.7333-14.166 0.9052-10.214 0.2417-15.133-0.1177-21.707-1.5862zm-11.275-34.32c1.5831-1.3321 3.7551-2.3446 4.8267-2.25 1.7997 0.1588 2.0037-0.7661 2.6729-12.121 0.84095-14.27 2.6968-19.987 2.7451-8.4568 0.0295 7.0403 1.232 9.5685 2.378 5 1.0416-4.1523 1.9288-18.512 1.2988-21.023-0.48311-1.9249-1.6263-2.7366-5.0778-3.6057-6.1669-1.5529-6.026-1.5917-10.452 2.8784-3.3033 3.3364-4.622 4-7.9498 4-3.1373 0-4.4891 0.5947-6.3284 2.784-2.2053 2.625-2.3389 3.5754-2.3389 16.634 0 12.09 0.22192 13.991 1.7465 14.959 1.3108 0.8321 2.28 0.7755 3.8847-0.2266 1.903-1.1885 2.4232-1.0502 4.7307 1.2573 3.205 3.205 4.2303 3.2272 7.8629 0.1706zm73.068-10.238c0.2326-4.759-0.72382-9.6089-4.6186-23.421-2.7016-9.5803-5.2135-19.09-5.5821-21.134-0.36855-2.0432-1.1791-4.0295-1.8013-4.414-0.76779-0.4745-0.90065-0.098-0.41355 1.1711 0.39471 1.0286 1.6228 7.2635 2.7292 13.855s2.2034 12.296 2.4378 12.675c0.23442 0.3793 0.88804 5.9577 1.4525 12.396 0.56445 6.4387 1.5014 12.595 2.0822 13.68 1.8574 3.4707 3.4073 1.4638 3.7139-4.8089zm-103.43 3.1512c0.31854-0.8301 1.1322-1.3926 1.8082-1.25 3.1448 0.6634 6.0294-21.06 3.8643-29.101-0.9702-3.603-0.87944-5.2351 0.5426-9.7561 0.93924-2.9861 1.4516-5.6853 1.1387-5.9983-2.3141-2.314-11.711 11.08-15.269 21.765-2.5332 7.6065-2.5747 8.08-1.044 11.906 0.87678 2.1913 1.5941 4.6645 1.5941 5.496 0 0.8316 0.65204 3.0724 1.449 4.9798 1.5332 3.6694 4.8397 4.764 5.9162 1.9586zm64.75-1.4907c-0.21144-1.375-0.41046-6.8537-0.44226-12.175l-0.0578-9.6748-3.4538-0.6479c-2.3629-0.4433-3.7103-0.2329-4.266 0.6661-2.0834 3.371-2.3578 20.657-0.37888 23.859 0.36668 0.5933 2.5379 0.9423 4.8249 0.7757 3.8099-0.2777 4.126-0.5124 3.7738-2.803zm-95.888-13.62c-8.0918-1.7569-13.382-4.4887-20.364-10.515-8.0554-6.9535-9.2708-10.002-9.3218-23.378-0.0397-10.416 0.13178-11.366 3.1596-17.5 4.282-8.6752 11.593-16.217 17.757-18.318 2.635-0.89784 5.1815-1.3911 5.6588-1.0961 1.4665 0.90632 14.958 1.5697 18.061 0.88812 1.6101-0.35364 2.7515-1.1645 2.5364-1.8019-0.35151-1.0416-1.7766-1.2784-9.4648-1.5728-2.7843-0.10661-2.9149-1.6599-0.25903-3.0813 1.4708-0.78714 2.7118-0.70771 4.75 0.30401 2.8027 1.3912 7.6922 1.5913 8.9185 0.36506 1.6888-1.6888 3.2217-0.33718 3.8526 3.3971l0.68779 4.071 3.7982-0.6417c2.1409-0.36169 5.6223-0.0952 7.9787 0.61082 3.1921 0.95638 4.3525 0.97426 4.9079 0.0756 0.40005-0.64729 3.4301-1.4594 6.7336-1.8047 4.6231-0.48322 6.7617-0.2371 9.287 1.0688 3.9659 2.0508 5.4813 1.0956 2.3234-1.4647-2.8245-2.29-2.3355-2.5728 5.9351-3.4335 8.1538-0.84849 10.679 0.25443 17.206 7.5139 3.6021 4.0064 4.63 5.9097 4.63 8.573 0 2.3583-0.54442 3.6154-1.75 4.0409-0.9625 0.33969-2.7075 1.4774-3.8779 2.5282-2.0968 1.8827-2.177 1.8806-5.5-0.14528-4.2461-2.5886-8.4221-2.6063-15.111-0.0638-7.7947 2.9626-9.3608 2.705-10.634-1.7495l-1.0715-3.75 0.52519 4.6948 0.52518 4.6947-3.803 0.58192c-2.0916 0.32006-7.1554 2.2574-11.253 4.3053-4.0974 2.0478-7.8098 3.8733-8.25 4.0567-0.44014 0.1833-0.80026-1.4517-0.80026-3.6334 0-3.2688-0.39583-4.0724-2.25-4.5677-3.4821-0.93015-4.75 1.7757-4.75 10.137 0 6.3507-0.48082 8.3932-3.4272 14.559-3.401 7.1172-6.5728 17.524-6.5728 21.566 0 2.4642-1.3738 2.5261-10.772 0.4854zm1.618-22.801c1.4599-0.7819 3.4418-1.6677 4.4043-1.9686 1.4103-0.4409 1.75-1.7065 1.75-6.5194 0-5.5516 1.2435-8.7434 2.2777-5.8467 0.99699 2.7925 2.0778-0.6718 2.5034-8.0238 0.49503-8.5513 0.0224-9.4974-5.3137-10.636-2.5241-0.53866-3.5195-0.13887-5.9371 2.3845-1.9214 2.0055-3.8822 3.0317-5.7931 3.0317-5.2314 0-6.8519 3.1834-7.3286 14.397-0.47216 11.107 0.26617 13.053 4.5913 12.103 1.7793-0.3908 3.1125-0.069 3.9631 0.9555 1.5642 1.8847 1.5917 1.8854 4.8826 0.1229zm-21.141-6.3507c2.8724-2.2505 4.9793-16.966 3.1715-22.152-0.86029-2.4678-0.84512-4.2383 0.0623-7.2668 0.65981-2.2022 0.94622-4.2575 0.63647-4.5673-1.7009-1.7009-8.4251 8.0255-11.221 16.231-1.4033 4.1185-1.4463 5.5057-0.32192 10.39 2.2034 9.5715 3.3955 10.716 7.6727 7.3646zm53.253-44.306c-2.2767-4.2541 1.4311-6.565 5.6007-3.4906 1.4248 1.0505 3.6036 1.2781 8.1911 0.85539 7.6575-0.70552 8.6344 1.1524 1.0766 2.0475-2.8454 0.337-5.6354 1.0747-6.2 1.6393-1.8842 1.8842-7.4592 1.2079-8.6684-1.0516z" fill="#faa906"/>
   <path d="m718.89 1100.2c-4.2483-1.7076-2.0968-9.9688 2.5963-9.9688 2.105 0 10.458 8.6981 9.6341 10.032-0.74344 1.2029-9.1893 1.1595-12.23-0.063zm20.223-0.013c-0.95997-1.5533 1.278-3.7519 5.9092-5.8053 5.8026-2.5728 6.7205-4.0977 7.9155-13.149 0.58108-4.4013 1.3873-8.0023 1.7916-8.0023 0.40427 0 1.0392 1.8 1.4108 4 0.87265 5.1652 2.1289 5.0775 3.5826-0.25 0.87278-3.1986 0.88231-7.6027 0.0385-17.802-0.61658-7.4538-1.1211-15.882-1.1211-18.73s-0.65405-8.6741-1.4534-12.948c-0.7994-4.2737-1.7173-9.4446-2.0398-11.491-0.32248-2.0463-1.7334-5.0838-3.1354-6.75l-2.5491-3.0294h2.5889c1.6346 0 2.5889-0.553 2.5889-1.5 0-2.2661 2.7599-1.7978 4.42 0.75 0.80637 1.2375 1.9427 4.275 2.5252 6.75 1.4819 6.2967 4.845 29.019 5.6243 38 1.0361 11.94 3.9369 16.71 7.5302 12.38 2.107-2.5388 1.6519-14.728-0.85433-22.882-1.1837-3.851-3.7614-13.076-5.7282-20.5-2.0956-7.9105-4.258-14.011-5.2236-14.738-5.0027-3.7639 7.4149-3.712 14.162 0.059 5.5471 3.1003 5.5441 3.0996 5.5441 1.3686 0-1.4606-5.1964-5.6322-7.2095-5.7877-3.1076-0.24007 4.2087-1.7105 8.9595-1.8007 2.8875-0.0548 5.25-0.54967 5.25-1.0997 0-1.7496 5.3295-1.0602 10.5 1.3582 14.352 6.7129 24.42 29.22 23.266 52.008-0.56603 11.173-3.1427 18.383-9.6153 26.905-7.363 9.695-20.099 17.253-33.287 19.754-2.5871 0.4906-10.477 1.1415-17.534 1.4464s-14.63 0.9876-16.83 1.5172c-5.1603 1.242-6.242 1.2369-7.0271-0.033zm-61.419-77.647c0.0979-6.8572 2.9429-12.166 9.1324-17.04 6.6597-5.2443 9.5776-5.3702 5.114-0.2207-3.8169 4.4034-12.301 17.339-12.301 18.755 0 0.593-0.45 1.3562-1 1.6962-0.60289 0.3726-0.9784-0.8946-0.94562-3.191zm43.549-10.671c-1.3042-2.9491-3.3438-6.0432-4.5325-6.8757-1.8714-1.3108-1.9431-1.5974-0.53427-2.138 0.89477-0.3434 2.7526-0.6243 4.1284-0.6243 3.1476 0 2.6142-2.1728-0.73028-2.9749-1.3392-0.32115-7.0466-0.57068-12.683-0.55452-5.6366 0.0162-10.249-0.25997-10.25-0.61362-3e-3 -1.0258 2.888-1.857 6.4577-1.857 1.8127 0 3.856-0.675 4.5407-1.5 1.5881-1.9135 6.0474-1.9309 8.5589-0.0334 1.252 0.94588 3.095 1.2614 5.1911 0.88871 3.0929-0.54995 3.25-0.42782 3.25 2.5272 0 2.475 0.8149 3.6953 4.0167 6.0147l4.0167 2.9097-2.3681 2.8465c-1.3025 1.5657-2.9008 3.8591-3.5519 5.0966-1.7892 3.4008-2.9095 2.7681-5.5099-3.112zm15.262-8.8689c-0.211-3.5651 0.29622-11.191 0.79958-12.022 0.25085-0.41399 1.3576-0.27026 2.4593 0.31939 1.4605 0.78162 2.3921 0.74938 3.4384-0.11899 1.599-1.327 6.4419 0.1484 8.4571 2.5766 0.81918 0.98705 3.4103 1.1704 10.533 0.74549 5.9388-0.35431 9.4467-0.19648 9.4467 0.42504 0 1.3616-6.8867 3.3052-11.711 3.3052-2.646 0-4.5578 0.63963-5.7069 1.9093-1.4127 1.561-2.3062 1.7434-4.8984 1-4.3988-1.2616-5.6837-1.1414-5.6837 0.5316 0 1.6812-0.53647 2.0522-4.25 2.9399-2.3641 0.565-2.7688 0.3389-2.8843-1.6118zm-51.907-9.3768c-0.57573-1.5143-1.3153-4.8095-1.6434-7.3228-0.32816-2.5132-1.2084-5.7847-1.9561-7.2699-1.7041-3.3849-1.6978-3.7997 0.0572-3.7997 0.77916 0 1.606-0.5625 1.8374-1.25 0.3329-0.98911 0.74937-0.97878 1.9955 0.0495 1.8856 1.556 3.6368 8.6468 3.9922 16.164 0.21376 4.522-0.0429 5.5258-1.4888 5.8228-1.1642 0.23911-2.0964-0.55979-2.7939-2.3944zm9.737-1.1423c-0.23206-0.4125-1.2116-4.125-2.1768-8.25s-2.3872-8.5125-3.1601-9.75c-1.3709-2.1951-1.3058-2.25 2.6675-2.25 2.24 0 5.4422 0.70818 7.116 1.5737 3.6448 1.8848 4.8399 1.1694 2.4528-1.4683-2.1486-2.3742-1.5845-2.7083 6.0401-3.5765 7.5702-0.86206 10.28 0.35833 16.734 7.5377 3.6021 4.0064 4.63 5.9097 4.63 8.573 0 2.3583-0.54442 3.6154-1.75 4.0409-0.9625 0.33969-2.7075 1.4774-3.8779 2.5282-2.0968 1.8827-2.177 1.8806-5.5-0.14528-4.2461-2.5886-8.4221-2.6063-15.111-0.0638-5.6698 2.155-7.4045 2.424-8.0646 1.2505zm-69.41-8.344c0.4626-3.449 1.4599-5.2115 4.6135-8.1531 6.6436-6.1971 7.4621-4.5921 1.9099 3.745-6.2885 9.4427-7.2894 10.119-6.5234 4.4081zm32.119-4.156c-0.90545-1.7875-2.3175-4.0162-3.1379-4.9528-1.3519-1.5432-1.2428-1.7652 1.1641-2.3693 1.4607-0.36661 2.484-1.1754 2.2741-1.7972-0.34303-1.0162-1.7781-1.2506-9.4554-1.5445-2.7843-0.10661-2.9149-1.6599-0.25903-3.0813 1.4708-0.78714 2.7118-0.70771 4.75 0.30401 2.8027 1.3912 7.6922 1.5913 8.9185 0.36506 1.6855-1.6855 3.0878-0.30598 4.0752 4.0088 1.0281 4.4929 0.94372 4.8367-2.0815 8.482-1.7342 2.0896-3.479 3.8074-3.8774 3.8173-0.39838 0.01-1.4651-1.4445-2.3706-3.232zm16.553-10.828c-2.2767-4.2541 1.4311-6.565 5.6007-3.4906 1.4248 1.0505 3.6036 1.2781 8.1911 0.85539 7.6575-0.70552 8.6344 1.1524 1.0766 2.0475-2.8454 0.337-5.6354 1.0747-6.2 1.6393-1.8842 1.8842-7.4592 1.2079-8.6684-1.0516z" fill="#ed8c04"/>
   <path d="m721.39 1098.5c-1.8964-0.4955-2.3903-3.7969-0.72232-4.8277 0.56522-0.3494 2.3208 0.7491 3.9012 2.4409 2.7088 2.8998 2.7502 3.0695 0.72232 2.9602-1.1832-0.064-2.9387-0.3218-3.9012-0.5734zm25.91-2.1723c4.4111-1.7365 6.627-4.3422 7.3403-8.6316 0.42397-2.5495 0.8957-2.9608 3.1023-2.7045 2.4383 0.2831 2.6847-0.086 3.9107-5.8634 1.064-5.0138 1.0816-9.9274 0.0944-26.302-1.3286-22.038-3.6045-40.326-5.268-42.33-1.2488-1.5047-0.30499-4.7123 1.1263-3.8277 1.063 0.6569 2.6067 5.9466 3.3624 11.521 1.0237 7.5514 4.7414 33.858 5.6801 40.193 0.54548 3.6809 0.99178 11.481 0.99178 17.333 0 8.0622 0.30291 10.542 1.25 10.235 3.353-1.0876 7.5258-15.127 8.415-28.312 0.58433-8.6637 0.41358-9.7331-3.9917-25-2.5312-8.7721-5.1244-18.199-5.7627-20.949s-1.7898-6.0125-2.5587-7.25c-1.3566-2.1833-1.2861-2.2497 2.375-2.2403 2.0752 0 6.106 1.096 8.9574 2.4236 2.9651 1.3805 6.0962 2.1753 7.3146 1.8567 2.4646-0.6445 7.7178 3.8672 11.653 10.008 1.3385 2.0888 3.202 4.0697 4.141 4.402 0.93902 0.3324 2.4948 1.2806 3.4573 2.1073 1.5601 1.3398 1.75 1.3353 1.75-0.042 0-3.5239-13.893-19.378-20.554-23.456-1.7295-1.0588-1.529-1.1977 1.8043-1.25 2.0626-0.0323 3.75-0.5088 3.75-1.0588 0-1.7496 5.3295-1.0602 10.5 1.3582 13.615 6.3682 23.5 27.188 23.5 49.494 0 18.399-10.139 35.056-26.383 43.343-11.026 5.6251-13.967 6.1639-34.458 6.3136-18.207 0.133-19.115 0.053-15.5-1.3705zm15.261-10.072c-0.0434-1.4112-0.30592-2.0033-0.58333-1.3158s-1.5919 1.25-2.921 1.25c-1.3292 0-2.4167 0.1154-2.4167 0.2566 0 0.1411-0.4224 1.7294-0.93866 3.5295l-0.93865 3.2729 3.9386-2.2137c3.045-1.7114 3.9208-2.7958 3.8597-4.7795zm21.741-26.316c-0.27741-0.6875-0.50439-0.125-0.50439 1.25s0.22698 1.9375 0.50439 1.25 0.27741-1.8125 0-2.5zm9.3377-6.9852c0-7.1847-1.2715-6.7301-2.8932 1.0344-1.4994 7.1789-1.4589 7.4596 0.89322 6.2008 1.668-0.8927 2-2.0939 2-7.2352zm-72.148-44.439c-2.5434-5.3478-2.5713-5.5868-0.70911-6.0738 2.8845-0.7543 1.7504-2.415-2.6996-3.953-2.169-0.74968-4.8312-2.2487-5.9159-3.3312-1.963-1.9588-1.9628-1.9681 0.0275-1.9681 1.0998 0 2.9362 0.65593 4.0808 1.4576 1.1446 0.8017 3.3822 1.3642 4.9725 1.25 2.4776-0.17791 2.937 0.18895 3.2099 2.563 0.19069 1.6593 1.4944 3.6401 3.25 4.9381 1.6124 1.192 2.9316 2.5628 2.9316 3.046 0 1.1458-5.0476 7.7614-5.8687 7.6917-0.34722-0.029-1.8227-2.5587-3.2789-5.6204zm15.013-6.057c-0.22455-2.958 0.31416-10.721 0.79958-11.522 0.25085-0.41399 1.3576-0.27026 2.4593 0.31939 1.4402 0.77075 2.3823 0.75747 3.3519-0.0472 1.0076-0.83628 2.2855-0.72791 5.0532 0.42853 2.9188 1.2196 3.5935 1.9725 3.181 3.5499-0.59676 2.282 0.45825 2.5224 3.605 0.82124 2.4149-1.3055 16.684-2.0559 16.684-0.87743 0 1.1173-7.2359 3.0582-11.401 3.0582-2.018 0-4.7764 0.72545-6.1296 1.6121-1.7427 1.1418-3.51 1.4152-6.0586 0.93712-2.5796-0.484-3.9255-0.2666-4.7544 0.7679-0.63593 0.7936-2.3937 1.7305-3.9062 2.082-2.1801 0.5065-2.7778 0.2723-2.8843-1.1301zm-50.656-14.507c-0.60447-3.9941-1.4103-8.3871-1.7906-9.7621-0.50669-1.8315-0.38956-2.2209 0.43805-1.4564 1.1409 1.054 3.7397 17.192 2.9032 18.029-0.24836 0.24837-0.94613-2.8164-1.5506-6.8105zm8.7783-0.0121c-0.59874-2.3375-1.9007-6.8375-2.8933-10-1.7595-5.606-1.7574-5.75 0.0822-5.75 1.0378 0 3.5599 0.73304 5.6047 1.629 2.0448 0.89594 4.9004 1.568 6.3456 1.4934 1.8952-0.0978 3.6374 0.98212 6.25 3.8739 1.9923 2.2052 3.6223 4.4423 3.6223 4.9714 0 1.1289 3.9452 3.4204 4.6594 2.7062 1.4213-1.4213-10.18-15.674-12.758-15.674-0.49562 0-0.90113-0.42961-0.90113-0.95469 0-1.3484 6.4522-2.3975 9.7434-1.5842 1.5161 0.37465 5.3441 3.3326 8.5066 6.5733 4.7611 4.8788 5.75 6.4883 5.75 9.3587 0 3.1072-0.46498 3.6988-4.4841 5.7061-4.2035 2.0993-4.5996 2.135-6.3288 0.57016-2.3323-2.1107-12.603-2.2182-16.187-0.16934-4.3337 2.4774-5.8221 1.8936-7.0115-2.75zm-36.921-10.36c-1.6117-2.7316-1.8581-3.9376-1.0127-4.9562 1.3885-1.6731 0.40258-3.4338-1.9228-3.4338-0.96242 0-2.6234-0.7084-3.691-1.5742-1.8703-1.5168-1.8499-1.5504 0.55887-0.92164 3.8551 1.0063 9.089 1.1608 9.6307 0.28433 1.3594-2.1995 3.2977-0.44873 3.8922 3.5157 0.57666 3.8454 0.32729 4.6447-2.34 7.5l-2.9854 3.1959-2.1299-3.61zm17.504-7.9615c-2.041-2.041-2.0034-4.3256 0.0843-5.1267 1.054-0.40446 2.3107 0.17343 3.4578 1.59 1.5679 1.9362 2.25 2.1017 5.2492 1.2736 1.8959-0.52349 4.9524-0.59595 6.7922-0.16102l3.3451 0.79079-3.5 0.14625c-1.925 0.0804-5.3 0.79473-7.5 1.5873-5.0892 1.8334-6.0065 1.8218-7.9286-0.10027z" fill="#e67905"/>
   <path d="m777.07 1094.2c5.2895-4.6442 9.0582-13.544 11.053-26.101 0.45125-2.841 1.3836-4.1415 4.1312-5.7627l3.5484-2.0936-0.47856-7.2374c-1.5682-23.716-3.6225-33.818-8.2673-40.653-2.6628-3.9186-2.53-4.7532 0.49862-3.1324 2.8673 1.5345 8.753 10.517 10.667 16.28 0.87111 2.6227 1.9803 4.7686 2.4649 4.7686 2.7156 0 4.7613 22.74 3.0586 34-0.68118 4.5047-2.3224 9.7963-4.1096 13.25-3.407 6.5838-2.6383 7.3904 2.0042 2.1029 3.7506-4.2717 6.4294-10.15 8.6454-18.972 0.87654-3.4895 2.4539-7.3364 3.5053-8.5487 1.621-1.869 1.81-3.1257 1.2432-8.268-0.80783-7.3291-1.8711-10.428-3.8367-11.182-0.81282-0.3119-2.4252-3.0992-3.5831-6.1939-2.6059-6.965-10.467-17.714-17.194-23.509l-5.0704-4.3685 5.6564-0.66481c7.1181-0.83659 11.027 0.69036 16.963 6.626 8.8978 8.8977 14.801 25.715 14.998 42.729 0.10388 8.9638-2.3278 19.681-4.6693 20.58-0.69528 0.2668-2.589 3.0541-4.2083 6.194-1.6193 3.1398-4.8197 7.6001-7.1119 9.9116-6.5689 6.6241-21.668 13.315-30.049 13.315h-3.3533l3.4944-3.0682zm-40.664-92.182c-0.24951-0.6875-0.17218-3.5 0.17184-6.25 0.46704-3.7334 0.99817-4.8981 2.0967-4.5977 0.80914 0.22124 2.2743 0.43016 3.2559 0.46428 1.6631 0.0578 2.1118 0.98403 2.9712 6.1335 0.63615 3.8119-7.2269 7.7456-8.4956 4.25zm-15.731-3.711c-0.80907-0.51167-1.166-1.2354-0.79313-1.6082 0.9151-0.91509 3.7642 0.24885 3.7642 1.5378 0 1.2701-1.0353 1.2946-2.971 0.0704zm0.97104-9.339c0-1.8612-8.1516-12.808-11.863-15.931-1.7255-1.4519-3.1372-2.8939-3.1372-3.2044s1.9584-0.56456 4.3521-0.56456c5.4058 0 9.8011 2.8056 14.371 9.1731 3.8405 5.3514 3.7273 8.8451-0.34696 10.701-3.1238 1.4233-3.376 1.4102-3.376-0.17445zm-13.22-5.7001c-1.361-2.75-2.1717-5-1.8017-5 0.88499 0 4.2152 3.7963 6.3598 7.25 1.6353 2.6334 1.6273 2.75-0.18799 2.75-1.2782 0-2.7017-1.6286-4.3702-5zm-47.058-8.8174c-0.806-0.92541-1.9386-2.6006-2.5168-3.7226-0.90538-1.7568-0.63761-2.2232 1.9289-3.3592 1.6391-0.72555 3.1588-1.1406 3.377-0.92241 0.21823 0.21823 0.68932 2.2262 1.0469 4.4622 0.74091 4.6334-1.2691 6.4893-3.8361 3.542z" fill="#da6708"/>
  </g>
 </g>
</svg>
