<?xml version='1.0' encoding='utf-8'?>
<svg xmlns="http://www.w3.org/2000/svg" viewBox="0 0 3099 3099"> <path transform="scale(3.0273)" d="m100.46 366.13 0.996 1.04c-1.5973 1.617-3.5554 3.058-3.7927 5.429l-5.1709 5.026 2.684-10.918 1.6239 0.04c0.5875 0.653 0.8771 0.588 1.7027 0.805l1.957-1.422z" fill="#FEAB01"/> <path transform="scale(3.0273)" d="m300.52 920.18 0.253-0.626c3.161-0.643 5.141-0.651 7.932 1.046l0.202 0.154c-3.762 0.512-7.434 1.748-10.98 3.079-9.603 3.952-18.207 8.103-26.438 14.532-3.153 2.405-6.273 4.766-8.334 8.228l-4.136 0.737c9.589-13.177 22.364-19.075 36.911-25.166l4.59-1.984z" fill="#E4481D"/> <path transform="scale(3.0273)" d="m178.89 259.06c0.181 1.632 0.358 2.902 1.078 4.388-8.863 9.002-13.068 19.933-12.7 32.608l0.252 2.861c-0.556 0.495-1.227 0.982-1.662 1.584-1.068-3.713-1.755-7.265-2.028-11.117-0.633-8.914 1.37-17.579 7.997-23.969 2.19-2.112 4.682-3.579 6.702-5.924l0.361-0.431z" fill="#C23216"/> <path transform="scale(3.0273)" d="m379.04 868.06c1.338 0.692 1.463 0.721 2.01 2.185 0.77 2.062 0.709 4.723 0.834 6.91-0.157 19.753-1.377 39.199-7.419 58.091l-0.919-3.515c-0.072-2.406 0.541-5.064 0.901-7.446l1.819-13.524 2.774-42.701z" fill="#C23216"/> <path transform="scale(3.0273)" d="m95.173 366.71c2.2212-7.571 4.9726-14.71 8.7276-21.676 8.405-15.593 20.444-28.319 36.513-36.1 5.443-2.635 11.352-4.426 17.139-6.142 0.283 0.723 0.522 1.66 0.989 2.274-6.018 2.607-12.028 4.963-17.73 8.248-19.556 11.267-35.415 29.272-43.491 50.425-0.2671 0.7-0.4374 1.371-0.5557 2.109l0.0323 0.902-1.6239-0.04z" fill="#C23216"/> <path transform="scale(3.0273)" d="m263.16 946.59c4.791-0.024 9.572-3.014 14.063-4.443 4.503-1.432 8.591-2.242 13.281-2.839 4.749-0.605 9.335 0.387 14.071 0.578 1.949 0.079 5.673-0.457 7.3 0.388l2.549 1.218c-1.167 2.346-3.475 4.262-5.595 5.766-19.629-2.419-36.468 0.052-54.786 7.479l4.981-7.41 4.136-0.737z" fill="#D15502"/> <path transform="scale(3.0273)" d="m308.91 920.76c13.437-1.094 25.712 0.396 37.486 7.464 3.316 1.753 5.64 3.902 8.04 6.719-7.17-2.467-14.57-4.616-22.204-2.701-2.999 0.752-6.024 2.21-8.795 3.577-3.241 1.598-6.11 3.534-9.015 5.682l-2.549-1.218c-1.627-0.845-5.351-0.309-7.3-0.388-4.736-0.191-9.322-1.183-14.071-0.578-4.69 0.597-8.778 1.407-13.281 2.839-4.491 1.429-9.272 4.419-14.063 4.443 2.061-3.462 5.181-5.823 8.334-8.228 8.231-6.429 16.835-10.58 26.438-14.532 3.546-1.331 7.218-2.567 10.98-3.079z" fill="#F48C26"/> <path transform="scale(3.0273)" d="m308.91 920.76c13.437-1.094 25.712 0.396 37.486 7.464l-0.925 0.477c-1.798-0.882-3.307-1.756-5.342-1.82-0.809-0.025-1.512-0.261-2.295-0.446-4.28-1.013-8.923-0.583-13.264-0.214-14.001 1.192-27.8 4.912-41.267 8.753-3.5 0.998-8.261 3.529-11.811 3.397 8.231-6.429 16.835-10.58 26.438-14.532 3.546-1.331 7.218-2.567 10.98-3.079z" fill="#FEAB01"/> <path transform="scale(3.0273)" d="m289.91 916.07c11.523-1.884 23.098-2.763 34.696-0.785 4.688 0.799 9.366 2.449 13.837 4.033l0.382 0.287c2.768 2.034 5.851 3.536 8.716 5.419 7.518 4.944 12.504 10.928 17.112 18.603-2.322-1.542-4.577-3.031-7.115-4.21-12.491 7.222-25.983 11.058-38.935 17.07-3.441 1.598-6.94 3.292-10.206 5.224-1.977 1.168-3.966 3.042-6.076 3.787l-0.609-0.419c-1.512 2.367-4.589 7.554-4.08 10.409l-3.336 2.353c3.058-11.441 7.231-21.168 14.525-30.579 2.12-1.504 4.428-3.42 5.595-5.766 2.905-2.148 5.774-4.084 9.015-5.682 2.771-1.367 5.796-2.825 8.795-3.577 7.634-1.915 15.034 0.234 22.204 2.701-2.4-2.817-4.724-4.966-8.04-6.719-11.774-7.068-24.049-8.558-37.486-7.464l-0.202-0.154c-2.791-1.697-4.771-1.689-7.932-1.046l-0.253 0.626c-1.05-0.107-0.541-0.1-1.706-9e-3 -6.665 0.522-12.183 1.189-18.688 3.009l5.41-6.402c1.488-0.018 2.923-0.408 4.377-0.709z" fill="#C23216"/> <path transform="scale(3.0273)" d="m301.72 965.08c4.403-10.693 13.758-21.892 24.317-26.829 10.878-5.086 20.751-2.728 31.509 1.167-12.491 7.222-25.983 11.058-38.935 17.07-3.441 1.598-6.94 3.292-10.206 5.224-1.977 1.168-3.966 3.042-6.076 3.787l-0.609-0.419z" fill="#FEAB01"/> <path transform="scale(3.0273)" d="m379.02 861.1 9.752 5.433-2.562-6.721c7.254 5.836 12.483 8.524 22.039 7.599 2.356-0.228 4.865-0.841 7.067-1.716l-13.192 59.871c8.602-3.917 16.606-6.514 25.921-3.008 6.215 2.34 9.864 7.725 13.204 13.124l3.136-2.673 1.496 1.108c-0.746 1.188-1.936 2.322-1.632 3.717 4.677-0.276 9.113-2.448 13.835-3.015 19.274-2.312 37.477 2.083 52.296 14.873 1.877 1.619 3.988 3.537 5.119 5.758-7.251-1.626-13.402-7.314-19.817-10.719-6.421-3.408-12.696-4.599-19.683-6.177-5.675-1.281-13.965-1.099-19.695-0.082-4.338 0.77-9.146 1.912-13.091 3.882-1.661 0.83-3.04 2.365-4.777 2.956l-0.608 0.19c-14.336-5.898-24.393-4.256-38.425 1.566-10.805 4.483-21.053 10.747-32.599 13.236-10.692 2.305-21.258 1.637-32.055 2.307-12.945 0.804-26.121 6.32-37.114 12.882-0.509-2.855 2.568-8.042 4.08-10.409l0.609 0.419c2.11-0.745 4.099-2.619 6.076-3.787 3.266-1.932 6.765-3.626 10.206-5.224 12.952-6.012 26.444-9.848 38.935-17.07 2.538 1.179 4.793 2.668 7.115 4.21-4.608-7.675-9.594-13.659-17.112-18.603-2.865-1.883-5.948-3.385-8.716-5.419l-0.382-0.287c-4.471-1.584-9.149-3.234-13.837-4.033-11.598-1.978-23.173-1.099-34.696 0.785-1.454 0.301-2.889 0.691-4.377 0.709 8.223-9.519 20.714-16.768 33.353-17.67 12.199-0.87 22.264 5.59 31.097 13.341 4.063 3.566 7.832 7.582 12.076 10.923 3.69 2.906 8.154 5.029 11.483 8.363l0.919 3.515c6.042-18.892 7.262-38.338 7.419-58.091-0.125-2.187-0.064-4.848-0.834-6.91-0.547-1.464-0.672-1.493-2.01-2.185l-0.019-6.968z" fill="#F48C26"/> <path transform="scale(3.0273)" d="m289.91 916.07c5.331-7.013 16.908-13.013 25.551-14.31 7.916-1.189 18.503 1.671 24.866 6.515l1.419 1.136 0.704 0.56c4.138 3.34 7.435 7.447 10.654 11.645-4.465-1.715-9.853-3.097-14.661-2.298-4.471-1.584-9.149-3.234-13.837-4.033-11.598-1.978-23.173-1.099-34.696 0.785z" fill="#FEAB01"/> <path transform="scale(3.0273)" d="m381.88 877.16 0.27-3.654c1.055-0.151 0.595-0.245 1.32 0.078 5.395 2.402 10.756 3.212 16.616 3.584-1.47 14.498-4.493 28.003-10.335 41.412-2.797 6.421-6.18 12.899-11.619 17.496-0.701 0.593-1.26 0.759-2.136 0.959l-1.241-0.295-0.294-1.489c6.042-18.892 7.262-38.338 7.419-58.091z" fill="#FEAB01"/> <defs> <linearGradient id="j" x1="423.78" x2="604.51" y1="924.92" y2="937.37" gradientUnits="userSpaceOnUse"> <stop stop-color="#D04704" offset="0"/> <stop stop-color="#F27B00" offset="1"/> </linearGradient> </defs> <path transform="scale(3.0273)" d="m526.91 876.28c2.531 1.128 5.24 2.568 7.951 3.157l0.638 0.124 1.46 0.269c9.338 1.215 19.201-4.154 26.31-9.703-1.194 26.241-7.729 53.515-15.612 78.498 3.468-1.649 6.587-4.062 10.001-5.867 6.946-3.673 16.419-5.848 24.091-3.13 9.636 3.413 16.319 12.847 20.218 21.831l2.693 7.075c-20.61-7.496-41.748-8.674-61.999 0.801-8.173 3.824-16.61 9.265-25.397 11.421-11.637 2.856-23.302 1.935-35.145 1.999-12.666 0.069-24.679 3.082-36.277 7.978 3.382-9.211 7.814-16.801 13.6-24.689-11.565-0.465-22.234 0.372-32.772 5.654-2.069 1.038-5.72 4.021-7.719 4.29 2.555-11.092 9.883-23.42 18.877-30.486l0.608-0.19c1.737-0.591 3.116-2.126 4.777-2.956 3.945-1.97 8.753-3.112 13.091-3.882 5.73-1.017 14.02-1.199 19.695 0.082 6.987 1.578 13.262 2.769 19.683 6.177 6.415 3.405 12.566 9.093 19.817 10.719-1.131-2.221-3.242-4.139-5.119-5.758-14.819-12.79-33.022-17.185-52.296-14.873-4.722 0.567-9.158 2.739-13.835 3.015-0.304-1.395 0.886-2.529 1.632-3.717l-1.496-1.108c4.688-5.552 12.561-10.592 19.682-12.241 9.625-2.229 19.121-0.786 27.534 4.47l0.578 0.323c9.543 5.445 18.588 13.983 24.649 23.101 1.723-2.928 2.467-6.299 3.419-9.542 0.068-2.142 1.213-5.021 1.7-7.168l3.064-15.78c2.147-13.328 2.044-26.466 1.899-39.894z" fill="url(#j)"/> <path transform="scale(3.0273)" d="m427.14 963.85c1.19 0.693 7.812-3.582 9.491-4.47 16.01-8.476 32.883-11.523 50.868-9.597-2.17 1.227-4.25 1.349-6.54 2.149-6.183 2.158-11.18 5.415-16.221 9.536l-4.482-1.235c-2.725-0.684-5.857-0.322-8.635-0.121-9.496 0.685-17.182 3.61-26.091 6.68 0.342-0.691 1.014-2.588 1.61-2.942z" fill="#F48C26"/> <path transform="scale(3.0273)" d="m427.14 963.85c4.964-9.247 12.684-17.199 22.947-20.343 14.085-4.315 31.702-0.413 44.472 6.281-2.349 0.241-4.705 0.08-7.06-5e-3 -17.985-1.926-34.858 1.121-50.868 9.597-1.679 0.888-8.301 5.163-9.491 4.47z" fill="#FEAB01"/> <path transform="scale(3.0273)" d="m522.22 940.5c5.718-16.407 6.782-34.735 7.863-51.952 5.667 1.566 10.733 2.245 16.633 2.055-0.836 11.32-2.303 22.514-4.528 33.644-2.944 14.728-6.382 29.296-17.943 39.771-3.026 2.741-7.842 3.471-11.738 4.251-16.102 3.221-32.883 2.727-48.463 8.478-3.334 1.231-6.725 2.42-9.543 4.648l-0.404-0.648c4.434-7.061 9.516-13.816 16.404-18.675l0.716-0.511c9.737-6.863 21.382-8.919 33.058-6.814 2.805 0.506 5.802 1.554 8.296 2.929 2.029 1.119 4.726 3.302 6.975 3.571 0.6-1.309 0.358-2.084 0.229-3.5l-4.274-2.303c-1.131-2.221-3.242-4.139-5.119-5.758-14.819-12.79-33.022-17.185-52.296-14.873-4.722 0.567-9.158 2.739-13.835 3.015-0.304-1.395 0.886-2.529 1.632-3.717l-1.496-1.108c4.688-5.552 12.561-10.592 19.682-12.241 9.625-2.229 19.121-0.786 27.534 4.47l0.578 0.323c9.543 5.445 18.588 13.983 24.649 23.101 1.723-2.928 2.467-6.299 3.419-9.542l0.258 0.441c0.414 0.909 0.287 1.719 0.249 2.692l0.675-1.656 0.789-0.091z" fill="#FEAB01"/> <path transform="scale(3.0273)" d="m444.39 933.01c4.688-5.552 12.561-10.592 19.682-12.241 9.625-2.229 19.121-0.786 27.534 4.47l0.578 0.323c9.543 5.445 18.588 13.983 24.649 23.101 1.723-2.928 2.467-6.299 3.419-9.542l0.258 0.441c0.414 0.909 0.287 1.719 0.249 2.692l0.675-1.656 0.789-0.091c-0.84 3.811-2.679 6.863-3.969 10.427-0.456 1.259-0.246 1.931 0.198 3.113 0.35 0.93 0.579 1.328 0.302 2.337-7.295-10.398-14.399-19.889-25.042-27.086l-8.794-5.045c-8.807-2.88-18.144-3.601-26.663 0.723-5.014 2.545-8.238 5.484-12.369 9.142l-1.496-1.108z" fill="#D15502"/> <path transform="scale(3.0273)" d="m686.72 557.57 19.852-19.433c16.003-12.867 35.285-24.093 55.934-26.87 11.997-1.613 25.039-0.581 37.001 0.693l18.258 3.356c4.071 1.286 9.162 1.836 12.856 3.956 4.544 2.573 9.334 4.86 13.606 7.871 21.795 15.365 36.304 39.201 43.38 64.613 9.588 34.434 6.939 71.107-5.923 104.32-3.973 10.718-8.252 22.013-13.911 31.978l-7.85 14.908 0.51-17.941c0.484-33.201-4.171-63.855-19.037-93.837-4.035-8.138-8.759-16.727-15.121-23.278-2.866-4.966-8.718-9.032-13.393-12.183-30.678-20.675-67.317-22.133-102.69-15.357l-41.752 13.2 6.842-15.396 11.437-20.603z" fill="#891D0A"/> <path transform="scale(3.0273)" d="m710.19 580.37c4.141-5.81 15.493-7.099 22.194-8.226 30.95-5.207 59.791-2.646 86.047 15.962 28.437 20.153 42.807 53.68 48.218 87.125 2.866 17.719 1.863 35.045 1.121 52.827l-7.85 14.908 0.51-17.941c0.484-33.201-4.171-63.855-19.037-93.837-4.035-8.138-8.759-16.727-15.121-23.278-2.866-4.966-8.718-9.032-13.393-12.183-30.678-20.675-67.317-22.133-102.69-15.357z" fill="#710A07"/> <path transform="scale(3.0273)" d="m881.68 696.08c-1.002-1.823-0.867-4.943-1.122-7.084l-1.808-14.699c-4.036-34.021-12.309-64.335-33.161-92.12-15.922-21.215-40.541-35.542-66.837-39.094-21.824-2.947-45.231 1.403-64.833 11.295-9.079 4.581-17.123 10.217-25.208 16.338 4.862-11.376 15.269-20.187 24.609-27.833 15.005-12.282 31.594-23.271 50.78-27.69 3.941-0.908 8.285-1.757 12.329-1.808 9.42-0.119 19.262 0.841 28.654 1.671l7.839 0.844c0.665 0.096 2.697 0.579 3.328 0.383 0.571-0.176 1.007-0.644 1.511-0.966 4.071 1.286 9.162 1.836 12.856 3.956 4.544 2.573 9.334 4.86 13.606 7.871 21.795 15.365 36.304 39.201 43.38 64.613 9.588 34.434 6.939 71.107-5.923 104.32z" fill="#C23216"/> <path transform="scale(3.0273)" d="m782.1 526.2c3.312-0.545 7.082-0.149 10.405 0.243 8.911 1.051 16.825 3.475 24.863 7.432 15.783 7.77 29.442 20.99 37.964 36.377 3.344 6.037 5.549 12.163 7.762 18.658-2.169-2.321-3.853-5.731-5.587-8.422l-3.532-4.474c-15.731-19.533-34.462-35.519-58.967-42.713-8.604-2.525-17.693-3.764-26.585-4.724 4.331-1.636 9.099-1.969 13.677-2.377z" fill="#F48C26"/> <defs> <linearGradient id="i" x1="158.4" x2="264.52" y1="323.05" y2="458.01" gradientUnits="userSpaceOnUse"> <stop stop-color="#C83A04" offset="0"/> <stop stop-color="#EC1522" offset="1"/> </linearGradient> </defs> <path transform="scale(3.0273)" d="m188.67 297.32c4.154 0.159 8.464-0.059 12.583 0.365 5.15 0.531 10.226 1.689 15.381 2.134l3.765 1.884 0.695-0.075c1.249-1.088 1.605-1.672 3.368-1.582 5.591 0.287 13.119 7.722 16.394 11.858 5.613 7.086 9.485 14.537 10.663 23.592l0.141 1.013c0.566 4.183-1.399 8.8-0.586 12.635 0.62 2.925 2.892 5.975 4.252 8.635 1.914 2.858 4.059 6.144 5.326 9.334l0.111 0.96c0.432 2.921 3.296 6.058 4.871 8.596 2.25 3.624 4.457 7.449 6.244 11.325 5.115 11.09 8.372 21.521 10.562 33.53 1.196 6.559 0.872 14.714-0.49 21.222-1.313 6.267-3.118 12.226-6.47 17.75l-0.436 0.73c-4.161 6.83-10.426 12.188-17.375 15.993-2.486 1.361-5.436 2.52-7.398 4.602-3.272 0.737-6.488 2.192-9.77 3.038-9.883 2.548-21.926 4.082-32.094 2.334-5.772-0.993-11.219-2.552-16.546-5.029-10.568-4.915-19.483-14.239-23.417-25.238-6.657-18.616 3.412-34.862 12.884-50.286 5.489-8.938 11.076-17.674 15.629-27.141-16.457-6.249-29.911-15.747-43.045-27.32-2.949-0.363-6.013 0.497-8.917 0.999-17.009 2.935-33.325 9.251-47.334 19.418 0.2373-2.371 2.1954-3.812 3.7927-5.429l-0.996-1.04-1.957 1.422c-0.8256-0.217-1.1152-0.152-1.7027-0.805l-0.0323-0.902c0.1183-0.738 0.2886-1.409 0.5557-2.109 8.0763-21.153 23.935-39.158 43.491-50.425 5.702-3.285 11.712-5.641 17.73-8.248-0.467-0.614-0.706-1.551-0.989-2.274 2.541-0.609 6.048-1.052 8.303-2.285 0.435-0.602 1.106-1.089 1.662-1.584 0.801 0.933 1.318 1.246 2.468 1.673l0.893-0.828 17.79-2.442z" fill="url(#i)"/> <path transform="scale(3.0273)" d="m156.9 351.53c13.536-1.692 28.807-0.748 42.34 0.757 9.915 1.102 20.327 2.97 30.315 2.16 1.444-0.203 2.773-0.397 4.237-0.269-3.842 9.341-8.073 16.312-15.893 22.925-7.482 2.856-13.048 4.176-20.943 2.403-16.457-6.249-29.911-15.747-43.045-27.32 1.007-0.5 1.887-0.543 2.989-0.656z" fill="#F48C26"/> <path transform="scale(3.0273)" d="m153.91 352.18c1.007-0.5 1.887-0.543 2.989-0.656 11.068 7.335 21.725 15.272 33.938 20.665 5.761 2.544 12.22 4.657 18.604 3.473 5.962-1.105 12.45-6.373 15.57-11.431 1.874-3.039 3.124-6.521 4.543-9.79 1.444-0.203 2.773-0.397 4.237-0.269-3.842 9.341-8.073 16.312-15.893 22.925-7.482 2.856-13.048 4.176-20.943 2.403-16.457-6.249-29.911-15.747-43.045-27.32z" fill="#D15502"/> <path transform="scale(3.0273)" d="m233.79 354.18c1.887-1.135 3.286-1.207 5.458-1.205 1.574 1.614 1.133 8.939 1.1 11.355l-1.162 32.461c-0.309 5.98-0.308 12.222-1.243 18.134 0.858 5.117 0.138 10.531-0.92 15.58-1.484 7.084-4.004 14.616-10.515 18.602-4.487 2.746-9.966 3.111-14.957 1.718-4.967-1.385-9.16-4.53-11.612-9.105-7.972-14.876 5.137-34.898 9.493-49.396-2.498-2.862-4.839-4.981-7.992-7.08-6.145 5.855-9.902 13.978-14.224 21.166-5.757 9.574-12.853 18.782-15.248 29.935-1.924 8.96-0.34 16.979 4.546 24.66l1.061 1.59c7.342 9.455 19.104 14.767 30.764 16.241 16.089 2.035 33.853-1.808 46.776-11.886 8.14-6.347 14.924-15.053 17.45-25.208 5.618-22.589-7.138-47.596-13.895-68.65-1.38-4.301-4.059-10.383-3.422-14.868l0.075-0.436c1.914 2.858 4.059 6.144 5.326 9.334l0.111 0.96c0.432 2.921 3.296 6.058 4.871 8.596 2.25 3.624 4.457 7.449 6.244 11.325 5.115 11.09 8.372 21.521 10.562 33.53 1.196 6.559 0.872 14.714-0.49 21.222-1.313 6.267-3.118 12.226-6.47 17.75l-0.436 0.73c-4.161 6.83-10.426 12.188-17.375 15.993-2.486 1.361-5.436 2.52-7.398 4.602-3.272 0.737-6.488 2.192-9.77 3.038-9.883 2.548-21.926 4.082-32.094 2.334-5.772-0.993-11.219-2.552-16.546-5.029-10.568-4.915-19.483-14.239-23.417-25.238-6.657-18.616 3.412-34.862 12.884-50.286 5.489-8.938 11.076-17.674 15.629-27.141 7.895 1.773 13.461 0.453 20.943-2.403 7.82-6.613 12.051-13.584 15.893-22.925z" fill="#AD240E"/> <path transform="scale(3.0273)" d="m233.79 354.18c1.887-1.135 3.286-1.207 5.458-1.205 1.574 1.614 1.133 8.939 1.1 11.355l-1.162 32.461c-0.309 5.98-0.308 12.222-1.243 18.134-2.57 8.038-2.102 18.468-6.516 25.664-2.505 4.085-6.475 7.027-11.158 8.096-3.047 0.697-5.613 0.188-8.176-1.618-3.623-2.551-5.402-6.975-6.116-11.213l-0.096-0.599c-2.264-13.307 2.723-27.351 6.656-39.853l5.36-18.297c7.82-6.613 12.051-13.584 15.893-22.925z" fill="#710A07"/> <defs> <linearGradient id="h" x1="180.01" x2="155.17" y1="366.36" y2="307.14" gradientUnits="userSpaceOnUse"> <stop stop-color="#FE7A03" offset="0"/> <stop stop-color="#FFB707" offset="1"/> </linearGradient> </defs> <path transform="scale(3.0273)" d="m188.67 297.32c4.154 0.159 8.464-0.059 12.583 0.365 5.15 0.531 10.226 1.689 15.381 2.134l3.765 1.884 0.695-0.075c8.596 4.63 15.755 12.574 18.681 22.012 1.626 5.247 3.025 11.981 7e-3 17.002-1.159 1.928-3.022 3.359-5.01 4.339l-52.771-2.452c-24.43 0.06-49.648 4.482-70.81 17.236-3.476 2.095-6.451 5.013-9.737 7.402l-0.996-1.04-1.957 1.422c-0.8256-0.217-1.1152-0.152-1.7027-0.805l-0.0323-0.902c0.1183-0.738 0.2886-1.409 0.5557-2.109 8.0763-21.153 23.935-39.158 43.491-50.425 5.702-3.285 11.712-5.641 17.73-8.248-0.467-0.614-0.706-1.551-0.989-2.274 2.541-0.609 6.048-1.052 8.303-2.285 0.435-0.602 1.106-1.089 1.662-1.584 0.801 0.933 1.318 1.246 2.468 1.673l0.893-0.828 17.79-2.442z" fill="url(#h)"/> <path transform="scale(3.0273)" d="m165.86 300.5c0.435-0.602 1.106-1.089 1.662-1.584 0.801 0.933 1.318 1.246 2.468 1.673l-0.2 2.297c9.755-0.754 19.113-2.316 28.964-1.828 6.249 0.31 12.447 1.59 18.682 2.089-0.115 1.875 0.149 5.645-0.717 7.196-20.516 1.3-42.409 3.453-61.7 10.924-12.274 4.754-23.054 11.561-32.92 20.231-3.857 3.389-8.242 7.104-11.507 11.049-0.578 0.698-0.933 1.415-1.338 2.214-2.279 4.491-6.857 6.828-8.793 11.365l-1.957 1.422c-0.8256-0.217-1.1152-0.152-1.7027-0.805l-0.0323-0.902c0.1183-0.738 0.2886-1.409 0.5557-2.109 8.0763-21.153 23.935-39.158 43.491-50.425 5.702-3.285 11.712-5.641 17.73-8.248-0.467-0.614-0.706-1.551-0.989-2.274 2.541-0.609 6.048-1.052 8.303-2.285z" fill="#FED484"/> <path transform="scale(3.0273)" d="m165.86 300.5c0.435-0.602 1.106-1.089 1.662-1.584 0.801 0.933 1.318 1.246 2.468 1.673l-0.2 2.297-6.349 1.498c-0.922 0.266-2.497 0.977-3.42 0.98l-1.475-0.305c-0.467-0.614-0.706-1.551-0.989-2.274 2.541-0.609 6.048-1.052 8.303-2.285z" fill="#E4481D"/> <path transform="scale(3.0273)" d="m158.54 305.06 1.475 0.305-0.381 0.307c-3.439 2.679-7.8 3.909-11.556 6.089-10.937 6.351-21.051 14.564-29.429 24.046-5.904 6.683-10.531 14.595-15.53 21.939-2.066 3.035-3.044 6.174-6.356 8.096 0.1183-0.738 0.2886-1.409 0.5557-2.109 8.0763-21.153 23.935-39.158 43.491-50.425 5.702-3.285 11.712-5.641 17.73-8.248z" fill="#FEAB01"/> <path transform="scale(3.0273)" d="m591.03 571.81c-6.447-19.553-7.19-38.923-4.868-59.277 5.059-44.342 28.637-85.633 63.609-113.22 37.615-29.67 85.726-43.066 133.33-37.249 41.368 5.055 79.875 23.033 105.76 56.391l3.956 5.537c-8.767-2.642-17.473-5.081-26.572-6.296-25.112-3.355-49.715 1.917-71.975 13.701l-0.874 0.489c-7.407 0.194-15.02-0.312-22.378 0.343-41.342 3.682-79.98 20.113-108.76 50.417-25.021 26.349-39.278 68.171-38.35 104.31l-5.836-1.751c-9.063-3.618-19.227-7.398-27.046-13.4z" fill="#C23216"/> <path transform="scale(3.0273)" d="m765.78 373.7c5.017-0.779 11.114-0.281 16.174 0.013-1.802 1.051-5.038 0.845-7.161 1.08l-17.243 2.128c-7.223 1.019-14.325 3.053-21.246 5.299-23.95 7.774-45.911 20.73-64.283 37.947-38.264 35.856-58.76 86.628-60.501 138.7l-0.135 15.38c-1.832-6.291-3.051-12.164-3.636-18.705-0.754-8.424-0.392-17.13 0.218-25.55 2.696-37.189 14.903-71.352 38.937-100.13 21.142-25.316 52.644-43.367 84.513-51.124 11.328-2.757 22.777-4.016 34.363-5.043z" fill="#F48C26"/> <path transform="scale(3.0273)" d="m618.08 585.21c-0.227-11.471-0.856-23.252 0.388-34.67 1.165-10.683 4.209-21.358 8.069-31.358 11.644-30.171 31.632-56.58 55.094-78.567 14.835-13.902 30.668-25.91 49.368-34.107 42.002-18.409 90.872-18.778 133.29-1.797 5.53 2.214 10.839 4.966 15.854 8.178 2.762 1.768 5.161 4.21 8.218 5.381l0.509 0.187 3.956 5.537c-8.767-2.642-17.473-5.081-26.572-6.296-25.112-3.355-49.715 1.917-71.975 13.701l-0.874 0.489c-7.407 0.194-15.02-0.312-22.378 0.343-41.342 3.682-79.98 20.113-108.76 50.417-25.021 26.349-39.278 68.171-38.35 104.31l-5.836-1.751z" fill="#891D0A"/> <defs> <linearGradient id="g" x1="207.63" x2="446.03" y1="71.098" y2="278.57" gradientUnits="userSpaceOnUse"> <stop stop-color="#BB0E0B" offset="0"/> <stop stop-color="#930D15" offset="1"/> </linearGradient> </defs> <path transform="scale(3.0273)" d="m180.92 242.15c-0.409-1.429-0.407-2.232 0.134-3.647 1.918-5.016 8.949-8.208 13.505-10.111l-5.752-5.838c-16.837-18.24-22.392-47.521-21.29-71.523 0.737-16.046 5.748-31.795 13.027-46.028 3.312-6.4758 7.035-12.865 12.526-17.75 1.846-1.6425 4.73-4.2854 7.322-4.0647 1.733 0.1474 3.022 0.8242 3.982 2.2795 3.185 4.8298 4.763 11.805 7.357 17.119 5.332 10.928 12.916 19.963 20.554 29.318 0.882-2.222 1.111-4.743 1.595-7.08 5.898-28.5 29.177-53.824 52.827-69.442 13.373-8.8312 28.942-14.65 45.107-14.931 3.867-0.0671 7.914-0.1263 11.714 0.6993 4.047 0.879 8.185 3.3078 10.326 6.9614 2.067 3.5284 2.406 7.9697 1.954 11.967-1.436 12.706-7.757 24.606-12.823 36.192-2.328 5.3257-4.301 10.493-5.943 16.071l14.494-10.188c24.538-16.805 55.452-22.438 84.543-16.73 7.57 1.4856 17.396 4.3626 21.746 11.243 2.103 3.3266 2.491 7.5879 1.486 11.361-1.015 3.807-3.497 7.168-6.03 10.107-8.412 9.762-19.289 15.362-30.419 21.303 7.62-0.812 15.021-1.814 22.709-1.827 10.605-0.018 22.035 1.971 32.082 5.227 9.241 2.994 21.277 7.826 25.829 17.093 2.3 4.681 2.636 9.453 0.839 14.374l-0.264 0.697c-0.68 1.834-1.551 3.475-2.636 5.106-9.492 14.252-27.294 20.158-43.295 23.316l16.956 5.102c5.876 2.12 11.976 5.342 14.574 11.359 1.453 3.367 0.993 7.404-0.548 10.668-2.38 5.041-8.058 8.515-13.217 10.213-20.149 6.635-43.841-2.575-61.808-11.602-7.294-6.098-14.209-12.807-21.823-18.49-19.448-14.514-44.96-23.76-69.417-21.454-27.573 2.6-53.259 19.27-70.571 40.342l-8.622 11.418c-2.048 2.985-4.084 6.711-6.712 9.217-10.832-1.437-19.004-3.833-28.325-9.749-1.709 1.345-2.877 2.323-5.067 2.73-6.366 0.146-12.806 1.494-19.109 2.456-1.776-0.717-2.722-1.845-3.517-3.485z" fill="url(#g)"/> <path transform="scale(3.0273)" d="m183.37 241.86c1.899-2.977 3.908-6.221 6.866-8.261 1.611-1.111 3.415-1.749 5.36-1.297 3.544 0.823 7.153 4.238 9.07 7.223l3.951 0.922c-1.709 1.345-2.877 2.323-5.067 2.73-6.366 0.146-12.806 1.494-19.109 2.456-1.776-0.717-2.722-1.845-3.517-3.485 1.035-0.344 1.348-0.514 2.446-0.288z" fill="#C23216"/> <path transform="scale(3.0273)" d="m204.66 239.52 3.951 0.922c-1.709 1.345-2.877 2.323-5.067 2.73-6.366 0.146-12.806 1.494-19.109 2.456-1.776-0.717-2.722-1.845-3.517-3.485 1.035-0.344 1.348-0.514 2.446-0.288 7.295 0.83 14.169-1.141 21.296-2.335z" fill="#710A07"/> <path transform="scale(3.0273)" d="m232.97 244.43-2.666-14.073c-2.754-15.852-3.554-39.147 6.176-52.932 3.396 1.712 6.199 4.186 9.187 6.495l8.992 6.806c1.484-2.524 1.919-6.562 2.762-9.432 5.692-19.386 19.93-32.374 37.151-41.815 1.899 8.55 2.806 18.44 6.738 26.287 1.946-1.278 3.573-3.136 5.352-4.65l8.114-6.323c12.317-9.031 25.251-13.642 39.516-18.621 1.7 7.786 2.245 15.02 5.627 22.372 5.605-2.125 11.185-4.368 16.583-6.981l16.401-7.718c3.503-1.526 6.808-3.127 10.611-3.745-5.991 6.35-12.762 10.047-17.335 17.805 9.598-2.799 18.667-7.025 28.248-9.766 9.372-2.682 19.211-3.224 28.908-3.12l-22.333 10.999c-13.264 6.621-29.314 14.197-34.304 29.385-1.055 3.214-1.392 6.579-1.829 9.917-8.472-3.599-16.691-7.453-25.515-10.158-19.308-5.922-42.797-5.362-61.548 2.135-18.305 7.319-33.474 19.768-46.823 34.059-2.996 3.207-5.811 6.632-8.447 10.141l-5.615 8.212c-1.063 1.67-2.108 3.937-3.951 4.721z" fill="#C23216"/> <path transform="scale(3.0273)" d="m319.62 48.412c7.304-3.084 18.121-4.6416 25.658-1.6239 1.953 0.7815 3.931 2.21 4.75 4.2118 0.39 0.9556 0.276 0.7282 0.531 1.75l0.135 0.4986c2.283 9.218-4.197 20.632-7.805 28.841l-11.741 25.82c-3.069 7.003-5.906 14.268-7.169 21.841-0.319 1.912-1.111 4.706 0.516 6.104 2.444-0.383 4.645-2.469 6.505-4.02l14.044-12.233c1.94-1.639 4.191-3.854 6.628-4.617l7.977-6.706c18.701-14.466 44.359-18.553 67.364-15.631 5.762 0.6953 13.696 1.9844 17.348 7.0486 0.797 1.1061 1.195 2.5681 0.942 3.9151-0.621 3.316-2.833 6.456-4.977 8.984-6.092 7.183-14.205 13.529-22.158 18.51l-14.661 8.998c-3.803 0.618-7.108 2.219-10.611 3.745l-16.401 7.718c-5.398 2.613-10.978 4.856-16.583 6.981-3.382-7.352-3.927-14.586-5.627-22.372-14.265 4.979-27.199 9.59-39.516 18.621l-8.114 6.323c-1.779 1.514-3.406 3.372-5.352 4.65-3.932-7.847-4.839-17.737-6.738-26.287-17.221 9.441-31.459 22.429-37.151 41.815-0.843 2.87-1.278 6.908-2.762 9.432l-8.992-6.806c-2.988-2.309-5.791-4.783-9.187-6.495-9.73 13.785-8.93 37.08-6.176 52.932l2.666 14.073c-4.532 0.472-10.805-1.983-14.992-3.79-10.099-4.357-23.194-13.493-27.403-24.036-7.932-11.84-12.972-23.158-16.505-36.944-7.143-27.879 0.443-56.606 14.816-80.729 3.036-5.0747 6.256-8.6056 10.651-12.525 2.172 8.4013 3.714 17.069 6.53 25.28 3.732 10.881 9.961 20.698 17.25 29.531 4.495 5.447 9.105 10.576 15.231 14.206l3.166 1.829c-1.231-9.488-3.161-21.032-0.762-30.38 0.855-8.243 4.289-16.78 8.495-23.874 16.17-27.278 39.208-46.734 70.18-54.588z" fill="#E4481D"/> <path transform="scale(3.0273)" d="m351.68 114.98 7.977-6.706c18.701-14.466 44.359-18.553 67.364-15.631-3.563 2.0471-8.839 2.4046-12.851 3.3367l-13.709 3.8941c-19.746 6.1609-37.757 15.826-54.948 27.22l6.167-12.114z" fill="#FC754E"/> <path transform="scale(3.0273)" d="m188.88 98.934c0.084 2.5502-1.335 4.6092-2.047 6.9992-0.873 2.934-1.52 6.002-1.934 9.035-0.892 6.533-0.966 13.117-0.954 19.7 0.032 16.941 2.289 33.874 8.896 49.595 3.346 7.963 7.996 16.532 13.905 22.893 2.79 3.002 7.676 6.312 9.51 9.833 1.14 2.189 1.049 4.67-0.808 6.409-1.601 1.5-4.743 1.443-6.849 1.286-7.193-0.537-11.769-5.894-18.03-8.077-7.932-11.84-12.972-23.158-16.505-36.944-7.143-27.879 0.443-56.606 14.816-80.729z" fill="#FC754E"/> <path transform="scale(3.0273)" d="m319.62 48.412c3.341 0.4378 7.459-0.1163 10.375 1.6548l0.25 0.8447c-3.472 3.5269-7.687 6.157-11.736 8.9676-4.619 3.206-9.38 6.7585-13.674 10.381-19.961 16.841-37.612 38.792-47.174 63.271-2.738 7.012-4.361 14.324-6.754 21.447-2.112-1.619-3.337-4.075-4.363-6.478-1.979-4.64-3.411-9.542-4.383-14.488-0.462-2.35-0.564-4.841-1.216-7.138 0.855-8.243 4.289-16.78 8.495-23.874 16.17-27.278 39.208-46.734 70.18-54.588z" fill="#FC754E"/> <path transform="scale(3.0273)" d="m368.2 552.33 8.681-25.943 1.102 18.863c0.713 10.12 1.617 23.797 7.554 32.377-14.643 17.51-25.28 41.757-23.278 65.048l0.158 1.644c0.779 26.72 12.828 49.246 29.336 69.636 3.376 4.169 6.428 8.585 10.378 12.263 3.716 3.46 6.795 4.961 11.773 4.727 1.459-0.068 2.631-1.113 3.604-2.169 4.543-4.923 4.623-9.999 4.617-16.291 5.853 8.599 10.595 18.711 17.531 26.431 4.535 5.048 10.171 8.859 15.849 12.497 20.851 13.358 45.902 22.134 70.157 26.728 35.337 6.693 71.136 5.818 106.25-1.818l20.899-5.046c4.008-1.121 8.027-3.247 12.177-3.566-4.061 4.557-8.079 9.253-12.488 13.473-21.977 21.034-47 35.869-75.992 44.915 3.117 8.767 4.541 17.761 4.246 27.055l-12.589-7.082 2.453 26.954c-1.978-1.448-4.22-3.545-6.504-4.381l-0.842 1.477c-7.109 5.549-16.972 10.918-26.31 9.703l-1.46-0.269-0.638-0.124c-2.711-0.589-5.42-2.029-7.951-3.157-12.157-10.706-24.422-20.755-35.85-32.289l-9.917-10.15c-0.349-0.368-2.191-2.602-2.511-2.697-0.342-0.101-2.626 0.467-3.118 0.553l-10.954 1.669c-10.615 1.154-22.376 0.529-33.03-0.214 2.48 4.986 4.826 9.763 6.426 15.125l-14.683-3.668c1.854 6.344 3.183 12.135 3.26 18.797-4.124-0.395-7.521-1.223-11.437-2.524l0.22 4.815c-2.202 0.875-4.711 1.488-7.067 1.716-9.556 0.925-14.785-1.763-22.039-7.599l2.562 6.721-9.752-5.433c-19.048-22.057-34.094-45.55-44.99-72.655-3.827-3.735-9.194-6.496-13.663-9.464-6.84-4.542-13.287-9.245-19.407-14.743-2.837-1.778-5.491-4.694-7.974-6.958-17.624-16.072-31.064-35.492-42.453-56.316-6.143-11.077-10.829-23.805-14.311-35.928-6.371-22.18-8.016-46.31-3.78-69.033 1.269-6.804 2.827-13.605 6.205-19.709 0.774 3.152-0.71 5.975-0.429 9.135 0.394 4.425 3.276 9.088 6.72 11.824 3.933 3.124 10.231 5.29 15.311 4.732 18.325-2.014 35.372-18.315 46.148-32.097-2.245 5.739-4.983 14.632-2.57 20.585 1.399 3.451 3.779 5.509 7.172 6.92 6.885 2.865 13.378 0.673 19.851-2.206 16.311-7.253 31.014-26.544 37.344-42.854z" fill="#0B363B"/> <path transform="scale(3.0273)" d="m618.25 783.66c1.086-0.149 1.915-0.231 2.996-0.026-0.561 1.964-2.81 4.348-4.186 5.905-7.589 8.587-15.077 15.786-27.09 16.463-1.196-0.428-2.5-0.989-3.224-2.093-2.447-3.732-1.196-10.702-0.704-14.928l32.208-5.321z" fill="#135A58"/> <path transform="scale(3.0273)" d="m300.96 764.24c1.247-0.497 1.891-0.656 3.238-0.392 6.244 1.226 12.583 3.598 18.736 5.304 11.693 3.241 23.667 5.694 35.744 6.948 13.158 1.367 25.834 0.391 38.71-2.689 4.553-1.089 11.224-2.332 15.111-4.959l11.717 8.13c3.133 2.035 7.228 3.393 9.762 6.181 1.569 1.725 2.419 4.682 3.387 6.797l4.971 9.779c4.297 7.628 10.441 14.528 14.323 22.288-14.528-0.485-29.358-1.679-43.658-4.372-25.625-4.826-49.715-14.134-72.44-26.822-2.094-1.169-4.116-3.025-6.531-1.986-3.827-3.735-9.194-6.496-13.663-9.464-6.84-4.542-13.287-9.245-19.407-14.743z" fill="#135A58"/> <defs> <linearGradient id="f" x1="247.25" x2="409.27" y1="710.48" y2="771.28" gradientUnits="userSpaceOnUse"> <stop stop-color="#28614D" offset="0"/> <stop stop-color="#517C52" offset="1"/> </linearGradient> </defs> <path transform="scale(3.0273)" d="m255.29 694.28c6.906 9.109 13.536 17.519 23.002 24.148 2.37 1.659 4.917 3.5 7.705 4.36l15.75 15.809-6.666-10.012c2.24-0.241 4.864 1.161 6.966 1.883 3.598 1.236 7.397 2.385 11.158 2.981 4.638 0.735 9.552 1.538 14.253 1.545 14.091 0.019 27.582-4.988 38.908-13.127l0.63 0.295c3.598 5.667 8.675 11.115 13.196 16.072 10.056 11.023 20.614 20.933 32.304 30.21-3.887 2.627-10.558 3.87-15.111 4.959-12.876 3.08-25.552 4.056-38.71 2.689-12.077-1.254-24.051-3.707-35.744-6.948-6.153-1.706-12.492-4.078-18.736-5.304-1.347-0.264-1.991-0.105-3.238 0.392-2.837-1.778-5.491-4.694-7.974-6.958-17.624-16.072-31.064-35.492-42.453-56.316 0.91-1.411 0.894-2.719 1.46-4.211 0.713-1.877 1.561-1.8 3.3-2.467z" fill="url(#f)"/> <path transform="scale(3.0273)" d="m429.3 761.27c29.25 13.844 59.925 24.344 91.948 29.562l29.772 3.451c2.074 19.423 2.961 39.547 1.379 59.022-2.363-4.054-4.334-8.337-6.982-12.218-3.128-4.584-6.818-8.297-10.91-12.015l2.45 8.232 4.714 13.564c1.299 3.743 3.26 8.597 2.652 12.577-0.323 2.119-1.091 4.305-3.091 5.412-1.857 1.028-4.797 0.94-6.797 0.451-11.006-2.686-21.072-12.609-29.432-19.773-8.725-7.478-18.13-14.726-26.374-22.694-20.017-19.346-34.787-42.091-49.329-65.571z" fill="#135A58"/> <path transform="scale(3.0273)" d="m368.2 552.33c1.775 1.793 1.66 3.646 2.266 5.948l3.145 10.909c1.429 4.408 3.442 8.303 5.375 12.484-17.112 17.73-22.645 36.948-22.201 61.254 0.291 15.914 3.595 30.728 8.279 45.894 2.059 6.665 5.429 13.701 5.941 20.681 0.343 4.669-0.744 8.893-3.861 12.532l-0.139 0.133-0.63-0.295c-11.326 8.139-24.817 13.146-38.908 13.127-4.701-7e-3 -9.615-0.81-14.253-1.545-3.761-0.596-7.56-1.745-11.158-2.981-2.102-0.722-4.726-2.124-6.966-1.883l6.666 10.012-15.75-15.809c-2.788-0.86-5.335-2.701-7.705-4.36-9.466-6.629-16.096-15.039-23.002-24.148-1.739 0.667-2.587 0.59-3.3 2.467-0.566 1.492-0.55 2.8-1.46 4.211-6.143-11.077-10.829-23.805-14.311-35.928-6.371-22.18-8.016-46.31-3.78-69.033 1.269-6.804 2.827-13.605 6.205-19.709 0.774 3.152-0.71 5.975-0.429 9.135 0.394 4.425 3.276 9.088 6.72 11.824 3.933 3.124 10.231 5.29 15.311 4.732 18.325-2.014 35.372-18.315 46.148-32.097-2.245 5.739-4.983 14.632-2.57 20.585 1.399 3.451 3.779 5.509 7.172 6.92 6.885 2.865 13.378 0.673 19.851-2.206 16.311-7.253 31.014-26.544 37.344-42.854z" fill="#609D72"/> <path transform="scale(3.0273)" d="m286 722.79-0.21-0.384c-4.329-7.776-10.253-14.736-14.756-22.445-12.414-21.254-21.74-46.276-22.014-71.139-0.046-4.192-0.233-8.631 0.376-12.782 2.353 10.094 3.455 20.411 5.994 30.459 6.132 24.263 16.381 46.292 29.571 67.487 3.04 4.885 6.215 10.354 10.123 14.601l6.666 10.012-15.75-15.809z" fill="#A2D9C5"/> <path transform="scale(3.0273)" d="m281.64 629.1c3.34-0.11 6.53-0.029 9.839 0.557 8.973 1.588 18.751 8.452 23.715 16.003 3.25 4.944 6.038 10.177 7.393 15.984 1.732 7.426 2.242 16.296-2.108 22.978-2.926 4.495-8.471 6.673-13.479 7.787-9.094 0.336-15.658-1.646-23.005-6.876-2.886-2.054-5.741-4.739-7.939-7.514-5.283-6.669-8.92-13.242-10.904-21.564-1.501-6.299-0.337-13.795 3.252-19.216 3.194-4.824 7.736-7.057 13.236-8.139z" fill="#7DB488"/> <defs> <linearGradient id="e" x1="229.84" x2="381.98" y1="614.93" y2="639.6" gradientUnits="userSpaceOnUse"> <stop stop-color="#00414C" offset="0"/> <stop stop-color="#115F5D" offset="1"/> </linearGradient> </defs> <path transform="scale(3.0273)" d="m368.2 552.33c1.775 1.793 1.66 3.646 2.266 5.948l3.145 10.909c1.429 4.408 3.442 8.303 5.375 12.484-17.112 17.73-22.645 36.948-22.201 61.254 0.291 15.914 3.595 30.728 8.279 45.894 2.059 6.665 5.429 13.701 5.941 20.681 0.343 4.669-0.744 8.893-3.861 12.532l-0.139 0.133-0.63-0.295-10.832-16.393c-14.235-22.943-22.412-51.942-20.002-78.977 0.697-7.823 2.538-15.522 4.344-23.147-6.946 3.218-13.166 5.971-20.836 6.936-4.753 0.598-10.182-1.072-13.889-4.097-4.349-3.548-6.175-8.325-6.828-13.747l-0.073-0.647c-2.077 1.098-4.016 3.037-5.838 4.537-6.763 5.57-12.854 10.567-21.592 12.6l-0.824 0.187c-5.231 1.223-9.706 1.191-14.958 0.152-7.428-1.47-11.783-5.545-15.842-11.615-0.723 6.619-1.573 13.341-1.667 19.997-0.376 26.684 5.598 52.916 17.761 76.627-1.739 0.667-2.587 0.59-3.3 2.467-0.566 1.492-0.55 2.8-1.46 4.211-6.143-11.077-10.829-23.805-14.311-35.928-6.371-22.18-8.016-46.31-3.78-69.033 1.269-6.804 2.827-13.605 6.205-19.709 0.774 3.152-0.71 5.975-0.429 9.135 0.394 4.425 3.276 9.088 6.72 11.824 3.933 3.124 10.231 5.29 15.311 4.732 18.325-2.014 35.372-18.315 46.148-32.097-2.245 5.739-4.983 14.632-2.57 20.585 1.399 3.451 3.779 5.509 7.172 6.92 6.885 2.865 13.378 0.673 19.851-2.206 16.311-7.253 31.014-26.544 37.344-42.854z" fill="url(#e)"/> <defs> <linearGradient id="d" x1="826.01" x2="570.44" y1="751.25" y2="418.16" gradientUnits="userSpaceOnUse"> <stop stop-color="#132D30" offset="0"/> <stop stop-color="#0F5F59" offset="1"/> </linearGradient> </defs> <path transform="scale(3.0273)" d="m623.92 586.96c-0.928-36.142 13.329-77.964 38.35-104.31 28.777-30.304 67.415-46.735 108.76-50.417 7.358-0.655 14.971-0.149 22.378-0.343 7.11 0.588 14.331 1.06 21.36 2.316 32.736 5.848 61.737 24.949 82.82 50.272 14.87 17.86 23.461 38.091 28.295 60.622 2.472 16.22 4.927 33.233 3.251 49.654-3.799-7.325-7.968-14.169-13.21-20.583-16.818-20.575-42.528-37.297-66.465-48.372-5.703-2.638-12.516-5.871-18.835-6.523-3.694-2.12-8.785-2.67-12.856-3.956l-18.258-3.356c-11.962-1.274-25.004-2.306-37.001-0.693-20.649 2.777-39.931 14.003-55.934 26.87l-19.852 19.433-11.437 20.603-6.842 15.396 41.752-13.2c35.372-6.776 72.011-5.318 102.69 15.357 4.675 3.151 10.527 7.217 13.393 12.183 3.403 13.137 7.025 26.225 8.832 39.702 4.494 33.524-0.777 72.718-18.147 102.14-10.684 18.097-24.872 31.734-43.833 40.978-3.968 1.934-8.487 4.155-12.777 5.16l-0.415 0.079c4.707-4.709 9.26-9.407 12.918-15.015 8.527-13.068 10.904-28.008 10.868-43.292-0.065-27.458-8.984-57.149-26.815-78.402 1.535 6.158 3.101 12.383 3.511 18.742 0.951 14.754-3.161 28.815-10.678 41.424-7.781 13.054-18.976 23.545-32.1 31.092 7.39-17.025 10.79-32.697 6.571-51.056 2.531-4.002 4.356-8.895 6.158-13.277 3.692-8.975 6.955-17.843 8.724-27.411l1.935-8.044c-4.784 2.539-9.131 6.021-13.81 8.787-10.211 6.035-21.392 11.067-32.664 14.745-2.975 0.971-6.051 2.31-9.121 2.898 2.159-3.158 6.671-5.854 9.473-8.7 10.689-10.859 20.177-24.294 24.257-39.105 3.108-10.812 4.607-20.807 5.84-31.945l-17.185 12.866-26.154 13.051-12.632 3.95c4.806-8.735 9.429-17.115 12.927-26.48-14.341 2.398-28.973 3.793-43.522 3.134-25.27-1.145-51.219-7.368-74.932-15.924-11.89-4.291-23.444-9.961-35.465-13.794-4.148-2.923-9.178-4.175-13.893-5.873-10.393-3.743-20.755-7.181-31.586-9.392-4.533-0.926-8.925-1.89-13.57-1.931-12.115-1.902-24.284-2.106-36.486-0.949-4.797 0.455-9.734 0.857-14.347 2.326l0.368-0.881c1.682-5.306 4.746-9.814 6.729-14.991 2.63-6.865 4.242-14.151 7.021-20.938 3.193 3.041 5.938 6.469 9.256 9.402 6.762 5.976 16.277 10.341 25.047 12.266 2.87 0.63 6.042 0.947 8.944 0.294 1.037-2.002 1.349-4.063 1.764-6.249 1.23-6.474 0.739-13.561 0.72-20.154 0.576-0.352 1.381 0.187 1.99 0.402 5.765 2.038 11.485 3.731 17.448 5.093 5.413 1.236 10.513 1.693 16.06 1.249 4.086-0.327 6.705-0.596 9.422-3.857 20.128 20.585 42.218 38.917 68.112 51.78 7.819 6.002 17.983 9.782 27.046 13.4l5.836 1.751z" fill="url(#d)"/> <path transform="scale(3.0273)" d="m900 540.25c0.938 0.165 1.389 0.666 2 1.411 1.952 2.38 7.811 7.931 7.75 10.985l-0.447-0.417c-1.483-1.49-9.309-10.572-9.303-11.979z" fill="#0B363B"/> <path transform="scale(3.0273)" d="m773.22 607.8c7 6.205 13.004 14.482 18.246 22.175 18.538 27.207 25.954 57.082 24.347 89.725-0.302 6.141-0.416 12.389-1.568 18.434-0.543 0.656-0.202 0.431-1.026 0.669 1.45-11.755 0.812-23.172-0.689-34.876-3.17-24.709-10.975-49.262-22.926-71.134-4.835-8.85-10.624-16.756-16.384-24.993z" fill="#3EA29B"/> <defs> <linearGradient id="c" x1="709.04" x2="725.12" y1="517.85" y2="551.65" gradientUnits="userSpaceOnUse"> <stop stop-color="#15655D" offset="0"/> <stop stop-color="#0C787E" offset="1"/> </linearGradient> </defs> <path transform="scale(3.0273)" d="m675.28 578.17c-1.1-1.644-1.223-2.791-1.017-4.727 0.62-5.85 3.552-11.867 6.344-16.985 7.533-13.81 17.62-26.62 29.888-36.532 7.586-6.128 16.951-12.4 26.209-15.679 9.314-3.299 20.822-4.5 30.543-3.475-4.299 1.062-8.771 1.888-12.996 3.174-6.881 2.096-13.833 5.375-20.219 8.666-15.895 8.193-30.397 20.668-41.22 34.865-2.173 2.85-4.92 6.236-5.969 9.652l-0.126 0.438-11.437 20.603z" fill="url(#c)"/> <path transform="scale(3.0273)" d="m623.92 586.96c-0.928-36.142 13.329-77.964 38.35-104.31 28.777-30.304 67.415-46.735 108.76-50.417 7.358-0.655 14.971-0.149 22.378-0.343 7.11 0.588 14.331 1.06 21.36 2.316 32.736 5.848 61.737 24.949 82.82 50.272 14.87 17.86 23.461 38.091 28.295 60.622-5.013 0.482-9.636-1.365-14.448-2.531l8.016 22.491c-4.36-6.315-6.313-13.772-9.171-20.781-2.727-6.689-6.18-13.5-9.547-19.902-6.832-9.05-13.816-17.749-22.226-25.406-17.646-16.067-42.075-27.625-65.75-30.945-28.749-4.031-57.351 0.854-83.587 13.149-8.272 3.876-16.68 8.447-23.946 14.009-24.747 18.947-41.97 43.428-54.65 71.7-1.654 3.686-3.234 7.449-4.533 11.275-1.06 3.122-1.583 7.297-3.452 9.992l-0.461 0.756c-3.726 0.282-7.75-0.483-11.459-0.913-2.246-0.26-4.607-0.273-6.746-1.031z" fill="#135A58"/> <path transform="scale(3.0273)" d="m642.58 588.15c-0.333-0.737-0.351-0.537-0.333-1.248 0.117-4.583 1.311-9.451 2.327-13.921 5.748-25.291 19.747-48.503 37.908-66.803 29.01-29.233 69.889-47.973 111.34-47.899 32.562 0.058 64.374 15.485 87.032 38.36 4.566 4.61 19.914 21.667 19.873 27.737-6.832-9.05-13.816-17.749-22.226-25.406-17.646-16.067-42.075-27.625-65.75-30.945-28.749-4.031-57.351 0.854-83.587 13.149-8.272 3.876-16.68 8.447-23.946 14.009-24.747 18.947-41.97 43.428-54.65 71.7-1.654 3.686-3.234 7.449-4.533 11.275-1.06 3.122-1.583 7.297-3.452 9.992z" fill="#3EA29B"/> <path transform="scale(3.0273)" d="m418.15 558.39c4.613-1.469 9.55-1.871 14.347-2.326 12.202-1.157 24.371-0.953 36.486 0.949 4.645 0.041 9.037 1.005 13.57 1.931 10.831 2.211 21.193 5.649 31.586 9.392 4.715 1.698 9.745 2.95 13.893 5.873 12.021 3.833 23.575 9.503 35.465 13.794 23.713 8.556 49.662 14.779 74.932 15.924 14.549 0.659 29.181-0.736 43.522-3.134-3.498 9.365-8.121 17.745-12.927 26.48l12.632-3.95 26.154-13.051 17.185-12.866c-1.233 11.138-2.732 21.133-5.84 31.945-4.08 14.811-13.568 28.246-24.257 39.105-2.802 2.846-7.314 5.542-9.473 8.7 3.07-0.588 6.146-1.927 9.121-2.898 11.272-3.678 22.453-8.71 32.664-14.745 4.679-2.766 9.026-6.248 13.81-8.787l-1.935 8.044c-1.769 9.568-5.032 18.436-8.724 27.411-1.802 4.382-3.627 9.275-6.158 13.277-5.277 7.654-10.618 15.053-17.956 20.916-4.374 3.495-9.175 6.739-14.134 9.353-1.373 0.723-5.2 2.01-6.027 3.116 7.721 1.194 15.26 1.349 23.061 1.515-7.903 12.7-19.415 21.161-32.675 27.807-3.742 1.875-7.978 3.318-11.489 5.544-4.15 0.319-8.169 2.445-12.177 3.566l-20.899 5.046c-35.117 7.636-70.916 8.511-106.25 1.818-24.255-4.594-49.306-13.37-70.157-26.728-5.678-3.638-11.314-7.449-15.849-12.497-6.936-7.72-11.678-17.832-17.531-26.431 6e-3 6.292-0.074 11.368-4.617 16.291-0.973 1.056-2.145 2.101-3.604 2.169-4.978 0.234-8.057-1.267-11.773-4.727-3.95-3.678-7.002-8.094-10.378-12.263-16.508-20.39-28.557-42.916-29.336-69.636l-0.158-1.644c-2.002-23.291 8.635-47.538 23.278-65.048 4.232-2.195 6.512-6.744 11.446-8.547l10.568-6.773 10.607-3.915z" fill="#C23216"/> <path transform="scale(3.0273)" d="m685.43 677.16c-3.546 1.556-8.072 2.38-11.888 3.066-15.661 2.819-31.654 1.605-47.134-1.711 5.65-1.731 12.31-1.891 18.172-3.028 18.75-3.636 36.997-11.264 52.333-22.698 5.526-4.119 11.168-9.581 15.225-15.184 1.54-2.127 2.774-4.64 4.437-6.648 0.666-0.805 1.638-1.22 2.585-1.602-4.08 14.811-13.568 28.246-24.257 39.105-2.802 2.846-7.314 5.542-9.473 8.7z" fill="#AD240E"/> <path transform="scale(3.0273)" d="m560.51 623.61c1.965-0.27 2.805-0.293 4.552 0.755 8.758 6.11 18.042 12.51 25.273 20.426 2.648 2.898 5.232 6.127 5.997 10.097 0.371 1.928 0.385 4.264-0.789 5.918l-0.318 0.422-0.294 0.427c-2.172 2.981-7.332 3.838-10.773 4.302-10.062 1.354-19.275 0.693-29.263-0.614-3.088-0.404-6.761-1.409-9.839-1.39l0.644 0.508c5.276 4.223 10.795 9.589 14.786 15.04 4.393 6 9.87 13.977 8.932 21.75-0.123 1.023-0.397 1.916-0.742 2.88l-0.222 0.632c-1.278 3.448-4.487 6.552-7.834 8.021-5.691 2.496-11.545 2.273-17.57 1.743-11.257-0.991-22.579-3.631-33.018-7.99l-21.833-10.275c5.008 9.194 15.19 23.598 11.835 34.63l-0.422 1.109-0.213 0.554c-1.32 3.173-4.294 5.133-7.416 6.229-4.232 1.486-9.603 0.7-13.917-0.14-12.019-2.34-23.183-7.593-35.139-9.868 5.097 4.53 9.934 8.278 15.822 11.725 2.007 1.175 4.499 2.747 6.737 3.324l0.455 0.422c2.3 2.001 5.417 3.344 8.095 4.777 5.913 3.166 11.827 6.058 18.125 8.382 21.3 7.86 42.72 13.158 65.5 14.396 15.071 0.819 29.786-0.124 44.801-1.131-16.535-4.298-35.802-6.933-50.06-16.957 16.531 2.206 33.065 5.461 49.677 6.889 22.241 1.911 46.354-0.373 67.686-6.838 9.061-2.746 18.462-5.805 26.437-11.02l-43.254-8.56c-18.854-5.06-37.773-12.515-54.957-21.749-1.991-1.07-5.671-2.479-6.742-4.338l7.359 3.175c15.982 5.197 33.564 9.181 50.422 8.195 30.145-1.761 57.286-20.495 76.295-42.92 2.197-2.593 4.325-5.315 6.223-8.136 1.968-2.927 3.965-7.977 7.145-9.469l0.394-0.17c-1.769 9.568-5.032 18.436-8.724 27.411-1.802 4.382-3.627 9.275-6.158 13.277-5.277 7.654-10.618 15.053-17.956 20.916-4.374 3.495-9.175 6.739-14.134 9.353-1.373 0.723-5.2 2.01-6.027 3.116 7.721 1.194 15.26 1.349 23.061 1.515-7.903 12.7-19.415 21.161-32.675 27.807-3.742 1.875-7.978 3.318-11.489 5.544-4.15 0.319-8.169 2.445-12.177 3.566l-20.899 5.046c-35.117 7.636-70.916 8.511-106.25 1.818-24.255-4.594-49.306-13.37-70.157-26.728-5.678-3.638-11.314-7.449-15.849-12.497-6.936-7.72-11.678-17.832-17.531-26.431l-0.37-1.502-0.379-1.435c-0.178-0.93-0.14-1.421-0.647-2.27l-0.357-0.528c-0.038-0.837-0.165-1.474 0.246-2.236 0.513-0.95 0.642-1.941 0.849-2.994 13.701 11.832 31.39 24.511 49.168 29.085 5.29 1.361 12.612 2.303 17.52-0.87 2.492-1.611 3.478-3.936 3.942-6.759 2.587-15.763-11.057-29.479-19.243-41.158 15.877 8.643 31.08 16.547 48.613 21.342 5.177 1.416 10.247 2.758 15.641 2.859 7.361 0.139 15.929 0.195 21.485-5.515 2.46-2.528 2.602-4.83 2.43-8.189-0.718-14.055-16.147-26.156-25.767-34.759l12.749 2.58c6.95 1.333 14.657 1.484 21.742 1.383 5.188-0.073 13.402 0.108 17.138-4.133 1.213-1.377 1.847-3.87 1.586-5.686-0.388-2.692-1.907-5.207-3.485-7.357-6.153-8.38-16.05-14.897-24.47-20.734z" fill="#AD240E"/> <path transform="scale(3.0273)" d="m528.04 574.21c12.021 3.833 23.575 9.503 35.465 13.794 23.713 8.556 49.662 14.779 74.932 15.924 14.549 0.659 29.181-0.736 43.522-3.134-3.498 9.365-8.121 17.745-12.927 26.48l12.632-3.95 26.154-13.051c1.519 5.183-0.721 10.594-3.193 15.153-12.073 22.263-38.284 34.629-61.583 41.368-11.62 3.361-23.773 5.729-35.872 6.41 3.22 2.762 7.056 4.469 10.955 6.05 11.537 4.676 25.324 6.872 37.779 6.673 6.707-0.108 13.959-1.515 20.601-0.906 1.554 0.143 2.02 0.566 2.985 1.728 0.168 3.798-1.515 6.379-4.043 9.083-2.902 3.102-6.192 5.644-9.942 7.633l-0.651 0.351c-7.477 3.951-15.736 5.33-24.025 6.356-19.352 2.395-39.761-2.224-58.145-7.942 11.539 14.093 27.104 23.598 43.387 31.324l22.099 9.965c-24.465 8.729-52.177 6.135-77.307 1.91-10.699-1.8-21.328-3.791-31.747-6.866l-20.805-6.226c-2.529-0.783-6.836-2.671-9.414-2.717 14.97 14.742 30.749 26.09 50.204 34.128-14.954 2.648-28.841 0.14-43.326-3.519-9.312-2.352-18.688-5.185-27.694-8.526-7.127-2.645-15.11-6.874-22.589-7.88-2.238-0.577-4.73-2.149-6.737-3.324-5.888-3.447-10.725-7.195-15.822-11.725 11.956 2.275 23.12 7.528 35.139 9.868 4.314 0.84 9.685 1.626 13.917 0.14 3.122-1.096 6.096-3.056 7.416-6.229l0.213-0.554 0.422-1.109c3.355-11.032-6.827-25.436-11.835-34.63l21.833 10.275c10.439 4.359 21.761 6.999 33.018 7.99 6.025 0.53 11.879 0.753 17.57-1.743 3.347-1.469 6.556-4.573 7.834-8.021l0.222-0.632c0.345-0.964 0.619-1.857 0.742-2.88 0.938-7.773-4.539-15.75-8.932-21.75-3.991-5.451-9.51-10.817-14.786-15.04l-0.644-0.508c3.078-0.019 6.751 0.986 9.839 1.39 9.988 1.307 19.201 1.968 29.263 0.614 3.441-0.464 8.601-1.321 10.773-4.302l0.294-0.427 0.318-0.422c1.174-1.654 1.16-3.99 0.789-5.918-0.765-3.97-3.349-7.199-5.997-10.097-7.231-7.916-16.515-14.316-25.273-20.426-1.747-1.048-2.587-1.025-4.552-0.755l-12.456-7.384 11.397 2.966c1.966 0.425 3.527 0.792 5.54 0.455 3.601-0.604 5.203-1.829 7.297-4.828-0.88-3.159-2.374-5.902-4.289-8.551l-0.561-0.767c-7.216-10.114-18.544-18.022-28.913-24.663-2.982-1.91-7.205-3.583-9.758-5.921l-0.733-0.705z" fill="#E4481D"/> <path transform="scale(3.0273)" d="m528.04 574.21c12.021 3.833 23.575 9.503 35.465 13.794 23.713 8.556 49.662 14.779 74.932 15.924 14.549 0.659 29.181-0.736 43.522-3.134-3.498 9.365-8.121 17.745-12.927 26.48l12.632-3.95c-2.29 4.002-8.279 5.356-12.419 6.799l-15.849 5.193c-8.563 2.349-16.968 3.324-25.844 3.122 19.128-7.688 34.908-16.033 48.045-32.456-10.271 0.125-20.419 1.696-30.677 1.968-22.201 0.59-44.972-1.485-66.46-7.09-5.758-1.502-11.242-3.818-16.971-5.395 5.041 6.349 13.053 11.944 16.13 19.577 0.532 1.322 1.052 2.773 0.837 4.218-0.271 1.82-1.33 3.018-2.874 3.919-3.486 2.034-6.698 1.643-10.514 1.184-1.747-1.048-2.587-1.025-4.552-0.755l-12.456-7.384 11.397 2.966c1.966 0.425 3.527 0.792 5.54 0.455 3.601-0.604 5.203-1.829 7.297-4.828-0.88-3.159-2.374-5.902-4.289-8.551l-0.561-0.767c-7.216-10.114-18.544-18.022-28.913-24.663-2.982-1.91-7.205-3.583-9.758-5.921l-0.733-0.705z" fill="#C23216"/> <path transform="scale(3.0273)" d="m418.15 558.39c4.613-1.469 9.55-1.871 14.347-2.326 12.202-1.157 24.371-0.953 36.486 0.949 4.645 0.041 9.037 1.005 13.57 1.931 10.831 2.211 21.193 5.649 31.586 9.392 4.715 1.698 9.745 2.95 13.893 5.873l0.733 0.705c2.553 2.338 6.776 4.011 9.758 5.921 10.369 6.641 21.697 14.549 28.913 24.663l0.561 0.767c1.915 2.649 3.409 5.392 4.289 8.551-2.094 2.999-3.696 4.224-7.297 4.828-2.013 0.337-3.574-0.03-5.54-0.455l-11.397-2.966 12.456 7.384c8.42 5.837 18.317 12.354 24.47 20.734 1.578 2.15 3.097 4.665 3.485 7.357 0.261 1.816-0.373 4.309-1.586 5.686-3.736 4.241-11.95 4.06-17.138 4.133-7.085 0.101-14.792-0.05-21.742-1.383l-12.749-2.58c9.62 8.603 25.049 20.704 25.767 34.759 0.172 3.359 0.03 5.661-2.43 8.189-5.556 5.71-14.124 5.654-21.485 5.515-5.394-0.101-10.464-1.443-15.641-2.859-17.533-4.795-32.736-12.699-48.613-21.342 8.186 11.679 21.83 25.395 19.243 41.158-0.464 2.823-1.45 5.148-3.942 6.759-4.908 3.173-12.23 2.231-17.52 0.87-17.778-4.574-35.467-17.253-49.168-29.085-0.207 1.053-0.336 2.044-0.849 2.994-0.411 0.762-0.284 1.399-0.246 2.236l0.357 0.528c0.507 0.849 0.469 1.34 0.647 2.27l0.379 1.435 0.37 1.502c6e-3 6.292-0.074 11.368-4.617 16.291-0.973 1.056-2.145 2.101-3.604 2.169-4.978 0.234-8.057-1.267-11.773-4.727-3.95-3.678-7.002-8.094-10.378-12.263-16.508-20.39-28.557-42.916-29.336-69.636l-0.158-1.644c-2.002-23.291 8.635-47.538 23.278-65.048 4.232-2.195 6.512-6.744 11.446-8.547l10.568-6.773 10.607-3.915z" fill="#FED484"/> <path transform="scale(3.0273)" d="m468.99 557.02c4.645 0.041 9.037 1.005 13.57 1.931 10.831 2.211 21.193 5.649 31.586 9.392 4.715 1.698 9.745 2.95 13.893 5.873l0.733 0.705c2.553 2.338 6.776 4.011 9.758 5.921 10.369 6.641 21.697 14.549 28.913 24.663l0.561 0.767c1.915 2.649 3.409 5.392 4.289 8.551-2.094 2.999-3.696 4.224-7.297 4.828-2.013 0.337-3.574-0.03-5.54-0.455l-11.397-2.966 12.456 7.384c8.42 5.837 18.317 12.354 24.47 20.734 1.578 2.15 3.097 4.665 3.485 7.357 0.261 1.816-0.373 4.309-1.586 5.686-3.736 4.241-11.95 4.06-17.138 4.133-7.085 0.101-14.792-0.05-21.742-1.383l-12.749-2.58c9.62 8.603 25.049 20.704 25.767 34.759 0.172 3.359 0.03 5.661-2.43 8.189-5.556 5.71-14.124 5.654-21.485 5.515-5.394-0.101-10.464-1.443-15.641-2.859-17.533-4.795-32.736-12.699-48.613-21.342 8.186 11.679 21.83 25.395 19.243 41.158-0.464 2.823-1.45 5.148-3.942 6.759-4.908 3.173-12.23 2.231-17.52 0.87-17.778-4.574-35.467-17.253-49.168-29.085-0.207 1.053-0.336 2.044-0.849 2.994-0.411 0.762-0.284 1.399-0.246 2.236l0.357 0.528c0.507 0.849 0.469 1.34 0.647 2.27l0.379 1.435 0.37 1.502c6e-3 6.292-0.074 11.368-4.617 16.291-0.973 1.056-2.145 2.101-3.604 2.169-4.978 0.234-8.057-1.267-11.773-4.727-3.95-3.678-7.002-8.094-10.378-12.263-16.508-20.39-28.557-42.916-29.336-69.636l-0.158-1.644c-2.002-23.291 8.635-47.538 23.278-65.048 4.232-2.195 6.512-6.744 11.446-8.547-1.722 3.386-5.655 6.247-7.994 9.44-7.722 10.537-12.386 23.269-14.745 36.027-4.174 22.572 0.988 49.333 14.225 68.2l3.655 5.003c2.573 3.133 9.107 11.021 13.479 11.242 1.578 0.08 1.912-0.54 3.002-1.492 0.965-3.33-0.288-8.264-0.925-11.617l-3.767-18.748c3.864 3.474 6.553 8.252 10.108 12.083 10.059 10.84 21.414 20.286 34.431 27.35 4.653 2.526 9.399 4.933 14.641 5.938l0.912 0.168c2.745 0.525 6.589 1.443 9.266 0.329 1.762-0.733 3.572-2.074 4.093-4.006 0.697-2.579-0.282-6.1-1.042-8.576-4.103-13.388-13.17-23.614-20.245-35.287 13.027 7.962 26.745 13.999 41.448 18.077 9.533 2.644 20.141 3.801 29.98 2.817 3.468-0.347 7.485-1.137 10.505-2.977 1.831-1.116 2.983-2.472 3.478-4.551-0.927-5.225-7.696-9.713-11.722-12.686-5.709-4.216-11.496-8.323-17.549-12.037-6.387-3.919-13.175-7.447-19.131-12.004l23.169 5.463c11.911 2.041 38.616 6.566 48.84-1.15 2.065-1.558 3.003-3.035 3.316-5.586-2.196-7.968-11.365-13.244-17.86-17.567-11.225-7.472-22.497-13.884-34.834-19.382-6.562-2.925-13.694-4.711-19.941-8.3l28.932 3.795c9.463 1.137 18.442 2.494 28.013 2.387l-1.83-2.913c-4.271-6.706-10.908-11.216-17.494-15.385-13.589-8.601-28.461-15.058-43.73-20.026-6.546-2.13-13.699-3.144-20.002-5.804l-0.674-0.29z" fill="#F48C26"/> <path transform="scale(3.0273)" d="m362.41 644.32 0.425 0.547c0.91 1.257 1.1 3.068 1.422 4.55l2.328 10.671c4.587 19.343 13.313 35.907 26.881 50.486 4.621 4.966 9.956 10.751 17.032 11.833 0.631 0.096 1.16-0.013 1.777-0.13 2.724-2.523 3.991-6.36 4.206-10.026 0.342-5.839-0.405-11.473-1.321-17.213 2.06 2.038 4.607 4.158 6.3 6.483-0.207 1.053-0.336 2.044-0.849 2.994-0.411 0.762-0.284 1.399-0.246 2.236l0.357 0.528c0.507 0.849 0.469 1.34 0.647 2.27l0.379 1.435 0.37 1.502c6e-3 6.292-0.074 11.368-4.617 16.291-0.973 1.056-2.145 2.101-3.604 2.169-4.978 0.234-8.057-1.267-11.773-4.727-3.95-3.678-7.002-8.094-10.378-12.263-16.508-20.39-28.557-42.916-29.336-69.636z" fill="#C23216"/> <path transform="scale(3.0273)" d="m208.61 240.45c9.321 5.916 17.493 8.312 28.325 9.749 2.628-2.506 4.664-6.232 6.712-9.217l8.622-11.418c17.312-21.072 42.998-37.742 70.571-40.342 24.457-2.306 49.969 6.94 69.417 21.454 7.614 5.683 14.529 12.392 21.823 18.49 4.658 5.633 9.839 10.843 14.044 16.839 33.668 48.005 43.135 106.95 46.559 164.23l1.769 30.861c0.472 7.642 0.337 15.211 2.705 22.588 5.572 17.357 18.169 30.779 33.389 40.302 1.124 0.804 1.522 1.231 2.027 2.521-0.099 1.683-0.128 2.015-1.039 3.416l9.385 10.112c-2.717 3.261-5.336 3.53-9.422 3.857-5.547 0.444-10.647-0.013-16.06-1.249-5.963-1.362-11.683-3.055-17.448-5.093-0.609-0.215-1.414-0.754-1.99-0.402 0.019 6.593 0.51 13.68-0.72 20.154-0.415 2.186-0.727 4.247-1.764 6.249-2.902 0.653-6.074 0.336-8.944-0.294-8.77-1.925-18.285-6.29-25.047-12.266-3.318-2.933-6.063-6.361-9.256-9.402-2.779 6.787-4.391 14.073-7.021 20.938-1.983 5.177-5.047 9.685-6.729 14.991l-0.368 0.881-10.607 3.915-10.568 6.773c-4.934 1.803-7.214 6.352-11.446 8.547-5.937-8.58-6.841-22.257-7.554-32.377l-1.102-18.863-8.681 25.943c-6.33 16.31-21.033 35.601-37.344 42.854-6.473 2.879-12.966 5.071-19.851 2.206-3.393-1.411-5.773-3.469-7.172-6.92-2.413-5.953 0.325-14.846 2.57-20.585-10.776 13.782-27.823 30.083-46.148 32.097-5.08 0.558-11.378-1.608-15.311-4.732-3.444-2.736-6.326-7.399-6.72-11.824-0.281-3.16 1.203-5.983 0.429-9.135l0.602-2.157-10.295 5.22c-6.263 2.777-15.215 5.153-21.85 2.36-2.515-1.058-4.346-2.76-5.297-5.341-2.269-6.155 1.037-13.476 3.422-19.151 7.523-17.906 18.555-33.938 29.37-49.969 5.511-8.171 11.67-16.399 15.67-25.428 1.962-2.082 4.912-3.241 7.398-4.602 6.949-3.805 13.214-9.163 17.375-15.993l0.436-0.73c3.352-5.524 5.157-11.483 6.47-17.75 1.362-6.508 1.686-14.663 0.49-21.222-2.19-12.009-5.447-22.44-10.562-33.53-1.787-3.876-3.994-7.701-6.244-11.325-1.575-2.538-4.439-5.675-4.871-8.596l-0.111-0.96c-1.267-3.19-3.412-6.476-5.326-9.334-1.36-2.66-3.632-5.71-4.252-8.635-0.813-3.835 1.152-8.452 0.586-12.635l-0.141-1.013c-1.178-9.055-5.05-16.506-10.663-23.592-3.275-4.136-10.803-11.571-16.394-11.858-1.763-0.09-2.119 0.494-3.368 1.582l-0.695 0.075-3.765-1.884c-5.155-0.445-10.231-1.603-15.381-2.134-4.119-0.424-8.429-0.206-12.583-0.365l-17.79 2.442-0.893 0.828c-1.15-0.427-1.667-0.74-2.468-1.673l-0.252-2.861c-0.368-12.675 3.837-23.606 12.7-32.608-0.72-1.486-0.897-2.756-1.078-4.388-0.027-0.575 0.965-2.062 1.263-2.643 1.407-3.573 2.175-7.563 4.286-10.789 6.303-0.962 12.743-2.31 19.109-2.456 2.19-0.407 3.358-1.385 5.067-2.73z" fill="#F48C26"/> <path transform="scale(3.0273)" d="m184.44 245.63c6.303-0.962 12.743-2.31 19.109-2.456l-0.048 0.23c-0.454 1.107-0.924 2.147-1.087 3.344l1.698 2.399 5.696 6.842c10.343 7.678 15.608 21.882 18.22 33.995l-8.471 0.042c0.086 3.678-0.248 8.185 0.844 11.679l-3.765-1.884 0.691-0.591c0.505-7.935 1.878-17.381-1.301-24.913-1.776-4.209-4.892-6.654-9.093-8.261 0.321-0.462 0.9-0.884 1.32-1.264-0.974-1.699-5.124-3.754-6.944-4.648l-0.67-0.318c-3.105-1.494-7.669-0.724-10.996-0.267l-1.912-1.476c-2.874 1.519-5.25 3.316-7.762 5.367-0.72-1.486-0.897-2.756-1.078-4.388-0.027-0.575 0.965-2.062 1.263-2.643 1.407-3.573 2.175-7.563 4.286-10.789z" fill="#E4481D"/> <path transform="scale(3.0273)" d="m204.11 249.15 5.696 6.842-0.873 1.016c7.472 10.177 11.509 26.107 9.731 38.602-0.184 1.289-0.42 2.421-1.04 3.579l-0.299 0.044c0.505-7.935 1.878-17.381-1.301-24.913-1.776-4.209-4.892-6.654-9.093-8.261 0.321-0.462 0.9-0.884 1.32-1.264-0.974-1.699-5.124-3.754-6.944-4.648l-0.67-0.318c-3.105-1.494-7.669-0.724-10.996-0.267l-1.912-1.476c3.795-1.721 7.571-2.361 11.632-3.162 1.509-0.749 2.468-1.478 3.649-2.673l-0.114-2.695 1.214-0.406z" fill="#BAB6B3"/> <path transform="scale(3.0273)" d="m204.11 249.15 5.696 6.842-0.873 1.016-9.572-2.084c1.509-0.749 2.468-1.478 3.649-2.673l-0.114-2.695 1.214-0.406z" fill="#AD240E"/> <path transform="scale(3.0273)" d="m184.44 245.63c6.303-0.962 12.743-2.31 19.109-2.456l-0.048 0.23c-0.454 1.107-0.924 2.147-1.087 3.344l1.698 2.399-1.214 0.406 0.114 2.695c-1.181 1.195-2.14 1.924-3.649 2.673-4.061 0.801-7.837 1.441-11.632 3.162-2.874 1.519-5.25 3.316-7.762 5.367-0.72-1.486-0.897-2.756-1.078-4.388-0.027-0.575 0.965-2.062 1.263-2.643 1.407-3.573 2.175-7.563 4.286-10.789z" fill="#891D0A"/> <path transform="scale(3.0273)" d="m184.44 245.63c6.303-0.962 12.743-2.31 19.109-2.456l-0.048 0.23c-0.454 1.107-0.924 2.147-1.087 3.344l1.698 2.399-1.214 0.406c-4.817-1.068-10.994-2.14-15.391 0.877-2.593 1.78-4.6 4.463-7.353 5.989 1.407-3.573 2.175-7.563 4.286-10.789z" fill="#D15502"/> <path transform="scale(3.0273)" d="m365.74 251.01c13.854 14.299 17.571 35.215 17.247 54.362-0.277 16.4-8.108 31.814-19.768 43.12-11.401 11.053-29.242 19.761-45.392 19.431-19.398-0.396-35.081-8.027-48.246-22.062-9.367-9.985-13.017-21.781-14.765-35.022-1.319-10.002 0.308-21.21 3.065-30.842 0.649-2.268 1.307-5.328 2.661-7.25 0.458-0.65 1.109-1.201 1.713-1.711l-4.713 18.41c-2.858 17.837 3.299 35.657 13.544 50.051 2.557 3.592 5.806 7.155 9.31 9.848l8.15 5.705c11.781 7.08 26.809 10.207 40.293 6.743 15.912-4.087 29.898-12.997 38.968-26.872 12.993-19.879 16.414-45.812 6.484-67.736-1.133-2.501-2.387-5.158-3.923-7.438-1.548-2.297-4.079-4.935-4.515-7.767l-0.113-0.97z" fill="#E4481D"/> <path transform="scale(3.0273)" d="m387.26 299.12 2.137 5.2c4.83 14.114 2.889 29.472-3.643 42.725-8.906 18.068-25.182 29.697-43.945 35.986-19.784 6.63-40.762 6.005-59.474-3.281-3-1.642-5.72-3.305-8.389-5.446 5.416 1.451 10.835 3.421 16.309 4.579 7.374 1.559 14.71 1.973 22.218 1.338 23.104-1.955 46.624-11.802 61.657-29.948 11.785-14.226 14.759-33.317 13.13-51.153z" fill="#E4481D"/> <path transform="scale(3.0273)" d="m319.82 197.67c2.979-0.392 6.181-0.626 9.141 0.053 13.639 3.124 19.508 18.625 26.22 29.126l-17.684-7.204c-13.678-4.497-30.456 0.728-42.824 6.865-6.84 3.55-13.853 7.237-20.313 11.452-2.797 1.825-5.353 4.082-8.136 5.975 10.756-14.263 20.607-32.799 36.875-41.285 5.38-2.806 10.796-4.006 16.721-4.982z" fill="#AD240E"/> <path transform="scale(3.0273)" d="m316.86 201.66c2.34-0.344 5.383-0.257 7.733 0.058 11.279 1.517 17.801 11.068 24.055 19.442-2.806-1.054-5.378-2.582-8.195-3.63-11.134-4.142-20.918-3.14-32.257-0.806-3.385 1.317-7.009 1.995-10.402 3.381-6.104 2.493-11.981 5.955-17.766 9.119l4.223-6.052c8.505-11.586 18.189-19.285 32.609-21.512z" fill="#C23216"/> <path transform="scale(3.0273)" d="m179.97 263.45c2.512-2.051 4.888-3.848 7.762-5.367l1.912 1.476c3.327-0.457 7.891-1.227 10.996 0.267l0.67 0.318c1.82 0.894 5.97 2.949 6.944 4.648-0.42 0.38-0.999 0.802-1.32 1.264 4.201 1.607 7.317 4.052 9.093 8.261 3.179 7.532 1.806 16.978 1.301 24.913l-0.691 0.591c-5.155-0.445-10.231-1.603-15.381-2.134-4.119-0.424-8.429-0.206-12.583-0.365l-17.79 2.442-0.893 0.828c-1.15-0.427-1.667-0.74-2.468-1.673l-0.252-2.861c-0.368-12.675 3.837-23.606 12.7-32.608z"/> <path transform="scale(3.0273)" d="m200.64 269.25c1.603-0.178 3.375 0.141 4.796 0.925 1.601 0.884 3.666 2.679 4.002 4.575 0.423 2.382 0.238 5.294-1.182 7.334-1.283 1.842-2.93 2.139-5.001 2.472-1.354 0.051-2.51-0.024-3.715-0.689-2.155-1.192-4.623-3.203-5.277-5.7-0.449-1.713 0.232-3.75 1.076-5.239 1.254-2.214 2.947-2.991 5.301-3.678z" fill="#FEFEFE"/> <path transform="scale(3.0273)" d="m179.97 263.45c2.512-2.051 4.888-3.848 7.762-5.367l1.912 1.476c3.327-0.457 7.891-1.227 10.996 0.267l0.67 0.318c1.82 0.894 5.97 2.949 6.944 4.648-0.42 0.38-0.999 0.802-1.32 1.264-4.328-0.112-8.13 1e-3 -11.458 3.197-5.701 5.477-8.122 13.166-8.074 20.879 0.017 2.618 0.421 4.721 1.271 7.19l-17.79 2.442-0.893 0.828c-1.15-0.427-1.667-0.74-2.468-1.673l-0.252-2.861c-0.368-12.675 3.837-23.606 12.7-32.608z" fill="#FEFEFE"/> <path transform="scale(3.0273)" d="m179.97 263.45c2.512-2.051 4.888-3.848 7.762-5.367l1.912 1.476c-8.99 5.523-16.045 15.423-18.648 25.689l-0.678 3.412c-0.663 3.41-0.588 7.111-0.369 10.569l0.934 0.535-0.893 0.828c-1.15-0.427-1.667-0.74-2.468-1.673l-0.252-2.861c-0.368-12.675 3.837-23.606 12.7-32.608z" fill="#D5CEC2"/> <defs> <linearGradient id="b" x1="472.77" x2="236.23" y1="333.91" y2="384.59" gradientUnits="userSpaceOnUse"> <stop stop-color="#DE4C10" offset="0"/> <stop stop-color="#ED6D17" offset="1"/> </linearGradient> </defs> <path transform="scale(3.0273)" d="m208.61 240.45c9.321 5.916 17.493 8.312 28.325 9.749 2.628-2.506 4.664-6.232 6.712-9.217l8.622-11.418c17.312-21.072 42.998-37.742 70.571-40.342 24.457-2.306 49.969 6.94 69.417 21.454 7.614 5.683 14.529 12.392 21.823 18.49 4.658 5.633 9.839 10.843 14.044 16.839 33.668 48.005 43.135 106.95 46.559 164.23l1.769 30.861c0.472 7.642 0.337 15.211 2.705 22.588 5.572 17.357 18.169 30.779 33.389 40.302-3.542 0.269-7.771 0.437-11.257-0.293l-0.792-0.18c-24.299-5.309-35.825-22.731-44.31-44.591-1.732-4.464-3.229-11.38-5.986-15.176l-0.584-0.761 0.086-0.172c0.364-0.871 0.748-1.643 1.221-2.463 5.962 14.07 12.387 26.977 24.663 36.664-0.361-1.563-1.474-3.346-2.149-4.842l-4.154-9.663c-3.895-9.303-6.828-18.778-8.875-28.654-3.893-18.774-5.052-37.924-7.938-56.848-8.24-54.019-23.087-110.44-59.265-152.94-12.914-15.174-31.28-25.598-51.088-28.44-5.7-0.818-11.529-0.573-17.275-1.004-3.212-0.241-6.426 0.256-9.603 0.699-16.193 2.26-31.004 10.64-42.178 22.463l-16.426 18.443c-2.679 3.015-5.196 6.304-8.27 8.923l-5.449 4.411c-5.178 3.318-12.708 3.246-18.51 1.792-7.415-1.857-13.945-4.868-20.912-7.936l0.048-0.23c2.19-0.407 3.358-1.385 5.067-2.73z" fill="url(#b)"/> <path transform="scale(3.0273)" d="m262.26 271.04c5.816-14.304 14.085-25.414 27.559-33.484 13.926-8.34 29.654-11.372 45.548-7.313 11.151 2.848 24.337 10.701 30.378 20.771l0.113 0.97c0.436 2.832 2.967 5.47 4.515 7.767 1.536 2.28 2.79 4.937 3.923 7.438 9.93 21.924 6.509 47.857-6.484 67.736-9.07 13.875-23.056 22.785-38.968 26.872-13.484 3.464-28.512 0.337-40.293-6.743l-8.15-5.705c-3.504-2.693-6.753-6.256-9.31-9.848-10.245-14.394-16.402-32.214-13.544-50.051l4.713-18.41z" fill="#AD240E"/> <path transform="scale(3.0273)" d="m264.45 310.56-0.369-3.061c-1.828-12.353 0.06-25.046 5.643-36.25 6.785-13.617 19.275-24.44 33.703-29.232 12.807-4.252 27.777-2.914 39.763 3.286 13.303 6.883 22.155 18.701 26.511 32.84l-0.63-0.494c-1.311-1.095-2.123-2.748-3.074-4.15-1.835-2.704-3.787-5.425-5.857-7.954-9.705-11.858-26.827-18.25-41.811-17.51-14.48 0.715-28.596 8.462-38.091 19.223-10.446 11.839-15.888 27.58-15.788 43.302z" fill="#BAB6B3"/> <path transform="scale(3.0273)" d="m264.45 310.56c-0.1-15.722 5.342-31.463 15.788-43.302 9.495-10.761 23.611-18.508 38.091-19.223 14.984-0.74 32.106 5.652 41.811 17.51 2.07 2.529 4.022 5.25 5.857 7.954 0.951 1.402 1.763 3.055 3.074 4.15l0.63 0.494c4.774 15.602 4.444 33.341-3.301 47.982-2.415 4.566-5.701 10.27-9.853 13.471-3.18 4.178-7.49 7.437-12.056 9.992-6.48 3.462-13.543 5.937-20.87 6.798-14.084 1.655-28.975-2.998-40.027-11.829-10.342-8.264-17.666-20.788-19.144-33.997z" fill="#FEFEFE"/> <defs> <linearGradient id="a" x1="291.76" x2="343.39" y1="307.73" y2="301.71" gradientUnits="userSpaceOnUse"> <stop stop-color="#A4A3A3" offset="0"/> <stop stop-color="#CECDCC" offset="1"/> </linearGradient> </defs> <path transform="scale(3.0273)" d="m344.49 349.59c-2.777-1.938-7.724-0.925-11.076-1.366-2.672-0.351-5.45-1.114-8.006-1.984-12.334-4.199-23.175-11.647-29.044-23.576-5.754-11.696-7.901-25.718-3.561-38.273 3.499-10.12 10.645-19.295 20.437-23.904 7.793-3.669 17.728-5.479 26.008-2.45v0.606c-3.131-1.111-5.444-1.268-8.75-1.058-1.048 1.223-0.912 3.771-1.091 5.399-8.501 0.1-17.144 1.692-23.321 8.004-7.065 7.218-9.18 17.943-8.917 27.721 0.296 11.051 3.594 20.979 11.72 28.793 6.6 6.348 14.818 8.768 23.809 8.479 1.875-0.06 3.523-0.274 5.326-0.818l0.884-0.263c3.507-1.097 6.539-3.206 9.639-5.125l-2.149 3.226c0.158 3.287 1.275 9.446 3.03 12.26 1.844-1.967 4.44-5.05 7.118-5.663-3.18 4.178-7.49 7.437-12.056 9.992z" fill="url(#a)"/> <path transform="scale(3.0273)" d="m329.41 262.98c9.935 1.396 18.579 6.457 24.686 14.478 6.292 8.263 8.861 19.277 7.244 29.477-1.404 8.855-5.81 17.179-12.79 22.836-3.1 1.919-6.132 4.028-9.639 5.125l-0.884 0.263c-1.803 0.544-3.451 0.758-5.326 0.818-8.991 0.289-17.209-2.131-23.809-8.479-8.126-7.814-11.424-17.742-11.72-28.793-0.263-9.778 1.852-20.503 8.917-27.721 6.177-6.312 14.82-7.904 23.321-8.004z"/> <path transform="scale(3.0273)" d="m335.28 314.75c1.341-0.345 2.225-0.52 3.609-0.311 1.426 0.215 2.692 1.024 3.453 2.292 0.754 1.259 0.875 2.79 0.522 4.191-0.561 2.222-2.098 2.946-3.951 3.989l-2.662 0.097c-1.649-0.141-2.806-1.003-3.727-2.329-0.839-1.208-1.269-2.58-0.883-4.05 0.534-2.032 1.851-2.998 3.639-3.879z" fill="#FEFEFE"/> <path transform="scale(3.0273)" d="m314.65 271.07c3.021-0.151 6.208-0.251 9.019 1.054 3.433 1.595 6.978 5.115 8.277 8.672 1.255 3.436 0.314 8.184-1.255 11.381-2.12 4.318-6.015 6.185-10.282 7.769-2.73 0.35-5.129 0.658-7.783-0.335-4.096-1.532-6.873-4.119-8.568-8.179-1.508-3.611-1.554-7.298-0.097-10.933 2.108-5.255 5.745-7.368 10.689-9.429z" fill="#FEFEFE"/> <path transform="scale(3.0273)" d="m260.65 367.12 9.741 10.982c14.201 15.349 27.129 31.228 26.924 53.401-0.129 13.841-6.739 25.794-16.528 35.286-4.956 4.806-10.173 8.561-16.121 12.021-1.989 1.157-4.306 2.64-6.586 2.941-1.005 2.869-1.319 6.082-1.963 9.059-1.16 5.365-2.549 10.763-4.334 15.956-3.303 9.614-7.871 18.775-12.05 28.028l-8.115 19.537 0.767-0.053c4.411-0.719 10.419-4.663 14.21-7.084 19.424-12.407 34.989-31.293 47.448-50.451 3.082-4.738 5.476-9.956 8.621-14.599-0.081 4.426-1.784 9.537-2.867 13.866-3.613 14.44-8.617 28.75-14.584 42.394-3.665 8.38-8.341 17.046-11.243 25.671-0.676 2.01-1.249 4.078-0.732 6.178l1.011 0.266c2.59-0.505 4.629-1.618 6.828-3.054 14.088-9.198 25.468-22.884 34.629-36.822 8.113-12.343 14.897-25.317 19.513-39.39 1.981-6.037 3.048-12.031 4.35-18.224 1.887 6.292 2.362 13.115 2.941 19.637 0.895 10.072 1.187 20.893-0.268 30.92-2.133 14.694-7.354 28.398-11.563 42.541 3.173-1.334 6.108-2.707 8.889-4.778 5.688-4.235 9.452-10.222 13.137-16.141 17.802-28.589 23.1-62.311 27.727-95.048l10.019 55.843 4.382 22.823c1.109 5.251 2.18 10.719 4.587 15.547l0.3-0.225c6.058-15.915 9.424-33.167 12.349-49.906 2.127-12.168 4.212-24.38 5.228-36.704l0.944-23.179c4.28 18.16 8.577 35.952 18.211 52.144 1.953 3.282 4.405 5.784 7.041 8.527l-2.248-90.223 9.681 35.539c-0.473 0.82-0.857 1.592-1.221 2.463l-0.086 0.172 0.584 0.761c2.757 3.796 4.254 10.712 5.986 15.176 8.485 21.86 20.011 39.282 44.31 44.591l0.792 0.18c3.486 0.73 7.715 0.562 11.257 0.293 1.124 0.804 1.522 1.231 2.027 2.521-0.099 1.683-0.128 2.015-1.039 3.416l9.385 10.112c-2.717 3.261-5.336 3.53-9.422 3.857-5.547 0.444-10.647-0.013-16.06-1.249-5.963-1.362-11.683-3.055-17.448-5.093-0.609-0.215-1.414-0.754-1.99-0.402 0.019 6.593 0.51 13.68-0.72 20.154-0.415 2.186-0.727 4.247-1.764 6.249-2.902 0.653-6.074 0.336-8.944-0.294-8.77-1.925-18.285-6.29-25.047-12.266-3.318-2.933-6.063-6.361-9.256-9.402-2.779 6.787-4.391 14.073-7.021 20.938-1.983 5.177-5.047 9.685-6.729 14.991l-0.368 0.881-10.607 3.915-10.568 6.773c-4.934 1.803-7.214 6.352-11.446 8.547-5.937-8.58-6.841-22.257-7.554-32.377l-1.102-18.863-8.681 25.943c-6.33 16.31-21.033 35.601-37.344 42.854-6.473 2.879-12.966 5.071-19.851 2.206-3.393-1.411-5.773-3.469-7.172-6.92-2.413-5.953 0.325-14.846 2.57-20.585-10.776 13.782-27.823 30.083-46.148 32.097-5.08 0.558-11.378-1.608-15.311-4.732-3.444-2.736-6.326-7.399-6.72-11.824-0.281-3.16 1.203-5.983 0.429-9.135l0.602-2.157-10.295 5.22c-6.263 2.777-15.215 5.153-21.85 2.36-2.515-1.058-4.346-2.76-5.297-5.341-2.269-6.155 1.037-13.476 3.422-19.151 7.523-17.906 18.555-33.938 29.37-49.969 5.511-8.171 11.67-16.399 15.67-25.428 1.962-2.082 4.912-3.241 7.398-4.602 6.949-3.805 13.214-9.163 17.375-15.993l0.436-0.73c3.352-5.524 5.157-11.483 6.47-17.75 1.362-6.508 1.686-14.663 0.49-21.222-2.19-12.009-5.447-22.44-10.562-33.53-1.787-3.876-3.994-7.701-6.244-11.325-1.575-2.538-4.439-5.675-4.871-8.596l-0.111-0.96z" fill="#E4481D"/> <path transform="scale(3.0273)" d="m260.65 367.12 9.741 10.982c14.201 15.349 27.129 31.228 26.924 53.401-0.129 13.841-6.739 25.794-16.528 35.286-4.956 4.806-10.173 8.561-16.121 12.021-1.989 1.157-4.306 2.64-6.586 2.941-1.22 0.351-2.445 0.76-3.48 1.519-2.136 1.563-3.135 5.954-4.471 8.38l-19.337 36.151-14.181 27.576c-1.587 3.458-3.562 7.836-4.004 11.626-0.246 2.112-0.185 2.977 1.142 4.569 1.635 0.556 2.909 0.223 4.548-0.135 28.931-6.307 58.146-40.156 73.427-64.242-1.815 6.44-5.413 12.528-8.729 18.308l-15.237 24.898-9.509 14.115c-3.86 6.335-8.596 15.434-6.357 23.069 0.714 2.437 2.441 5.289 4.857 6.373 3.501 1.57 8.702 0.126 12.15-1.153 7.498-2.782 14.028-7.981 20.028-13.119 17.41-14.91 30.152-33.636 39.868-54.289l9.883-22.631c-0.995 9.502-1.819 18.82-4.738 27.987-5.18 16.266-16.708 31.571-18.559 48.639-0.288 2.658-0.644 5.372 0.311 7.939 0.501 1.349 1.662 2.49 3.038 2.922 4.333 1.359 8.166 0.239 12.023-1.865 25.461-13.89 38.74-46.8 46.084-73.181l5.727-23.932-6e-3 2.589 1.809 30.416c0.71 10.005 0.379 33.323 7.882 40.654 2.256-0.386 4.299-1.233 6.095-2.678 4.287-3.445 6.852-9.574 9.052-14.482 7.574-16.898 12.963-35.023 14.905-53.479 0.813-7.732-0.074-15.505 0.955-23.282 0.811 2.83 1.281 5.688 2.214 8.49 4.26 12.805 10.568 24.147 18.518 35 2.875 3.925 7.198 8.856 11.358 11.442 1.791 1.113 3.821 2.584 5.903 2.965l1.337-1.184c6.762-6.723-8.92-62.741-11.291-74.292-0.584-2.847-1.933-6.729-1.757-9.583l0.081-0.87 0.584 0.761c2.757 3.796 4.254 10.712 5.986 15.176 8.485 21.86 20.011 39.282 44.31 44.591l0.792 0.18c3.486 0.73 7.715 0.562 11.257 0.293 1.124 0.804 1.522 1.231 2.027 2.521-0.099 1.683-0.128 2.015-1.039 3.416l9.385 10.112c-2.717 3.261-5.336 3.53-9.422 3.857-5.547 0.444-10.647-0.013-16.06-1.249-5.963-1.362-11.683-3.055-17.448-5.093-0.609-0.215-1.414-0.754-1.99-0.402 0.019 6.593 0.51 13.68-0.72 20.154-0.415 2.186-0.727 4.247-1.764 6.249-2.902 0.653-6.074 0.336-8.944-0.294-8.77-1.925-18.285-6.29-25.047-12.266-3.318-2.933-6.063-6.361-9.256-9.402-2.779 6.787-4.391 14.073-7.021 20.938-1.983 5.177-5.047 9.685-6.729 14.991l-0.368 0.881-10.607 3.915-10.568 6.773c-4.934 1.803-7.214 6.352-11.446 8.547-5.937-8.58-6.841-22.257-7.554-32.377l-1.102-18.863-8.681 25.943c-6.33 16.31-21.033 35.601-37.344 42.854-6.473 2.879-12.966 5.071-19.851 2.206-3.393-1.411-5.773-3.469-7.172-6.92-2.413-5.953 0.325-14.846 2.57-20.585-10.776 13.782-27.823 30.083-46.148 32.097-5.08 0.558-11.378-1.608-15.311-4.732-3.444-2.736-6.326-7.399-6.72-11.824-0.281-3.16 1.203-5.983 0.429-9.135l0.602-2.157-10.295 5.22c-6.263 2.777-15.215 5.153-21.85 2.36-2.515-1.058-4.346-2.76-5.297-5.341-2.269-6.155 1.037-13.476 3.422-19.151 7.523-17.906 18.555-33.938 29.37-49.969 5.511-8.171 11.67-16.399 15.67-25.428 1.962-2.082 4.912-3.241 7.398-4.602 6.949-3.805 13.214-9.163 17.375-15.993l0.436-0.73c3.352-5.524 5.157-11.483 6.47-17.75 1.362-6.508 1.686-14.663 0.49-21.222-2.19-12.009-5.447-22.44-10.562-33.53-1.787-3.876-3.994-7.701-6.244-11.325-1.575-2.538-4.439-5.675-4.871-8.596l-0.111-0.96z" fill="#C23216"/> <path transform="scale(3.0273)" d="m407.55 562.31c-0.536-1.52 1.255-3.663 2.106-4.993 3.005-4.691 6.09-9.246 8.481-14.293 6-12.664 8.74-26.297 11.094-40.013 0.61 0.119 0.29-0.03 0.793 0.703 4.59 6.699 8.879 13.798 14.556 19.64 7.364 7.578 16.292 11.736 26.318 14.539 1.79-12.563 0.384-26.644-1.126-39.222l6.265 4.359c7.285 4.907 16.891 8.398 25.717 8.431 3.946 0.014 7.929-0.793 11.787-1.542l9.385 10.112c-2.717 3.261-5.336 3.53-9.422 3.857-5.547 0.444-10.647-0.013-16.06-1.249-5.963-1.362-11.683-3.055-17.448-5.093-0.609-0.215-1.414-0.754-1.99-0.402 0.019 6.593 0.51 13.68-0.72 20.154-0.415 2.186-0.727 4.247-1.764 6.249-2.902 0.653-6.074 0.336-8.944-0.294-8.77-1.925-18.285-6.29-25.047-12.266-3.318-2.933-6.063-6.361-9.256-9.402-2.779 6.787-4.391 14.073-7.021 20.938-1.983 5.177-5.047 9.685-6.729 14.991l-0.368 0.881-10.607 3.915z" fill="#0B363B"/> </svg>