<?xml version='1.0' encoding='utf-8'?>
<svg xmlns="http://www.w3.org/2000/svg" version="1.1" id="Frame_0" width="1280px" height="720px"> <g id="Carrot"> <g id="Leaves"> <path fill="#bde471" fill-rule="evenodd" stroke="none" d="M 725.213 121.273 C 725.213 121.273 725.213 121.273 725.213 121.273 C 723.627 122.009 721.325 122.677 719.927 123.727 C 718.258 124.982 716.319 127.139 715.397 129.013 C 714.401 131.036 713.852 134.121 713.887 136.375 C 713.927 138.998 714.808 142.514 715.963 144.869 C 717.575 148.158 721.113 151.719 723.703 154.308 C 725.944 156.549 729.638 158.762 731.853 161.029 C 734.659 163.902 738.555 167.879 740.073 171.598 C 741.680 175.536 741.724 181.437 741.638 185.690 C 741.422 196.422 738.541 210.662 735.375 220.919 C 733.241 227.834 728.589 236.383 725.680 243.011 C 725.680 243.011 725.680 243.011 725.680 243.011 C 728.372 244.995 734.653 249.623 734.654 249.624 C 741.597 244.098 751.209 237.148 757.798 231.203 C 767.469 222.477 780.431 210.614 788.026 200.030 C 793.717 192.100 799.974 180.451 803.140 171.219 C 806.933 160.161 809.171 144.499 809.812 132.827 C 810.288 124.161 809.655 112.500 808.207 103.943 C 807.026 96.956 804.336 87.823 801.789 81.210 C 799.445 75.123 795.418 67.367 792.165 61.712 C 789.451 56.994 785.701 50.712 782.171 46.569 C 779.711 43.681 776.004 40.163 772.933 37.937 C 770.200 35.956 766.310 33.497 763.090 32.485 C 758.781 31.132 752.592 30.677 748.098 31.123 C 745.850 31.346 742.869 32.121 740.829 33.091 C 737.342 34.750 732.822 37.705 730.531 40.814 C 729.200 42.621 728.727 45.734 727.806 47.780 C 726.905 49.781 725.980 52.696 724.474 54.292 C 723.202 55.641 720.670 56.376 719.174 57.472 C 716.759 59.241 713.286 61.575 711.758 64.149 C 710.227 66.727 709.514 70.875 709.443 73.872 C 709.394 75.916 710.114 78.601 710.600 80.586 C 711.749 85.280 714.086 91.310 715.693 95.866 C 718.401 103.542 725.212 121.270 725.213 121.273 C 725.213 121.273 725.213 121.273 725.213 121.273 Z"/> <path fill="none" stroke="#dd5d06" stroke-width="10" stroke-opacity="0.000000" stroke-linecap="round" stroke-linejoin="round" d="M 734.654 249.624 C 734.654 249.624 734.654 249.624 734.654 249.624 C 734.653 249.623 728.372 244.995 725.680 243.011 C 728.589 236.383 733.241 227.834 735.375 220.919 C 738.541 210.662 741.422 196.422 741.638 185.690 C 741.724 181.437 741.680 175.536 740.073 171.598 C 738.555 167.879 734.659 163.902 731.853 161.029 C 729.638 158.762 725.944 156.549 723.703 154.308 C 721.113 151.719 717.575 148.158 715.963 144.869 C 714.808 142.514 713.927 138.998 713.887 136.375 C 713.852 134.121 714.401 131.036 715.397 129.013 C 716.319 127.139 718.258 124.982 719.927 123.727 C 721.325 122.677 723.627 122.009 725.213 121.273 C 725.213 121.273 725.213 121.273 725.213 121.273 C 725.212 121.270 718.401 103.542 715.693 95.866 C 714.086 91.310 711.749 85.280 710.600 80.586 C 710.114 78.601 709.394 75.916 709.443 73.872 C 709.514 70.875 710.227 66.727 711.758 64.149 C 713.286 61.575 716.759 59.241 719.174 57.472 C 720.670 56.376 723.202 55.641 724.474 54.292 C 725.980 52.696 726.905 49.781 727.806 47.780 C 728.727 45.734 729.200 42.621 730.531 40.814 C 732.822 37.705 737.342 34.750 740.829 33.091 C 742.869 32.121 745.850 31.346 748.098 31.123 C 752.592 30.677 758.781 31.132 763.090 32.485 C 766.310 33.497 770.200 35.956 772.933 37.937 C 776.004 40.163 779.711 43.681 782.171 46.569 C 785.701 50.712 789.451 56.994 792.165 61.712 C 795.418 67.367 799.445 75.123 801.789 81.210 C 804.336 87.823 807.026 96.956 808.207 103.943 C 809.655 112.500 810.288 124.161 809.812 132.827 C 809.171 144.499 806.933 160.161 803.140 171.219 C 799.974 180.451 793.717 192.100 788.026 200.030 C 780.431 210.614 767.469 222.477 757.798 231.203 C 751.209 237.148 741.597 244.098 734.654 249.624 M 725.680 243.011 C 725.680 243.011 725.680 243.011 725.680 243.011 M 725.213 121.273 C 725.213 121.273 725.213 121.273 725.213 121.273 "/> <path fill="#7cac2f" d="M 774.521 172.558 C 774.524 156.237 773.014 140.958 768.566 125.257 L 773.201 123.947 C 777.744 140.051 779.334 156.004 779.337 172.558 L 774.521 172.558 Z"/> <path fill="#7cac2f" d="M 768.566 125.257 C 766.607 118.178 761.662 106.439 761.646 98.810 L 762.128 98.810 C 762.112 106.270 770.927 116.048 773.201 123.947 L 768.566 125.257 Z"/> <path fill="none" stroke="#7cac2f" stroke-width="1" stroke-linecap="butt" stroke-linejoin="round" d="M 768.566 125.257 L 773.201 123.947 "/> <path fill="#7cac2f" d="M 774.502 142.361 C 774.639 140.525 776.670 137.926 777.042 136.897 L 779.287 137.769 C 778.685 139.246 776.774 141.640 776.911 142.361 L 774.502 142.361 Z"/> <path fill="#7cac2f" d="M 777.042 136.897 C 778.967 131.942 781.745 127.674 784.050 122.884 L 784.267 122.989 C 781.966 127.769 781.215 132.805 779.287 137.769 L 777.042 136.897 Z"/> <path fill="none" stroke="#7cac2f" stroke-width="1" stroke-linecap="butt" stroke-linejoin="round" d="M 777.042 136.897 L 779.287 137.769 "/> <path fill="#7cac2f" d="M 771.537 130.350 C 771.734 129.887 769.492 127.566 768.777 126.653 L 770.679 125.176 C 771.273 125.946 773.748 128.566 773.945 130.350 L 771.537 130.350 Z"/> <path fill="none" stroke="#7cac2f" stroke-width="1" stroke-linecap="butt" stroke-linejoin="round" d="M 771.537 130.350 L 773.945 130.350 "/> <path fill="#7cac2f" d="M 768.777 126.653 C 765.806 122.806 759.012 115.928 753.761 115.939 L 753.761 115.699 C 759.115 115.710 767.462 121.057 770.679 125.176 L 768.777 126.653 Z"/> <path fill="none" stroke="#7cac2f" stroke-width="1" stroke-linecap="butt" stroke-linejoin="round" d="M 768.777 126.653 L 770.679 125.176 "/> <path fill="#92c73b" fill-rule="evenodd" stroke="none" d="M 888.541 99.625 C 889.124 101.828 888.693 104.940 888.758 107.218 C 888.759 107.218 896.738 106.889 900.038 107.652 C 906.136 109.062 913.975 112.696 918.910 116.545 C 922.661 119.472 926.894 124.480 929.105 128.693 C 930.741 131.812 931.917 136.478 932.359 139.973 C 932.971 144.819 932.625 151.444 931.708 156.242 C 931.147 159.178 929.675 162.923 928.535 165.687 C 927.904 167.219 927.078 169.299 926.130 170.658 C 925.410 171.691 924.109 172.791 923.243 173.705 C 923.243 173.706 924.230 176.473 924.366 177.715 C 924.634 180.161 924.381 183.522 923.724 185.894 C 922.904 188.859 920.970 192.612 919.074 195.035 C 916.625 198.163 912.446 201.670 908.971 203.596 C 905.975 205.258 901.458 206.391 898.114 207.137 C 895.397 207.743 891.689 208.168 888.909 208.317 C 880.986 208.744 870.406 207.121 862.475 207.373 C 850.947 207.740 835.565 209.202 824.239 211.385 C 813.982 213.362 800.691 217.699 790.724 220.826 C 781.366 223.763 768.769 227.486 759.828 231.517 C 752.423 234.855 743.294 240.780 736.208 244.750 C 736.208 244.750 731.635 240.529 729.675 238.720 C 738.528 222.204 749.526 199.725 759.185 183.667 C 769.302 166.849 783.304 144.606 795.665 129.362 C 802.701 120.685 812.762 109.541 821.367 102.417 C 828.009 96.918 837.563 90.240 845.410 86.665 C 849.789 84.669 855.974 82.390 860.775 82.055 C 865.173 81.748 871.243 82.520 875.309 84.224 C 877.974 85.341 881.192 87.710 883.118 89.864 C 885.351 92.361 887.685 96.387 888.541 99.625 M 729.675 238.720 C 729.675 238.720 729.675 238.720 729.675 238.720 Z"/> <path fill="none" stroke="#dd5d06" stroke-width="10" stroke-opacity="0.000000" stroke-linecap="round" stroke-linejoin="round" d="M 888.758 107.218 C 888.758 107.218 888.758 107.218 888.758 107.218 C 888.693 104.940 889.124 101.828 888.541 99.625 C 887.685 96.387 885.351 92.361 883.118 89.864 C 881.192 87.710 877.974 85.341 875.309 84.224 C 871.243 82.520 865.173 81.748 860.775 82.055 C 855.974 82.390 849.789 84.669 845.410 86.665 C 837.563 90.240 828.009 96.918 821.367 102.417 C 812.762 109.541 802.701 120.685 795.665 129.362 C 783.304 144.606 769.302 166.849 759.185 183.667 C 749.526 199.725 738.528 222.204 729.675 238.720 C 729.675 238.720 729.675 238.720 729.675 238.720 C 731.635 240.529 736.208 244.750 736.208 244.750 C 736.208 244.750 736.208 244.750 736.208 244.750 C 743.294 240.780 752.423 234.855 759.828 231.517 C 768.769 227.486 781.366 223.763 790.724 220.826 C 800.691 217.699 813.982 213.362 824.239 211.385 C 835.565 209.202 850.947 207.740 862.475 207.373 C 870.406 207.121 880.986 208.744 888.909 208.317 C 891.689 208.168 895.397 207.743 898.114 207.137 C 901.458 206.391 905.975 205.258 908.971 203.596 C 912.446 201.670 916.625 198.163 919.074 195.035 C 920.970 192.612 922.904 188.859 923.724 185.894 C 924.381 183.522 924.634 180.161 924.366 177.715 C 924.230 176.473 923.243 173.706 923.243 173.705 C 923.243 173.705 923.243 173.705 923.243 173.705 C 924.109 172.791 925.410 171.691 926.130 170.658 C 927.078 169.299 927.904 167.219 928.535 165.687 C 929.675 162.923 931.147 159.178 931.708 156.242 C 932.625 151.444 932.971 144.819 932.359 139.973 C 931.917 136.478 930.741 131.812 929.105 128.693 C 926.894 124.480 922.661 119.472 918.910 116.545 C 913.975 112.696 906.136 109.062 900.038 107.652 C 896.738 106.889 888.759 107.218 888.758 107.218 "/> <path fill="#6fa022" d="M 789.101 202.807 C 788.785 202.856 789.102 202.587 790.290 204.342 L 787.913 203.392 C 789.102 205.147 789.417 204.878 789.101 204.927 L 789.101 202.807 Z"/> <path fill="#6fa022" d="M 789.361 202.614 C 795.078 204.052 801.595 195.593 807.498 192.184 L 809.883 196.369 C 804.685 199.287 796.144 206.379 788.842 205.120 L 789.361 202.614 Z"/> <path fill="none" stroke="#6fa022" stroke-width="1" stroke-linecap="butt" stroke-linejoin="round" d="M 789.361 202.614 L 788.842 205.120 "/> <path fill="#6fa022" d="M 807.498 192.184 C 822.800 183.463 837.890 173.592 852.172 163.244 L 854.998 167.145 C 840.620 177.560 825.314 187.572 809.883 196.369 L 807.498 192.184 Z"/> <path fill="none" stroke="#6fa022" stroke-width="1" stroke-linecap="butt" stroke-linejoin="round" d="M 807.498 192.184 L 809.883 196.369 "/> <path fill="#6fa022" d="M 852.172 163.244 C 856.819 159.896 868.760 156.301 871.051 151.667 L 871.481 151.882 C 869.054 156.682 859.198 164.084 854.998 167.145 L 852.172 163.244 Z"/> <path fill="none" stroke="#6fa022" stroke-width="1" stroke-linecap="butt" stroke-linejoin="round" d="M 852.172 163.244 L 854.998 167.145 "/> <path fill="#6fa022" d="M 826.348 181.720 C 831.320 181.789 837.661 184.995 841.514 187.703 L 840.124 189.670 C 836.549 187.131 830.494 185.270 826.332 185.297 L 826.348 181.720 Z"/> <path fill="none" stroke="#6fa022" stroke-width="1" stroke-linecap="butt" stroke-linejoin="round" d="M 826.348 181.720 L 826.332 185.297 "/> <path fill="#6fa022" d="M 841.514 187.703 C 843.254 188.942 847.973 192.508 848.181 195.106 L 847.941 195.122 C 847.807 192.683 842.089 191.050 840.124 189.670 L 841.514 187.703 Z"/> <path fill="none" stroke="#6fa022" stroke-width="1" stroke-linecap="butt" stroke-linejoin="round" d="M 841.514 187.703 L 840.124 189.670 "/> <path fill="#6fa022" d="M 843.783 170.781 C 843.860 170.381 844.837 168.570 844.906 168.477 L 846.493 169.928 C 846.190 170.242 844.187 170.735 844.265 170.781 L 843.783 170.781 Z"/> <path fill="none" stroke="#6fa022" stroke-width="1" stroke-linecap="butt" stroke-linejoin="round" d="M 843.783 170.781 L 844.265 170.781 "/> <path fill="#6fa022" d="M 844.906 168.477 C 846.161 167.107 847.063 165.629 847.630 163.956 L 849.906 164.745 C 849.203 166.733 847.836 168.456 846.493 169.928 L 844.906 168.477 Z"/> <path fill="none" stroke="#6fa022" stroke-width="1" stroke-linecap="butt" stroke-linejoin="round" d="M 844.906 168.477 L 846.493 169.928 "/> <path fill="#6fa022" d="M 847.630 163.956 C 849.175 159.620 849.480 153.989 849.479 149.148 L 849.720 149.148 C 849.720 153.971 851.576 159.813 849.906 164.745 L 847.630 163.956 Z"/> <path fill="none" stroke="#6fa022" stroke-width="1" stroke-linecap="butt" stroke-linejoin="round" d="M 847.630 163.956 L 849.906 164.745 "/> <path fill="#267d38" fill-rule="evenodd" stroke="none" d="M 887.681 296.100 C 885.253 294.972 882.484 292.636 880.256 291.151 C 880.256 291.152 879.565 299.404 878.538 302.776 C 877.687 305.570 876.139 309.242 874.401 311.589 C 872.628 313.984 869.581 316.708 867.027 318.244 C 865.052 319.432 862.101 320.532 859.833 320.942 C 857.656 321.335 854.602 321.488 852.458 320.942 C 850.376 320.411 848.052 318.550 846.163 317.524 C 846.163 317.525 844.895 321.423 843.645 322.560 C 842.155 323.916 839.347 324.627 837.350 324.899 C 833.259 325.457 827.484 324.890 823.681 323.280 C 819.902 321.679 815.703 317.794 813.070 314.647 C 810.806 311.942 809.003 307.491 807.314 304.395 C 804.102 298.504 800.606 290.192 796.882 284.610 C 793.861 280.081 789.385 274.259 785.371 270.581 C 781.939 267.437 776.671 264.028 772.601 261.768 C 770.784 260.759 768.230 259.653 766.284 258.921 C 764.247 258.154 761.484 257.196 759.343 256.803 C 756.422 256.267 752.425 256.391 749.461 256.215 C 749.459 256.213 739.167 244.109 734.755 238.921 C 736.497 237.504 738.685 235.429 740.563 234.197 C 747.887 229.391 758.796 224.928 766.845 221.469 C 774.569 218.150 785.060 214.153 793.059 211.567 C 800.485 209.167 810.540 206.415 818.165 204.756 C 824.759 203.320 833.636 201.713 840.352 201.058 C 845.759 200.530 853.040 200.001 858.452 200.474 C 864.099 200.967 871.610 202.442 876.941 204.366 C 882.911 206.521 890.558 210.470 895.625 214.292 C 900.078 217.651 905.318 223.106 908.578 227.632 C 912.050 232.452 915.296 239.778 917.653 245.231 C 919.805 250.212 922.607 256.964 923.702 262.279 C 924.670 266.976 925.593 273.497 924.802 278.227 C 924.095 282.458 922.009 288.098 919.302 291.426 C 916.834 294.462 912.289 297.608 908.578 298.850 C 905.992 299.716 902.218 299.674 899.504 299.400 C 895.840 299.029 891.020 297.653 887.681 296.100 M 734.755 238.921 C 734.755 238.921 734.755 238.921 734.755 238.921 Z"/> <path fill="none" stroke="#dd5d06" stroke-width="10" stroke-opacity="0.000000" stroke-linecap="round" stroke-linejoin="round" d="M 880.256 291.151 C 880.256 291.151 880.256 291.151 880.256 291.151 C 882.484 292.636 885.253 294.972 887.681 296.100 C 891.020 297.653 895.840 299.029 899.504 299.400 C 902.218 299.674 905.992 299.716 908.578 298.850 C 912.289 297.608 916.834 294.462 919.302 291.426 C 922.009 288.098 924.095 282.458 924.802 278.227 C 925.593 273.497 924.670 266.976 923.702 262.279 C 922.607 256.964 919.805 250.212 917.653 245.231 C 915.296 239.778 912.050 232.452 908.578 227.632 C 905.318 223.106 900.078 217.651 895.625 214.292 C 890.558 210.470 882.911 206.521 876.941 204.366 C 871.610 202.442 864.099 200.967 858.452 200.474 C 853.040 200.001 845.759 200.530 840.352 201.058 C 833.636 201.713 824.759 203.320 818.165 204.756 C 810.540 206.415 800.485 209.167 793.059 211.567 C 785.060 214.153 774.569 218.150 766.845 221.469 C 758.796 224.928 747.887 229.391 740.563 234.197 C 738.685 235.429 736.497 237.504 734.755 238.921 C 734.755 238.921 734.755 238.921 734.755 238.921 C 739.167 244.109 749.459 256.213 749.461 256.215 C 749.461 256.215 749.461 256.215 749.461 256.215 C 752.425 256.391 756.422 256.267 759.343 256.803 C 761.484 257.196 764.247 258.154 766.284 258.921 C 768.230 259.653 770.784 260.759 772.601 261.768 C 776.671 264.028 781.939 267.437 785.371 270.581 C 789.385 274.259 793.861 280.081 796.882 284.610 C 800.606 290.192 804.102 298.504 807.314 304.395 C 809.003 307.491 810.806 311.942 813.070 314.647 C 815.703 317.794 819.902 321.679 823.681 323.280 C 827.484 324.890 833.259 325.457 837.350 324.899 C 839.347 324.627 842.155 323.916 843.645 322.560 C 844.895 321.423 846.163 317.525 846.163 317.524 C 846.163 317.524 846.163 317.524 846.163 317.524 C 848.052 318.550 850.376 320.411 852.458 320.942 C 854.602 321.488 857.656 321.335 859.833 320.942 C 862.101 320.532 865.052 319.432 867.027 318.244 C 869.581 316.708 872.628 313.984 874.401 311.589 C 876.139 309.242 877.687 305.570 878.538 302.776 C 879.565 299.404 880.256 291.152 880.256 291.151 "/> <path fill="#115920" d="M 749.721 242.672 C 750.064 242.210 750.416 241.961 750.945 242.672 L 749.461 242.672 C 749.990 243.382 750.341 243.133 750.684 242.672 L 749.721 242.672 Z"/> <path fill="#115920" d="M 750.177 241.930 C 782.414 240.784 813.953 230.180 844.911 248.881 L 842.400 252.991 C 813.220 234.940 782.648 242.250 750.230 243.413 L 750.177 241.930 Z"/> <path fill="none" stroke="#115920" stroke-width="1" stroke-linecap="butt" stroke-linejoin="round" d="M 750.177 241.930 L 750.230 243.413 "/> <path fill="#115920" d="M 844.911 248.881 C 850.339 252.264 851.533 258.174 855.523 262.162 L 855.182 262.503 C 851.157 258.476 847.001 255.736 842.400 252.991 L 844.911 248.881 Z"/> <path fill="none" stroke="#115920" stroke-width="1" stroke-linecap="butt" stroke-linejoin="round" d="M 844.911 248.881 L 842.400 252.991 "/> <path fill="#115920" d="M 816.011 241.256 C 816.258 240.627 816.469 238.186 819.051 238.794 L 816.894 239.866 C 818.739 238.992 818.640 240.982 818.281 242.061 L 816.011 241.256 Z"/> <path fill="#115920" d="M 817.215 238.394 C 820.008 236.160 823.805 234.779 827.214 233.860 L 827.840 236.186 C 824.530 237.076 821.167 238.270 818.729 240.266 L 817.215 238.394 Z"/> <path fill="none" stroke="#115920" stroke-width="1" stroke-linecap="butt" stroke-linejoin="round" d="M 817.215 238.394 L 818.729 240.266 "/> <path fill="#115920" d="M 827.214 233.860 C 836.217 231.459 847.501 233.397 856.131 235.975 L 856.062 236.206 C 847.460 233.634 836.398 233.860 827.840 236.186 L 827.214 233.860 Z"/> <path fill="none" stroke="#115920" stroke-width="1" stroke-linecap="butt" stroke-linejoin="round" d="M 827.214 233.860 L 827.840 236.186 "/> </g> <g id="Carrot"> <clipPath id="62ed02e5-e2e2-49f0-97e1-9cd46cf67029"> <path fill="#f68026" fill-rule="evenodd" stroke="none" d="M 345.323 632.385 C 345.341 626.379 348.400 618.663 350.590 613.071 C 355.031 601.731 364.246 588.150 369.905 577.368 C 374.759 568.120 380.913 555.626 385.708 546.347 C 389.530 538.952 394.091 528.774 398.584 521.765 C 403.987 513.339 412.637 503.097 419.069 495.427 C 424.905 488.469 433.266 479.696 439.345 472.949 C 445.091 466.571 453.041 458.315 458.487 451.680 C 463.982 444.985 471.005 435.785 475.768 428.550 C 481.229 420.255 487.628 408.629 492.251 399.838 C 496.310 392.120 500.906 381.421 504.844 373.640 C 507.192 368.999 509.946 362.557 512.957 358.315 C 516.479 353.354 522.329 347.619 526.808 343.501 C 531.659 339.040 538.812 333.885 544.073 329.916 C 550.093 325.374 558.670 320.040 564.451 315.198 C 568.713 311.629 574.371 306.727 577.821 302.368 C 580.438 299.062 583.360 294.177 585.053 290.315 C 586.867 286.175 587.772 280.116 589.271 275.852 C 590.873 271.296 592.890 265.086 595.437 260.984 C 599.712 254.102 607.483 246.317 613.567 240.966 C 620.293 235.051 630.406 228.529 638.117 223.970 C 645.096 219.844 654.401 213.758 662.289 211.884 C 670.667 209.894 682.515 210.378 690.994 211.884 C 698.228 213.169 707.499 216.833 714.033 220.193 C 720.769 223.657 728.888 229.817 734.806 234.546 C 743.388 241.402 754.613 251.017 761.622 259.473 C 767.838 266.972 775.157 277.943 779.017 286.885 C 782.713 295.446 785.930 307.704 786.737 316.994 C 787.521 326.019 786.562 338.300 784.421 347.103 C 782.312 355.776 777.470 366.878 772.841 374.510 C 768.404 381.825 760.797 390.513 754.698 396.513 C 745.350 405.709 730.641 415.420 720.275 423.451 C 711.823 430.000 700.502 438.665 692.001 445.150 C 683.046 451.981 671.105 461.090 662.084 467.835 C 655.129 473.035 645.967 480.130 638.790 485.019 C 631.578 489.931 621.763 496.211 614.150 500.475 C 608.512 503.632 600.798 507.502 594.885 510.107 C 591.322 511.677 586.276 513.078 582.789 514.811 C 580.467 515.965 577.325 517.557 575.397 519.291 C 573.697 520.819 572.070 523.463 570.751 525.330 C 568.111 529.067 565.204 534.463 562.537 538.181 C 559.323 542.659 554.794 548.481 551.010 552.489 C 544.733 559.139 535.305 566.949 528.243 572.759 C 522.302 577.647 514.189 583.950 507.840 588.296 C 498.707 594.546 485.888 601.900 476.309 607.443 C 468.411 612.013 457.765 617.909 449.679 622.135 C 444.430 624.879 437.340 628.360 431.998 630.918 C 426.033 633.774 418.097 637.639 411.977 640.146 C 407.266 642.077 400.887 644.431 396.023 645.934 C 392.086 647.150 386.764 648.550 382.727 649.375 C 379.704 649.993 375.642 650.783 372.560 650.939 C 369.087 651.115 364.402 650.957 360.985 650.313 C 358.564 649.857 355.327 648.990 353.164 647.811 C 352.225 647.298 351.120 646.363 350.349 645.621 C 349.435 644.741 348.452 643.348 347.639 642.373 C 347.639 642.373 347.639 642.373 347.639 642.373 C 347.646 642.362 345.314 635.461 345.323 632.385 Z"/> </clipPath> <path fill="#f68026" fill-rule="evenodd" stroke="#000000" stroke-width="5" stroke-opacity="0.000000" stroke-linecap="round" stroke-linejoin="round" d="M 345.323 632.385 C 345.341 626.379 348.400 618.663 350.590 613.071 C 355.031 601.731 364.246 588.150 369.905 577.368 C 374.759 568.120 380.913 555.626 385.708 546.347 C 389.530 538.952 394.091 528.774 398.584 521.765 C 403.987 513.339 412.637 503.097 419.069 495.427 C 424.905 488.469 433.266 479.696 439.345 472.949 C 445.091 466.571 453.041 458.315 458.487 451.680 C 463.982 444.985 471.005 435.785 475.768 428.550 C 481.229 420.255 487.628 408.629 492.251 399.838 C 496.310 392.120 500.906 381.421 504.844 373.640 C 507.192 368.999 509.946 362.557 512.957 358.315 C 516.479 353.354 522.329 347.619 526.808 343.501 C 531.659 339.040 538.812 333.885 544.073 329.916 C 550.093 325.374 558.670 320.040 564.451 315.198 C 568.713 311.629 574.371 306.727 577.821 302.368 C 580.438 299.062 583.360 294.177 585.053 290.315 C 586.867 286.175 587.772 280.116 589.271 275.852 C 590.873 271.296 592.890 265.086 595.437 260.984 C 599.712 254.102 607.483 246.317 613.567 240.966 C 620.293 235.051 630.406 228.529 638.117 223.970 C 645.096 219.844 654.401 213.758 662.289 211.884 C 670.667 209.894 682.515 210.378 690.994 211.884 C 698.228 213.169 707.499 216.833 714.033 220.193 C 720.769 223.657 728.888 229.817 734.806 234.546 C 743.388 241.402 754.613 251.017 761.622 259.473 C 767.838 266.972 775.157 277.943 779.017 286.885 C 782.713 295.446 785.930 307.704 786.737 316.994 C 787.521 326.019 786.562 338.300 784.421 347.103 C 782.312 355.776 777.470 366.878 772.841 374.510 C 768.404 381.825 760.797 390.513 754.698 396.513 C 745.350 405.709 730.641 415.420 720.275 423.451 C 711.823 430.000 700.502 438.665 692.001 445.150 C 683.046 451.981 671.105 461.090 662.084 467.835 C 655.129 473.035 645.967 480.130 638.790 485.019 C 631.578 489.931 621.763 496.211 614.150 500.475 C 608.512 503.632 600.798 507.502 594.885 510.107 C 591.322 511.677 586.276 513.078 582.789 514.811 C 580.467 515.965 577.325 517.557 575.397 519.291 C 573.697 520.819 572.070 523.463 570.751 525.330 C 568.111 529.067 565.204 534.463 562.537 538.181 C 559.323 542.659 554.794 548.481 551.010 552.489 C 544.733 559.139 535.305 566.949 528.243 572.759 C 522.302 577.647 514.189 583.950 507.840 588.296 C 498.707 594.546 485.888 601.900 476.309 607.443 C 468.411 612.013 457.765 617.909 449.679 622.135 C 444.430 624.879 437.340 628.360 431.998 630.918 C 426.033 633.774 418.097 637.639 411.977 640.146 C 407.266 642.077 400.887 644.431 396.023 645.934 C 392.086 647.150 386.764 648.550 382.727 649.375 C 379.704 649.993 375.642 650.783 372.560 650.939 C 369.087 651.115 364.402 650.957 360.985 650.313 C 358.564 649.857 355.327 648.990 353.164 647.811 C 352.225 647.298 351.120 646.363 350.349 645.621 C 349.435 644.741 348.452 643.348 347.639 642.373 C 347.639 642.373 347.639 642.373 347.639 642.373 C 347.646 642.362 345.314 635.461 345.323 632.385 Z"/> <path fill="#dd5d06" d="M 768.156 381.793 C 769.015 369.958 766.867 361.881 760.717 351.599 L 768.112 347.194 C 774.664 358.235 778.599 369.003 777.767 382.436 L 768.156 381.793 Z" clip-path="url(#62ed02e5-e2e2-49f0-97e1-9cd46cf67029)"/> <path fill="#dd5d06" d="M 760.717 351.599 C 755.461 342.716 755.820 330.092 749.118 323.003 L 749.118 323.003 C 755.820 330.092 763.324 339.215 768.112 347.194 L 760.717 351.599 Z" clip-path="url(#62ed02e5-e2e2-49f0-97e1-9cd46cf67029)"/> <path fill="none" stroke="#dd5d06" stroke-width="1" stroke-linecap="butt" stroke-linejoin="round" d="M 760.717 351.599 L 768.112 347.194 " clip-path="url(#62ed02e5-e2e2-49f0-97e1-9cd46cf67029)"/> <path fill="#dd5d06" d="M 753.424 406.923 C 753.627 399.702 748.715 391.731 745.539 383.427 L 754.545 380.009 C 757.351 387.465 762.852 396.929 763.056 406.923 L 753.424 406.923 Z" clip-path="url(#62ed02e5-e2e2-49f0-97e1-9cd46cf67029)"/> <path fill="none" stroke="#dd5d06" stroke-width="1" stroke-linecap="butt" stroke-linejoin="round" d="M 753.424 406.923 L 763.056 406.923 " clip-path="url(#62ed02e5-e2e2-49f0-97e1-9cd46cf67029)"/> <path fill="#dd5d06" d="M 745.539 383.427 C 740.222 369.377 732.408 355.639 723.852 343.115 L 731.807 337.684 C 740.587 350.550 748.929 365.256 754.545 380.009 L 745.539 383.427 Z" clip-path="url(#62ed02e5-e2e2-49f0-97e1-9cd46cf67029)"/> <path fill="none" stroke="#dd5d06" stroke-width="1" stroke-linecap="butt" stroke-linejoin="round" d="M 745.539 383.427 L 754.545 380.009 " clip-path="url(#62ed02e5-e2e2-49f0-97e1-9cd46cf67029)"/> <path fill="#dd5d06" d="M 723.852 343.115 C 716.299 332.017 714.971 317.351 705.334 308.409 L 705.334 308.409 C 714.971 317.351 724.711 327.325 731.807 337.684 L 723.852 343.115 Z" clip-path="url(#62ed02e5-e2e2-49f0-97e1-9cd46cf67029)"/> <path fill="none" stroke="#dd5d06" stroke-width="1" stroke-linecap="butt" stroke-linejoin="round" d="M 723.852 343.115 L 731.807 337.684 " clip-path="url(#62ed02e5-e2e2-49f0-97e1-9cd46cf67029)"/> <path fill="#dd5d06" d="M 693.252 447.426 C 694.641 435.257 695.168 425.663 690.526 414.717 L 698.994 411.196 C 704.148 423.804 704.250 435.927 702.822 448.515 L 693.252 447.426 Z" clip-path="url(#62ed02e5-e2e2-49f0-97e1-9cd46cf67029)"/> <path fill="none" stroke="#dd5d06" stroke-width="1" stroke-linecap="butt" stroke-linejoin="round" d="M 693.252 447.426 L 702.822 448.515 " clip-path="url(#62ed02e5-e2e2-49f0-97e1-9cd46cf67029)"/> <path fill="#dd5d06" d="M 690.526 414.718 C 686.726 405.569 686.670 390.964 677.969 385.943 L 677.969 385.943 C 686.670 390.964 695.333 402.403 698.994 411.196 L 690.526 414.718 Z" clip-path="url(#62ed02e5-e2e2-49f0-97e1-9cd46cf67029)"/> <path fill="none" stroke="#dd5d06" stroke-width="1" stroke-linecap="butt" stroke-linejoin="round" d="M 690.526 414.718 L 698.994 411.196 " clip-path="url(#62ed02e5-e2e2-49f0-97e1-9cd46cf67029)"/> <path fill="#dd5d06" d="M 645.956 485.867 C 642.061 477.808 641.452 467.927 638.758 461.134 L 647.745 457.667 C 650.894 466.019 651.418 475.521 654.572 481.559 L 645.956 485.867 Z" clip-path="url(#62ed02e5-e2e2-49f0-97e1-9cd46cf67029)"/> <path fill="none" stroke="#dd5d06" stroke-width="1" stroke-linecap="butt" stroke-linejoin="round" d="M 645.956 485.867 L 654.572 481.559 " clip-path="url(#62ed02e5-e2e2-49f0-97e1-9cd46cf67029)"/> <path fill="#dd5d06" d="M 638.758 461.134 C 633.719 447.948 627.957 431.655 618.319 420.945 L 618.319 420.945 C 627.957 431.655 642.154 443.298 647.745 457.667 L 638.758 461.134 Z" clip-path="url(#62ed02e5-e2e2-49f0-97e1-9cd46cf67029)"/> <path fill="none" stroke="#dd5d06" stroke-width="1" stroke-linecap="butt" stroke-linejoin="round" d="M 638.758 461.134 L 647.745 457.667 " clip-path="url(#62ed02e5-e2e2-49f0-97e1-9cd46cf67029)"/> <path fill="#dd5d06" d="M 578.211 520.880 C 578.927 512.922 577.957 504.624 572.555 498.608 L 577.874 493.947 C 584.214 501.328 588.507 511.913 587.813 521.645 L 578.211 520.880 Z" clip-path="url(#62ed02e5-e2e2-49f0-97e1-9cd46cf67029)"/> <path fill="none" stroke="#dd5d06" stroke-width="1" stroke-linecap="butt" stroke-linejoin="round" d="M 578.211 520.880 L 587.813 521.645 " clip-path="url(#62ed02e5-e2e2-49f0-97e1-9cd46cf67029)"/> <path fill="#dd5d06" d="M 572.555 498.608 C 568.956 494.405 568.669 487.000 564.656 485.140 L 565.500 483.408 C 570.151 485.769 575.055 490.827 577.874 493.947 L 572.555 498.608 Z" clip-path="url(#62ed02e5-e2e2-49f0-97e1-9cd46cf67029)"/> <path fill="none" stroke="#dd5d06" stroke-width="1" stroke-linecap="butt" stroke-linejoin="round" d="M 572.555 498.608 L 577.874 493.947 " clip-path="url(#62ed02e5-e2e2-49f0-97e1-9cd46cf67029)"/> <path fill="#dd5d06" d="M 534.211 576.228 C 526.312 568.216 521.447 557.827 515.090 550.471 L 522.409 544.209 C 529.577 552.661 534.245 562.753 541.022 569.417 L 534.211 576.228 Z" clip-path="url(#62ed02e5-e2e2-49f0-97e1-9cd46cf67029)"/> <path fill="none" stroke="#dd5d06" stroke-width="1" stroke-linecap="butt" stroke-linejoin="round" d="M 534.211 576.228 L 541.022 569.417 " clip-path="url(#62ed02e5-e2e2-49f0-97e1-9cd46cf67029)"/> <path fill="#dd5d06" d="M 515.090 550.471 C 511.865 546.679 512.607 540.357 507.961 540.719 L 507.866 538.795 C 513.498 538.649 519.657 541.015 522.409 544.209 L 515.090 550.471 Z" clip-path="url(#62ed02e5-e2e2-49f0-97e1-9cd46cf67029)"/> <path fill="none" stroke="#dd5d06" stroke-width="1" stroke-linecap="butt" stroke-linejoin="round" d="M 515.090 550.471 L 522.409 544.209 " clip-path="url(#62ed02e5-e2e2-49f0-97e1-9cd46cf67029)"/> <path fill="#dd5d06" d="M 423.516 636.152 C 423.667 622.217 416.847 610.398 410.941 596.659 L 419.793 592.859 C 425.484 606.133 432.996 619.820 433.148 636.152 L 423.516 636.152 Z" clip-path="url(#62ed02e5-e2e2-49f0-97e1-9cd46cf67029)"/> <path fill="none" stroke="#dd5d06" stroke-width="1" stroke-linecap="butt" stroke-linejoin="round" d="M 423.516 636.152 L 433.148 636.152 " clip-path="url(#62ed02e5-e2e2-49f0-97e1-9cd46cf67029)"/> <path fill="#dd5d06" d="M 410.941 596.659 C 409.258 592.686 408.045 583.112 403.112 583.313 L 403.112 581.387 C 409.225 581.588 417.724 588.093 419.793 592.859 L 410.941 596.659 Z" clip-path="url(#62ed02e5-e2e2-49f0-97e1-9cd46cf67029)"/> <path fill="none" stroke="#dd5d06" stroke-width="1" stroke-linecap="butt" stroke-linejoin="round" d="M 410.941 596.659 L 419.793 592.859 " clip-path="url(#62ed02e5-e2e2-49f0-97e1-9cd46cf67029)"/> <path fill="#dd5d06" d="M 390.826 516.736 C 397.919 524.134 411.840 527.599 421.987 536.094 L 415.719 543.408 C 407.602 536.249 393.419 532.650 384.014 523.547 L 390.826 516.736 Z" clip-path="url(#62ed02e5-e2e2-49f0-97e1-9cd46cf67029)"/> <path fill="none" stroke="#dd5d06" stroke-width="1" stroke-linecap="butt" stroke-linejoin="round" d="M 390.826 516.736 L 384.014 523.547 " clip-path="url(#62ed02e5-e2e2-49f0-97e1-9cd46cf67029)"/> <path fill="#dd5d06" d="M 421.987 536.094 C 439.022 550.812 449.342 576.818 458.896 595.930 L 457.173 596.792 C 447.644 577.728 431.464 556.782 415.719 543.408 L 421.987 536.094 Z" clip-path="url(#62ed02e5-e2e2-49f0-97e1-9cd46cf67029)"/> <path fill="none" stroke="#dd5d06" stroke-width="1" stroke-linecap="butt" stroke-linejoin="round" d="M 421.987 536.094 L 415.719 543.408 " clip-path="url(#62ed02e5-e2e2-49f0-97e1-9cd46cf67029)"/> <path fill="#dd5d06" d="M 444.454 455.047 C 460.460 465.740 474.365 478.994 487.168 492.942 L 480.071 499.455 C 467.486 485.737 454.443 473.262 439.111 463.061 L 444.454 455.047 Z" clip-path="url(#62ed02e5-e2e2-49f0-97e1-9cd46cf67029)"/> <path fill="none" stroke="#dd5d06" stroke-width="1" stroke-linecap="butt" stroke-linejoin="round" d="M 444.454 455.047 L 439.111 463.061 " clip-path="url(#62ed02e5-e2e2-49f0-97e1-9cd46cf67029)"/> <path fill="#dd5d06" d="M 487.168 492.942 C 492.623 498.936 493.613 508.405 499.030 513.261 L 497.742 514.693 C 492.102 509.600 484.812 504.572 480.071 499.455 L 487.168 492.942 Z" clip-path="url(#62ed02e5-e2e2-49f0-97e1-9cd46cf67029)"/> <path fill="none" stroke="#dd5d06" stroke-width="1" stroke-linecap="butt" stroke-linejoin="round" d="M 487.168 492.942 L 480.071 499.455 " clip-path="url(#62ed02e5-e2e2-49f0-97e1-9cd46cf67029)"/> <path fill="#dd5d06" d="M 476.298 395.478 C 498.189 406.441 526.002 415.582 543.331 436.534 L 535.859 442.613 C 520.676 423.609 494.591 415.376 471.991 404.093 L 476.298 395.478 Z" clip-path="url(#62ed02e5-e2e2-49f0-97e1-9cd46cf67029)"/> <path fill="none" stroke="#dd5d06" stroke-width="1" stroke-linecap="butt" stroke-linejoin="round" d="M 476.298 395.478 L 471.991 404.093 " clip-path="url(#62ed02e5-e2e2-49f0-97e1-9cd46cf67029)"/> <path fill="#dd5d06" d="M 543.331 436.534 C 546.142 440.013 553.033 452.247 552.692 457.949 L 550.774 457.767 C 551.399 453.268 539.184 446.674 535.859 442.613 L 543.331 436.534 Z" clip-path="url(#62ed02e5-e2e2-49f0-97e1-9cd46cf67029)"/> <path fill="none" stroke="#dd5d06" stroke-width="1" stroke-linecap="butt" stroke-linejoin="round" d="M 543.331 436.534 L 535.859 442.613 " clip-path="url(#62ed02e5-e2e2-49f0-97e1-9cd46cf67029)"/> <path fill="#dd5d06" d="M 520.045 329.265 C 545.866 329.674 571.775 352.509 586.419 369.797 L 579.885 375.323 C 565.783 358.618 541.980 338.488 520.045 338.897 L 520.045 329.265 Z" clip-path="url(#62ed02e5-e2e2-49f0-97e1-9cd46cf67029)"/> <path fill="none" stroke="#dd5d06" stroke-width="1" stroke-linecap="butt" stroke-linejoin="round" d="M 520.045 329.265 L 520.045 338.897 " clip-path="url(#62ed02e5-e2e2-49f0-97e1-9cd46cf67029)"/> <path fill="#dd5d06" d="M 586.419 369.797 C 590.457 374.849 588.662 382.768 591.931 385.956 L 590.569 387.318 C 586.917 383.584 582.615 378.275 579.885 375.323 L 586.419 369.797 Z" clip-path="url(#62ed02e5-e2e2-49f0-97e1-9cd46cf67029)"/> <path fill="none" stroke="#dd5d06" stroke-width="1" stroke-linecap="butt" stroke-linejoin="round" d="M 586.419 369.797 L 579.885 375.323 " clip-path="url(#62ed02e5-e2e2-49f0-97e1-9cd46cf67029)"/> <path fill="#dd5d06" d="M 570.341 294.792 C 577.145 295.113 583.530 299.568 587.570 300.926 L 584.357 310.007 C 578.853 307.988 573.690 304.104 570.341 304.425 L 570.341 294.792 Z" clip-path="url(#62ed02e5-e2e2-49f0-97e1-9cd46cf67029)"/> <path fill="none" stroke="#dd5d06" stroke-width="1" stroke-linecap="butt" stroke-linejoin="round" d="M 570.341 294.792 L 570.341 304.425 " clip-path="url(#62ed02e5-e2e2-49f0-97e1-9cd46cf67029)"/> <path fill="#dd5d06" d="M 587.570 300.926 C 608.275 308.341 630.620 326.051 645.396 341.493 L 638.432 348.148 C 624.192 333.224 603.422 316.661 584.357 310.007 L 587.570 300.926 Z" clip-path="url(#62ed02e5-e2e2-49f0-97e1-9cd46cf67029)"/> <path fill="none" stroke="#dd5d06" stroke-width="1" stroke-linecap="butt" stroke-linejoin="round" d="M 587.570 300.926 L 584.357 310.007 " clip-path="url(#62ed02e5-e2e2-49f0-97e1-9cd46cf67029)"/> <path fill="#dd5d06" d="M 645.396 341.493 C 648.966 345.325 656.496 354.528 658.832 360.292 L 657.037 360.991 C 655.157 355.913 643.199 353.040 638.432 348.148 L 645.396 341.493 Z" clip-path="url(#62ed02e5-e2e2-49f0-97e1-9cd46cf67029)"/> <path fill="none" stroke="#dd5d06" stroke-width="1" stroke-linecap="butt" stroke-linejoin="round" d="M 645.396 341.493 L 638.432 348.148 " clip-path="url(#62ed02e5-e2e2-49f0-97e1-9cd46cf67029)"/> <path fill="#dd5d06" d="M 601.988 233.194 C 622.709 233.201 646.870 236.415 661.892 254.491 L 655.070 259.991 C 642.744 244.146 622.200 242.820 601.988 242.827 L 601.988 233.194 Z" clip-path="url(#62ed02e5-e2e2-49f0-97e1-9cd46cf67029)"/> <path fill="none" stroke="#dd5d06" stroke-width="1" stroke-linecap="butt" stroke-linejoin="round" d="M 601.988 233.194 L 601.988 242.827 " clip-path="url(#62ed02e5-e2e2-49f0-97e1-9cd46cf67029)"/> <path fill="#dd5d06" d="M 661.892 254.491 C 664.704 257.979 668.293 268.160 667.935 273.143 L 666.018 272.954 C 666.544 268.968 657.825 263.409 655.070 259.991 L 661.892 254.491 Z" clip-path="url(#62ed02e5-e2e2-49f0-97e1-9cd46cf67029)"/> <path fill="none" stroke="#dd5d06" stroke-width="1" stroke-linecap="butt" stroke-linejoin="round" d="M 661.892 254.491 L 655.070 259.991 " clip-path="url(#62ed02e5-e2e2-49f0-97e1-9cd46cf67029)"/> <path fill="#793504" fill-rule="evenodd" fill-opacity="0.309804" stroke="none" d="M 769.987 294.815 C 772.401 287.335 774.111 276.945 775.878 269.287 C 775.880 269.290 788.314 294.081 790.606 305.616 C 793.362 319.483 794.493 339.151 790.606 352.745 C 785.800 369.557 770.831 388.793 759.186 401.838 C 730.781 433.658 682.292 465.395 646.273 488.242 C 628.246 499.676 602.285 511.610 583.433 521.625 C 583.427 521.632 544.130 573.229 522.558 590.355 C 492.839 613.950 446.545 637.028 410.626 649.267 C 399.526 653.049 384.026 658.024 372.333 657.122 C 364.384 656.508 354.765 651.000 347.236 648.376 C 369.199 639.512 399.552 629.984 420.444 618.829 C 453.673 601.086 497.469 574.343 523.540 547.153 C 532.926 537.364 539.230 519.178 549.068 509.843 C 559.805 499.655 578.729 492.147 591.288 484.314 C 614.790 469.657 647.346 451.690 668.855 434.239 C 692.632 414.948 723.472 387.008 740.531 361.582 C 752.729 343.402 763.262 315.650 769.987 294.815 M 347.236 648.376 C 347.236 648.376 347.236 648.376 347.236 648.376 Z" clip-path="url(#62ed02e5-e2e2-49f0-97e1-9cd46cf67029)"/> <path fill="none" stroke="#dd5d06" stroke-width="10" stroke-opacity="0.000000" stroke-linecap="round" stroke-linejoin="round" d="M 775.878 269.287 C 775.878 269.287 775.878 269.287 775.878 269.287 C 774.111 276.945 772.401 287.335 769.987 294.815 C 763.262 315.650 752.729 343.402 740.531 361.582 C 723.472 387.008 692.632 414.948 668.855 434.239 C 647.346 451.690 614.790 469.657 591.288 484.314 C 578.729 492.147 559.805 499.655 549.068 509.843 C 539.230 519.178 532.926 537.364 523.540 547.153 C 497.469 574.343 453.673 601.086 420.444 618.829 C 399.552 629.984 369.199 639.512 347.236 648.376 C 347.236 648.376 347.236 648.376 347.236 648.376 C 354.765 651.000 364.384 656.508 372.333 657.122 C 384.026 658.024 399.526 653.049 410.626 649.267 C 446.545 637.028 492.839 613.950 522.558 590.355 C 544.130 573.229 583.427 521.632 583.433 521.625 C 583.433 521.625 583.433 521.625 583.433 521.625 C 602.285 511.610 628.246 499.676 646.273 488.242 C 682.292 465.395 730.781 433.658 759.186 401.838 C 770.831 388.793 785.800 369.557 790.606 352.745 C 794.493 339.151 793.362 319.483 790.606 305.616 C 788.314 294.081 775.880 269.290 775.878 269.287 " clip-path="url(#62ed02e5-e2e2-49f0-97e1-9cd46cf67029)"/> <path fill="#ffffff" fill-rule="evenodd" fill-opacity="0.145098" stroke="#dd5d06" stroke-width="10" stroke-opacity="0.000000" stroke-linecap="round" stroke-linejoin="round" d="M 358.299 619.893 C 369.488 602.507 388.258 582.079 400.938 565.749 C 412.441 550.933 426.215 529.877 438.951 516.107 C 452.027 501.970 475.280 488.728 486.743 473.255 C 501.894 452.803 505.836 415.881 521.622 395.915 C 538.326 374.787 575.965 362.269 592.896 341.322 C 601.720 330.404 605.335 310.565 614.126 299.619 C 627.694 282.726 652.623 266.654 670.751 254.785 C 687.727 243.671 712.505 232.468 730.400 222.904 C 730.400 222.904 730.400 222.904 730.400 222.904 C 722.995 218.276 714.058 210.062 705.717 207.478 C 694.515 204.007 678.110 204.015 666.638 206.449 C 657.320 208.426 646.108 215.088 637.842 219.819 C 622.091 228.833 598.525 239.672 588.477 254.785 C 581.435 265.378 584.954 285.146 578.193 295.921 C 566.386 314.740 534.361 324.592 519.573 341.172 C 508.232 353.888 498.097 374.654 489.749 389.508 C 483.733 400.214 478.128 415.884 471.074 425.937 C 459.514 442.411 437.428 458.816 424.658 474.371 C 412.615 489.040 397.562 509.583 388.333 526.168 C 382.972 535.800 378.446 549.933 373.534 559.802 C 366.206 574.525 351.699 591.919 346.626 607.563 C 344.140 615.229 342.164 626.135 342.879 634.162 C 343.141 637.103 344.772 640.785 345.583 643.624 C 345.583 643.624 345.583 643.624 345.583 643.624 C 345.508 643.676 353.928 626.685 358.299 619.893 Z" clip-path="url(#62ed02e5-e2e2-49f0-97e1-9cd46cf67029)"/> </g> </g> </svg>