<?xml version="1.0" encoding="UTF-8"?>
<svg viewBox="0 0 800 1114" xmlns="http://www.w3.org/2000/svg">
 <path d="m0 557v-557h800v1114h-800v-557zm369-276l-0.5 1-3.5 9.5q-3.5 9.5-3.8 11l-0.2 1.5-0.2 1.5-0.3 1.5v8l0.3 0.2 0.2 0.3 0.2 0.3 0.3 0.2 0.3-1 0.2-1 1-0.2 1-0.3 0.2-0.3 0.3-0.2 0.5-1 0.5-1 0.3-0.2 0.2-0.3 1-0.5q1-0.5 1.5-2.2 0.5-1.8 1.5-1.8t2.8-3.5q1.7-3.5 2-2.5 0.2 1 1.2 1t1-2.2q0-2.3 1.8-3 1.7-0.8 2.4-2 0.8-1.3 2.6-2 1.7-0.8 3-3 1.2-2.3 3-3 1.7-0.8 2-1l0.2-0.3 2-2q2-2 2.5-2.3l0.5-0.2v-0.2q0-0.3 0.5-0.6l0.5-0.2 3-5.2q3-5.3 6-6.8t6-4 7.5-1.5 10.5 1.3l6 0.2v-0.5l5.5-1.5q5.5-1.5 7-2.5t5-0.5 3.7 0.8q0.3 0.2 0.6 0.4l0.2 0.3 1 0.5 1 0.5 0.2 0.3 0.3 0.2 1.5 4q1.5 4-23 75.5t-33 94-8.8 37l-0.2 14.5 5.2 22.5q5.3 22.5 5.6 25l0.2 2.5 5.8 19.5q5.7 19.5 8.7 31t3.5 13.5l0.5 2 0.5 1.5 0.5 1.5 0.3 0.5 0.2 0.5h3v-5l-0.2-2q-0.3-2-5.6-24.5l-5.2-22.5h-0.5l-0.5-2.5q-0.5-2.5-2-10l-1.5-7.5v-6l0.3 0.2 0.2 0.3 0.2 0.3 0.3 0.2 0.3 0.2 0.2 0.3 0.2 0.3 0.3 0.2 0.3 0.2 0.2 0.3 0.2 0.3 0.3 0.2 0.3 0.2 0.2 0.3 0.2 0.3 0.3 0.2 0.3 0.2 0.2 0.3 0.2 0.3 0.3 0.2 0.3 0.2 0.2 0.3 0.2 0.3 0.3 0.2 19.7 19.8q19.8 19.7 20.8 20 1 0.2 1 1.2t1 1 1 1 1 1 1 1 11.2 11.5q11.3 10.5 22 21.3 10.8 10.7 11.8 11 1 0.2 4.5 4 3.5 3.7 36.5 34.2t75 67.5 63.5 53.5 22 16.8l0.5 0.2h0.2q0.3 0 0.6 0.5l0.2 0.5h0.2q0.3 0 0.6 0.5l0.2 0.5h0.2q0.3 0 0.6 0.5l0.2 0.5 15 9.5q15 9.5 16.2 18.5 1.3 9-0.2 15.5t-1.2 7.5q0.2 1 1.2 1t1 1-1.8 1q-1.7 0-2.4 2.2-0.8 2.3-2 3.6-1.3 1.2-1 8.4 0.2 7.3 1.2 7.8l1 0.5-0.2 0.3-0.3 0.2-0.3 0.2-0.2 0.3-2 0.5q-2 0.5-6 0.8-4 0.2-4.2 2.7-0.3 2.5-2.3 5t-4.3 7q-2.2 4.5-8 8.5-5.7 4-10.4 5.8-4.8 1.7-6.8 3.7t-6.5 3-5.7 2.7q-1.3 1.8-5.6 2-4.2 0.3-6.7 4.6-2.5 4.2-5.3 5.7l-2.7 1.5-0.3 0.2-0.2 0.3-0.5 0.3-0.5 0.2h-0.5l-0.3 0.2-0.2 0.3-1 0.5-1 0.5-1 0.5q-1 0.5-7.5 3t-18 5.5-20.5 3.5-11-0.5-5-4.3q-3-3.2-7-6.4-4-3.3-13-14-9-10.8-10-10.8t-15.5-19l-14.5-19-0.5-0.2q-0.5-0.3-0.5-0.6v-0.2l-1-0.2-1-0.3-0.2-0.3-0.3-0.2-0.3-1-0.2-1-1-0.2-1-0.3-0.2-0.3-0.3-0.2-0.3-0.2-0.2-0.3-0.2-0.3-0.3-0.2-0.3-0.2-0.2-0.3-0.2-0.3-0.3-0.2-0.3-0.2-0.2-0.3-1-0.3-1-0.2 0.2 1.5 0.3 1.5 0.5 1.5 0.5 1.5v4q0 4-1.7 10.2-1.8 6.3-3.6 8-1.7 1.8-2.2 6.3t-2.8 7.7q-2.2 3.3-6.2 4.6-4 1.2-5.8 7.7-1.7 6.5-7 7.3-5.2 0.7-7.7 1.2t-4.7 5.8q-2.3 5.2-2 6.2 0.2 1-3.3 0.5t-5 1.7q-1.5 2.3-8.5 3.3t-8.5 2.5-9.5 1.8l-8 0.2-8.5 0.2q-8.5 0.3-29 0.3t-33-1-16.5-5-6.2-7.3q-2.3-3.2-8.8-32.7t-25.2-101.5l-18.8-72-0.2-0.5q-0.3-0.5-2.8-7.5l-2.5-7-0.5-1-0.5-1-0.3-0.2-0.2-0.3-0.2-0.3-0.3-0.2-0.3-1-0.2-1-1.5 0.2-1.5 0.3-0.2 0.3-0.3 0.2-0.3 0.2-0.2 0.3-0.2 0.3-0.3 0.2-0.5 1-0.5 1-4.5 8.5q-4.5 8.5-5 9.5l-0.5 1-0.5 1-0.5 1-0.5 1-0.5 1-0.3 0.2-0.2 0.3-0.2 0.3-0.3 0.2-0.3 0.5-0.2 0.5-22.2 46.5q-22.3 46.5-24.6 52.7-2.2 6.3-5.7 11.3t-6.3 7.3q-2.7 2.2-3.4 4-0.8 1.7-1.8 2-1 0.2-2 1.4-1 1.3-5.5 1.8t-5.5 2.8q-1 2.2-4 2-3-0.3-4-1.3t-4-0.5-6.5 3-7.5 1.5-12.5-6-14-8.5-8.7-4.8q-3.3-1.2-7-3.4-3.8-2.3-6.8-3.8t-3-1.8v-0.2l-0.5-0.2q-0.5-0.3-0.5-0.6v-0.2l-0.5-0.2q-0.5-0.3-0.5-0.6v-0.2l-0.5-0.2q-0.5-0.3-0.5-0.6v-0.2l-0.5-0.2q-0.5-0.3-0.5-0.6v-0.2l-0.5-0.2q-0.5-0.3-0.5-0.6v-0.2l-1-0.2-1-0.3-0.2-0.3-0.3-0.2-0.3-0.2q-0.2-0.3-3-7.6-2.7-7.2-7.7-10.7t-7-11.5-2.7-13.5l-0.8-5.5 0.2-3 0.3-3 0.3-0.2 0.2-0.3 0.2-0.3 0.3-0.2 0.5-1q0.5-1 3.8-6 3.2-5 4.2-5t7-9l6-9 0.2-4q0.3-4 0.8-11.5t8-28.5 21.2-53l13.8-32 0.2-0.5 0.3-0.5 0.5-6q0.5-6 4.5-16t20-50.5 16-63-0.7-27l-0.8-4.5-0.2-0.5q-0.3-0.5-11.8-15.5t-13.5-20-1-9 4.3-5.8q3.2-1.7 4-4 0.7-2.2-3.3-8.7t-4.5-10l-0.5-3.5 0.3-0.2 0.2-0.3 0.2-0.3 0.3-0.2 0.3-0.2 0.2-0.3 0.2-0.3 0.3-0.2 0.3-0.2 0.2-0.3 16-2q16-2 23-5t11.8-8.3q4.7-5.2 9-12 4.2-6.7 4.4-7 0.3-0.2 0.6-0.2h0.2v-0.2q0-0.3 1-0.8l1-0.5h4l0.2 0.3q0.3 0.2 0.6 0.7l0.2 0.5h0.2q0.3 0 0.6 0.5l0.2 0.5h0.2q0.3 0 0.6 0.5l0.2 0.5 13.2 14q13.3 14 13.8 15l0.5 1 0.3 0.2 0.2 0.3 0.2 0.3 0.3 0.2 0.3 0.2 0.2 0.3 0.2 0.3 0.3 0.2 0.3 0.2 0.2 0.3 0.2 0.3 0.3 0.2 0.3 0.2 0.2 0.3 0.2 0.3 0.3 0.2 0.3 0.2 0.2 0.3h2l0.2-0.3 0.3-0.2 0.3-2 0.2-2-0.2-1.5-0.3-1.5-0.5-4.5q-0.5-4.5-3.2-26l-2.8-21.5h-0.5l-0.5-2.5q-0.5-2.5-8-49.5l-7.5-47 0.5-1 0.5-1 0.3-0.2 0.2-0.3 0.2-0.3 0.3-0.2 0.3-0.2 0.2-0.3 8 0.5q8 0.5 16.5 0.8l8.5 0.2 9.2-1.5q9.3-1.5 14.6-4.7 5.2-3.3 8.2-5.8t3.5-2.8l0.5-0.2 1.5-2.2q1.5-2.3 4.5-2.6 3-0.2 10.8 36.8 7.7 37 9.7 47.5t3.3 12.3q1.2 1.7 6.7-9.6 5.5-11.2 6.5-11.2t0.2 3q-0.7 3-1.2 4z" fill="#fff" fill-rule="evenodd" stroke="#fff" stroke-width=".5"/>
 <path d="m392.8 476.8l0.2-0.3 1-0.3 1-0.2 0.2 2q0.3 2 0.8 3.5l0.5 1.5 0.5 1.5 0.5 1.5h0.5l5.2 22.5q5.3 22.5 5.6 25l0.2 2.5-0.8 20.5q-0.7 20.5 3.8 45t14.2 59.3q9.8 34.7 16.6 54.4 6.7 19.8 16.7 48.3t10 33-0.5 5.5-1 2l-0.5 1-0.5 1-0.5 1-0.3 0.2-0.2 0.3-0.2 0.3-0.3 0.2-0.3 0.2-0.2 0.3-0.2 0.3-0.3 0.2-0.3 0.2-0.2 0.3-1 0.3-1 0.2-0.2-1-0.3-1h-0.5l-1.5-0.2q-1.5-0.3-2-1.6-0.5-1.2-2-1.2t-1.7-1.5q-0.3-1.5-5-8.7-4.8-7.3-9.3-16-4.5-8.8-6-9-1.5-0.3-3.7-4.6-2.3-4.2-4-8.7-1.8-4.5-2.6-5-0.7-0.5-5.2-13t-8-19.5-9.5-24-9.7-27.8q-3.8-10.7-6-17.4-2.3-6.8-4.8-13.8t-5.5-14.5-5.3-9.5l-2.2-2-0.2-0.5q-0.3-0.5-0.6-0.5h-0.2l-0.2-0.5q-0.3-0.5-1-1.7-0.8-1.3-4.6-14.6-3.7-13.2-5-13.4-1.2-0.3-1.4-5.6-0.3-5.2 7.4-24.7l7.8-19.5 0.5-0.2q0.5-0.3 0.5-0.6v-0.2l0.2-0.5q0.3-0.5 10.3-23l10-22.5 0.5-1.5 0.5-1.5 0.5-1 0.5-1 0.3-0.2z" fill="#4b6e00" fill-rule="evenodd" stroke="#4b6e00" stroke-width=".5"/>
 <path d="m421.2 550l0.3-2 4 3q4 3 18.5 18.5t33.5 36.5 21.3 24.5q2.2 3.5 5 5 2.7 1.5 10 10.3 7.2 8.7 12 13 4.7 4.2 6.4 7 1.8 2.7 12.3 13.2t11.5 10.8q1 0.2 4.5 4.7t6.7 7.5q3.3 3 10 10.2 6.8 7.3 7.8 7.6 1 0.2 1.5 2.2t13.3 13.5q12.7 11.5 26.4 25.3 13.8 13.7 20.3 20.2t7.7 7.2q1.3 0.8 1.6 2.3 0.2 1.5 5.2 5.7 5 4.3 9 9.3t5 5.3q1 0.2 0.8 2.2-0.3 2 0.7 5t1.3 4l0.2 1-1.5 0.2q-1.5 0.3-1 0.8l0.5 0.5-0.2 0.3q-0.3 0.2-0.8 1.2l-0.5 1-0.3-0.2q-0.2-0.3-1.2-0.6-1-0.2-1.2 0.8l-0.3 1-0.3-0.2q-0.2-0.3-1.2-0.6-1-0.2-1 0.8t-5-0.5l-5-1.5-0.2-0.5q-0.3-0.5-11.6-9-11.2-8.5-11.4-9.5-0.3-1-5-4.2-4.8-3.3-12.3-7.6-7.5-4.2-7.5-5.2t-3.8-3q-3.7-2-3-2.8 0.8-0.7-5.2-4.7t-6.8-5.3q-0.7-1.2-4.4-3.4-3.8-2.3-10-8-6.3-5.8-14.6-12.6-8.2-6.7-21.7-19.7t-19.5-17.5-22.8-19.8q-16.7-15.2-24.4-22.2l-7.8-7-0.2-0.5q-0.3-0.5-1-2.5-0.8-2-4.3-4t-4.3-4q-0.7-2-3-3-2.2-1-2.2-2t-1-1.2q-1-0.3-1.5-1.6-0.5-1.2-3-3-2.5-1.7-8.5-21.4l-6-19.8-0.2-2q-0.3-2-5.6-24.5l-5.2-22.5 0.2-2z" fill="#628801" fill-rule="evenodd" stroke="#628801" stroke-width=".5"/>
 <path d="m408.2 556.5l0.8-20.5 5.8 19.5q5.7 19.5 8.7 31t3.5 13.5l0.5 2 0.5 1.5 0.5 1.5 0.3 0.5 0.2 0.5 0.2 1 0.3 1 13.5 46.5q13.5 46.5 18.2 59.5 4.8 13 5.8 13t3.2 6.5q2.3 6.5 8.8 22t6.8 16.5l0.2 1-0.2 1.5-0.3 1.5-0.3-0.2-0.2-0.3-0.2-0.3-0.3-0.2v7.5q0 7.5 0 9v1.5l-0.5 1.5-0.5 1.5-0.3-1q-0.2-1-2-1-1.7 0-1.7 7.5t-0.5 8.5l-0.5 1-0.3 0.2-0.2 0.3-0.2 0.3-0.3 0.2-0.5 1.5-0.5 1.5-0.3-0.2-0.2-0.3-0.2-0.3-0.3-0.2-0.3-0.2-0.2-0.3-3.5-0.5-3.5-0.5-1-0.5-1-0.5-0.2-0.3-0.3-0.2-0.3 0.2-0.2 0.3h-1l-1.5-0.3-1.5-0.2v-3h0.5l0.3 0.2 0.2 0.3 0.2 0.3 0.3 0.2 0.3 0.2 0.2 0.3h1l0.2-0.3 0.3-0.2 0.3-0.2 0.2-0.3 0.2-0.3 0.3-0.2 0.3-0.2 0.2-0.3 0.2-0.3 0.3-0.2 0.5-1 0.5-1 0.5-1q0.5-1 1-2t0.5-5.5-10-33-16.7-48.3q-6.8-19.7-16.6-54.4-9.7-34.8-14.2-59.3t-3.8-45zm71 235.7q0.3-0.2 0.6 0 0.2 0.3-0.3 0.3t-0.3-0.3z" fill="#5f8301" fill-rule="evenodd" stroke="#5f8301" stroke-width=".5"/>
 <path d="m368 618.8l-2-9.8h1q1 0 5.8 9 4.7 9 5 10.8 0.2 1.7 2.4 8 2.3 6.2 4.6 13 2.2 6.7 6 17.4 3.7 10.8 9.7 27.8t9.5 24 8 19.5 5.2 13q0.8 0.5 2.6 5 1.7 4.5 4 8.7 2.2 4.3 3.7 4.6 1.5 0.2 6 9 4.5 8.7 9.3 16 4.7 7.2 5 8.7 0.2 1.5 1.7 1.5t2 1.2q0.5 1.3 2 1.6l1.5 0.2 0.2 1q0.3 1 0.6 1h0.2v0.2q0 0.3 1 0.8l1 0.5h1l0.2-0.3 0.3-0.2 0.3 0.2 0.2 0.3 1 0.5 1 0.5 3.5 0.5 3.5 0.5 0.2 0.3 0.3 0.2 0.3 0.2 0.2 0.3 0.2 0.3 0.3 0.2 0.5-1.5 0.5-1.5 0.3-0.2 0.2-0.3 0.2-0.3 0.3-0.2 0.5-1q0.5-1 1-2.5t-0.2-2q-0.8-0.5-0.8-7v-6.5h1.5q1.5 0 1.7 1 0.3 1 0.8 2l0.5 1 0.5-1.5 0.5-1.5v-1.5q0-1.5 0-9v-7.5l0.3 0.2 0.2 0.3 0.2 0.3 0.3 0.2 0.3-1.5 0.2-1.5h0.5l0.3 0.2 0.2 0.3 0.2 0.3 0.3 0.2 0.5 1.5 0.5 1.5 0.5 1 0.5 1 0.3 0.2 0.2 0.3 0.5 0.3 0.5 0.2 5.2 12.5q5.3 12.5 14 32.7 8.8 20.3 10.8 21 2 0.8 8 9 6 8.3 6.2 8.6l0.3 0.2 0.5 1 0.5 1 0.3 0.2 0.2 0.3 0.2 0.3 0.3 0.2 0.5 1 0.5 1 0.3 0.2 0.2 0.3 0.2 0.3 0.3 0.2 0.3 1 0.2 1-1-0.2-1-0.3-0.2-0.3-0.3-0.2-0.3-0.2-0.2-0.3-0.2-0.3-0.3-0.2-0.3-1-0.2-1-1-0.2-1-0.3-0.2-0.3-0.3-0.2-0.3-0.2-0.2-0.3-0.2-0.3-0.3-0.2-0.3-0.2-0.2-0.3-0.2-0.3-0.3-0.2-0.3-0.2-0.2-0.3-1-0.3-1-0.2 0.2 1.5 0.3 1.5 0.5 1.5 0.5 1.5v4q0 4-1.7 10.2-1.8 6.3-3.6 8-1.7 1.8-2.2 6.3t-2.8 7.7q-2.2 3.3-6.2 4.6-4 1.2-5.8 7.7-1.7 6.5-7 7.3-5.2 0.7-7.7 1.2t-4.7 5.8q-2.3 5.2-2 6.2 0.2 1-3.3 0.5t-5 1.7q-1.5 2.3-8.5 3.3t-8.5 2.5-9.5 1.8l-8 0.2v-0.5l-3-0.5-3-0.5-2-0.5-2-0.5-0.2-0.3-0.3-0.2-0.3 0.2-0.2 0.3h-1l-0.2-0.3-0.3-0.2-0.3 0.2-0.2 0.3-0.2 0.3-0.3 0.2-0.3 0.2-0.2 0.3-1 0.3-1 0.2v-2l1-0.2 1-0.3 0.2-0.3 0.3-0.2 0.3-1.5 0.2-1.5 6.5-0.8q6.5-0.7 10.7-3 4.3-2.2 6-4 1.8-1.7 7.3-2.7t7-1.7q1.5-0.8 2.3-2.3 0.7-1.5 1-1.7l0.2-0.3 0.2-0.3 0.3-0.2 0.3-0.2 0.2-0.3-0.2-0.3-0.3-0.2-0.3-0.2-0.2-0.3 0.2-0.3 0.3-0.2 0.3-0.2 0.2-0.3 0.2-0.3 0.3-0.2 0.5-1 0.5-1 0.5-1 0.5-1 0.3-0.2 0.2-0.3-1.5-0.5-1.5-0.5-0.2-0.3-0.3-0.2-0.3-0.2-0.2-0.3h-1.5q-1.5 0-4 0t-3-1.3q-0.5-1.2-2-1.4-1.5-0.3-7-2.6-5.5-2.2-5.5-3.7t-1-1.5-1.8-1.5q-0.7-1.5-6.7-11t-11.7-25q-5.8-15.5-6.8-15.5t-1.2-3.5q-0.3-3.5-2-5.7-1.8-2.3-2.3-3.6-0.5-1.2-1.5-1.4-1-0.3-2.8-3.6-1.7-3.2-3.7-8.7t-4-18-5.7-26.7q-3.8-14.3-8-29.6-4.3-15.2-4.8-17.7t-2.8-9.5l-2.2-7 0.2-1q0.3-1-0.7-11.5t-2-21-2.7-27.3q-1.8-16.7-3.3-22.2t-3.5-15.2zm109.2 296.4q0.3-0.2 0.6 0l0.2 0.3h-0.5q-0.5 0-0.3-0.3z" fill="#758e28" fill-rule="evenodd" stroke="#758e28" stroke-width=".5"/>
 <path d="m504.5 757.5v-2.5l0.3 0.2 0.2 0.3 0.2 0.3 0.3 0.2 0.3 0.2 0.2 0.3 0.2 0.3 0.3 0.2 0.3 0.2 0.2 0.3 1 0.5 1 0.5 1 0.5 1 0.5 1.5 0.7q1.5 0.8 1.7-0.2 0.3-1 3.3 2t2.7 4.2q-0.2 1.3 2.3 2 2.5 0.8 2.5 1.8t2.2 1.5q2.3 0.5 8.8 5t6.8 5.5q0.2 1 9.7 8.8 9.5 7.7 11 8 1.5 0.2 5 4 3.5 3.7 12 9.2t9 5.8l0.5 0.2v0.2q0 0.3 0.5 0.6l0.5 0.2v0.2q0 0.3 0.5 0.6l0.5 0.2 0.2 1 0.3 1 0.3 0.2 0.2 0.3 0.2 0.3 0.3 0.2 0.3 0.2 0.2 0.3 0.2 0.3 0.3 0.2 0.3 0.2 0.2 0.3 1.8 1.3q1.7 1.2 2 3.2 0.2 2 6.7 6.5t11.5 10.7q5 6.3 13 12 8 5.8 8 6.8t7 6.2q7 5.3 12 8.8t8.2 7.8q3.3 4.2 4.3 9.7t0.7 6.7q-0.2 1.3-2 2-1.7 0.8-7.2 7.3t-5.8 6.7l-0.2 0.3-0.2 0.3-0.3 0.2-0.3 0.2-0.2 0.3-0.2 0.3-0.3 0.2-0.3 0.2-0.2 0.3-0.2 0.3-0.3 0.2-0.3 0.2-0.2 0.3-0.2 0.3-0.3 0.2-0.3 0.2-0.2 0.3-0.2 0.3-0.3 0.2-0.3 0.5-0.2 0.5v0.2q0 0.3-7.5 0.8t-24.3-20.8q-16.7-21.2-18-24.7-1.2-3.5-2.2-3.5t-1.2-1.5q-0.3-1.5-17.6-23-17.2-21.5-18.2-21.5t-4.8-5q-3.7-5-14.4-18-10.8-13-11.8-13t-10.5-11.5l-9.5-11.5-0.2-0.5q-0.3-0.5-0.6-0.5h-0.2l-0.2-0.5q-0.3-0.5-0.6-0.5h-0.2l-0.2-0.5q-0.3-0.5-0.6-0.5h-0.2l-0.2-0.5q-0.3-0.5-0.6-0.5h-0.2l-0.2-4-0.3-4-0.3-0.2-0.2-0.3-0.2-0.3-0.3-0.2v-2.5z" fill="#bece8a" fill-rule="evenodd" stroke="#bece8a" stroke-width=".5"/>
 <path d="m416.5 529v-3l0.3 0.2 0.2 0.3 0.2 0.3 0.3 0.2 0.3 0.2 0.2 0.3 0.2 0.3 0.3 0.2 0.3 0.2 0.2 0.3 0.2 0.3 0.3 0.2 0.3 0.2 0.2 0.3 0.2 0.3 0.3 0.2 0.3 0.2 0.2 0.3 0.2 0.3 0.3 0.2 0.3 0.2 0.2 0.3 0.2 0.3 0.3 0.2 19.7 19.8q19.8 19.7 20.8 20 1 0.2 1 1.2t1 1 1 1 1 1 1 1 11.2 11.5q11.3 10.5 22 21.3 10.8 10.7 11.8 11 1 0.2 4.5 4 3.5 3.7 36.5 34.2t75 67.5 63.5 53.5 22 16.8l0.5 0.2v0.2q0 0.3 0.5 0.6l0.5 0.2v0.2q0 0.3 0.5 0.6l0.5 0.2v0.2q0 0.3 0.5 0.6l0.5 0.2 1.2 1.5q1.3 1.5 1.6 1.7l0.2 0.3 5.8 5.7q5.7 5.8 6 9.3 0.2 3.5-0.8 3.5t-3.2 5.5q-2.3 5.5-4 13-1.8 7.5-4.6 10-2.7 2.5-5.4 7.3-2.8 4.7-7.3 8.2t-9 5.5-7.5 1.5-10-4-13.5-8-6.5-4.8v-0.2l-0.2-0.5-0.3-0.5-0.3-0.2-0.2-0.3-0.2-0.3-0.3-0.2-0.3-0.2-0.2-0.3-0.2-0.3-0.3-0.2-0.3-0.2-0.2-0.3-0.2-0.3-0.3-0.2-0.3-0.2-0.2-0.3-0.2-0.3-0.3-0.2-0.3-0.2-0.2-0.3-0.2-0.3-0.3-0.2-0.3-1q-0.2-1-3.4-4l-3.3-3-0.3-0.2-0.2-0.3-0.2-0.3-0.3-0.2-0.3-0.2-0.2-0.3-0.2-0.3-0.3-0.2-0.3-0.2-0.2-0.3-0.2-0.3-0.3-0.2-0.3-0.2-0.2-0.3-0.2-0.3-0.3-0.2-0.3-1-0.2-1 1 0.2 1 0.3h3l2-0.3q2-0.2 1.5 1-0.5 1.3 0.7 1 1.3-0.2 1-2.2-0.2-2 1.3-2.2l1.5-0.3 1-0.5q1-0.5 1-3.8v-3.2l5 1.5q5 1.5 5 0.5t1-0.8q1 0.3 1.2 0.6l0.3 0.2 0.3-1q0.2-1 1.2-0.8 1 0.3 1.2 0.6l0.3 0.2 0.5-1q0.5-1 0.8-1.2l0.2-0.3-0.5-0.5q-0.5-0.5 1-0.8l1.5-0.2-0.2-1q-0.3-1-1.3-4t-0.7-5q0.2-2-0.8-2.2-1-0.3-5-5.3t-9-9.3q-5-4.2-5.2-5.7-0.3-1.5-1.6-2.3-1.2-0.7-7.7-7.2t-20.3-20.2q-13.7-13.8-26.4-25.3-12.8-11.5-13.3-13.5t-1.5-2.2q-1-0.3-7.8-7.6-6.7-7.2-10-10.2-3.2-3-6.7-7.5t-4.5-4.7q-1-0.3-11.5-10.8t-12.3-13.2q-1.7-2.8-6.4-7-4.8-4.3-12-13-7.3-8.8-10-10.3-2.8-1.5-5-5-2.3-3.5-21.3-24.5t-33.5-36.5-18.5-18.5l-4-3-0.3 2-0.2 2h-0.5l-0.5-2.5q-0.5-2.5-2-10l-1.5-7.5v-3z" fill="#86a514" fill-rule="evenodd" stroke="#86a514" stroke-width=".5"/>
 <path d="m458.8 259.2l0.2 0.3 1 0.5 1 0.5 0.2 0.3 0.3 0.2 1.5 4q1.5 4-23 75.5t-33 94-8.8 37l-0.2 14.5h-0.5l-0.5-1.5-0.5-1.5-0.5-1.5q-0.5-1.5-0.8-3.5l-0.2-2-1 0.2-1 0.3-0.2 0.3-0.3 0.2-0.5 1-0.5 1-0.5 1.5-0.5 1.5-10 22.5q-10 22.5-10.3 23l-0.2 0.5h-0.2q-0.3 0-0.6 0.5l-0.2 0.5-1 0.2q-1 0.3-3.2 2l-2.3 1.8-0.3 0.2-0.2 0.3-3.2 4.3q-3.3 4.2-15.8 32.7t-12.8 29.5q-0.2 1-1.2 1t-4.8 9q-3.7 9-10.4 22.5-6.8 13.5-7.8 13.7l-1 0.3-0.2 0.3-0.3 0.2-0.5 2.5-0.5 2.5-0.3 0.2-0.2 0.3-1.5 0.3-1.5 0.2v-4h2l0.2-1.5 0.3-1.5 0.5-2q0.5-2 18-41t36-83.5 35.5-90.5 36.5-101.5l19.5-55.5v-6l-0.3 0.2-0.2 0.3-0.2 0.3-0.3 0.2-0.3 0.2q-0.2 0.3-2.7 1.6-2.5 1.2-2.5 0.2v-1l-0.2-0.5-0.3-0.5h-0.5l-0.2-0.5-0.3-0.5h-0.5l-0.2-1-0.3-1-0.3-0.2-0.2-0.3-1-0.3-1-0.2v-0.5l5.5-1.5q5.5-1.5 7-2.5t5-0.5 3.7 0.8q0.3 0.2 0.6 0.4z" fill="#d1e5af" fill-rule="evenodd" stroke="#d1e5af" stroke-width=".5"/>
 <path d="m235.8 346.5l-0.8-4.5h7v0.2q0 0.3 0.5 0.6l0.5 0.2v0.2q0 0.3 0.5 0.6l0.5 0.2 13.2 14q13.3 14 13.8 15l0.5 1 0.3 0.2 0.2 0.3 0.2 0.3 0.3 0.2 0.3 0.2 0.2 0.3 0.2 0.3 0.3 0.2 0.3 0.2 0.2 0.3 0.2 0.3 0.3 0.2 0.3 0.2 0.2 0.3 0.2 0.3 0.3 0.2 0.3 0.2 0.2 0.3h2l0.2-0.3 0.3-0.2 0.3-2 0.2-2h0.5l0.3 0.2 0.2 0.3 0.2 0.3 0.3 0.2 0.5 1 0.5 1h0.5l4.2 29.5q4.3 29.5 4.8 32l0.5 2.5 0.5 1 0.5 1 0.3-0.2 0.2-0.3 0.2-0.3 0.3-0.2 0.3-0.2 0.2-0.3 0.2-0.3 0.3-0.2 0.3-0.2 0.2-0.3 1-0.3 1-0.2v-3h3v2.5l-0.2 0.3-0.3 0.2-0.5 2-0.5 2-11.5 25q-11.5 25-11.8 25.5l-0.2 0.5h-0.2q-0.3 0-0.6 0.5l-0.2 0.5-0.5 0.2q-0.5 0.3-0.7 0.6l-0.3 0.2-0.3 0.2-0.2 0.3-0.2 0.3-0.3 0.2-0.5 1-0.5 1-0.3 0.2-0.2 0.3h-1l-0.2-0.3-0.3-0.2-0.3 0.2-0.2 0.3-4.5 7q-4.5 7-4.7 7.3l-0.3 0.2-0.3 0.2-0.2 0.3-1 0.5-1 0.5h-2l-0.2-0.3-0.3-0.2-0.5-1-0.5-1-0.3-0.2q-0.2-0.3-2.2-3-2-2.8-3-2.8t-3.8-5q-2.7-5-4.4-5.5-1.8-0.5-2.3-1.7-0.5-1.3-6.3-9-5.7-7.8-12-14.8l-6.2-7-0.2-6.5-0.3-6.5-0.5-2-0.5-2v-4l0.3 0.2 0.2 0.3 1.5 0.5 1.5 0.5 0.2 0.3 0.3 0.2 0.3 0.2 0.2 0.3 0.2 0.3 0.3 0.2 0.3 0.2 0.2 0.3 0.2 0.3 0.3 0.2 4.7 3.8q4.8 3.7 7 4.4 2.3 0.8 3 0 0.8-0.7 3.3 1.8t2.7 2.8l0.3 0.2 0.3 0.2 0.2 0.3 0.2 0.3 0.3 0.2 0.3 0.2 0.2 0.3 0.2 0.3 0.3 0.2 0.3 0.2 0.2 0.3 0.2 0.3 0.3 0.2 0.3 0.2 0.2 0.3 0.2 0.3 0.3 0.2 0.3 0.2 0.2 0.3h2l0.2-0.3 0.3-0.2 0.3-0.2 0.2-0.3-0.2-0.3-0.3-0.2-0.5-1-0.5-1-0.3-0.2-0.2-0.3-0.2-0.3-0.3-0.2-0.3-0.2-0.2-0.3-0.2-0.3-0.3-0.2-0.5-1-0.5-1-0.3-0.2q-0.2-0.3-2.7-6.8t-5.5-12-6.8-14.2q-3.7-8.8-4.7-22.3t-2-14.5-2-7.5 1.7-8.3q2.8-1.7 3.3-3.4 0.5-1.8 3.5-2 3-0.3 8-2.3t4.2-7.7q-0.7-5.8-1.4-10.3z" fill="#3c5818" fill-rule="evenodd" stroke="#3c5818" stroke-width=".5"/>
 <path d="m437.5 266.2l2.5-0.2v0.2q0 0.3 0.5 0.6l0.5 0.2v0.2q0 0.3 0.5 0.6l0.5 0.2v1q0 1 2.5-0.2 2.5-1.3 2.7-1.6l0.3-0.2 0.3-0.2 0.2-0.3 0.2-0.3 0.3-0.2v6l-19.5 55.5q-19.5 55.5-36.5 101.5t-35.5 90.5-36 83.5-17.8 41.5l-0.2 2.5h-0.2q-0.3 0-0.6 1l-0.2 1h-2v4l-0.8 2.5q-0.7 2.5-0.7 5t-0.5 4.5l-0.5 2-0.3 0.2-0.2 0.3-0.2 0.3-0.3 0.2-0.3 1.5-0.2 1.5-1.5 0.2-1.5 0.3 0.5 0.3 0.5 0.2-1.5 3.8q-1.5 3.7-4 9.7t-6.3 14.3q-3.7 8.2-4 9.2l-0.2 1h-0.2q-0.3 0-0.6 0.5l-0.2 0.5-0.8 0.5q-0.7 0.5-1-0.5-0.2-1-1.4-0.5-1.3 0.5-1.6 2-0.2 1.5-1.2 1.5t-7 12.8q-6 12.7-20 26.2t-16 14l-2 0.5-1.5 0.5-1.5 0.5-1 0.5-1 0.5-0.2 0.3-0.3 0.2-0.3-1.5-0.2-1.5h2l-0.2-1q-0.3-1-1.3-4t-0.3-18l0.8-15 0.2-0.5q0.3-0.5 4.3-8.5t4.5-10.5 1.8-3q1.2-0.5 1.7-2.5t1.5-2.2q1-0.3 12.5-24.6l11.5-24.2 0.2-0.5 0.3-0.5 0.5-1 0.5-1 0.5-2.5q0.5-2.5 1.2-4 0.8-1.5 1.8-1.5t11.5-21.8q10.5-21.7 16.3-34 5.7-12.2 11.2-23.2t7-16.5 5.5-14 6.5-14 13-29.5 15-35.5 6.5-17.5 6.5-17 6.2-15.5l1.8-4.5 0.2-1q0.3-1 9.3-23t16-40.5 14-36 13.3-24.3q6.2-6.7 8.7-7.2t5-0.8z" fill="#608213" fill-rule="evenodd" stroke="#608213" stroke-width=".5"/>
 <path d="m717.8 800l-2.8-3 16.5 11q16.5 11 17.7 20 1.3 9-0.2 15.5t-1.2 7.5q0.2 1 1.2 1t1 1-1.8 1q-1.7 0-2.4 2.2-0.8 2.3-2 3.6-1.3 1.2-1 8.4 0.2 7.3 1.2 7.8l1 0.5-0.2 0.3-0.3 0.2-0.3 0.2-0.2 0.3-2 0.5q-2 0.5-6 0.8-4 0.2-4.2 2.7-0.3 2.5-2.3 5t-4.3 7q-2.2 4.5-8 8.5-5.7 4-10.4 5.8-4.8 1.7-6.8 3.7t-6.5 3-5.7 2.7q-1.3 1.8-5.6 2-4.2 0.3-6.7 4.6-2.5 4.2-5.3 5.7l-2.7 1.5-0.3 0.2-0.2 0.3-0.5 0.3-0.5 0.2 0.2-1 0.3-1 0.3-0.2 0.2-0.3 0.2-0.3 0.3-0.2 0.3-0.2 0.2-0.3-1.5-0.5-1.5-0.5-1-0.5-1-0.5h-3q-3 0-6 0h-3l-0.2-0.3-0.3-0.2h-0.5l0.2-0.5 0.3-0.5 0.3-0.2 0.2-0.3 0.2-0.3 0.3-0.2 0.3-0.2 0.2-0.3 0.2-0.3 0.3-0.2 0.3-0.2 0.2-0.3 0.2-0.3 0.3-0.2 0.3-0.2 0.2-0.3 0.2-0.3 0.3-0.2 0.3-0.2 0.2-0.3 0.2-0.3q0.3-0.2 5.8-6.7t7.2-7.3q1.8-0.7 2-2 0.3-1.2-0.7-6.7t-4.3-9.7q-3.2-4.3-8.2-7.8t-12-8.8q-7-5.2-7-6.2t-8-6.8q-8-5.7-13-12-5-6.2-11.5-10.7t-6.7-6.5q-0.3-2-2-3.2l-1.8-1.3-0.2-0.3-0.3-0.2-0.3-0.2-0.2-0.3-0.2-0.3-0.3-0.2-0.3-0.2-0.2-0.3-0.2-0.3-0.3-0.2-0.3-0.2-0.2-0.3-0.2-0.3-0.3-0.2-0.3-0.2-0.2-0.3-0.2-0.3-0.3-0.2-0.3-1-0.2-1 1 0.2 1 0.3 0.2 0.3 0.3 0.2 0.5 1 0.5 1 0.3 0.2 0.2 0.3 1 0.5 1 0.5 0.2 0.3 0.3 0.2 0.3 0.2 0.2 0.3 3 2.5q3 2.5 7 1.8 4-0.8 4.2 0.2l0.3 1 0.3 0.2 0.2 0.3 0.2 0.3 0.3 0.2 0.3 0.2 0.2 0.3 0.2 0.3 0.3 0.2 0.3 0.2 0.2 0.3 2.5 0.3 2.5 0.2 4.8 3q4.7 3 6 4.8 1.2 1.7 6 3 4.7 1.2 8.4 4 3.8 2.7 6 4 2.3 1.2 2.6 1.4l0.2 0.3 1 0.5 1 0.5 0.2 0.3 0.3 0.2 0.3 0.2 0.2 0.3 1 0.5 1 0.5 1.5 0.3 1.5 0.2v0.2q0 0.3 6.5 4.8t13.5 8 10 4 7.5-1.5 9-5.5 7.3-8.2q2.7-4.8 5.4-7.3 2.8-2.5 4.6-10 1.7-7.5 4-13 2.2-5.5 3.2-5.5t0.8-3.5q-0.3-3.5-6-9.3l-5.8-5.7-0.2-0.3q-0.3-0.2-3-3.2z" fill="#a7ba63" fill-rule="evenodd" stroke="#a7ba63" stroke-width=".5"/>
 <path d="m397 279h1l-4.8 11.5q-4.7 11.5-7.2 16.5t-7.5 18-8.5 18-5.2 9.2q-1.8 4.3-7.6 21.6-5.7 17.2-12.2 33.7t-7.5 19-1.5 3.5l-0.5 1-0.5 1-0.5 1-0.3 1.5-0.2 1.5h-0.2q-0.3 0-0.6 0.5l-0.2 0.5-4.2 9.5q-4.3 9.5-14 30.7-9.8 21.3-20 43-10.3 21.8-13 30-2.8 8.3-10 24-7.3 15.8-17.3 36.3t-11.5 24.5-1.8 6.8q-0.2 2.7-3 7-2.7 4.2-2.4 4.4 0.2 0.3 0 0.6l-0.3 0.2-0.3 0.2-0.2 0.3-0.2 0.3-0.3 0.2-0.3 1-0.2 1h-0.2q-0.3 0-0.6 0.5l-0.2 0.5h-0.2q-0.3 0-0.6 0.5l-0.2 0.5-6.8 10.5q-6.7 10.5-9.7 16.5t-6 10.5-3.7 6.7q-0.8 2.3-1.8 2.8t-1.5 0.8l-0.5 0.2h-0.5l-0.3 0.2-0.2 0.3-0.2 0.3-0.3 0.2-0.3 0.2-0.2 0.3-0.2 0.3-0.3 0.2-0.3 0.2-0.2 0.3-1.5 0.3-1.5 0.2v3l-1.5-0.2-1.5-0.3 0.2-0.3 0.3-0.2 0.5-1.5q0.5-1.5 0.8-3 0.2-1.5-1-2l-1.3-0.5-0.3-0.2-0.2-0.3-0.2-0.3-0.3-0.2-0.3-0.2-0.2-0.3-2.5 0.5q-2.5 0.5-2.7 0.8-0.3 0.2-0.6 0.4l-0.2 0.3-1 0.5-1 0.5h-1l-0.2-0.3-0.3-0.2v-2l0.3-0.2 0.2-0.3 0.2-0.3 0.3-0.2 0.3-0.2 0.2-0.3 0.2-0.3 0.3-0.2 0.5-1.5q0.5-1.5 3-6.5t6-17 5.2-12q1.8 0 1.6-2-0.3-2 3.7-9.5t6.3-8.5q2.2-1 2.4-2l0.3-1 0.5-1 0.5-1 0.3-0.2 0.2-0.3 0.2-0.3 0.3-0.2 0.3-0.2 0.2-0.3 0.2-0.3 0.3-0.2v-3l-0.3 0.2-0.2 0.3-0.2 0.3-0.3 0.2-0.3 0.2-0.2 0.3-0.2 0.3-0.3 0.2-0.3-1-0.2-1-2.2 1q-2.3 1-2.6 1.2l-0.2 0.3-0.2 0.3-0.3 0.2-0.3 0.2-0.2 0.3-0.2 0.3-0.3 0.2-0.3-2.5-0.2-2.5 0.2-1 0.3-1 0.3-0.2 0.2-0.3 0.2-0.3q0.3-0.2 11.6-20 11.2-19.7 32.4-65l21.3-45.2 0.5-1.5 0.5-1.5 0.3-1 0.2-1 0.5-0.2q0.5-0.3 0.5-0.6v-0.2l0.2-0.5q0.3-0.5 11.8-25.5l11.5-25 0.5-2 0.5-2 0.3-0.2 0.2-0.3v-0.5l0.5-0.2q0.5-0.3 16.7-37.6 16.3-37.2 21.3-47.2t11.5-26l6.5-16 0.5-1.5 0.5-1.5 0.5-1 0.5-1 0.3-0.2 0.2-0.3 0.2-0.3 0.3-0.2 0.5-1 0.5-1h0.5l-0.2 1.5-0.3 1.5v8l0.3 0.2 0.2 0.3 0.2 0.3 0.3 0.2 0.3-1 0.2-1 1-0.2 1-0.3 0.2-0.3 0.3-0.2 0.5-1 0.5-1 0.3-0.2 0.2-0.3 1-0.5q1-0.5 1.5-2.2 0.5-1.8 1.5-1.8t2.8-3.5q1.7-3.5 2-2.5 0.2 1 1.2 1t1-2.2q0-2.3 1.8-3 1.7-0.8 2.4-2 0.8-1.3 2.6-2 1.7-0.8 3-3 1.2-2.3 3-3 1.7-0.8 2-1l0.2-0.3 2-2.7q2-2.8 3-2.8zm-37.8 38.8q-0.2-0.3 0-0.6 0.3-0.2 0.3 0.3t-0.3 0.3z" fill="#deedbf" fill-rule="evenodd" stroke="#deedbf" stroke-width=".5"/>
 <path d="m358 774.8l1-0.3h3l1.5 1.7q1.5 1.8 3 2l1.5 0.3 0.2 0.3 0.3 0.2 0.3 0.2q0.2 0.3 0.7 0.6l0.5 0.2v0.2q0 0.3 0.5 0.6l0.5 0.2 4.8 19.5q4.7 19.5 6.7 27.5t3.5 13 2 10.5 6 24.5 10.5 33 5 15.5-0.3 3.5l-0.2 2-1 0.2q-1 0.3-11.5 1.8l-10.5 1.5-1.5 0.3-1.5 0.2-2.5-0.2q-2.5-0.3-4-1-1.5-0.8-2-2.8t-3.5-2.2q-3-0.3-4.5-3.6-1.5-3.2-2.5-3.4-1-0.3-1.2-8-0.3-7.8 0.7-10.3t1.5-17-3.8-48l-4.2-33.5v-29l1-0.2z" fill="#cddc9c" fill-rule="evenodd" stroke="#cddc9c" stroke-width=".5"/>
 <path d="m367.2 714.5l0.3-1.5 0.7 1.2q0.8 1.3 3.3 3.6 2.5 2.2 3 1 0.5-1.3 2-2.3t2-0.5 1 0.8l0.5 0.2 2.2 7q2.3 7 2.8 9.5t4.8 17.7q4.2 15.3 8 29.6 3.7 14.2 5.7 26.7t4 18 3.7 8.7q1.8 3.3 2.8 3.6 1 0.2 1.5 1.4 0.5 1.3 2.3 3.6 1.7 2.2 2 5.7 0.2 3.5 1.2 3.5t6.8 15.5q5.7 15.5 11.7 25t6.7 11q0.8 1.5 1.8 1.5t1 1.5 5.5 3.7q5.5 2.3 7 2.6 1.5 0.2 2 1.4 0.5 1.3 3 1.3t4 0h7.5l-0.2 0.3-0.3 0.2-0.3 0.2-0.2 0.3-0.2 0.3-0.3 0.2-0.3 0.2-0.2 0.3-0.2 0.3-0.3 0.2-0.5 1-0.5 1-0.5 1-0.5 1-0.3 0.2-0.2 0.3-0.2 0.3-0.3 0.2-0.3 0.2-0.2 0.3 0.2 0.3 0.3 0.2 0.3 0.2 0.2 0.3-0.2 0.3-0.3 0.2-0.3 0.2-0.2 0.3-0.2 0.3q-0.3 0.2-1 1.7-0.8 1.5-2.3 2.3-1.5 0.7-7 1.7t-7.3 2.7q-1.7 1.8-6 4-4.2 2.3-10.7 3l-6.5 0.8-0.2 1.5-0.3 1.5-0.3 0.2-0.2 0.3-0.2 0.3q-0.3 0.2-0.6 0.7l-0.2 0.5h-0.2q-0.3 0-0.6 0.5l-0.2 0.5-5-0.2q-5-0.3-14-1.3t-10-3.5-5.5-3.5l-4.5-1-0.2-0.3-0.3-0.2-0.3-1-0.2-1-1.5-0.2-1.5-0.3-1-0.5-1-0.5v-0.5l1.5-0.2 1.5-0.3 10.5-1.5q10.5-1.5 11.5-1.8l1-0.2 0.2-2q0.3-2 0.3-3.5t-5-15.5-10.5-33-6-24.5-2-10.5-3.5-13-6.7-27.5l-4.8-19.5-0.2-0.5q-0.3-0.5-0.6-0.5h-0.2l0.2-0.5q0.3-0.5 0.3-1v-0.5l-0.5-2.5q-0.5-2.5-0.5-3t-3-22-3.7-27l-0.8-5.5h2l0.2-2q0.3-2 0.6-1 0.2 1 1.2 1t1.2-1.5z" fill="#a7bd66" fill-rule="evenodd" stroke="#a7bd66" stroke-width=".5"/>
 <path d="m277 710h1l-3.2 9.5q-3.3 9.5-3.8 12.5l-0.5 3v4h0.5l-22.2 46.5q-22.3 46.5-24.6 52.7-2.2 6.3-5.7 11.3t-6.3 7.3q-2.7 2.2-3.4 4-0.8 1.7-1.8 2-1 0.2-2 1.4-1 1.3-5.5 1.8t-5.5 2.8q-1 2.2-4 2-3-0.3-4-1.3t-4-0.5-6.5 3-7.5 1.5-12.5-6-14-8.5-8.7-4.8q-3.3-1.2-7-3.4-3.8-2.3-6.8-3.8t-3-1.8v-0.2l-0.2-0.5q-0.3-0.5-0.6-0.5h-0.2l-0.2-0.5q-0.3-0.5-0.6-0.5h-0.2l-0.2-0.5q-0.3-0.5-0.6-0.5h-0.2l-0.2-0.5q-0.3-0.5-0.6-0.5h-0.2l-0.2-0.5-0.3-0.5h-0.5l-0.2-1.5-0.3-1.5-0.3-3.5-0.2-3.5 1 0.2 1 0.3 0.2 0.3 0.3 0.2 0.3 0.2 0.2 0.3 2 0.5q2 0.5 6 1t7 2.5 14.5 3 19.5-1 10.2-4.3q2.3-2.2 3.8-8.2t4.5-13 3.5-12 0-6 2-8.5 4.2-8.7q1.8-1.3 4-7 2.3-5.8 5.8-10.8t10.5-15l7-10 0.3-0.2 0.2-0.3 0.2-0.3 0.3-0.2 0.5-1 0.5-1 0.5-1 0.5-1h0.5l-0.8 15q-0.7 15 0.3 18t1.3 4l0.2 1h-2l0.2 1.5 0.3 1.5 0.3-0.2 0.2-0.3 1-0.5 1-0.5 1.5-0.5 1.5-0.5 2-0.5q2-0.5 16-14t20-26.2q6-12.8 7-12.8t1.2-1.5q0.3-1.5 1.6-2 1.2-0.5 1.4 0.5 0.3 1 0.6 0 0.2-1 1.2-1z" fill="#7f9736" fill-rule="evenodd" stroke="#7f9736" stroke-width=".5"/>
 <path d="m258 651.5l0.5 1.5h0.5l-11.5 24.2q-11.5 24.3-12.5 24.6-1 0.2-1.5 2.2t-1.7 2.5q-1.3 0.5-1.8 3t-4.5 10.5-4.3 8.5l-0.2 0.5h-0.5l-0.5 1-0.5 1-0.5 1-0.5 1-0.3 0.2-0.2 0.3-0.2 0.3-0.3 0.2-7 10q-7 10-10.5 15t-5.8 10.8q-2.2 5.7-4 7-1.7 1.2-4.2 8.7t-2 8.5 0 6-3.5 12-4.5 13-3.8 8.2q-2.2 2.3-10.2 4.3t-19.5 1-14.5-3-7-2.5-6-1l-2-0.5-0.2-0.3-0.3-0.2-0.3-0.2-0.2-0.3-1-0.3-1-0.2 0.2 3.5 0.3 3.5 1 1.5q1 1.5 1.3 1.7l0.2 0.3 0.2 0.3 0.3 0.2 0.3 0.2 0.2 0.3 0.2 0.3 0.3 0.2 0.3 0.2 0.2 0.3 0.2 0.3 0.3 0.2 0.3 1 0.2 1-1-0.2-1-0.3-0.2-0.3-0.3-0.2-0.3-0.2-0.2-0.3-0.2-0.3-0.3-0.2-0.3-0.2-0.2-0.3-0.2-0.3-0.3-0.2-0.3-0.2-0.2-0.3-0.2-0.3-0.3-0.2-0.3-0.2-0.2-0.3-0.2-0.3-0.3-0.2-0.3-0.2-0.2-0.3-0.2-0.3-0.3-0.2-0.3-0.2q-0.2-0.3-3-7.6-2.7-7.2-7.7-10.7t-7-11.5-2.7-13.5l-0.8-5.5h0.5l0.5-1 0.5-1 0.3-1 0.2-1 3 0.2 3 0.3 0.2 0.3 0.3 0.2 0.5 1q0.5 1 4.8 7 4.2 6 5.2 6.2 1 0.3 5 3.3t12 3.5 15.8-12.2q7.7-12.8 9.4-15.6 1.8-2.7 3.8-6.4 2-3.8 3-4 1-0.3 3.5-4.8t2.7-6.2q0.3-1.8 1.6-2 1.2-0.3 6.2-4.6 5-4.2 5.2-5.2 0.3-1 1.6-1.5 1.2-0.5 0.7-2.7-0.5-2.3-0.5-4 0-1.8 3-2.3t3.2-2q0.3-1.5 3-3.3 2.8-1.7 3.8-4 1-2.2 2-2.4 1-0.3 5.2-7.6l4.3-7.2 0.3-0.2 0.2-0.3 0.2-0.3 0.3-0.2 0.3-1 0.2-1 0.5-0.2q0.5-0.3 1.5-0.8t1.8-2.8q0.7-2.2 3.7-6.7t6-10.5 9.7-16.5l6.8-10.5 0.5-0.2q0.5-0.3 0.5-0.6v-0.2l0.5-0.2q0.5-0.3 0.5-0.6v-0.2l1-0.2 1-0.3 0.2-0.3 0.3-0.2 0.3-0.2 0.2-0.3 0.2-0.3 0.3-0.2v4l0.3-0.2 0.2-0.3 1-0.5q1-0.5 2.5-2.8 1.5-2.2 2.5-2.4 1-0.3 3.5-3.8l2.5-3.5 0.2-0.3 0.3-0.2 0.3-0.2 0.2-0.3 0.5-1.3q0.5-1.2 1.5-1.2t2.2 3.5q1.3 3.5 1.8 4t1 2z" fill="#a7be62" fill-rule="evenodd" stroke="#a7be62" stroke-width=".5"/>
 <path d="m369 281l-0.5 1-3.5 9.5q-3.5 9.5-3.8 11l-0.2 1.5h-0.5l-0.5 1-0.5 1-0.3 0.2-0.2 0.3-0.2 0.3-0.3 0.2-0.5 1-0.5 1-0.5 1.5-0.5 1.5-6.5 16q-6.5 16-11.5 26t-21.3 47.2q-16.2 37.3-16.7 37.6l-0.5 0.2v-2h-3v3l-1 0.2-1 0.3-0.2 0.3-0.3 0.2-0.3 0.2-0.2 0.3-0.2 0.3-0.3 0.2-0.3 0.2-0.2 0.3-0.2 0.3-0.3 0.2-0.5-1-0.5-1-0.5-2.5q-0.5-2.5-4.8-32l-4.2-29.5v-4l1 0.2 1 0.3 0.2 0.3 0.3 0.2 0.5 2 0.5 2 1.5 8.5q1.5 8.5 2 10.5l0.5 2 0.5 2.5 0.5 2.5 0.3 0.2 0.2 0.3h1l2-0.3 2-0.2 0.2-1.5 0.3-1.5 0.5-1.5 0.5-1.5 0.5-1.5q0.5-1.5 4.2-27.5 3.8-26 4.8-26t2.8-4q1.7-4 2.7-18.5t-0.5-21-2.5-17-2.5-16-2-23 4.8-22.7q5.2-5.3 8.7-9 3.5-3.8 5-4 1.5-0.3 2.5-2.6l1-2.2 1.5-2.2q1.5-2.3 4.5-2.6 3-0.2 10.8 36.8 7.7 37 9.7 47.5t3.3 12.3q1.2 1.7 6.7-9.6 5.5-11.2 6.5-11.2t0.2 3q-0.7 3-1.2 4z" fill="#60840b" fill-rule="evenodd" stroke="#60840b" stroke-width=".5"/>
 <path d="m205.2 469l-3.2-5 1.2 0.5q1.3 0.5 1.6 0.7l0.2 0.3 0.2 0.3 0.3 0.2 0.3 0.2 0.2 0.3 0.2 0.3 0.3 0.2 0.3 0.2 0.2 0.3 0.2 0.3 0.3 0.2 0.3 0.2 0.2 0.3 0.2 0.3 0.3 0.2 0.3-2.5 0.2-2.5 1 0.2 1 0.3 0.5 0.3 0.5 0.2 6.2 7q6.3 7 12 14.8 5.8 7.7 6.3 9 0.5 1.2 2.3 1.7 1.7 0.5 4.4 5.5 2.8 5 3.8 5t3 2.8q2 2.7 2.2 3l0.3 0.2 0.5 1 0.5 1 0.3 0.2 0.2 0.3h2l1-0.5 1-0.5 0.2-0.3 0.3-0.2 0.3-0.2q0.2-0.3 4.7-7.3l4.5-7 0.2-0.3 0.3-0.2 0.3 0.2 0.2 0.3h1l0.2-0.3 0.3-0.2 0.5-1 0.5-1 0.3-0.2 0.2-0.3 0.2-0.3 0.3-0.2 0.3-1 0.2-1h2l-0.2 1-0.3 1-0.3 0.2-0.2 0.3-0.2 0.3-0.3 0.2-0.5 1.5-0.5 1.5-21.3 45.2q-21.2 45.3-32.4 65-11.3 19.8-11.6 20l-0.2 0.3-0.2 0.3-0.3 0.2-0.3 1-0.2 1-5.2 7.5q-5.3 7.5-7 11.5-1.8 4-2.6 4.5-0.7 0.5-2.2 2.5t-2.2 4.5q-0.8 2.5-1.8 2.5t-4.2 4.5q-3.3 4.5-3.6 5l-0.2 0.5h-0.2q-0.3 0-0.6 0.5l-0.2 0.5-0.5 0.2q-0.5 0.3-0.7 0.6l-0.3 0.2-0.3 0.2-0.2 0.3-0.2 0.3-0.3 0.2-0.3 0.2-0.2 0.3-0.2 0.3q-0.3 0.2-0.6 0.4l-0.2 0.3-0.2 0.3-0.3 0.2-0.3 0.2-0.2 0.3-0.2 0.3-0.3 0.2-0.3 0.2-0.2 0.3-0.2 0.3-0.3 0.2-0.3 0.2-0.2 0.3-1 0.5-1 0.5-0.2 0.3-0.3 0.2-0.3 0.2-0.2 0.3-0.2 0.3-0.3 0.2v-7l0.5-2q0.5-2 6-14.5t9.2-26l3.8-13.5 0.5-0.2q0.5-0.3 8.7-20.6 8.3-20.2 15.3-40.2t7.5-40.5-1-28-3.2-10.7q-1.8-3.3-3-6.6-1.3-3.2-4.6-8.2z" fill="#829678" fill-rule="evenodd" stroke="#829678" stroke-width=".5"/>
 <path d="m324.2 635.2l0.3-0.2 0.3 0.2 0.2 0.3 0.2 0.3 0.3 0.2 0.5 1.5q0.5 1.5 1 3.5l0.5 2 0.5 2 0.5 2h0.5l3.8 24q3.7 24 6 34.2 2.2 10.3 3 15.6 0.7 5.2 1.7 10.2t2 13 2 11.5 1.7 6.3q0.8 2.7 1 2.4 0.3-0.2 0.6 1.3l0.2 1.5-0.2 2-0.3 2-0.3 0.2-0.2 0.3-0.2 0.3-0.3 0.2-0.5 3.5q-0.5 3.5-1 6.5l-0.5 3-0.5 2-0.5 2-0.5-1-0.5-1-0.5-1-0.5-1-0.3 0.2-0.2 0.3h-1l-0.2-0.3-0.3-0.2-0.3-0.2-0.2-0.3-0.2-0.3-0.3-0.2-0.3-0.2-0.2-0.3-0.2-0.3q-0.3-0.2-2-3.7-1.8-3.5-2.8-3.5t-3.2-4.5q-2.3-4.5-10.3-14t-16.3-18.5l-8.2-9-0.2-0.5q-0.3-0.5-2.8-7.5l-2.5-7-0.5-1-0.5-1-0.3-0.2-0.2-0.3-0.2-0.3-0.3-0.2-0.3-1-0.2-1-1.5 0.2-1.5 0.3-0.2 0.3-0.3 0.2-0.3 0.2-0.2 0.3-0.2 0.3-0.3 0.2-0.5 1-0.5 1-4.5 8.5q-4.5 8.5-5 9.5l-0.5 1-0.5 1-0.5 1-0.5 1-0.5 1-0.3 0.2-0.2 0.3-0.2 0.3-0.3 0.2-0.3 0.5-0.2 0.5h-0.5v-4l0.5-3q0.5-3 3.2-12l2.8-9 0.5-0.2q0.5-0.3 0.5-0.6v-0.2l0.2-1q0.3-1 4-9.2 3.8-8.3 6.3-14.3t4-9.7l1.5-3.8 1-0.2q1-0.3 1-0.6v-0.2l0.5-0.2q0.5-0.3 0.7-0.6l0.3-0.2 0.3-0.2 0.2-0.3 0.2-0.3 0.3-0.2 0.3-0.2 0.2-0.3 0.2-0.3 0.3-0.2 0.3-0.2 0.2-0.3 0.2-0.3 0.3-0.2 0.3-0.2q0.2-0.3 5.2-4.8t9.8-13.2l4.7-8.8 0.3-0.2 0.2-0.3 0.2-0.3 0.3-0.2 0.5-1 0.5-1 0.3-0.2 0.2-0.3 0.2-0.3 0.3-0.2 0.3-0.2 0.2-0.3 0.2-0.3z" fill="#3e5925" fill-rule="evenodd" stroke="#3e5925" stroke-width=".5"/>
 <path d="m432 603.5v-2.5l6 19.8q6 19.7 8.5 21.4 2.5 1.8 3 3 0.5 1.3 1.5 1.6 1 0.2 1 1.2t2.2 2q2.3 1 3 3 0.8 2 4.3 4t4.3 4q0.7 2 1 2.5l0.2 0.5 1.8 4q1.7 4 2 4.2l0.2 0.3 1.5 0.5q1.5 0.5 3.5 5.5t10.8 14.3q8.7 9.2 9 10.2 0.2 1 4 4.5 3.7 3.5 16.7 17t25.3 26.7q12.2 13.3 13.2 13.6 1 0.2 1 2 0 1.7 6 8.2t28.5 28.5 22.7 22.3l0.3 0.2 0.5 1.5 0.5 1.5 0.3 0.2 0.2 0.3 0.2 0.3 0.3 0.2 0.3 0.2 0.2 0.3 1.5 0.5 1.5 0.5v0.5l-2.5-0.2-2.5-0.3-0.2-0.3-0.3-0.2-0.3-0.2-0.2-0.3-0.2-0.3-0.3-0.2-0.3-0.2-0.2-0.3-0.2-0.3-0.3-0.2-0.3-1q-0.2-1-4.2-0.2-4 0.7-7-1.8l-3-2.5-0.2-0.3-0.3-0.2-0.3-0.2-0.2-0.3-1-0.5-1-0.5-0.2-0.3-0.3-0.2-0.3-0.2q-0.2-0.3-0.7-0.6l-0.5-0.2-0.2-0.5q-0.3-0.5-0.6-0.5h-0.2l-0.2-0.5q-0.3-0.5-0.6-0.5h-0.2l-0.5-0.2q-0.5-0.3-9-5.8t-12-9.2q-3.5-3.8-5-4-1.5-0.3-11-8-9.5-7.8-9.7-8.8-0.3-1-6.8-5.5t-8.8-5q-2.2-0.5-2.2-1.5t-4-2.5-3.5-3.5-1.3-3.5q-1.7-1.5-2-0.5-0.2 1-1.7 0.2l-1.5-0.7-1-0.5-1-0.5-1-0.5-1-0.5-0.2-0.3-0.3-0.2-0.3-0.2-0.2-0.3-0.2-0.3-0.3-0.2-0.3-0.2-0.2-0.3-0.2-0.3-0.3-0.2v5l0.3 0.2 0.2 0.3 0.2 0.3 0.3 0.2 0.5 3.5 0.5 3.5 0.3 0.2 0.2 0.3 0.2 0.3 0.3 0.2 0.3 0.2 0.2 0.3 0.2 0.3 0.3 0.2 0.3 0.2 0.2 0.3 0.2 0.3 0.3 0.2 0.3 1 0.2 1-1-0.2-1-0.3-0.2-0.3-0.3-0.2-0.3-0.2-0.2-0.3-0.2-0.3-0.3-0.2-0.3-0.2-0.2-0.3-0.2-0.3-0.3-0.2-0.5-1.5-0.5-1.5-0.3-0.2-0.2-0.3-0.2-0.3q-0.3-0.2-8-9.2-7.8-9-8.8-9t-1.5-1.2l-0.5-1.3-0.2-0.3-0.3-0.2-0.3-0.2-0.2-0.3-0.2-0.3-0.3-0.2-0.3-0.2-0.2-0.3-0.2-0.3-0.3-0.2-0.3-0.2-0.2-0.3-0.2-0.3-0.3-0.2-0.3-0.2-0.2-0.3-0.2-0.3-0.3-0.2-0.3-0.2-0.2-0.3-0.2-0.3-0.3-0.2-0.3-0.2-0.2-0.3-0.2-0.3-0.3-0.2v4l0.5 1 0.5 1 0.5 1.5 0.5 1.5 3.5 10q3.5 10 4 11.5l0.5 1.5 0.5 1.5 0.5 1.5 0.5 1 0.5 1 0.3 2 0.2 2-0.5-0.2-0.5-0.3-0.2-0.3-0.3-0.2-0.5-1-0.5-1-0.5-1.5-0.5-1.5-0.3-0.2-0.2-0.3-0.2-0.3-0.3-0.2h-0.5l-0.2-1q-0.3-1-6.8-16.5t-8.8-22q-2.2-6.5-3.2-6.5t-5.8-13q-4.7-13-18.2-59.5l-13.5-46.5-0.3-1-0.2-1h3v-2.5z" fill="#a7be62" fill-rule="evenodd" stroke="#a7be62" stroke-width=".5"/>
 <path d="m200.8 641.5l5.2-7.5 0.2 2.5 0.3 2.5 0.3-0.2 0.2-0.3 0.2-0.3 0.3-0.2 0.3-0.2 0.2-0.3 0.2-0.3q0.3-0.2 2.6-1.2l2.2-1 0.2 1 0.3 1 0.3-0.2 0.2-0.3 0.2-0.3 0.3-0.2 0.3-0.2 0.2-0.3 0.2-0.3 0.3-0.2v3l-0.3 0.2-0.2 0.3-0.2 0.3-0.3 0.2-0.3 0.2-0.2 0.3-0.2 0.3-0.3 0.2-0.5 1-0.5 1-0.3 1q-0.2 1-2.4 2-2.3 1-3.8 4t-1.2 4q0.2 1-1.3 1t-2.7 3.5q-1.3 3.5-1 5.5 0.2 2-1.6 2-1.7 0-5.2 12t-6 17-3 6.5l-0.5 1.5-0.5 1.5-0.5 1.5v2l0.3-0.2 0.2-0.3 1-0.5 1-0.5 0.2-0.3q0.3-0.2 0.6-0.4 0.2-0.3 2.7-0.8l2.5-0.5 0.2 0.3 0.3 0.2 0.3 0.2 0.2 0.3 0.2 0.3 0.3 0.2 1.3 0.5q1.2 0.5 1.2 1.5t1 1 1 1 1 0.8l1-0.3 0.2-0.3 0.3-0.2 0.3-0.2 0.2-0.3 0.2-0.3 0.3-0.2 0.3-0.2 0.2-0.3 0.2-0.3 0.3-0.2h0.5l-0.2 1-0.3 1-0.3 0.2-0.2 0.3-0.2 0.3-0.3 0.2-4.3 7.2q-4.2 7.3-5.2 7.6-1 0.2-2 2.4-1 2.3-3.8 4-2.7 1.8-3 3.3-0.2 1.5-3.2 2t-3 2.3q0 1.7 0.5 4 0.5 2.2-0.7 2.7-1.3 0.5-1.6 1.5-0.2 1-5.2 5.2-5 4.3-6.2 4.6-1.3 0.2-1.6 2-0.2 1.7-2.7 6.2t-3.5 4.8q-1 0.2-3 4-2 3.7-3.8 6.4-1.7 2.8-9.4 15.6-7.8 12.7-15.8 12.2t-12-3.5-5-3.3q-1-0.2-5.2-6.2-4.3-6-4.8-7l-0.5-1-0.3-0.2-0.2-0.3-3-0.3-3-0.2-0.2 1-0.3 1-0.5 1-0.5 1h-0.5l0.2-3 0.3-3 0.3-0.2 0.2-0.3 0.2-0.3 0.3-0.2 0.5-1q0.5-1 3.8-6 3.2-5 4.2-5t7-9l6-9h0.5l0.5-1 0.5-1 0.3-0.2 0.2-0.3 0.2-0.3 0.3-0.2 0.3-0.2 0.2-0.3 0.2-0.3 0.3-0.2 0.3-0.2 0.2-0.3h2.5q0.5 0 3-1.5t9-7.5 15.5-17.5 19.2-24.8l10.3-13.2 0.5-1.5 0.5-1.5 0.3-0.2 0.2-0.3 0.2-0.3 0.3-0.2 0.3-1 0.2-1 0.5-0.2q0.5-0.3 0.5-0.6v-0.2l0.2-0.5q0.3-0.5 3.6-5 3.2-4.5 4.2-4.5t1.8-2.5q0.7-2.5 2.2-4.5t2.2-2.5q0.8-0.5 2.6-4.5 1.7-4 7-11.5zm-5 70l0.2 1.5-1.5-0.2-1.5-0.3 0.2-0.3 0.3-0.2 0.7-1.2q0.8-1.3 1-1 0.3 0.2 0.6 1.7z" fill="#d8e7ae" fill-rule="evenodd" stroke="#d8e7ae" stroke-width=".5"/>
 <path d="m337.2 614.2l0.3-0.2 0.3 0.2 0.2 0.3 0.2 0.3 0.3 0.2 0.5 1 0.5 1v2l2.3 8.5q2.2 8.5 3.2 8.5t1.8 8.5q0.7 8.5 3.7 20t4.5 14.5 2.5 10 2.5 15 1.8 11l0.2 3 0.8 5.5q0.7 5.5 3.7 27t3 22 0.5 3l0.5 2.5 0.3 1.5 0.2 1.5h-2l-0.2-1-0.3-1-0.3-0.2-0.2-0.3-1.5-0.3q-1.5-0.2-3-2l-1.5-1.7h-3l-1 0.3-1 0.2v29h-0.5l-0.5-4-0.5-4-0.5-2.5q-0.5-2.5-1.5-11l-1-8.5-0.5-3.5-0.5-3.5h-0.5l-0.2-1.5q-0.3-1.5-0.6-1.3-0.2 0.3-1-2.4-0.7-2.8-1.7-6.3t-2-11.5-2-13-1.7-10.2q-0.8-5.3-3-15.6-2.3-10.2-6-34.2l-3.8-24-0.2-4.5-0.3-4.5-0.5-4q-0.5-4 0.5-8.5l1-4.5 0.3-0.2 0.2-0.3 0.2-0.3 0.3-0.2 0.3-0.2 0.2-0.3 0.2-0.3 0.3-0.2 0.3-0.2 0.2-0.3 0.2-0.3 0.3-0.2 0.3-0.2 0.2-0.3 1.5-0.3 1.5-0.2 0.2-1 0.3-1 0.3-0.2 0.2-0.3 0.2-0.3z" fill="#b9ce7b" fill-rule="evenodd" stroke="#b9ce7b" stroke-width=".5"/>
 <path d="m468.8 668l-1.8-4 7.8 7q7.7 7 24.4 22.2 16.8 15.3 22.8 19.8t19.5 17.5 21.7 19.7q8.3 6.8 14.6 12.6 6.2 5.7 10 8 3.7 2.2 4.4 3.4 0.8 1.3 6.8 5.3t5.2 4.7q-0.7 0.8 3 2.8 3.8 2 3.8 3t7.5 5.2q7.5 4.3 12.3 7.6 4.7 3.2 5 4.2 0.2 1 11.4 9.5 11.3 8.5 11.6 9l0.2 0.5 0.2 1.5 0.3 1.5v2l-0.3 1-0.2 1-1 0.2-1 0.3-1.5 0.3q-1.5 0.2-1.3 2.2 0.3 2-1.4 2.2-1.8 0.3-2.8-0.7l-1-1h-2l-0.2 0.3-0.3 0.2-0.3 0.2-0.2 0.3-0.2 0.3-0.3 0.2-0.3 0.2-0.2 0.3 0.2 0.3 0.3 0.2 0.3 0.2 0.2 0.3 0.2 0.3 0.3 0.2 0.3 0.2 0.2 0.3 0.2 0.3 0.3 0.2 0.3 0.2 0.2 0.3 0.2 0.3 0.3 0.2 3.3 3q3.2 3 3.4 4l0.3 1 0.3 0.2 0.2 0.3 0.2 0.3 0.3 0.2 0.3 0.2 0.2 0.3 0.2 0.3 0.3 0.2 0.3 0.2 0.2 0.3 0.2 0.3 0.3 0.2 0.3 0.2 0.2 0.3 0.2 0.3 0.3 0.2 0.3 0.2 0.2 0.3 0.2 0.3 0.3 0.2 0.3 0.5 0.2 0.5-1.5-0.2-1.5-0.3-1-0.5-1-0.5-0.2-0.3-0.3-0.2-0.3-0.2-0.2-0.3-1-0.5-1-0.5-0.2-0.3q-0.3-0.2-2.6-1.4-2.2-1.3-6-4-3.7-2.8-8.4-4-4.8-1.3-6-3-1.3-1.8-6-4.8l-4.8-3v-0.5l-1.5-0.5-1.5-0.5-0.2-0.3-0.3-0.2-0.3-0.2-0.2-0.3-0.2-0.3-0.3-0.2-0.5-1.5-0.5-1.5-0.3-0.2q-0.2-0.3-20.7-20.3t-25.7-25.3q-5.3-5.2-9-8.7-3.8-3.5-3.6-4.5 0.3-1-12.2-15t-25.5-27.5-16.7-17q-3.8-3.5-4-4.5-0.3-1-9-10.2-8.8-9.3-10.8-14.3t-3.5-5.5l-1.5-0.5-0.2-0.3q-0.3-0.2-2-4.2zm183.4 168.2q0.3-0.2 0.6 0 0.2 0.3-0.3 0.3t-0.3-0.3z" fill="#7d992a" fill-rule="evenodd" stroke="#7d992a" stroke-width=".5"/>
 <path d="m478.5 741v-2l0.3 0.2 0.2 0.3 0.2 0.3 0.3 0.2 0.3 0.2 0.2 0.3 0.2 0.3 0.3 0.2 0.3 0.2 0.2 0.3 0.2 0.3 0.3 0.2 0.3 0.2 0.2 0.3 0.2 0.3 0.3 0.2 0.3 0.2 0.2 0.3 0.2 0.3 0.3 0.2 0.3 0.2 0.2 0.3 0.2 0.3 0.3 0.2 0.3 0.2 0.2 0.3 0.5 1.3q0.5 1.2 1.5 1.2t8.8 9q7.7 9 8 9.2l0.2 0.3 0.2 0.3 0.3 0.2 0.5 1q0.5 1 0.8 1h0.2v0.2q0 0.3 0.5 0.6l0.5 0.2v0.2q0 0.3 0.5 0.6l0.5 0.2v0.2q0 0.3 0.5 0.6l0.5 0.2v0.2q0 0.3 0.5 0.6l0.5 0.2 9.5 11.5q9.5 11.5 10.5 11.5t11.8 13q10.7 13 14.4 18 3.8 5 4.8 5t18.2 21.5q17.3 21.5 17.6 23 0.2 1.5 1.2 1.5t2.2 3.5q1.3 3.5 18 24.7 16.8 21.3 24.3 20.8t7.5-0.8v-0.2h0.5l0.3 0.2 0.2 0.3h3q3 0 6 0h3l1 0.5 1 0.5 1.5 0.5 1.5 0.5-0.2 0.3-0.3 0.2-0.3 0.2-0.2 0.3-0.2 0.3-0.3 0.2-0.3 1-0.2 1h-0.5l-0.3 0.2-0.2 0.3-1 0.5-1 0.5-1 0.5q-1 0.5-7.5 3t-18 5.5-20.5 3.5-11-0.5-5-4.3q-3-3.2-7-6.4-4-3.3-13-14-9-10.8-10-10.8t-15.5-19l-14.5-19-0.2-0.5q-0.3-0.5-0.6-0.5h-0.2l-0.2-1-0.3-1-0.5-1-0.5-1-0.3-0.2-0.2-0.3-0.2-0.3-0.3-0.2-0.5-1-0.5-1-0.3-0.2q-0.2-0.3-6.2-8.6-6-8.2-8-9-2-0.7-10.8-21-8.7-20.2-14-32.7l-5.2-12.5-0.2-2-0.3-2-0.5-1-0.5-1-0.5-1.5-0.5-1.5-0.5-1.5q-0.5-1.5-4-11.5l-3.5-10-0.5-1.5-0.5-1.5-0.5-1-0.5-1v-2z" fill="#638131" fill-rule="evenodd" stroke="#638131" stroke-width=".5"/>
 <path d="m184 623.8l1 0.2-3.8 13.5q-3.7 13.5-9.2 26t-6 14.5l-0.5 2v7l0.3-0.2 0.2-0.3 0.2-0.3 0.3-0.2 0.3-0.2 0.2-0.3 1-0.5 1-0.5 0.2-0.3 0.3-0.2 0.3-0.2 0.2-0.3 0.2-0.3 0.3-0.2 0.3-0.2 0.2-0.3 0.2-0.3 0.3-0.2 0.3-0.2 0.2-0.3 0.2-0.3q0.3-0.2 0.6-0.4l0.2-0.3 0.2-0.3 0.3-0.2 0.3-0.2 0.2-0.3 0.2-0.3 0.3-0.2 0.3-1 0.2-1h2l-0.2 1-0.3 1-0.3 0.2-0.2 0.3-0.2 0.3-0.3 0.2-0.3 0.2-0.2 0.3-0.2 0.3-0.3 0.2-0.5 1.5-0.5 1.5-10.3 13.2q-10.2 13.3-19.2 24.8t-15.5 17.5-9 7.5-3 1.5h-2.5l-0.2 0.3-0.3 0.2-0.3 0.2-0.2 0.3-0.2 0.3-0.3 0.2-0.3 0.2-0.2 0.3-0.2 0.3-0.3 0.2-0.5 1-0.5 1h-0.5l0.2-4q0.3-4 0.8-11.5t8-28.5 21.2-53l13.8-32h0.5l0.3 0.2 0.2 0.3 0.2 0.3 0.3 0.2 0.3 0.2 0.2 0.3h2l0.2-0.3 0.3-0.2 0.3-0.2 0.2-0.3 0.2-0.3 0.3-0.2 0.7-1.5q0.8-1.5 1.8-1.5t1-1 2-1 2 1 3.2 0.5q3.3-0.5 4 0.3 0.8 0.7 4.8 1.7t5 1.3z" fill="#bdc6c9" fill-rule="evenodd" stroke="#bdc6c9" stroke-width=".5"/>
 <path d="m326.5 203.2l0.5-0.2-1 2.2q-1 2.3-2.5 2.6-1.5 0.2-5 4-3.5 3.7-8.7 9-5.3 5.2-4.8 22.7t2 23 2.5 16 2.5 17 0.5 21-2.7 18.5q-1.8 4-2.8 4t-4.8 26q-3.7 26-4.2 27.5l-0.5 1.5-0.5 1.5-0.5 1.5-0.3 1.5-0.2 1.5-2 0.2-2 0.3h-1l-0.2-0.3-0.3-0.2-0.5-2.5-0.5-2.5-0.5-2q-0.5-2-2-10.5l-1.5-8.5-0.5-2-0.5-2-0.3-0.2-0.2-0.3-1-0.3-1-0.2v4h-0.5l-0.5-1-0.5-1-0.3-0.2-0.2-0.3-0.2-0.3-0.3-0.2h-0.5l-0.2-1.5-0.3-1.5-0.5-4.5q-0.5-4.5-3.2-26l-2.8-21.5 0.2-2 0.3-2 0.3-0.2 0.2-0.3h2l0.2 0.3 0.3 0.2 0.5 1.5 0.5 1.5 0.3 0.2 0.2 0.3 0.2 0.3 0.3 0.2 0.3-1 0.2-1 1.5 0.2 1.5 0.3 1 0.3 1 0.2v-2q0-2-2-1.5t0.2-6.5q2.3-7 3.6-6.8 1.2 0.3 1-6.4-0.3-6.8-1.3-12.8t-1.5-29.5 3.8-29l4.2-5.5 9.2-1.5q9.3-1.5 14.6-4.7 5.2-3.3 8.2-5.8t3.5-2.8z" fill="#88a843" fill-rule="evenodd" stroke="#88a843" stroke-width=".5"/>
 <path d="m257.8 216.8l0.2-0.3 8 0.5q8 0.5 16.5 0.8l8.5 0.2-4.2 5.5q-4.3 5.5-3.8 29t1.5 29.5 1.3 12.8q0.2 6.7-1 6.4-1.3-0.2-2.8 5.8t-0.2 6.5q1.2 0.5 1.2 2.5v2l-1-0.2-1-0.3-1.5-0.3-1.5-0.2-0.2 1-0.3 1-0.3-0.2-0.2-0.3-0.2-0.3-0.3-0.2-0.5-1.5-0.5-1.5-0.3-0.2-0.2-0.3h-2l-0.2 0.3-0.3 0.2-0.3 2-0.2 2h-0.5l-0.5-2.5q-0.5-2.5-8-49.5l-7.5-47 0.5-1 0.5-1 0.3-0.2 0.2-0.3 0.2-0.3 0.3-0.2 0.3-0.2z" fill="#aeca6f" fill-rule="evenodd" stroke="#aeca6f" stroke-width=".5"/>
 <path d="m235.5 340.8l1.5-0.3h4l1.2 0.7q1.3 0.8 1.6 1.8l0.2 1-4-0.8q-4-0.7-3.8 3.6 0.3 4.2 1 10 0.8 5.7-4.2 7.7t-8 2.3q-3 0.2-3.5 2-0.5 1.7-3.3 3.4-2.7 1.8-1.7 8.3t2 7.5 2 14.5 4.7 22.3q3.8 8.7 6.8 14.2t5.5 12 2.7 6.8l0.3 0.2 0.5 1 0.5 1 0.3 0.2 0.2 0.3 0.2 0.3 0.3 0.2 0.3 0.2 0.2 0.3 0.2 0.3 0.3 0.2 0.5 1 0.5 1 0.3 0.2 0.2 0.3-0.2 0.3-0.3 0.2-0.3 0.2-0.2 0.3h-2l-0.2-0.3-0.3-0.2-0.3-0.2-0.2-0.3-0.2-0.3-0.3-0.2-0.3-0.2-0.2-0.3-0.2-0.3-0.3-0.2-0.3-0.2-0.2-0.3-0.2-0.3-0.3-0.2-0.3-0.2-0.2-0.3-0.2-0.3-0.3-0.2-0.3-0.2q-0.2-0.3-2.7-2.8t-3-1.2q-0.5 1.2-3 0-2.5-1.3-7.3-5l-4.7-3.8-0.3-0.2-0.2-0.3-0.2-0.3-0.3-0.2-0.3-0.2-0.2-0.3-0.2-0.3-0.3-0.2-0.3-0.2-0.2-0.3-1.5-0.5-1.5-0.5-0.2-0.3-0.3-0.2v4l0.5 2 0.5 2 0.3 6.5 0.2 6.5-0.5-0.2-0.5-0.3-1-0.3-1-0.2-0.2 2.5-0.3 2.5-0.3-0.2-0.2-0.3-0.2-0.3-0.3-0.2-0.3-0.2-0.2-0.3-0.2-0.3-0.3-0.2-0.3-0.2-0.2-0.3-0.2-0.3-0.3-0.2-0.3-0.2-0.2-0.3-1-0.3-1-0.2-0.2-0.5q-0.3-0.5-0.6-0.5h-0.2l-0.5-0.2q-0.5-0.3-4-4l-3.5-3.8-0.2-0.5q-0.3-0.5-11.8-15.5t-13.5-20-1-9 4.3-5.8q3.2-1.7 4-4 0.7-2.2-3.3-8.7t-4.5-10l-0.5-3.5 0.3-0.2 0.2-0.3 0.2-0.3 0.3-0.2 0.3-0.2 0.2-0.3 0.2-0.3 0.3-0.2 0.3-0.2 0.2-0.3 16-2q16-2 23-5t11.8-8.3q4.7-5.2 9-12.7 4.2-7.5 5.7-7.7z" fill="#667f41" fill-rule="evenodd" stroke="#667f41" stroke-width=".5"/>
 <path d="m316.8 802l-18.8-72 8.2 9q8.3 9 16.3 18.5t10.3 14q2.2 4.5 3.2 4.5t2.8 3.5q1.7 3.5 2 3.7l0.2 0.3 0.2 0.3 0.3 0.2 0.3 0.2 0.2 0.3 0.2 0.3 0.3 0.2 0.3 0.2 0.2 0.3h1l0.2-0.3 0.3-0.2 0.5 1 0.5 1 0.5 1 0.5 1 0.5-2 0.5-2 0.5-3q0.5-3 1-6.5l0.5-3.5 0.3-0.2 0.2-0.3 0.2-0.3 0.3-0.2 0.3-2 0.2-2h0.5l0.5 3.5 0.5 3.5 1 8.5q1 8.5 1.5 11l0.5 2.5 0.5 4 0.5 4h0.5l4.2 33.5q4.3 33.5 3.8 48t-1.5 17-0.7 10.3q0.2 7.7 1.2 8 1 0.2 2.5 3.4 1.5 3.3 4.5 3.6 3 0.2 3.5 2.2t2 2.8q1.5 0.7 4 1l2.5 0.2v0.5l1 0.5 1 0.5 1.5 0.3 1.5 0.2 0.2 1 0.3 1 0.3 0.2 0.2 0.3 5.5 1.3q5.5 1.2 5.5 3.4 0 2.3 9 3.3t14 1.3l5 0.2 0.5-0.2q0.5-0.3 0.5-0.6v-0.2l1-0.2 1-0.3 0.2-0.3 0.3-0.2 0.3 0.2 0.2 0.3h1l0.2-0.3 0.3-0.2 0.3 0.2 0.2 0.3 2 0.5 2 0.5 3 0.5 3 0.5v0.5l-8.5 0.2q-8.5 0.3-29 0.3t-33-1-16.5-5-6.2-7.3q-2.3-3.2-8.8-32.7t-25.2-101.5z" fill="#6d8457" fill-rule="evenodd" stroke="#6d8457" stroke-width=".5"/>
 <path d="m367.2 403l3.8-4-1.8 4.5q-1.7 4.5-6.2 15.5t-6.5 17-6.5 17.5-15 35.5-13 29.5-6.5 14-5.5 14-7 16.5-11.2 23.2q-5.8 12.3-16.3 34-10.5 21.8-11.5 21.8t-1.8 1.5q-0.7 1.5-1.2 4l-0.5 2.5-0.5 1-0.5 1-0.3 0.5-0.2 0.5h-0.5l-0.5-1.5q-0.5-1.5-2.2-4.5l-1.8-3-1.5 0.2-1.5 0.3-0.2 0.3-0.3 0.2-0.3 0.2-0.2 0.3-2.5 3.5q-2.5 3.5-3.5 3.8-1 0.2-2.5 2.4-1.5 2.3-2.5 2.8l-1 0.5-0.2 0.3-0.3 0.2v-4l-0.3 0.2-0.2 0.3-0.2 0.3-0.3 0.2-0.3 0.2-0.2 0.3-0.2 0.3-0.3 0.2-0.3 0.2-0.2 0.3-0.2 0.3-0.3 0.2-0.3 0.2-0.2 0.3-1 0.3-1 0.2 0.2-1 0.3-1 0.3-0.2 0.2-0.3 0.2-0.3 0.3-0.2 0.3-0.2 0.2-0.3 0.2-0.3 0.3-0.2 0.3-0.2 0.2-0.3 0.2-0.3 0.3-0.2 0.3-0.2q0.2-0.3 0-0.6-0.3-0.2 2.4-4.4 2.8-4.3 3-7 0.3-2.8 1.8-6.8t11.5-24.5 17.3-36.3q7.2-15.7 10-24 2.7-8.2 13-30 10.2-21.7 20-43 9.7-21.2 14-30.7l4.2-9.5 0.5-0.2q0.5-0.3 0.5-0.6v-0.2l0.5-0.2q0.5-0.3 0.7-0.6l0.3-0.2 0.3-0.2 0.2-0.3 0.2-0.3 0.3-0.2 0.3-0.2 0.2-0.3 0.2-0.3 0.3-0.2 0.3-0.2 0.2-0.3 0.2-0.3 0.3-0.2 0.3-0.2 0.2-0.3 0.2-0.3q0.3-0.2 2-0.4 1.8-0.3 3.6-4 1.7-3.8 5-4.6 3.2-0.7 4-1.4 0.7-0.8 2.2-3.8t4.2-5.5q2.8-2.5 3-3.5 0.3-1 4-5z" fill="#98b35e" fill-rule="evenodd" stroke="#98b35e" stroke-width=".5"/>
 <path d="m194.8 460.5l-0.8-4.5 3.5 3.8q3.5 3.7 4 4l0.5 0.2v0.2q0 0.3 0.5 0.6l0.5 0.2 2.8 4.5q2.7 4.5 4 7.7 1.2 3.3 3 6.6 1.7 3.2 3.2 10.7t1 28-7.5 40.5-15.3 40.2q-8.2 20.3-8.7 20.6l-0.5 0.2-1-0.2q-1-0.3-5-1.3t-4.8-1.7q-0.7-0.8-4-0.3-3.2 0.5-3.2-0.5t-2-1-2 1-1 1-1.8 1.5l-0.7 1.5-0.3 0.2-0.2 0.3-0.2 0.3-0.3 0.2-0.3 0.2-0.2 0.3h-2l-0.2-0.3-0.3-0.2-0.3-0.2-0.2-0.3-0.2-0.3-0.3-0.2h-0.5l0.2-0.5 0.3-0.5 0.5-6q0.5-6 4.5-16t20-50.5 16-63-0.7-27z" fill="#c4cbce" fill-rule="evenodd" stroke="#c4cbce" stroke-width=".5"/>
 <path d="m431 262.8l6 0.2 1 0.2 1 0.3 0.2 0.3 0.3 0.2 1 1q1 1 1.3 2l0.2 1-1.2-0.5q-1.3-0.5-1.6-1.5-0.2-1-2.7-0.2-2.5 0.7-4.7 1.4-2.3 0.8-8.3 7.3t-13 24-14 36-16 40.5-9.3 23l-0.2 1-3.8 4q-3.7 4-4 5-0.2 1-3 3.5-2.7 2.5-4.2 5.5t-2.2 3.8q-0.8 0.7-4 1.4-3.3 0.8-5 4.6-1.8 3.7-3.6 4-1.7 0.2-2 0.4l-0.2 0.3-0.2 0.3-0.3 0.2-0.3 0.2-0.2 0.3-0.2 0.3-0.3 0.2-0.3 0.2-0.2 0.3-0.2 0.3-0.3 0.2-0.3 0.2-0.2 0.3-0.2 0.3-0.3 0.2-0.3 1-0.2 1h-2l0.2-1 0.3-1 0.5-1 0.5-1 0.5-1 0.5-1 0.5-1q0.5-1 1.5-3.5t7.5-19 12.2-33.7q5.8-17.3 7.6-21.6 1.7-4.2 5.2-9.2t7.5-15.5 5.5-13.5 4.8-10.8q3.2-7.7 6.2-15.4l3-7.8h0.2q0.3 0 0.6-0.5l0.2-0.5 3-5.2q3-5.3 6-6.8t6-4 7.5-1.5 10.5 1.3z" fill="#b0c979" fill-rule="evenodd" stroke="#b0c979" stroke-width=".5"/>
 <path d="m369 528.2l1-0.2-8.2 20q-8.3 20-8 25.2 0.2 5.3 1.4 5.6 1.3 0.2 5 13.4 3.8 13.3 4.6 14.6 0.7 1.2 1 1.7l0.2 0.5v0.2q0 0.3 0.5 0.6l0.5 0.2 0.8 7.5q0.7 7.5 1.7 10t2.3 7.3q1.2 4.7 3 21.4 1.7 16.8 2.7 27.3t2 21 0.7 11.5l-0.2 1-0.5-0.2q-0.5-0.3-1-0.8t-2 0.5-2 2.3q-0.5 1.2-3-1-2.5-2.3-3.3-3.6l-0.7-1.2-0.3 1.5q-0.2 1.5-1.2 1.5t-1.2-1q-0.3-1-0.6 1l-0.2 2h-2l-0.2-3q-0.3-3-1.8-11t-2.5-15-2.5-10-4.5-14.5-3.7-20q-0.8-8.5-1.8-8.5t-3.2-8.5l-2.3-8.5v-2l-0.5-1-0.5-1-0.3-0.2-0.2-0.3-0.2-0.3-0.3-0.2-0.3 0.2-0.2 0.3-0.2 0.3-0.3 0.2-0.3 1-0.2 1-1.5 0.2-1.5 0.3-0.2 0.3-0.3 0.2-0.3 0.2-0.2 0.3-0.2 0.3-0.3 0.2-0.3 0.2-0.2 0.3-0.2 0.3-0.3 0.2-0.3 0.2-0.2 0.3-0.2 0.3-0.3 0.2-1 4.5q-1 4.5-0.5 8.5l0.5 4 0.3 4.5 0.2 4.5h-0.5l-0.5-2-0.5-2-0.5-2q-0.5-2-1-3.5l-0.5-1.5-0.3-0.2-0.2-0.3-0.2-0.3-0.3-0.2-0.3 0.2-0.2 0.3-0.2 0.3-0.3 0.2-0.3 0.2-0.2 0.3-0.2 0.3-0.3 0.2-0.5 1-0.5 1-0.3 0.2-0.2 0.3-0.2 0.3-0.3 0.2-4.7 8.8q-4.8 8.7-6 10-1.3 1.2-1 2.2 0.2 1-1.6 1-1.7 0-4 2.2-2.2 2.3-2.4 2.6l-0.3 0.2-0.3 0.2-0.2 0.3-0.2 0.3-0.3 0.2-0.3 0.2-0.2 0.3-0.2 0.3-0.3 0.2-0.3 0.2-0.2 0.3-0.2 0.3-0.3 0.2-0.3 1-0.2 1h-3l-0.5-0.2-0.5-0.3 1-0.5 1-0.5 0.2-0.3 0.3-0.2 0.5-1 0.5-1 0.3-0.2 0.2-0.3 0.2-0.3 0.3-0.2 0.5-2q0.5-2 0.5-4.5t0.7-5l0.8-2.5 1.5-0.2 1.5-0.3 0.2-0.3 0.3-0.2v-2q0-2-0.3-2.5l-0.2-0.5 1-0.2 1-0.3 1-0.3q1-0.2 2.8-4.2 1.7-4 2-7 0.2-3 1.7-3.2 1.5-0.3 4.7-6.6 3.3-6.2 7-15.2 3.8-9 4.8-9t1.2-1q0.3-1 12.8-29.5t15.8-32.7l3.2-4.3 0.2-0.3 0.3-0.2 2.7-2.2q2.8-2.3 3.8-2.6z" fill="#8faf43" fill-rule="evenodd" stroke="#8faf43" stroke-width=".5"/>
</svg>
