<?xml version="1.0" encoding="UTF-8"?>
<svg viewBox="0 0 271.25 163.75" xmlns="http://www.w3.org/2000/svg">
 <g transform="matrix(1.25,0,0,-1.25,0,163.75)">
  <g transform="scale(.24)">
   <path d="m796.484,271.246 20.711-9.851-1.836-.836 12.692-5.18 7.679-10.688 3.344-2.671-3.344-11.36 3.344-5.844-1.672-3.339 9.188-6.516 23.711-8.688 14.199-9.851 3.004-4.676 1.672-14.699-7.852-10.692-6.179-8.515-3.004-3.34-4.844-16.703-6.18-7.352-50.437-19.207-23.379-4.675-22.047-2.004-9.684-.668 4.844-12.6957v-2.5039l12.691-2.6719h26.555l12.692-2.6718 1.336.6679 22.042-4.0117 7.852-4.6758-1.336-.6679h-6.516l-7.679,1.3359-4.676-2.0039-20.711,1.3359-3.004,1.336-6.18-.668-1.835-.668 17.535-10.0195-3.008-8.0195-3.508-1.168-3.004.668-8.015,5.1797-14.032,3.3398-17.199,6.6797h-4.844l-10.855,4.6758-4.512-.668-3.504,2.0039-14.031-4.6758-4.508.668-3.34-2.6719-14.195-2.6719h-6.18l-4.675-3.3398-8.016,3.3398v4.0079l6.512,4.0078 12.359,3.3398 11.02,3.3438h6.515l17.199,5.3437v4.5078l-4.839,3.3399-3.008,7.3519-18.871-.668-8.016-1.168-31.23,1.836-15.7,2.672-9.351.667-4.844,2.004-32.898-1.336 1.668-3.339 1.335-2.004 15.868-4.6761 18.871-2.5078 15.531-8.0156v-4.6758l-3.172-1.3399-9.187,4.0118h-9.688l-6.176,1.1679h-6.179l-1.672-.5 7.851-2.6718 3.004-6.6836 3.172-2.6719-1.332-2.0039v-2.0039l-17.203,4.0078-9.688,1.3359-14.027,9.3555-1.672,2.6719-6.179,2.0039h-20.375l-20.539-2.0039h-15.868l-4.343-3.3399-4.84,2.5039v4.6758l6.176,4.1758 15.699,3.3398 15.867.5039 15.867,2.0042 6.176,3.34-4.84,11.355-9.355,2.676-9.52,6.68-6.176,1.335-8.019,6.512-7.848,2.008-4.844,3.34-6.179,2.004-3.004,1.336-25.051-11.86-3.176-2.84-40.914-10.523h-3.008l-6.511-4.676-45.262-14.531-50.102-7.5156-20.539-1.168 3.004-4.0078h14.027l11.024,2.6719 25.387,1.3359 12.523-3.3398 6.18-3.5078 3.34-1.1719v-2.1719h-6.512l-6.18,1.5039-15.867-1.5039-1.336-.5 17.203-2.0039 18.871-6.0117 4.844-6.6797-1.668-1.8399v-.832l-20.375,4.6758h-15.699l-6.18,2.0039-33.066,1.3359-3.34-1.3359h-9.356l-1.668-.668 7.848-2.0039 6.516-.6679 7.511-5.3477 8.02-1.8359 3.004-4.6758v-2.8399l-17.199,3.5079-10.856-.668-15.867,4.0078h-9.352l-34.57,5.3437h-12.359l-3.172,1.336-22.211-2.0039-9.188,10.1875 1.504.3359-1.671,7.1797-14.028,15.5352v2.5039l-3.172,1.3398-50.101,4.1761-26.891,5.175-42.5858,10.02-17.0352,6.016-20.375,14.531-18.8711,23.215-6.1797,4.008-7.8476.668-12.69144,5.347 6.17968,6.68-3.17578,2.004 4.84375,1.336 4.84379-1.336 6.1797,1.336v2.004h14.0273l17.2031,2.004 18.8711,5.847 25.0508,9.352 20.7074,8.019 36.074,10.02 15.699,1.336 3.172,2.672 59.789,9.019 20.207,2.672 34.738.668 3.008,1.34h33.067l37.742.832 4.508,1.168 4.679,2.008-3.008,2.672 17.2,8.015h1.672l11.023,8.52 9.184,2.672 37.746,6.179 37.742,1.336 45.258-5.512 33.066-9.855 14.031-14.027v-4.676l-3.008-2.008 9.52-2.004 20.207,4.012 9.688.668 9.351,2.672 21.879,1.336 1.836,9.351 10.855,11.192 15.532,8.015 23.715,6.684 25.05,2.672 31.231,2.004 31.566-4.676 17.199-4.012" fill="#bdbcbc"/>
   <path d="m808.34 524.29 20.543-23.215-1.672-1.84 12.691-12.359 7.684-25.387 3.34-6.179-3.34-26.723 3.34-14.199-1.672-7.848 9.187-15.535 23.715-20.543 14.195-23.383 3.008-11.023 1.668-34.575-7.847-25.054-6.18-20.379-3.008-7.848-4.844-39.418-6.179-17.035-50.602-45.433-23.215-11.024-22.043-4.844-9.687-1.668 4.844-29.898v-6.1797l12.691-6.1797h26.555l12.691-6.1797 1.34 1.336 22.043-9.1875 7.848-11.024-1.336-1.6679h-6.512l-7.684 3.0039-4.843-4.8438-20.54 3.5078-3.007 3.1758-6.18-1.8398-1.836-1.336 17.535-23.715-3.004-18.875-3.508-3.1719-3.007 1.836-8.016 12.359-14.027 7.8516-17.203 15.867h-4.844l-11.024 11.023-4.339-1.8398-3.508 4.8437-14.028-11.023-4.511 1.3359-3.34-6.1797-14.196-6.1796h-6.179l-4.84-7.8477-7.852 7.8477v9.3554l6.516 9.6875 12.355 7.8477 11.024 7.8515h6.512l17.203 12.359v11.024l-4.844 7.851-3.004 17.203-18.871-1.336-8.02-3.175-31.23 4.511-15.863 6.512-9.188 1.336-4.844 4.844-32.898-3.004 1.672-8.02 1.336-4.675 15.863-11.024 18.871-6.18 15.367-18.875v-11.023l-3.007-3.1719-9.352 9.3516h-9.519l-6.18 3.0078h-6.18l-1.668-1.336 7.848-6.1797 3.008-15.699 3.172-6.6836-1.336-4.3398v-4.8438l-17.204 9.1836-9.683 3.5078-14.031 22.047-1.668 6.1797-6.18 4.6797h-20.375l-20.543-4.6797h-15.863l-4.512-8.0156-4.676 6.1797v11.023l6.18 9.6871 15.699 7.852 15.867 1.336 15.864 4.844 6.179 7.847-4.843 26.891-9.352 6.18-9.52 15.703-6.179 3.172-8.016 15.535-7.851 4.676-4.84 8.015-6.18 4.676-3.008 3.176-25.051-28.227-3.171-6.515-40.918-25.051h-3.004l-6.516-11.028-45.258-34.238-50.101-17.539-20.711-3.1719 3.176-9.1875h14.027l11.023 6.1797 25.383 3.0078 12.359-7.8515 6.18-7.8477 3.508-3.1758v-4.8437h-6.516l-6.179 3.5078-15.864-3.5078-1.336-1.336 17.2-4.8437 18.875-14.027 4.675-15.867-1.671-4.3438v-1.8359l-20.207 11.023h-15.7l-6.179 4.8398-33.067 3.0079-3.34-3.0079h-9.351l-1.672-1.6679 7.852-4.8438 6.511-1.3359 7.516-12.859 8.015-4.3437 3.008-11.023v-6.5156l-17.203 7.8516-11.023-1.3359-15.696 9.1875h-9.355l-34.57 12.859h-12.356l-3.176 3.0078-31.562-6.5156-12.359-9.3516-11.024 1.836-4.844-11.023h-1.668l-7.515 20.211 3.008 6.1797 36.07 18.871-1.668 17.203-14.031 36.414v6.179l-3.172 3.172-50.102 9.52-26.887 12.359-42.586 23.719-17.203 14.195-20.207 34.242-18.871 54.785-6.1797 9.688-7.8516 1.336-12.691 12.691 6.1797 15.867-3.1719 4.512 4.8399 3.34 4.8437-3.34 6.1797 3.34v4.508h14.031l17.199 4.844 18.871 14.031 25.051 22.047 20.543 18.875 36.074 23.715 15.864 3.007 3.175 6.18 59.621 22.047 20.375 6.18 34.735 1.671 3.008 3.172h32.902l37.91 1.672 4.34 3.172 4.844 4.344-3.008 6.512 17.203 18.875h1.672l11.019 20.378 9.188 6.18 37.574 14.363 37.914 3.172 45.258-12.691 33.066-23.383 14.028-33.406v-11.024l-3.172-4.343 9.687-4.844 20.207 9.187 9.688 1.836 9.184 6.18 22.042 3.008 1.672 22.379 11.024 26.39 15.531 18.875 23.715 15.868 25.051 6.179 31.23 4.844 31.563-11.023 17.203-9.688zm-510.21-429.92-18.871 4.5078-28.223 1.6721v-4.6799l15.867-31.23 4.676 4.3399h1.5l20.543 4.8437 14.031 9.6875v4.3438l-4.68 8.0156h-3.171l-1.672-1.5" fill="#231f20"/>
   <path d="m800.5 522.95 21.875-21.879v-6.183l8.016-4.84 14.031-34.742-1.336-37.75-4.844-4.508 6.18-17.539 37.742-34.239 11.024-19.039 3.171-39.086-1.503-7.847-7.848-15.867-1.672-12.36-8.016-18.875v-18.875l-9.183-34.574-34.738-31.234-18.872-14.028-17.203-8.019-17.199-1.668-3.008-3.176-14.027 3.176 1.336 1.668v3.176l21.875 11.023 1.84 1.668v1.34l-3.176 3.172-20.539-8.02-12.359-11.023-22.047-7.516h-11.02l-7.851-4.844-31.563 6.18-20.375 8.02-7.852 11.023-7.847 4.676h-1.336l-3.508-3.008 6.516-9.688h-25.051l-17.539 4.848-18.871 17.203-6.18 6.18v4.844l-11.019 7.847-4.844 12.696-11.024 7.515-7.847 12.696 1.668 14.027 14.195 45.598v29.898l-3.172 7.516 3.172 6.679-6.18 32.907 12.36 22.046 26.722 9.184 22.043 3.176 9.52 6.512v7.519l-17.367 15.867h-1.504l-4.676 4.676 17.035 8.016 19.039 6.179h3.004l1.672 1.672-9.188-20.543 1.336-15.867 3.176-3.008h37.742l17.203-22.047 15.696-11.023h6.179l6.516-6.18h23.379l20.711 11.024h3.004l3.176 3.004-4.844 4.843-25.051-9.519-3.176-3.172-9.519 1.668h-4.508l-12.691 9.355h-8.016l-15.367 17.536 7.515 3.007 4.844 26.559 1.672 1.668v3.008l-11.023 6.179h-6.516v3.508l-4.34 3.172-3.172-3.172-15.867 14.028v15.867l22.043 40.59 18.875 12.691 40.914 11.023h25.051l34.406-14.195" fill="#fde486"/>
   <path d="m682.586,442.781c1.172.336 2.004.5 2.84.5 5.179,0 7.851,2.672 13.027,2.672l2.672,2.676 2.672,2.504v5.344l5.18,5.179v5.344c2.668,0 5.343,5.176 5.343,7.852 2.672,0 5.176,2.671 5.176,5.343 2.672,0 10.52,5.176 10.52,7.848h8.019c0,2.676 60.453,2.676 60.453-2.672h10.524c0,0 10.519,5.348 13.191,5.348 0,1.168.504,2.336 1.172,3.504l-1.004.668v6.183l-21.875,21.879-34.406,14.195h-25.051l-40.914-11.023-18.875-12.691-22.043-40.59v-15.867l15.867-14.028 3.172,3.172 4.34-3.172v-.168" fill="#fde486"/>
   <path d="m680.25,448.125c1.168.168 2.004.504 2.84.504 5.176,0 7.848,2.504 13.191,2.504 .836,1 1.672,1.836 2.504,2.672 1.004.836 1.84,1.836 2.676,2.672v2.671 2.508c1.836,1.836 3.504,3.508 5.344,5.344v2.672 2.504c2.504,0 5.175,5.347 5.175,8.019 2.672,0 5.344,2.504 5.344,5.176 2.504,0 10.524,5.348 10.524,7.852h7.847c0,2.672 58.453,4.007 58.453-1.168 3.84-.336 7.684-.668 11.356-1.004 0,0 10.355,4.676 14.863,2.004 0,1.336 2.34,0 3.008,1.168-.336.168-.668.504-1.004.668v6.183c-7.348,7.18-14.527,14.528-21.875,21.879-11.527,4.676-22.883,9.352-34.406,14.195h-25.051c-13.695-3.671-27.223-7.347-40.914-11.023-6.348-4.34-12.527-8.516-18.875-12.691-7.012-12.528-14.027-25.055-21.043-37.582-.164-5.344-.332-10.524-.5-15.868 4.344-3.839 8.684-7.851 13.027-11.691 1,1.004 2.172,2.004 3.172,3.008 1.504-1.004 3.008-2.004 4.344-3.008v-.168" fill="#fee79a"/>
   <path d="m678.078,453.305c1.004.332 2.004.5 2.672.5 5.344,0 7.848,2.672 13.195,2.672 .832.836 1.668,1.671 2.672,2.671 .832.836 1.668,1.672 2.504,2.508v2.672 2.672c1.836,1.672 3.508,3.508 5.344,5.176v2.676 2.671c2.672,0 5.18,5.176 5.18,7.848 2.671,0 5.343,2.672 5.343,5.348 2.672,0 10.52,5.176 10.52,7.847h7.851c0,2.672 56.614,5.18 56.614,0 4.007-.668 8.015-1.336 12.191-2.003 0,0 10.188,4.343 16.367-1 0,1.167 4.176-2.508 4.844-1.34-.336.168-.668.504-1.004.668v6.183c-7.348,7.18-14.527,14.528-21.875,21.879-11.527,4.676-22.883,9.352-34.406,14.195h-25.051c-13.695-3.671-27.223-7.347-40.914-11.023-6.348-4.34-12.527-8.516-18.875-12.691-6.68-11.528-13.359-23.219-20.039-34.743-.336-5.175-.668-10.523-1.004-15.699 3.508-3.176 6.848-6.347 10.188-9.519 1.171,1 2.171,2.004 3.175,3.172 1.504-1.168 3.004-2.172 4.508-3.172v-.168" fill="#feecac"/>
   <path d="m675.742,458.648c1,.168 2.004.5 2.672.5 5.344,0 8.016,2.508 13.191,2.508 .836,1 1.836,1.836 2.672,2.672s1.672,1.836 2.672,2.672v2.672 2.504c1.672,1.84 3.508,3.508 5.18,5.347v2.672 2.504c2.672,0 5.344,5.344 5.344,8.02 2.504,0 5.175,2.504 5.175,5.176 2.672,0 10.524,5.343 10.524,7.851h7.848c0,2.672 54.609,6.68 54.609,1.336 4.344-1.004 8.687-2.004 13.027-2.84 0,0 10.02,3.676 18.039-4.176 0,1.168 6.012-5.011 6.68-3.843-.336.168-.668.504-1.004.668v6.183c-7.348,7.18-14.527,14.528-21.875,21.879-11.527,4.676-22.883,9.352-34.406,14.195h-25.051c-13.695-3.671-27.223-7.347-40.914-11.023-6.348-4.34-12.527-8.516-18.875-12.691-6.344-10.692-12.691-21.215-19.035-31.735-.504-5.179-1.004-10.523-1.504-15.703 2.504-2.504 5.008-4.844 7.516-7.18l3.003,3.004 4.512-3.004v-.168" fill="#fceebc"/>
   <path d="m673.402,463.828c1.004.332 2.004.5 2.84.5 5.176,0 7.848,2.672 13.028,2.672l2.671,2.672 2.672,2.504v5.347l5.176,5.176v5.344c2.672,0 5.344,5.18 5.344,7.852 2.672,0 5.176,2.671 5.176,5.343 2.675,0 10.523,5.18 10.523,7.852h8.016c0,2.672 52.605,7.851 52.605,2.672l13.695-4.008c0,0 9.856,3.34 19.707-7.184 0,1.172 7.852-7.515 8.52-6.347l-1.004.668v6.183l-21.875,21.879-34.406,14.195h-25.051l-40.914-11.023-18.875-12.691-18.035-28.731-2.004-15.867 4.676-4.844 3.008,3.176 4.507-3.176v-.164" fill="#fcf3d2"/>
   <path d="m698.453,434.262c12.86,2.004 15.363,18.875 19.039,29.398 2.004,0 30.895,14.531 30.895,3.34 9.187,0 19.707,2.504 28.894,2.504 0,.668 4.676,6.016 5.344,6.016 3.34,2.003-4.008-4.012-2.672-8.52 2.004-5.344 7.848-8.684 9.852-12.527 2.004-.668 4.008-2.672 6.011-2.672 3.844,2.004-2.003-.668-2.003-.668-2.672,0-11.856,5.344-12.524,7.183-10.523,0-14.531-5.179-22.379-11.191 0-1.84-2.508-3.176-3.172-4.512-2.675,0-6.683-1.336-9.355-1.336-.5-2.004-11.024-6.511-11.024-7.179-6.007,0-11.855-2.676-17.199-2.676-2.672-2.672-14.363-10.52-19.039-10.52 0-1.839-1.672-4.511-3.34-7.015l2.672,14.699 1.672,1.668v3.008l-1.672,1zm-4.676-31.735c2.004-8.015 6.512-19.539 9.852-21.043h-.832-1.336l-14.195,16.2v1.839l6.343,2.504 .168.5" fill="#edd171"/>
   <path d="m830.055,485.371c2.672-10.519 7.847-26.223 7.847-36.742-2.504,0-5.175-5.348-7.847-8.02 0-10.523 2.672-21.043 2.672-31.566l-7.848-7.852v-7.847c-5.348-2.676-10.524-5.348-15.867-5.348 2.672,0 7.847-2.504 7.847-5.176h5.344v-5.343c-2.672,0-5.344-2.508-5.344-5.18 5.344,0 10.524-2.672 15.868-5.344-2.672,0-2.672-2.508-2.672-5.18l5.343-2.671v-5.176c-5.343,0 0-2.672-5.343-2.672v-26.391h-5.176v-2.508h10.519v10.524c2.504,0 5.176,0 5.176-2.672 0,2.672 13.196,15.699 18.371,15.699 2.672,0 5.344-2.504 8.02-2.504 0,5.18 7.848,13.028 10.519,15.7 1.336,0 4.008-.668 6.68-1.336l-2.004,3.507-37.742,34.239-6.18,17.539 4.844,4.508 1.336,37.75-8.852,21.711c-2.671.335-5.343.503-8.183.503 0,4.844-1.168,10.52-3.176,16.2l2.34-1.336c.668-.836 1.504-1.336 2.504-1.504l1.004-.668v-4.844zm57.281-205.269c-5.344-.336-15.363-5.18-20.371-5.18 0-5.176-5.348-13.195-5.348-18.371-2.672,0-5.176-2.672-5.176-2.672-2.671,0-10.519,2.672-13.195,2.672-2.672-2.672-5.344-7.852-7.848-7.852 10.524-2.672 23.547-5.344 34.071,0 0-5.344 5.344-13.195 7.847-15.867v15.367l8.016,18.875 1.672,12.36 .332.668zm-64.965,218.132c-.668,1.668-1.504,3.34-2.336,5.176l-19.539,19.543-.836.332c7.012-9.019 9.52-9.351 12.024-16.867 2.671,0 5.175-2.672 5.175-5.18 2.172,0 4.008-1.836 5.512-3.84v.836" fill="#edd171"/>
   <path d="m598.582,390.336c-.5-5.176-10.519-12.859-13.191-15.367 0-15.867 10.519-52.614-18.371-52.614v-5.343c5.175,0 10.519-5.176 13.191-7.848 0-2.676-2.672-10.523-2.672-13.195-5.344,0-5.344,0-5.344-5.18 2.672,0 10.524-8.016 13.196-8.016 0-5.179-2.672-10.523-2.672-13.027 5.344-13.195 10.519-21.047 29.058-21.047 0-5.344-8.015-15.867-8.015-18.539 0-5.012 8.015-13.027 8.015-18.207l42.086-2.672c0-5.176 7.848-18.371 7.848-23.718 26.223,13.195 84.172-15.7 100.039,15.871 7.848,2.671 13.027,0 21.043,0v-13.196c13.023,0 28.891-5.179 42.086-5.179l7.848,2.504v2.675c15.699,10.52 42.086,18.371 42.086,44.594h2.503v-3.508l-9.183-34.574-34.738-31.234-18.872-14.028-17.203-8.019-17.199-1.668-3.008-3.176-14.027,3.176 1.336,1.668v3.176l21.875,11.023 1.84,1.668v1.34l-3.176,3.172-20.539-8.02-12.359-11.023-22.047-7.516h-11.02l-7.851-4.844-31.563,6.18-20.375,8.02-7.852,11.023-7.847,4.676h-1.336l-3.508-3.008 6.516-9.688h-25.051l-17.539,4.848-18.871,17.203-6.18,6.18v4.844l-11.019,7.847-4.844,12.696-11.024,7.515-7.847,12.696 1.668,14.027 14.195,45.598v29.898l-3.172,7.516 3.172,6.679-6.18,32.907 12.36,22.046 26.722,9.184 7.012,1.004zm41.418,52.277v-.5l-8.852-19.707 1.336-15.867 .336-.336c-3.172-.668-6.515-1.336-9.687-1.836v2.172l-17.367,15.867h-1.504l-4.676,4.676 17.035,8.016 19.039,6.179h3.004l1.336,1.336zm47.43-43.09 .504-1.003c0-.5.164-1.168.164-1.836l-2.004,2.336 1.336.503zm30.562-24.218 4.176-3.176h4.508l9.519-1.668 3.176,3.172 10.188,3.844c-2.672,0-6.684-.336-9.02-2.508-6.348,0-14.531-.332-22.547.336zm33.067,2.84 5.511,2.003h-5.511v-2.003zm-2.336-10.524-6.348-3.34h-23.379l-6.516,6.18h-6.179l-15.696,11.023-17.203,22.047h-21.879c1.504-7.851 8.52-18.039 15.368-18.039v-8.015c2.672,0 5.343-2.508 10.519-2.508 0-5.344 8.016-18.539 10.524-23.715 8.015,0 8.015,0 13.191,2.672 2.672-2.672 5.344-8.02 7.852-10.524l5.343,2.504c2.672,0 10.52-7.847 13.192-10.523 0,2.676 7.847,18.543 10.523,23.719 2.504-2.672 7.848-5.176 13.024-5.176 0,4.176-1.668,10.187-2.336,13.695" fill="#edd171"/>
   <path d="m531.78 502.41 14.528-9.355 18.539-12.692 14.363-29.898v-11.024l-7.848-6.179-4.843-1.336-23.715-15.703-14.032-15.864 1.672-9.355 4.844-4.676 15.363-1.84 3.172-3.004h1.672l-9.187-18.875v-22.046l4.343-7.516v-50.442l-9.183-36.078-9.688-21.879-9.187-6.179-23.711-31.567-51.606-31.234-10.855-15.867-40.75-25.055-39.582-12.359-37.41-3.5081-15.7 4.8441h-8.015v1.672l15.867 4.507 28.055 14.364-3.004 4.511 1.668 4.844-1.668 1.668-12.692-11.023-7.515-1.668-11.024-7.852-15.867-1.336-7.847-6.68-23.715 1.836-18.539 3.008-14.364 9.352-4.507 1.672-6.512 11.023h-3.176l1.84 20.207-6.348 4.848 7.684 9.687-1.336 6.176 12.355 10.859-1.5 1.504 3.172 6.512 12.692 7.852v3.172l-1.668 1.335-17.203-9.351-7.848-7.852v-3.172l1.336-1.671-11.024-11.024 1.668-1.336-6.175-11.023v-4.676l4.507-4.844v-17.203l4.844-6.18 4.844-4.843-20.711 1.668-39.078 11.023v4.512l-39.246 17.535-28.559 18.543-20.207 31.566-14.031 42.09-4.8398 11.024 9.6836 4.843 9.1875-4.843 1.6679-4.512 14.195-9.52 1.336 1.672 6.5156-6.515 12.355-3.172 7.852 6.511h11.023l7.848-4.675 6.348 6.179v3.008l-3.176 3.172h-7.848l-18.871-1.504-9.3514-1.668h-4.8438l-3.0078 4.844-9.3515 1.668-6.5117 11.027-12.359 7.516-14.031-3.008-12.691 9.52-11.023 6.179v8.02l7.8515 6.179 11.024 1.668 3.0039 3.008 22.047 8.016 23.715 18.875h3.1719l7.8515 11.023 15.364 9.188-1.336 4.844 25.05 14.027 14.196 12.359 6.179 1.84 4.676 6.18 11.024 1.668h4.84l7.851 7.851-1.672 1.504 12.696 6.512h7.847l3.172 3.008h7.852l15.531 7.851 25.051 7.684 42.586 4.676 11.023 3.172 12.359-3.172 34.735 3.172h20.211l3.504 3.007v1.836l-1.836 1.672 6.179 6.18-3.007 7.848h3.007l3.172 6.179h4.844l4.676 11.028 4.844 1.668 3.171 9.355h1.336l3.008 3.172v1.672l-1.336 1.336 43.754 20.543h9.356l1.668 1.504 33.066-1.504 34.238-9.52" fill="#fde486"/>
   <path d="m529.945,394.176c-4.343,1.004-8.351,1.84-10.355,1.84h10.019l-.836,4.343 14.032,15.864 23.715,15.703 3.171,1c-8.015.336-19.039,2.508-23.714,2.508 0,2.671-7.848,7.847-7.848,7.847v2.672h-2.676v2.676h-2.672v2.504l-2.672,2.672c-2.504,0-5.175,2.672-5.175,5.343-2.672,2.508-7.848,5.18-10.524,7.852-10.519,0-21.039,0-28.89-7.852-2.672,0-8.016,0-8.016-2.671h-18.371l-2.672-5.344c-31.563,0-28.895,2.672-13.027-13.028 5.175,0 23.546-2.671 26.222,0v2.504c5.344,2.672 15.864-5.175 21.039-5.175 0-5.348 2.676,0 2.676-5.348h18.367c0-2.504 5.348-10.52 5.348-15.699 0-2.672-2.676-5.344-2.676-7.848 5.18,0 7.852-8.019 7.852-13.195-2.672-2.676-7.852-5.348-13.196-5.348-2.503-5.176-5.175-10.519-5.175-15.699-5.344,0-18.371-13.195-31.563-13.195v-5.176l7.848-8.02c5.344,0 13.195,2.676 18.371,2.676 0-2.676-5.176-7.852-5.176-10.523 5.176-2.676 5.176-2.676 10.52-2.676 7.847-7.848 7.847-10.52 7.847-23.547h13.196c2.671-2.672 7.847-13.195 10.519-13.195 0-20.379-5.844-52.614-4.172-74.328l.5.335 9.688,21.879 9.183,36.078v50.442l-4.343,7.516v22.046l9.187,18.875h-1.672l-3.172,3.004-15.363,1.84-4.844,4.676-.5,3.172" fill="#edd171"/>
   <path d="m314.67 251.2c-42.086-21.043-55.277-5.176-92.188-5.176 5.344 0 13.196 13.196 15.868 15.7v5.347h-21.043c-2.672 2.672-13.196 15.699-18.371 15.699v-5.179h2.503v-5.344l8.016-7.852c-5.344-5.175-21.043-13.195-21.043-23.714 2.508 0 15.699-5.18 18.371-5.18l2.672-2.672v-13.027c15.699 0 42.086-5.18 60.457-5.18 2.672 2.508 31.566 15.535 31.566 18.207 5.176 0 10.52 2.672 15.696 2.672 0 5.18 5.347 10.523 5.347 15.699 2.672 0 15.696 15.871 18.368 18.543 0 5.176-2.672 13.027-2.672 18.371-10.52-2.672-68.305 0-68.305-2.672-5.344 0-7.848 2.672-13.191 2.672 7.847 0 15.863-7.851 23.715-7.851 0-13.192-31.567-50.106 2.671-23.715v2.672c2.504 0 10.52 5.175 10.52 7.851 5.18 0 18.371 0 23.547 2.672v2.504l10.523 2.672v2.672h5.344c0-10.52-15.867-21.043-15.867-26.391h-2.504" fill="#e7cb6c"/>
   <path d="m398.84 243.36s18.371-18.207 21.043-18.207c0-15.867-8.016-34.238-8.016-50.105 2.672 0 8.016-5.18 10.52-5.18 5.175 10.524 31.566 18.375 31.566 39.418h15.699l5.344-5.176c7.848 0 15.695 5.176 21.043 5.176l2.504 2.672c0 2.672 2.672 5.18 2.672 7.852 2.672 0 5.344 2.672 7.847 5.343 5.344 0 13.196 2.508 18.539 2.508l5.176 5.176c0-2.672-0.332-5.344-1-8.352l-9.187-6.011-23.711-31.567-51.606-31.234-10.855-15.867-40.75-25.055-39.582-12.359-37.41-3.5081-15.7 4.8441h-6.679c0 0.168 0 0.168-0.168 0.336v1.668l14.699 4.175 28.055 14.364-3.004 4.511 1.668 4.844-1.668 1.668-12.692-11.023-7.515-1.668-5.012-3.508c8.852 7.848 23.215 19.207 25.051 19.207 0 2.672 5.176 13.195 5.176 13.195h2.672l5.179 7.852c0 2.672 2.672 10.519 5.344 10.519 0 7.852 2.672 18.375 2.672 26.223h5.176l2.671-2.504c2.676-2.672 2.676-15.867 2.676-21.047l2.504 5.18 10.52 5.344v5.179l15.867 7.848 2.672 2.672 2.504 47.269-2.504-2.672" fill="#edd171"/>
   <path d="m675.07 461.49v-4.511l-1.672 1.503-6.179-4.507-1.836 12.359 3.172 11.023 9.687 11.024 9.184 4.676-15.864-23.715 3.508-7.852" fill="#cfb564"/>
   <path d="m725.18 460.15c7.847 3.84 15.695 3.172 22.043-3.175l-6.18-12.692-12.691-3.008-7.848 3.008-1.34 9.188c1.84 1 4.68 5.007 6.016 6.679" fill="#231f20"/>
   <path d="m726.676,469.34-4.508-4.344v-1.84l.5-.5c-1-1.336-7.18-7.179-5.512-9.019l-6.011-6.18 12.359-9.352v-3.007l-4.508-3.172-14.363,6.179c5.844,22.883 7.515,36.079 32.898,33.071l-10.855-1.836" fill="#cfb564"/>
   <path d="m758.24 466.33-4.844-3.176-9.351 4.848v4.84l11.023-3.504 3.172-3.008" fill="#cfb564"/>
   <path d="m465.81 456.98h11.023l4.844 1.503 6.179 6.516 12.692 3.008 18.871-1.672 15.867-18.875 9.184-3.172v-6.18l12.859-1.671h4.344v-4.508l-1.336-1.672h-3.008l-3.508 3.008-3.172-1.336h-4.343l-9.684 11.023h-4.844l-10.855 15.531-4.508 4.676-22.047-3.004-11.023-9.687-4.676 3.508-12.859-3.508h-6.18v1.836l-14.028 1.672 7.848 1.336 6.18 7.847 1.84 4.848h3.004l1.336-11.027" fill="#cfb564"/>
   <path d="m568.19 456.98 3.175-3.004 1.332 1.336 3.508-7.852-1.836-8.016-4.676-1.336-1.503-1.671-6.512 26.722 8.015-4.676-1.503-1.503" fill="#cfb564"/>
   <path d="m717.32 455.31 6.18 4.843-4.508-4.843h-1.672" fill="#edd171"/>
   <path d="m522.59 446.12v-4.844l-15.864-4.843-11.023 7.851-1.336 4.844v3.172l12.359 6.179 11.024-3.171 4.84-9.188" fill="#231f20"/>
   <path d="m662.38 441.28-6.18-8.015v-1.336l4.512-4.844 7.848 4.844 15.867-1.672 4.676-3.172-1.672-15.699-25.051 3.004 17.203 4.843v6.18l-14.195-1.336-25.051-11.023v12.359l8.016 14.031 7.847 8.016 4.512-1.336 1.668-4.844" fill="#eaa979"/>
   <path d="m752.06 442.95-6.512-6.515h-9.356l-1.668-1.336h-3.175l12.695 6.179 6.18 6.18h1.836v-4.508" fill="#cfb564"/>
   <path d="m519.42 433.26-12.692-4.676-15.363 6.512-6.515 6.179 21.878-8.015h12.692" fill="#cfb564"/>
   <path d="m609.1 410.04 1.336 1.34 3.172-6.184-67.304-3.172-3.504-3.007h-6.18l11.02 11.023v3.008l14.031 6.179 8.015-4.843h10.856l3.172 3.172-3.172 4.847h-9.184l-1.672 1.668 7.848 3.008 18.875-6.18 12.691-10.859" fill="#eaa979"/>
   <path d="m570.7 426.08 10.852-7.18-10.852-3.007-8.687-2.172-8.016-4.344 12.36-1.5 18.871 2.168 19.539-2.168 4.511 0.832-11.691 8.02-26.887 9.351" fill="#f3cbac"/>
   <path d="m588.56 395.51-26.887-7.516-9.188 3.008-3.172 3.172 31.231 3.008 3.172-1.672h4.844" fill="#eaa979"/>
   <path d="m528.77 356.43 1.672-4.844v-1.336l1.336-1.836 4.844 17.535 4.844-1.668 1.336-1.672-4.512-6.179v-4.844l-6.512-3.172 3.508-6.18 1.336-1.671-1.336-1.336-9.687 7.851-3.008-3.008-18.871 4.344-3.172 4.844-1.668 1.836-9.356-8.016-3.004 4.508 6.18 9.687 3.004 3.008 4.844-3.008 8.015 3.008 4.676-6.179v-4.844l1.504-1.672 6.18 3.508v-1.836l1.668-1.672h1.672l3.172 3.508v6.179l-1.836 1.336-6.18-3.171 1.504 4.843 4.676 1.668 6.179-1.668-3.008-7.851" fill="#cfb564"/>
   <path d="m786.3 334.38-3.004-3.008 1.668-1.836v-4.344h-1.668l-3.172-3.172v-7.851l-9.519-1.836-1.336-1.336v-3.34l-22.047 1.668-9.688 6.18 8.02-3.172 17.535 1.836 10.855 1.336h1.5l1.672 9.687 4.508 3.008-4.508 4.844v3.008h1.336l3.172 3.172-9.351 9.187 1.671 1.836 14.196-3.172-1.84-12.695" fill="#cfb564"/>
   <path d="m587.23 326.53-3.508-8.015 4.844-4.344-9.352-9.688 3.172-4.507-6.18-10.856 4.344-1.84v-9.183h4.844l1.836-11.024 1.336 1.336 4.843-4.844-1.836-4.343 3.172-9.688-4.508 4.844v9.187l-9.687-3.007-1.336 11.023h-3.008v7.852l3.008 3.171v1.672l-7.848 1.336 1.332 4.844-4.507 9.52 11.023 9.351-3.008 4.844 4.344 9.187h-9.184l9.184 9.688h3.172l3.508-6.516" fill="#cfb564"/>
   <path d="m835.06 318.52-3.004-12.36-3.172-3.008 1.5-1.668v-4.843l-4.84-3.176 1.668-1.336-11.024-4.844v-1.668l-3.003 3.508 7.847 3.004-3.004 3.176 7.516 4.676-1.34 4.507v1.672l3.008 3.172-1.668 1.672v4.508h3.34l1.5 1.672-9.352 14.195v1.672l12.36-6.516 1.668-8.015" fill="#cfb564"/>
   <path d="m280.94 312.34 1.671 1.836 14.192-6.512-6.68-6.18-9.183 4.676-4.844-3.008-6.18 6.18-18.871-9.351-23.379-12.696-18.875-4.676h-1.668l-3.176-3.171v-3.008l9.356-4.844 9.519-6.18 9.352 1.672h4.844l1.668-1.672v-4.843l-14.364-14.032v-3.172l10.856-6.179 14.531 1.336h7.516l7.847-4.344 26.891 9.187 6.176-3.007h6.515l4.508 4.675h9.52l12.359 11.024 4.844 4.512h1.668l3.176-3.172-18.872-17.039-15.867-3.172-22.047-1.672-17.031-9.184-17.203 7.848-18.871-4.844-4.844 7.852h-12.691v1.336l-1.336 1.836 6.176 6.179v4.676l12.695 6.184 1.336 1.836v1.336l-22.047 3.007-17.199 17.536v3.175l19.039 3.004 23.211 8.02 14.531 10.855 15.363 4.844 6.516 4.508 6.18-7.848 3.172 4.676" fill="#231f20"/>
   <path d="m467.65 278.1 3.008-3.508v-4.512l-4.843-3.004 8.015-9.687v-10.86l-1.336-1.504 4.344-3.339-1.336-9.352 1.336-1.672-3.008-6.012h-1.336l-3.172-3.171 3.172-4.68-4.844-3.172-1.835 4.844 6.679 9.187-1.836 15.699 3.172 6.18-8.015 7.852-1.336 19.039 4.843 9.187h1.336l-3.008-7.515" fill="#cfb564"/>
   <path d="m803.5 278.1 1.836-1.672 3.008 3.008h1.668l1.504-4.844v-4.512h-4.508l-3.508-6.512h-1.336l-4.844 4.844-1.336-12.363-7.847 6.18h-3.176l-4.84-9.52 3.172 10.859 1.668 1.836h3.176l3.004-3.175 3.175 3.175-3.175 3.008 11.023 1.668-3.008 12.527h3.008l1.336-4.507" fill="#cfb564"/>
   <path d="m401.85 248.2 6.179-9.687v-6.18l7.852-3.008 6.18-9.519-6.18-15.367-1.336-1.836 7.516-3.008-15.368-20.375-6.511-3.34-1.504 1.668v3.176h1.504v9.519l4.675 1.504 9.688 18.871v3.008l3.004 7.852-6.512 6.179h-4.344l-4.843 7.848h-1.668l-1.504-1.336-7.848 7.516 3.172 7.851 4.676-1.336h3.172" fill="#cfb564"/>
   <path d="m498.88 202.6-4.512 4.843 17.203 12.36-7.851-14.032-4.84-3.171" fill="#cfb564"/>
   <path d="m467.65 202.6-1.835-1.336-1.336 1.336 11.023 9.687v-4.844l-7.852-4.843" fill="#231f20"/>
   <path d="m769.27 196.42-14.196-6.18-4.843-4.844-4.676 3.172v4.844l4.676 4.512 4.843-3.176 11.02 6.516 6.18 1.336 6.179 8.015 3.172-3.172-12.355-11.023" fill="#cfb564"/>
   <path d="m695.28 196.42 8.016-6.18h1.336l4.844 4.508 6.179-7.848 6.512 6.512 4.508-6.512 4.676 7.848 4.843-7.848 3.176-3.175h-6.18l-1.839 1.671-3.004-3.007h-4.844v1.336l-3.004 3.175-3.176-3.175-9.351 4.843-4.676-3.172-8.016 1.504-1.672-1.504v-1.671l-7.515 17.539 6.179-9.52 3.008 4.676" fill="#cfb564"/>
   <path d="m357.93 179.22 4.676-4.68-6.512-9.687 1.836-4.508v-1.668l1.672-1.34-9.688-4.84-1.336-12.695-9.687-4.512 3.176 11.024 7.847 9.355 1.836 10.855 4.344 6.18-1.336 15.867h3.172v-9.351" fill="#231f20"/>
   <path d="m624.64 91.363 4.676-1.6719 1.835-6.1797 7.516-8.0156-11.023-6.5156h-4.508l-1.668 8.0195-6.18 4.6758-3.008 12.695-17.535 9.3519-15.531-1.336-14.363-3.5081-4.508-3.0078-3.008 3.0078-14.527-1.3359-3.008-3.1719 4.676 11.024 15.867 6.179h17.199l15.867 8.016 6.18 9.187-1.504 15.868-1.668 1.668 14.027-6.512 14.196-48.438" fill="#eaa979"/>
   <path d="m766.09 95.871 4.512-17.203 21.875-18.871 9.687-4.8438 9.352-14.031h-19.039l-20.207 18.875-15.868 11.023-20.207-3.1758-9.519-3.0039h-1.5l-4.676-8.0195-4.844-3.0039-6.179 1.3359v1.668l-3.176 3.1758 17.203 12.691 9.687 1.3359 12.36 9.6875 1.668-1.8359 7.851 8.0156-4.843 20.211-4.676 17.539 6.512 7.848 9.183-4.844 4.844-34.574" fill="#eaa979"/>
   <path d="m244.86 102.39v-11.024l18.871-36.41 14.032-9.3554 40.914-9.5196 12.359-6.1797h12.691l4.844-3.1718 1.336-1.6719-6.18-3.1719-4.843-6.1797-12.356 6.1797h-10.855l-15.867 6.6797-18.871 7.5156h-34.739l-11.023-4.5078h-6.176l-10.859-9.6875-8.016 6.6797-7.848-8.0156-1.336 4.5078 11.024 9.6875 10.855 1.3359 9.352 7.8516h3.004l4.844 6.5117-3.004 23.383-14.196 37.75 11.02-7.851 11.023-1.336" fill="#eaa979"/>
   <path d="m660.71 92.699-7.684-1.3359-7.847 4.5078-14.032 1.6719-4.843 12.359 1.336 1.672 26.89-11.023 6.18-7.8518" fill="#eaa979"/>
   <path d="m331.04 89.691 7.848-12.691 26.89-14.199 32.899-6.1797 14.195-11.023 4.676-4.6758-1.668-1.5039h-4.844l-3.008 6.1797-3.172 3.1757-1.335-1.6718v-3.1719l-11.024-1.3399-6.512 6.1836-34.238 3.0039-23.715 11.024-26.886-1.336-21.879-7.8476-4.508 3.0039h-1.672v3.1758l28.059 9.1836 9.687 4.8437 3.004 7.8516-1.668 9.6875 14.363-1.6719h4.508" fill="#eaa979"/>
   <path d="m400.18 78.668-23.383-3.1719h-18.871l-1.836 1.5039 15.867 6.5117h11.02l1.671 1.336h7.848l7.684-6.1797" fill="#eaa979"/>
   <path d="m807.01 81.676 14.027-7.8516h9.352v-9.1836l-20.375 6.1797-14.028-3.1758-12.691 7.8516-6.18 8.0156 9.184-4.8437 20.711 3.0078" fill="#eaa979"/>
   <path d="m642.17 61.465-8.016 1.336 1.504 1.8398 4.676-1.8398 1.836-1.336" fill="#e0d6cf"/>
   <path d="m335.88 50.441-6.18-4.8437h-17.535l-12.359 3.1757h-1.672l9.523 6.1797 22.043-1.3359 6.18-3.1758" fill="#d79d70"/>
   <path d="m813.19 37.75h1.335v-11.023h-1.335v11.023" fill="#e0d6cf"/>
   <path d="m356.09 12.695-7.516 1.336 1.336 1.6718 4.844-1.6718 1.336-1.336" fill="#e0d6cf"/>
   <path d="m67.836 317.01 25.887-7.848 42.086 2.672 47.261 13.027 52.61 23.719 47.429 23.715 65.633 10.523 42.086 10.524 21.043 28.894 15.695 36.91 34.239 21.047 42.086 5.176 28.89-10.519 15.867-10.524 15.7 2.672 5.843 2.172-5.343 11.191-18.539 12.692-14.528 9.355l-34.238 9.52-33.066 1.504-1.668-1.504h-9.356l-43.754-20.543 1.336-1.336v-1.672l-3.008-3.172h-1.336l-3.171-9.355-4.844-1.668-4.676-11.028h-4.844l-3.172-6.179h-3.007l3.007-7.848-6.179-6.18 1.836-1.672v-1.836l-3.504-3.007h-20.211l-34.735-3.172-12.359 3.172-11.023-3.172-42.586-4.676-25.051-7.684-15.531-7.851h-7.852l-3.172-3.008h-7.847l-12.696-6.512 1.672-1.504-7.851-7.851h-4.84l-11.024-1.668-4.676-6.18-6.179-1.84-14.196-12.359-25.05-14.027 1.336-4.844-15.364-9.188-7.8515-11.023h-3.1719l-20.043-16.035" fill="#fde486"/>
   <path d="m67.8359,317.012c8.8516-1.668 17.8711-3.508 26.7227-5.176 14.5274,2.84 29.2264,5.844 43.7544,8.684 16.367,6.179 32.734,12.359 49.101,18.375 17.367,8.515 34.57,17.035 51.77,25.55 16.367,5.848 32.734,11.696 49.101,17.539 20.711,2.84 41.586,5.844 62.293,8.684 12.86,3.844 25.719,7.684 38.578,11.359 6.348,9.688 12.86,19.375 19.207,29.063 7.18,12.191 14.028,24.551 21.043,36.746l34.071,17.535c14.363.836 28.722,1.84 43.086,2.672 9.351-3.504 18.703-7.012 28.058-10.52 4.676-3.007 9.352-5.847 14.027-8.851l15.7,1c2.004-.168 4.007-.332 5.843-.5-1.668,3.672-3.507,7.516-5.343,11.191-6.18,4.34-12.36,8.516-18.539,12.692-4.84,3.175-9.684,6.179-14.528,9.355-11.355,3.172-22.879,6.344-34.238,9.52l-33.066,1.504c-.5-.504-1.168-1.004-1.668-1.504h-9.356c-14.527-6.848-29.223-13.696-43.754-20.543 .5-.504 1-.836 1.336-1.336v-1.672c-1.004-1.168-2.004-2.172-3.008-3.172h-1.336c-1-3.176-2.168-6.18-3.171-9.355-1.504-.5-3.172-1-4.844-1.668-1.504-3.676-3.172-7.352-4.676-11.028h-4.844c-1-2.004-2.172-4.008-3.172-6.179h-3.007c1.003-2.504 2.003-5.176 3.007-7.848-2.004-2.004-4.007-4.176-6.179-6.18 .668-.504 1.168-1.172 1.836-1.672v-1.836l-3.504-3.007h-20.211c-11.688-1-23.211-2.004-34.735-3.172-4.175,1.168-8.183,2.172-12.359,3.172-3.676-1-7.348-2.004-11.023-3.172-14.196-1.504-28.391-3.176-42.586-4.676-8.352-2.508-16.7-5.18-25.051-7.684-5.18-2.507-10.356-5.179-15.531-7.851h-7.852c-1-1.004-2.004-2.004-3.172-3.008h-7.847c-4.176-2.168-8.52-4.34-12.696-6.512 .668-.504 1.172-1.004 1.672-1.504-2.504-2.504-5.18-5.175-7.851-7.851h-4.84c-3.676-.5-7.352-1.168-11.024-1.668-1.504-2.172-3.176-4.176-4.676-6.18-2.171-.668-4.175-1.168-6.179-1.84-4.676-4.008-9.52-8.183-14.196-12.359l-25.05-14.027c.5-1.672 1-3.176 1.336-4.844-5.012-3.008-10.188-6.18-15.3637-9.188-2.6757-3.675-5.3476-7.347-7.8515-11.023h-3.1719c-6.6836-5.344-13.3633-10.692-20.043-16.035" fill="#fee99f"/>
   <path d="m67.8359,317.012c9.1875-.836 18.3711-1.668 27.5586-2.672l45.5895,15.031c17.036,7.852 33.903,15.699 50.938,23.551 16.867,9.187 33.902,18.207 50.769,27.226 17.036,3.84 33.903,7.68 50.938,11.356l58.621,7.016c11.688,4.175 23.379,8.183 35.07,12.359 5.844,9.687 11.692,19.207 17.535,28.894 8.852,12.36 17.536,24.555 26.219,36.915 11.36,4.675 22.883,9.351 34.239,14.031h43.753c9.188-3.508 18.204-7.016 27.223-10.524 4.176-2.34 8.184-4.675 12.359-7.015 5.176-.336 10.52-.668 15.7-1.004 2.004-1 4.007-2.004 5.843-3.004-1.668,3.672-3.507,7.516-5.343,11.191-6.18,4.34-12.36,8.516-18.539,12.692-4.84,3.175-9.684,6.179-14.528,9.355-11.355,3.172-22.879,6.344-34.238,9.52l-33.066,1.504c-.5-.504-1.168-1.004-1.668-1.504h-9.356c-14.527-6.848-29.223-13.696-43.754-20.543 .5-.504 1-.836 1.336-1.336v-1.672c-1.004-1.168-2.004-2.172-3.008-3.172h-1.336c-1-3.176-2.168-6.18-3.171-9.355-1.504-.5-3.172-1-4.844-1.668-1.504-3.676-3.172-7.352-4.676-11.028h-4.844c-1-2.004-2.172-4.008-3.172-6.179h-3.007c1.003-2.504 2.003-5.176 3.007-7.848-2.004-2.004-4.007-4.176-6.179-6.18 .668-.504 1.168-1.172 1.836-1.672v-1.836l-3.504-3.007h-20.211c-11.688-1-23.211-2.004-34.735-3.172-4.175,1.168-8.183,2.172-12.359,3.172-3.676-1-7.348-2.004-11.023-3.172-14.196-1.504-28.391-3.176-42.586-4.676-8.352-2.508-16.7-5.18-25.051-7.684-5.18-2.507-10.356-5.179-15.531-7.851h-7.852c-1-1.004-2.004-2.004-3.172-3.008h-7.847c-4.176-2.168-8.52-4.34-12.696-6.512 .668-.504 1.172-1.004 1.672-1.504-2.504-2.504-5.18-5.175-7.851-7.851h-4.84c-3.676-.5-7.352-1.168-11.024-1.668-1.504-2.172-3.176-4.176-4.676-6.18-2.171-.668-4.175-1.168-6.179-1.84-4.676-4.008-9.52-8.183-14.196-12.359l-25.05-14.027c.5-1.672 1-3.176 1.336-4.844-5.012-3.008-10.188-6.18-15.3637-9.188-2.6757-3.675-5.3476-7.347-7.8515-11.023h-3.1719c-6.6836-5.344-13.3633-10.692-20.043-16.035" fill="#fcedb7"/>
   <path d="m67.836 317.01h28.391l47.433 21.047 52.606 28.894 49.933 29.063 52.61 5.175 55.277 5.348 31.562 13.027 15.7 29.063 31.566 36.742 34.066 10.524 44.758-2.672 26.391-10.524 10.519-5.176 15.7-2.671 5.843-5.68-5.343 11.191-18.539 12.692-14.528 9.355-34.238 9.52-33.066 1.504-1.668-1.504h-9.356l-43.754-20.543 1.336-1.336v-1.672l-3.008-3.172h-1.336l-3.171-9.355-4.844-1.668-4.676-11.028h-4.844l-3.172-6.179h-3.007l3.007-7.848-6.179-6.18 1.836-1.672v-1.836l-3.504-3.007h-20.211l-34.735-3.172-12.359 3.172-11.023-3.172-42.586-4.676-25.051-7.684-15.531-7.851h-7.852l-3.172-3.008h-7.847l-12.696-6.512 1.672-1.504-7.851-7.851h-4.84l-11.024-1.668-4.676-6.18-6.179-1.84-14.196-12.359-25.05-14.027 1.336-4.844-15.364-9.188-7.8515-11.023h-3.1719l-20.043-16.035" fill="#fcf3d2"/>
   <path d="m96.227 250.04v1.168c3.0078 1.504 11.023 1.336 18.371 0.836l-11.188-0.836-7.1834-1.168zm35.906-4.676-5.176-5.011-7.848 4.675h-11.023l-7.852-6.511-12.355 3.172-6.5156 6.515-1.336-1.672-14.195 9.52-1.6679 4.512-9.1875 4.843-9.6836-4.843 4.8398-11.024 14.031-42.09 20.207-31.566 28.559-18.543 39.246-17.535v-4.512l39.078-11.023 17.703-1.336c-0.168 1.172-0.5 2.34-1 3.508l-0.836 1.003-4.844 6.18v7.016c-1.672 4.34-2.839 8.515-2.504 12.859l-2.003 2.172v4.676l6.175 11.023-1.668 1.336 3.508 3.508c-0.668 4.844-1.672 9.352-1.672 9.352-2.672-2.504-5.175-7.848-7.847-10.52 0-52.613-47.43-7.852-63.129-7.852 0 7.852-2.672 18.372-2.672 26.391-7.852 2.504-10.524 13.027-10.524 21.043l2.672 2.508h5.18v2.672l21.043 5.343 2.672 2.508c0 2.504 2.672 10.52 2.672 13.028-5.512 0-16.032 1.336-22.047 4.675" fill="#e7cb6c"/>
   <path d="m290.96 359.1c49.934 0 92.02 21.046 136.61 5.343 78.997-29.062-20.875-65.804-55.109-65.804-2.672 2.672-18.371 10.523-23.715 10.523-2.504 5.176-13.027 10.52-15.699 13.191-13.191 0-26.387 5.18-39.414 5.18-2.672 2.672-10.52 10.524-13.191 10.524 0 2.671-2.672 7.847-2.672 10.523 2.672 0 2.672 2.672 2.672 5.344 2.671 0 7.847 2.504 10.519 2.504v2.672" fill="#fde486"/>
   <path d="m303.82 354.93c40.75 0 74.989 17.039 111.4 4.176 64.129-23.551-17.203-53.446-44.926-53.446-2.172 2.168-15.031 8.516-19.371 8.516-2.172 4.344-10.687 8.519-12.859 10.691-10.692 0-21.379 4.34-32.067 4.34-2.172 2.172-8.519 8.52-10.687 8.52 0 2.172-2.172 6.515-2.172 8.687 2.172 0 2.172 2.004 2.172 4.172 2.168 0 6.344 2.172 8.515 2.172v2.172" fill="#fee99a"/>
   <path d="m316.68 350.75c31.398 0 57.953 13.195 86.008 3.176 49.433-18.207-13.192-41.258-34.735-41.258-1.672 1.672-11.527 6.516-14.863 6.516-1.672 3.339-8.184 6.679-9.856 8.351-8.351 0-16.535 3.34-24.882 3.34-1.672 1.672-6.516 6.516-8.184 6.516 0 1.668-1.672 5.011-1.672 6.679 1.672 0 1.672 1.672 1.672 3.34 1.668 0 4.844 1.672 6.512 1.672v1.668" fill="#feefaf"/>
   <path d="m329.54 346.41c22.211 0 40.75 9.352 60.625 2.336 34.738-12.859-9.351-29.062-24.383-29.062-1.172 1.171-8.183 4.679-10.523 4.679-1.168 2.336-5.844 4.676-7.012 5.844-5.847 0-11.691 2.34-17.539 2.34-1.168 1.168-4.676 4.508-5.676 4.508 0 1.168-1.168 3.508-1.168 4.675 1.168 0 1.168 1.172 1.168 2.34 1 0 3.34 1.168 4.508 1.168v1.172" fill="#fef2c4"/>
   <path d="m597.914,327.199c9.02-15.199 15.699-33.234 17.035-51.609 5.68-4.844 17.371-19.707 18.203-30.231 10.524.836 31.899-2.839 42.422-2.004l16.699-12.027 2.504.168 2.672.332 5.68-4.84c13.195.832 31.062,7.516 44.258,8.516 4.34,10.859 3.84,18.707 3.004,29.23-7.848-.5-26.887,6.012-37.243,5.176-.332,2.508-11.355,9.688-14.195,12.028-.332,5.343-3.34,10.355-3.672,13.027-28.726-2.172-38.078,15.535-57.785,32.57l-.168,2.504-.168,2.672c-2.836,2.508-8.18,2.008-8.515,7.352-2.672-.336-8.016,2.003-8.352,4.507l-10.352-.668-2.507-2.839-2.504-2.84c.332-2.672-2.004-8.016-4.508-8.352 .332-5.176.5-7.848-2.508-2.672" fill="#fde486"/>
   <path d="m611.109,316.344c7.68-12.86 13.696-24.719 14.864-40.418 4.843-4.176 15.199-17.203 15.867-26.223 9.015.668 27.887-2.84 36.738-2.172 4.512-3.34 9.02-6.679 13.527-10.187 1.172.164 2.508.332 3.844.5 1.168-.168 2.168-.336 3.172-.668 1.836-1.168 3.508-2.508 5.344-3.844 11.023.836 24.887,6.348 36.074,7.184 3.672,9.351 1,13.863.332,22.882-6.68-.5-22.879,4.508-31.73,3.84-.164,2.172-9.688,8.688-12.024,10.692-.336,4.508-5.512,7.683-5.679,10.019-24.547-1.836-29.391,10.86-46.258,25.223l-.504,2.004c-.5,1.336-.832,2.672-1.168,4.008-2.504,2.004-6.848,1.504-7.18,5.847-2.34-.168-7.183,2.504-7.348,4.676-2.675.332-5.179.668-7.683,1-.836-.836-1.504-1.668-2.172-2.504s-1.336-1.504-2.004-2.34c.168-2.336-1.672-6.847-4.008-7.015 .332-4.508.5-6.68-2.004-2.504" fill="#fee99a"/>
   <path d="m624.137,305.656c6.511-10.691 11.855-16.535 12.859-29.398 4.008-3.508 13.192-14.695 13.692-22.215 7.351.668 23.718-2.672 31.066-2.168l10.019-8.52c1.836.333 3.508.668 5.344.836 1.168-.503 2.504-1.003 3.676-1.503 1.668-.836 3.172-1.836 4.84-2.84 9.187.668 18.707,5.175 28.058,5.843 3.008,7.684-1.836,8.856-2.503,16.204-5.512-.332-18.708,3.339-26.055,2.671-.168,1.836-8.016,7.684-10.02,9.356-.168,3.84-7.515,5.176-7.683,7.012-20.207-1.5-20.539,6.179-34.403,18.039-.336.504-.668.836-1.004,1.336-.832,1.671-1.5,3.507-2.168,5.179-2.003,1.668-5.679,1-6.011,4.676-1.84-.168-6.18,2.672-6.348,4.512-1.672,1-3.172,1.836-4.844,2.836-.668-.668-1.168-1.336-1.836-2.004-.5-.668-1.003-1.336-1.671-2.004 .168-1.836-1.336-5.68-3.172-5.844 .168-3.676.332-5.512-1.836-2.004" fill="#feefaf"/>
   <path d="m637.328,294.965c5.012-8.352 9.856-8.352 10.688-18.539 3.175-2.672 11.023-12.192 11.523-17.871 5.68.332 19.543-2.84 25.387-2.34l6.679-6.848 6.68,1.172 4.176-2.34 4.508-1.836c7.183.5 12.527,3.84 19.875,4.34 2.34,6.012-4.676,4.008-5.176,9.688-4.344-.168-14.699,2.004-20.543,1.672-.168,1.335-6.348,6.511-7.848,8.015-.336,2.84-9.519,2.34-9.687,3.844-16.031-1.172-12.024,1.336-22.879,10.855l-1.336.668-3.176,6.512c-1.5,1.34-4.508.504-4.676,3.344-1.503-.168-5.175,3.004-5.343,4.508l-2.172,4.343-1.336-1.504-1.336-1.503c0-1.504-1.168-4.508-2.672-4.676 .336-2.84.336-4.344-1.336-1.504" fill="#fef2c4"/>
   <path d="m640.5,425.578v-12.527l13.195,5.847 3.508,2.172 13.027,5.844 7.516,4.008h-.168l-13.195-4.008-10.02-.836-.836,5.848 8.688,9.851-1.34,3.676-5.008,1.672-7.515-7.684-7.852-13.863" fill="#f3cbac"/>
   <path d="m248.203,85.0156c1.672-8.5195 4.676-17.3711 7.016-25.2187 3.672-12.1953 11.855-10.6914 21.211-13.1953l-12.696,8.3515-15.531,30.0625zm33.067-40.2539c.335,0 .668-.164.835-.332v-1.5039l12.36-9.3516c5.844,0 9.519-1.5039 13.195-5.1797 2.168,0 4.34,1.5039 6.512,1.5039 8.016-3.6757 15.863-3.6757 25.383-3.6757 0,0 .672-.668 1.504-.668 0-.668 1.504-1.5039 1.504-2.1719 .5,0 1.167-.5 2.003-1l5.344,2.6719-1.336,1.6719-4.844,3.1718h-12.691l-12.359,6.1797-37.41,8.6836" fill="#f3cbac"/>
   <path d="m331.539,88.0234c0-2.8398-.668-3.5078-.668-5.6796h-1.504v-1.504c1.504-1.5039 3.008-4.3437 3.008-5.8437 .668-.668 2.84-2.8398 2.84-3.6758 2.84-1.3359 8.683-7.1836 11.691-7.1836 1.336-3.6719 11.524-4.3398 15.864-4.3398 9.519-9.5235 29.226,2.1719 39.414-8.0196 .332.336.668.836 1.004,1.336l-4.512,3.5078-32.899,6.1797-26.89,14.1992-7.348,11.8594v-.836" fill="#f3cbac"/>
   <path d="m209.457,29.8984h8.684c0,5.8438 11.691,9.5196 15.199,9.5196 0,.6679 3.008,5.0117 3.008,5.0117 1.336,0 3.672.8359 4.34.8359 0,1.668-.333,3.5078-.668,5.1758l-4.844-6.5117h-3.004l-9.352-7.8516-10.855-1.3359-3.844-3.3399c.336-1.0039.668-1.8398 1.336-1.5039" fill="#f3cbac"/>
   <path d="m752.395,132.449 11.023-46.5974c2.84-9.3555 10.187-15.1993 13.695-23.2149 3.008,0 18.203-7.1836 18.203-11.6914 .836,0 1.504-.6719 2.172-.6719 0-1.5.836-2.8359.836-4.3398 .668,0 2.172-1.5039 2.84-2.1719 0-.8359.164-1.8359.5-2.8398h9.852l-9.352,14.0312-9.687,4.8438-21.875,18.8711-4.512,17.2031-4.844,34.5739-8.851,4.68v-2.676" fill="#f3cbac"/>
   <path d="m748.055,82.6797c-.168-.3359-.5-.6719-.668-1.1719-1.504,0-3.676-2.1719-5.18-2.8398v-1.5c-.668-.6719-2.836-2.1719-2.836-2.8399-2.172,0-5.012-2.1718-6.516-3.6758-5.175,0-10.187-2.8398-13.859-2.8398 0-.8359-2.84-2.3398-3.676-3.6758-1,0-3.34-.832-4.843-1.3359l13.027,9.6875 9.687,1.3359 12.36,9.6875 1.668-1.8359 .836,1.0039" fill="#f3cbac"/>
   <path d="m607.77,140.469c0-9.52 1.503-25.387 5.843-34.91 0-1.5-.836-3.672-.836-5.176 .836,0 6.68-7.1838 6.68-7.1838v-3.6719c.672,0 1.34-.6679 2.172-.6679 0-2.3399 7.516-10.8594 11.191-16.7031l5.844,3.3398-7.516,8.0156-1.835,6.1797-4.676,1.6719-14.196,48.4377-2.671,1.336v-.668zm-64.801-38.75c1.336,1.168 2.172,2.172 2.172,2.34 3.675,0 4.511,1.5 8.015,0 .836,0 2.172.832 3.008.832 0,1.172 1.336,3.675 2.004,5.847l-13.695-5.343-1.504-3.676zm20.211,9.855c1.336-.836 4.008-2.672 4.508-3.844 1.503,0 3.675,2.172 4.339,2.84 2.34,0 5.848-1.336 8.852-1.336 2.172,2.172 8.687,3.676 11.523,3.676 1.172,2.172 1.004,4.008.836,6.512l-15.699-7.848h-14.359" fill="#f3cbac"/>
   <path d="m584.555,102.887c1.836.668 3.84,1.172 5.679,1.172 2.168,2.168 3.672,5.843 7.348,5.843l.668,1.504h3.004c2.172-3.008 2.84-9.519 5.012-11.6912h.836c.836-1.1679 1.503-2.3398 1.836-3.5078l-14.196,7.516-10.187-.836" fill="#d79d70"/>
   <path d="m746.72 69.316v2.8399l1.336 1.3359h4.34v1.5039h5.847l1.504-2.8398c2.836 0 2.836-3.0079 4.34-3.0079v-3.6757l-7.684 5.3476-9.683-1.5039" fill="#d79d70"/>
   <path d="m509.234,453.805c0,0-1-2.504-1-3.008l.5-.5c1-.5 3.004-1 4.008-1.504v-3.34h1.004l.5.5c.5.836 0,5.848 0,6.852l-.5.5c-.504,0-3.008,0-3.008.5h-1.504l-.5-.5 .5.5" fill="#fcf3d2"/>
   <path d="m509.234,453.805c0,0-1-2.504-1-3.008l.5-.5c1-.5 3.004-1 4.008-1.504v-3.34h1.004l.5.5c.5.836 0,5.848 0,6.852l-.5.5c-.504,0-3.008,0-3.008.5h-1.504l-.5-.5 .5.5z" fill="none" stroke="#231f20" stroke-miterlimit="3.8636" stroke-width=".9"/>
   <path d="m727.848,459.816c0-.332-1.336-2.171-1.336-2.171l-1.004-.5c0-1.668 0-4.34 1.004-5.176v-1.004c.332,0 1.336-.332 1.336-.836 .332.836.836,3.508.836,4.344 .332,0 .832.5.832,1.004 .836,0 1.836.332 2.672.332l.5.5v2.171l-1,.504c-.336,1.336-4.844.5-3.84.832" fill="#fcf3d2"/>
   <path d="m727.848,459.816c0-.332-1.336-2.171-1.336-2.171l-1.004-.5c0-1.668 0-4.34 1.004-5.176v-1.004c.332,0 1.336-.332 1.336-.836 .332.836.836,3.508.836,4.344 .332,0 .832.5.832,1.004 .836,0 1.836.332 2.672.332l.5.5v2.171l-1,.504c-.336,1.336-4.844.5-3.84.832z" fill="none" stroke="#231f20" stroke-miterlimit="3.8636" stroke-width=".9"/>
  </g>
 </g>
</svg>
