<?xml version="1.0" encoding="UTF-8"?>
<svg width="58.091mm" height="59.161mm" version="1.1" viewBox="0 0 58.090988 59.161068" xmlns="http://www.w3.org/2000/svg">
 <g transform="translate(-1.395 -109.26)" fill-rule="evenodd">
  <path d="m55.09 119.21c-1.5795 17.078-9.2428 27.845-21.07 39.007-6.8773 6.021-15.692 12.804-24.213 9.1847-9.7869-4.1576-9.7543-12.395-6.3242-18.518 5.593-9.9845 11.11-12.597 20.203-18.247 6.3669-3.8471 9.408-10.018 15.908-14.851 1.7283-1.2136 6.5013-3.0092 7.3914-3.2548 5.7015 0.14997 6.6078 2.6843 8.1057 6.6796z" fill="#21112e"/>
  <path d="m44.838 123.38c-6.7159 11.982-18.407 32.91-34.19 37.166-7.5953 0.75828-2.4109-8.1917-0.63006-12.159 6.3243-8.8859 16.915-11.552 23.246-19.243 2.2501-2.7944 3.3211-5.2262 4.6867-6.16 1.5478 1.291 3.9663 1.7812 6.8873 0.39513z" fill="#7e4e79" fill-opacity=".41111"/>
  <path d="m43.321 124.1c-5.9743 13.711-20.423 27.205-31.349 33.663-3.6162-0.33239-4.5489-3.6941-1.3069-8.0761 12.282-8.3709 21.482-14.715 28.781-25.782 0.94496 0.66085 2.4482 0.65896 3.8751 0.19525z" fill="#bcb2c9" fill-opacity=".65979"/>
  <path d="m35.759 136.36-0.84321-6.362c1.4952-1.9889 3.234-3.977 4.3039-5.9805 0.90257 0.28336 2.8547 0.57763 4.1981 0.13359-0.97472 1.9961-5.7285 10.053-7.6588 12.209z" fill="#ebe9ee" fill-opacity=".41237"/>
  <path d="m52.442 112.49-0.31774-2.9586c-0.44831 0.45289-0.55951-0.51016-2.0128-0.2184l-1.406 0.64576-1.0344 0.82096s-0.98435 0.14119-1.6939 0.37376c-0.70951 0.23257-2.7624 0.0478-4.6699 1.7117-2.0684 1.8041-2.2455 3.551-6.7167 2.1414l1.5637 4.3838s2.5508 1.727 3.4279 1.3008c0.87715-0.42618 2.2832-1.0719 2.2832-1.0719l-2.805 2.6527c0.1659 3.0955 7.3716-0.43844 6.3796 0.12264-0.32229 0.56785 3.1754 4.2435 3.1754 4.2435s-0.9078-2.4733-0.45518-3.9473c0.45288-1.4748 1.8043-3.1918 1.8043-3.1918s0.03045 4.8555 0.60066 5.7443c1.9847 3.0934 3.9848 3.8405 7.1691 2.8312l-2.088-1.4615 3.8399-0.54434c-1.5967 0.22067-5.0553-2.5103-3.9218-5.4473 0.46985-3.9023 1.0951-5.8322-3.1223-8.1312z" fill="#92b147"/>
  <path d="m35.269 116.81c4.3915 3.4147 6.1154-2.7842 10.98-2.5797-2.8319 1.8521-3.4481 3.7042-4.6302 5.5562-1.6271 1.4624-3.4024 1.8941-5.5562-0.33073z" opacity=".12"/>
  <path d="m39.106 122.37c2.9329 0.74635 4.9304-0.75232 7.0115-2.0505l-0.39688 0.99219c0.39359 1.8694 1.6553 3.5219 2.712 5.2255-1.2374-1.3136-2.5283-2.6164-2.9104-4.101-2.6703 0.73097-5.7626 2.0599-6.4161-0.0662z" opacity=".12"/>
  <path d="m49.954 119.46c1.0992-0.6329 0.73169-2.2997 0.66146-3.7703 3.0648 4.7184-1.2064 5.1311 3.4396 12.766-3.4837-1.0583-4.8507-4.0569-4.101-8.9958z" opacity=".12"/>
  <path d="m52.134 109.55c-0.35874 1.7302-1.5986 2.5792-2.9078 3.359 0.89711 0.35122 2.1167 0.59086 3.175-0.52917z" opacity=".12"/>
  <path d="m55.414 126.57c-2.136-2.3932-2.072-4.6489-2.2918-6.9223 0.63005 2.9246 1.9584 5.1509 3.8353 6.8287z" opacity=".12"/>
 </g>
</svg>
