<?xml version="1.0" encoding="UTF-8"?>
<svg width="410.16" height="410.16" viewBox="0 0 410.15689 364.22748" xmlns="http://www.w3.org/2000/svg" xmlns:xlink="http://www.w3.org/1999/xlink">
 <defs>
  <filter id="d" x="-.30303" y="-.30303" width="1.6061" height="1.6061">
   <feGaussianBlur stdDeviation="143.23032"/>
  </filter>
  <linearGradient id="c">
   <stop stop-color="#f60" offset="0"/>
   <stop stop-color="#f60" stop-opacity="0" offset="1"/>
  </linearGradient>
  <linearGradient id="b" x1="-3576.6" x2="-4110.5" y1="3659.5" y2="2858.7" gradientUnits="userSpaceOnUse" xlink:href="#c"/>
  <radialGradient id="a" cx="-4354.1" cy="3144.6" r="427.06" gradientTransform="matrix(-.73113 -.71055 1.0879 -1.3012 -10329 3983.3)" gradientUnits="userSpaceOnUse" xlink:href="#c"/>
 </defs>
 <path transform="matrix(.08617 0 0 .08617 472.61 -271.31)" d="m-2735.9 4526.9c0 313.25-253.94 567.19-567.19 567.19s-567.19-253.94-567.19-567.19 253.94-567.19 567.19-567.19 567.19 253.94 567.19 567.19z" fill="#fff" fill-rule="evenodd" filter="url(#d)" opacity=".32082"/>
 <path transform="matrix(.05531 0 0 .09255 312.34 -165.98)" d="m-2735.9 4526.9c0 313.25-253.94 567.19-567.19 567.19s-567.19-253.94-567.19-567.19 253.94-567.19 567.19-567.19 567.19 253.94 567.19 567.19z" fill="#fff" fill-rule="evenodd" filter="url(#d)" opacity=".16041"/>
 <g fill="#fff" fill-rule="evenodd">
  <path transform="matrix(.20052 -.0158 .01448 .18384 914.59 -550.07)" d="m-3389.8 3299.1c0 350.1-191.2 633.92-427.06 633.92s-427.06-283.82-427.06-633.92 191.2-633.92 427.06-633.92 427.06 283.82 427.06 633.92z"/>
  <path transform="matrix(.20052 -.0158 .01448 .18384 914.59 -550.07)" d="m-3389.8 3299.1c0 350.1-191.2 633.92-427.06 633.92s-427.06-283.82-427.06-633.92 191.2-633.92 427.06-633.92 427.06 283.82 427.06 633.92z"/>
 </g>
 <path transform="matrix(.20052 -.0158 .01448 .18384 914.59 -550.07)" d="m-3389.8 3299.1c0 350.1-191.2 633.92-427.06 633.92s-427.06-283.82-427.06-633.92 191.2-633.92 427.06-633.92 427.06 283.82 427.06 633.92z" fill="url(#b)" fill-rule="evenodd"/>
 <path transform="matrix(.20052 -.0158 .01448 .18384 914.59 -550.07)" d="m-3389.8 3299.1c0 350.1-191.2 633.92-427.06 633.92s-427.06-283.82-427.06-633.92 191.2-633.92 427.06-633.92 427.06 283.82 427.06 633.92z" fill="url(#a)" fill-rule="evenodd"/>
 <g fill="#fff" fill-rule="evenodd">
  <path transform="matrix(.18019 -.08938 .08194 .1652 734.74 -706.92)" d="m-3389.8 3299.1c0 350.1-191.2 633.92-427.06 633.92s-427.06-283.82-427.06-633.92 191.2-633.92 427.06-633.92 427.06 283.82 427.06 633.92z"/>
  <path transform="matrix(.18019 -.08938 .08194 .1652 734.74 -706.92)" d="m-3389.8 3299.1c0 350.1-191.2 633.92-427.06 633.92s-427.06-283.82-427.06-633.92 191.2-633.92 427.06-633.92 427.06 283.82 427.06 633.92z"/>
 </g>
 <path transform="matrix(.18019 -.08938 .08194 .1652 734.74 -706.92)" d="m-3389.8 3299.1c0 350.1-191.2 633.92-427.06 633.92s-427.06-283.82-427.06-633.92 191.2-633.92 427.06-633.92 427.06 283.82 427.06 633.92z" fill="url(#b)" fill-rule="evenodd"/>
 <path transform="matrix(.18019 -.08938 .08194 .1652 734.74 -706.92)" d="m-3389.8 3299.1c0 350.1-191.2 633.92-427.06 633.92s-427.06-283.82-427.06-633.92 191.2-633.92 427.06-633.92 427.06 283.82 427.06 633.92z" fill="url(#a)" fill-rule="evenodd"/>
 <g fill="#fff" fill-rule="evenodd">
  <path transform="matrix(.12443 .15803 -.14489 .11408 1108.6 490.95)" d="m-3389.8 3299.1c0 350.1-191.2 633.92-427.06 633.92s-427.06-283.82-427.06-633.92 191.2-633.92 427.06-633.92 427.06 283.82 427.06 633.92z"/>
  <path transform="matrix(.12443 .15803 -.14489 .11408 1108.6 490.95)" d="m-3389.8 3299.1c0 350.1-191.2 633.92-427.06 633.92s-427.06-283.82-427.06-633.92 191.2-633.92 427.06-633.92 427.06 283.82 427.06 633.92z"/>
 </g>
 <path transform="matrix(.12443 .15803 -.14489 .11408 1108.6 490.95)" d="m-3389.8 3299.1c0 350.1-191.2 633.92-427.06 633.92s-427.06-283.82-427.06-633.92 191.2-633.92 427.06-633.92 427.06 283.82 427.06 633.92z" fill="url(#b)" fill-rule="evenodd"/>
 <path transform="matrix(.12443 .15803 -.14489 .11408 1108.6 490.95)" d="m-3389.8 3299.1c0 350.1-191.2 633.92-427.06 633.92s-427.06-283.82-427.06-633.92 191.2-633.92 427.06-633.92 427.06 283.82 427.06 633.92z" fill="url(#a)" fill-rule="evenodd"/>
</svg>
