<?xml version='1.0' encoding='utf-8'?>
<svg xmlns="http://www.w3.org/2000/svg" data-name="Layer 1" viewBox="0 0 3889 2574.6"> <defs> <style>.cls-1{fill:#e06280;}.cls-2{fill:#b12d74;}.cls-3{fill:#88175d;}.cls-4{fill:#fed296;}</style> </defs> <path class="cls-1" transform="translate(-305.49 -962.68)" d="m3268 1117.3 9.19 14.67c-4.41 16.07 5.08 33.81-5.54 49-16 22.89-27.44 49-47.56 68.92-62.7 62.07-137.13 108.44-210.33 156.43-9.27 6.08-14.57 5.15-20.66-5.38-31.45-54.47-72.73-101.93-110.61-151.79-8-10.48-16-22.62-30.81-25.65l-2.36-0.6 1.62 1.35c-0.49 20.33 2.74 41.27-9.7 61.72-10.12-10.9-19.06-20.82-28.36-30.38-3.11-3.2-7-8.28-12-3.85-4.4 3.94-1.15 9 1.23 13.09s5.56 7.83 8.2 11.82c34.84 52.57 78.55 98.66 111 153.09 6.58 11 11.75 24.79 24.79 31.39 0.82 3.18 1.63 6.35 2.44 9.53-25.68 10-40.72 32.93-59.38 50.93-39.58 38.2-77 78.69-115.23 118.25-30.16-47.45-59-95.83-96.16-138.4-0.3-5.91-3.3-10.5-6.69-15.18a2014 2014 0 0 0-185.66-221c-17-17.56-33.5-37.4-57.57-47.09-16.58-6.68-31.79-4.53-44.57 8.09-13.88 13.72-7.65 28.28 0.32 41.87 5.27 9 12 17.15 18.42 25.38 29.23 37.36 59.07 74.26 87.81 112 38.44 50.49 76.06 101.59 114 152.43 28.08 41.55 56.29 83 84.14 124.72 6.09 9.11 14.39 17.48 13.68 29.83-2.26 0.75-5.18 0.84-6.69 2.35-85.07 85.2-167.96 172.52-258.7 252.2-74.29 65.27-150.13 128.67-228.13 189.08-75.36 58.38-148.41 119.69-225.05 176.44-65.13 48.22-124.14 104.35-191.42 149.87-20.6-28.63-41-57.38-61.84-85.86-18-24.58-36-49.08-54.61-73.16-9.6-12.43-24.46-15.54-36.75-8.29-11.71 6.9-12.74 21.84-9.48 34.86 2.73 10.89 9.24 20.15 15.71 29.52 47.79 69.25 95.06 138.85 142.5 208.34-16.64 12.5-33 25.42-50 37.44-100.3 70.92-198.25 145.27-302.79 210-21 13-38.67 31.81-63.52 38.47-9.27-12-18.35-24.19-27.85-36-10.8-13.47-25.07-19.29-40.11-9.59s-11.43 24.66-5.33 38.8c6 14 17.8 24.88 21.07 40.26-100.79 60.12-201.17 120.94-307 172.2-13.35 6.46-29.05 10.44-37.18 25.07-6.86-2.43-8.79-8.9-12-14.44-30-52.46-62.74-103.2-96.55-153.27-9.83-14.57-22.7-27.32-40.52-24.62-12.77 1.94-12.64 32.21-0.89 52.54 2.41 4.18 5.41 8 7.92 12.13q42 69.13 84 138.32c-22.22 17.31-49.37 22.63-75.36 30.34-85.63 25.41-172.43 42.31-262.48 42.94a480.56 480.56 0 0 1-155.79-24.39c-57.82-41.36-97.58-95.23-114.32-165-8.29-68.46 1.92-135.63 14.64-202.55 1.14-6 5.51-11.38 8.38-17 17.51 15.38 34.58 31.28 52.62 46 28.63 23.31 57.58 46.31 89.09 65.69 22 13.55 42.84 12.09 54.62-2.75s7-38-11.82-55.75c-6.43-6.07-12.84-12.28-20-17.46-48.05-34.9-92.8-74.35-144.28-104.51 28.16-88.57 78-165.74 129.34-241.73 87.52-129.65 204.18-231.48 321.61-332.56 98.15-84.49 203.42-158.83 314.09-225.72 77-46.54 155.3-90.75 240.25-121.59 18.26-6.64 27.14-22.39 37.49-36.25 84.37-113 174.28-221 282.33-312.31 53.29-45 111.86-82.81 171.64-119.38 69.9-42.76 139.91-84.86 214.51-118.51 95.18-42.94 192.92-79.56 291.8-113.22 23-7.84 48-13.14 64.88-33.52 52.55-16.12 107.3-19.75 161.33-25.17 78.19-7.84 156.44-16.84 235.24-17l25.74 0.2c80.82 4.1 161.34 12.53 239.64 32.7a752.14 752.14 0 0 1 146.49 54c12.1 5.88 20.11 28.07 39.88 16.65zm-2298.3 1494.9-1-1.42 1.19 1.27 4.53 5c14.73 36.77 40.54 67.1 59.14 101.7 22.87 42.53 47.83 83.93 72 125.73 6.75 11.66 15.88 19 29.7 11 13-7.59 10-18.62 4.73-29.5a108.33 108.33 0 0 0-8.19-14.77c-22.09-31.71-43.18-64.22-66.92-94.65-27.58-35.36-53.79-72.27-90.16-99.81zm1024.7-638.51c2.29 5.9 4.57 11.81 10.35 15.35l4 4.35c25.41 36.91 49.94 74.45 78.69 109 10.08 12.09 22.21 16.09 36.06 7.5s14.57-22.1 10.08-36.14c-1.67-5.25-4.71-10.19-7.72-14.89q-31.82-49.58-63.87-99c-16.3-23.75-32.3-47.7-49-71.14-8.32-11.67-14.57-25-26.57-33.9-13.26-9.87-28.2-11.65-39.69-0.7s-20.41 27.32-9.89 43.19c17.55 26.54 33.42 54.69 57.56 76.38zm-637.11 565.86c0.67-17.83-7-32.74-16.61-46.9q-59.45-87.72-123.45-172.19c-54.51-71.66-110.56-141.63-173.44-206-16.68-17.08-41.85-19.44-56.88-7.64s-16.89 31.78-0.89 54.05c40.7 56.66 81.17 113.47 123.33 169.13 50.28 66.37 96.8 135.58 145.24 203.36 9.78 13.69 19.86 27.43 31.63 39.35 12.46 12.63 28.73 14.78 44.53 6.22 15.29-8.28 28.11-19.27 26.54-39.38zm-833.35 95.81c1.78 20.37 9 46.16 37.11 59.83 20.07 9.75 49.4-0.52 71.58-22.36 29.16-28.71 49.93-62.85 66.39-99.83 7.26-16.31 11.38-33.51 9.41-51.62-4.25-39.15-43.49-62.32-79.89-48.51-56.73 21.54-104.21 105.68-104.6 162.49zm436.6-407.31c0.23-42.74-31.69-67.29-64.43-58.58-44 11.7-76.74 40-102.56 75.84-16.12 22.39-6.46 49.52 17.63 63.17 28.22 16 54.73 9.36 80-5.12 33.88-19.36 66.56-40.48 69.4-75.31zm894.59-859.36c-41.09 8.18-76.7 36.13-108.71 69.56-15.1 15.76-18.29 36.19-5.8 53 12 16.08 31.55 14.92 50.55 8.84 28.83-9.22 52.35-27.76 77.13-43.62 12.88-8.24 22-23 27.79-38.25 9.66-25.52-7.72-50.12-40.92-49.53zm-1047 1112.2c19.67 0.42 33-21.13 20.16-37-28.41-34.92-61.52-65.49-101.39-87.45-8.4-4.62-19.15-7.35-25.73 3.6-5.46 9.07-0.64 16.63 5.9 23.62 26.87 28.71 53.41 57.72 80.33 86.37 5.46 5.86 11.65 11.44 20.73 10.86zm1575.5-762.58c-14 1-21.19 16.89-11.85 31.65 23.12 36.51 47.46 72.26 71.8 108 8 11.8 18.95 18.1 32.44 7.57 12.13-9.47 9.89-21.7 2.43-32.11-25.18-35.13-51.14-69.7-77-104.36-4.33-5.85-9.76-10.7-17.82-10.75zm-1119.2 169.33c-4.21 0.87-9 2.31-11 7.27-2.74 6.6-1.57 12.72 4.42 17.2 28.84 21.56 47.78 52 70.85 78.73 8.68 10.07 17.47 25.52 32.79 11.25 14.06-13.11 2.38-25.49-6.84-35.29-21.53-22.85-44-44.88-66.12-67.13-6.42-6.44-14.42-10.09-24.1-12.03zm751.4-578.77c-4.32-0.24-8 0.91-9.59 5.35-2.76 7.5-0.61 14.18 3.79 20.37 16.73 23.52 33.37 47.1 50.3 70.47 5.93 8.19 13.12 15.19 24.08 7.89 12-8 8.37-18.16 1.72-27-16.35-21.78-33.25-43.14-50.26-64.41a36.33 36.33 0 0 0-20.04-12.67zm153.16-42.33c16.83-3.12 32.7-8.93 44.44-21.81 11.95-13.1 7.06-30.33-9.56-36.84-17.76-7-32.65 1.65-48 8.8-12.08 5.63-20.93 13.71-18.2 27.58 3.17 16.15 17.48 19.18 31.32 22.27zm-647.6 1239.2c0-20-13.54-34.09-32.63-33.85-18.65 0.22-30.94 14.35-30.9 35.5 0 19 12.41 31.85 31 32.3 18.84 0.46 32.52-13.83 32.53-33.95zm419.76-966.66c-1.85-17.22-13.6-26.06-30.16-27.12-16.34-1-36 20.29-35.59 36.14 0.37 14.3 17.49 28.43 33.56 27.72s32.33-18.68 32.19-36.74zm-272.82 19.19c19.71-0.28 42.45-21.57 41.78-39.32-0.5-13.29-7.56-21.49-20.84-21.76-13.62-0.27-47 30.16-46.2 41.64 1.09 15.3 11.63 19.67 25.26 19.4zm1367.1-451.8c-16.29 1.91-15.06 11.82-9.65 20.8 12 19.9 25.07 39.12 38.08 58.37 5.38 8 12.76 13.21 22.27 6.51 8.91-6.28 7.91-14.54 3-23.37-11.36-20.55-27.59-37.33-42.42-55.17-2.82-3.47-7.85-5.09-11.28-7.18zm-1755.2 1596.5c-2.14-13.83-4.81-27.33-23-27.9-16.43-0.52-32.26 16.11-31.06 32.92 1.16 16.06 10.63 25.51 26.39 25 18.03-0.49 26.44-12.35 27.67-30.02z"/> <path class="cls-2" transform="translate(-305.49 -962.68)" d="m2851.7 1223.5c14.81 3 22.84 15.18 30.8 25.66 37.88 49.86 79.16 97.32 110.61 151.79 6.09 10.53 11.39 11.46 20.66 5.38 73.2-48 147.63-94.36 210.33-156.43 20.12-19.92 31.58-46 47.56-68.92 10.62-15.22 1.13-33 5.54-49 19.48 7.54 35.65 20.29 50.2 34.6 2.91 2.86 26.86 34 27 35.84 2.26 22.46 48.63 102.05 50 106.69q6.57 22.68 13.24 45.33c4.34 42.73 12.78 85.1 11 128.24-2.22 51.37-5.4 101.94-17.88 153.08-14.37 58.89-25.85 118-51 173.62-12.38 27.37-18.39 58-33.24 83.77-22.74 39.4-42.21 80.52-65.63 119.48l-56.42 76.5c-4.28 16.11-24 24.92-21 44.44-7-0.91-13.06 1-16.43 7.45-10.21 19.6-26.39 34.5-40.78 50.55-59.52 66.37-120.94 131-189.09 188.68-49.62 42-101.24 81.74-150 124.75-86.17 76-177.22 146-266.41 218.29-88.54 71.71-182 137.38-271.05 208.43-119.31 95.15-242.12 185.73-361.48 280.74-44.41 35.34-93.71 64.29-134.64 104.06-18.28 9.55-38.27 16.11-53.63 30.75l0.44-0.14-9.87 3.44-5.39 3q-3 1.55-6.1 3.08c-35.14 9.32-64.94 30.46-98.14 44.27-105.8 44-212.14 85.91-326.2 103.78-24.88-1.51-30.82-20.76-38.95-39.43 135.81-20.75 261.09-69.26 382.63-126.17 81.36-38.09 157-87.75 228-143.67 65.58-51.63 130.44-104.32 197.91-153.41 75.93-55.25 147.59-115.84 222.75-172 10.68-8 10.59-17.21 3.78-27.3-16.63-24.65-33-49.49-50.32-73.67-8.56-12-17.95-15-32.28-4.22-49.25 37.18-100.18 72.13-149.67 109-70.57 52.58-148.63 93.76-218.42 147.83-73.72 57.1-158.66 96.81-239.53 142.75-15.31 8.69-19.82 3.68-26.6-9.1-21.84-41.16-44.13-82.13-67.6-122.39-31.15-53.44-63.58-106.15-95.46-159.17 24.86-6.67 42.52-25.48 63.53-38.48 104.54-64.73 202.49-139.08 302.79-210 17-12 33.34-24.94 50-37.44 23.93 35 48 69.94 71.72 105 9.73 14.36 21.49 26 39.7 17.37 19-9 16.11-25.87 9.57-41.69-14.08-34-37.36-62.91-55.63-94.58-18.14-31.43-41-60.69-60.89-91.55 67.28-45.52 126.29-101.65 191.42-149.87 76.64-56.75 149.69-118.06 225.05-176.44 78-60.41 153.84-123.81 228.13-189.08 90.71-79.7 173.63-167 258.76-252.18 1.51-1.51 4.43-1.6 6.69-2.35 16.88 7.37 22 24.5 31.05 38.16 27.11 40.77 53.19 82.23 80.64 122.76 15.79 23.32 36.52 28.95 55.81 17.58 15.39-9.08 20.14-31.65 10.87-54-4.6-11.08-9.2-22.06-15.21-32.68-30.85-54.52-60.71-109.6-90.92-164.48 38.27-39.56 75.65-80 115.23-118.25 18.66-18 33.7-40.9 59.38-50.93 8.63 4 12.1 12.28 17.07 19.6 14.86 21.88 30.06 43.56 45.8 64.81 10.24 13.82 24 15.76 38.32 6.76 13.13-8.23 20.48-18.74 15.73-36.23-10.65-39.23-36.19-69.29-59.66-100.6-8.91-11.88-16.78-4.3-22.54 4.65-9.23 14.33-18.26 28.67-37.16 31.48-13-6.6-18.21-20.35-24.79-31.39-32.44-54.43-76.15-100.52-111-153.09-2.64-4-5.78-7.69-8.2-11.82s-5.63-9.15-1.23-13.09c4.93-4.43 8.86 0.65 12 3.85 9.3 9.56 18.24 19.48 28.36 30.38 12.44-20.45 9.21-41.39 9.7-61.72zm455-38.89-2.61-5.46c-0.53 0.43-1.59 1.12-1.52 1.25 0.88 1.8 1.92 3.51 2.92 5.24 9.52 47.06 8.62 95.09 3.45 141.83-10.57 95.52-39.8 186.86-78.13 274.72-9.71 22.27-3.68 31.95 12.95 43.35 25.82 17.7 51.71 35.39 74.44 57.23 19.9 19.12 25.43 17.69 31.39-9.7 21.35-98 42-195.48 30.66-297.68-6.79-61-21.52-118.31-46.66-173.28-6.16-13.45-8.58-31.87-26.9-37.5zm-1214.8 1358.5c0.69 10.85 12.27 27 21.72 43.18q72.12 123.91 151.27 243.52c11.19 16.91 19.49 15.43 32.22 5.35 64.25-50.88 130.49-99.45 193.44-151.71 111.21-92.34 225.49-180.86 336-274.15 98.57-83.25 191.8-171 275-269.57 45.24-53.61 84-111.93 121.5-170.85 37.94-59.63 72.42-121.6 94.27-189.63 4.26-13.26 2.81-21.76-7.91-31.72-27.64-25.7-57.7-48.43-86.09-73.13-14.69-12.79-21.93-11.53-29.94 6-19 41.64-39.18 82.84-65.28 120.57-20.42 29.52-34.2 63.89-63 87.38-5.78 4.7-14.4 11.84-18.37 4.6-7.6-13.86-23.27-13-31.89-21.67-13.66-13.76-22.08-7.35-32.15 2.7-25.25 25.19-26 32.32-4.94 61.69 4.68 6.51 10.46 12.21 15.52 18.46 7.65 9.47 9 18.53-1.74 27.05-20.57 16.31-31.7 40.24-47.67 60.27-20.05 25.14-21 26.07-41.51 1-19.62-24-29.62-24.33-52.15-2.55-6.91 6.68-14.63 12.54-22.15 18.55-23.61 18.88-28.23 37.22-21.27 66.94 5.38 23 20.1 40.13 31.68 59.21 10.22 16.83 8.38 28.61-7.32 41.25-21.94 17.66-46.28 32-67.9 49.71-30.15 24.62-38.31 24.3-57.73-9.41-21.66-37.61-44.16-74.74-70.3-109.49-9.09-12.07-20.83-19.68-35.19-10.16-13.88 9.21-12.82 23.29-5.86 36.55 11.58 22 23.34 44 36.14 65.35 6.71 11.2 8.49 19.63-2.59 29.26-23.08 20.05-44.37 42.24-68.17 61.35-86.49 69.34-173.72 137.71-260.49 206.63-21.53 17.09-24.91 16.41-42-4.89-20-24.91-38-51.89-68.25-66.83-42.05-20.75-96.99 12.78-96.9 69.19zm-232 363.54c-0.29-23.13-16.37-38.75-39.68-38.55-22.76 0.2-41.93 19.8-42.24 43.19-0.24 18.4 22.24 39.8 41.71 39.7 24.16-0.13 40.58-18.22 40.24-44.34z"/> <path class="cls-1" transform="translate(-305.49 -962.68)" d="m3775.1 2326.6c68.05 42.14 135.36 85.28 193.42 141.11 1.59 7.49-2.63 17.09 6.22 22 13.48 7.42 17.06 21.42 21.56 33.7 29.16 79.63 26.29 159.7 1.18 240.56-12.64-9.51-25.29-17.56-38-1.87-12.08 14.89-3.62 33.75 19 38.11 14.12 2.73 14 8 7.74 17.33-5.87 8.85-12.62 16.71-24.75 17-5.41 0.11-12.44-1.4-15.37 4.58-18.06 36.82-52.43 63.19-65 103.7-7.38 23.76-22.52 41.6-46 53.1-40.76 20-83.65 32.24-127.68 42.38-21.15 4.87-23.72-1.68-24.18-20.49-2.59-106.47 17.24-209.32 47.24-310.74 2.73-9.22 9-18.8-2.16-35.31-2.11 5.94-3 9.08-4.32 12-23.25 52.43-38.72 107.46-49.81 163.38-11.57 58.29-18.43 117.42-15.74 177.18 0.56 12.37-1.36 22.23-17.32 23.15-48.07 2.78-96.08 8.21-144.16 8.94-49 0.75-98-2.84-147-4.54-1.45-40.33 6.35-79.8 12-119.39 4.39-30.87 11.61-61.32 16.66-92.1 1.85-11.27-2.74-21.12-14.84-24.29-11.58-3-18.33 4.37-22.31 13.87-5.88 14-11.74 28.2-16.1 42.76-16.6 55.42-24.59 112.64-34.34 169.48-26.56-0.06-52.45-5.64-78.62-9.1-98.75-13.08-195.67-35.25-292.25-59-67.84-16.66-133.9-39.31-199.89-62.06 5.29-42.35 9-85 26-125 2.21-1 4.8-1.46 6.56-2.95 77.95-65.95 162.64-122.63 247.91-178.3 87.28-57 177.57-108.74 259.14-174.9 96-77.9 199.34-146.1 313.23-196.47 57.87 16.42 111.13 43.15 163.74 71.73 12.64 6.94 22.04 20.31 38.24 20.45zm-135.91 307.46c-0.07-31.49-11.67-48-34.76-53-25.16-5.42-37.2 11.25-45.55 30.31-18.47 42.12-26.4 87.24-35.39 132-3.68 18.3-6.78 36-0.13 54.41 11 30.47 43.46 36.26 67.34 14.46 15.92-14.53 13.4-33.11 18.83-49.94 14.02-43.44 22.49-88.22 29.66-128.24zm-532.23 213.72c-0.44 15.16 3.07 29 17.95 33.94 17.53 5.86 30.43-4.35 36.07-19.94 9.52-26.33 16.73-53.5 24.75-80.37 4.58-15.36 9.79-30.62 12.94-46.29 2.59-12.94-2.37-23.92-15.55-29.22-12.81-5.15-21.45 0.47-28 11.46-24.1 40.59-32.79 86.76-48.16 130.42zm699.29-245.38c18 0.38 35.23-16.33 35.74-34.68 0.4-14.45-16.14-31.2-30.76-31.14-15.24 0-31 16.51-31.18 33.56-0.2 17.64 4.85 31.81 26.16 32.26zm-307.29-42.45c-1.58-17-10.91-27.37-29.12-27.65s-33.53 15.84-33.06 34c0.45 17.52 8.68 29.44 27 30.5 17.29 0.98 35.31-18.41 35.18-36.85zm118.53-156c-20.52 1.7-26.92 13-27.11 31.11-0.21 19.3 9.59 28.85 27.28 29.59 15.22 0.63 33.16-19.82 31.21-34.47-2.45-18.56-16.5-23.95-31.35-26.23zm-688.03 328.67c-19.74 0.22-30.26 11.86-30 32.4 0.22 18.8 11.77 25.55 28 25.72 19.29 0.19 29.9-10.59 29.89-29.85-0.05-17.82-8.29-29.01-27.89-28.27zm598.4-363.18c-14 0.78-23.89 8.59-23.72 25.27 0.16 15.95 10.88 23.63 25.27 22.89s27.51-7.72 27.8-24.36c0.28-16.91-11.42-23.49-29.35-23.8z"/> <path class="cls-3" transform="translate(-305.49 -962.68)" d="m1254.6 3504.7c-6.6 1-11.6 7.91-19.2 5.22-3.29-3.12-6.2-2.16-8.92 0.86-145.55 30.59-291.81 35.72-438.59 10.4-57.67-10-112.65-29.64-166.6-52.07-91.23-46.14-166.57-112.47-224.62-195a481.6 481.6 0 0 1-84.45-220.2c-2.2-18.15-8.12-36.28-3.75-55 16.75 69.8 56.51 123.67 114.34 165-0.21 7.65 3.15 13.77 7.56 19.82 33.71 46.29 75.52 82.55 128.72 104.91 40.45 17 84.7 17.17 126.42 28.6 10.13 2.77 16.19-4 21.91-11.44 26-33.76 50.14-34.92 75.24-1.68 8.62 11.41 17.48 15.28 30.37 14.13 55.83-5 111.7-9.61 167.49-15 19-1.84 21.4-13.95 15.11-29.62-5.08-12.67-10.33-25.28-15.1-38.06-1.4-3.73-1.52-8.22 1.88-11.25 3.64-3.24 7.07-1.17 10.78 0.92 32 18.09 61.39 16.63 97.3 2.51 51.9-20.42 105.75-36.88 158.27-56.44 19.26-7.18 30.92-0.12 38.3 17.48 8.06 19.22 16.86 38.17 23.86 57.76 4.62 12.91 12 16.2 23.9 11.49 39.35-15.55 78.83-30.8 117.88-47.06 28.15-11.72 29.88-18.13 15.79-43.83-23.53-42.91-46.3-86.25-70.6-128.73-25.37-44.36-48.79-90-79.22-131.29-3.27-15.38-15-26.31-21.07-40.26-6.1-14.14-9.65-29.14 5.33-38.8s29.31-3.88 40.11 9.59c9.5 11.84 18.58 24 27.85 36 31.87 53 64.3 105.74 95.45 159.18 23.47 40.26 45.76 81.23 67.6 122.39 6.78 12.78 11.29 17.79 26.6 9.1 80.87-45.94 165.81-85.65 239.53-142.75 69.79-54.07 147.85-95.25 218.42-147.83 49.49-36.87 100.42-71.82 149.67-109 14.33-10.81 23.72-7.74 32.28 4.22 17.31 24.18 33.69 49 50.32 73.67 6.81 10.09 6.9 19.32-3.78 27.3-75.16 56.14-146.82 116.73-222.75 172-67.47 49.09-132.33 101.78-197.91 153.41-71 55.92-146.68 105.58-228 143.67-121.54 56.91-246.82 105.42-382.63 126.17 8.09 18.75 14.03 38 38.91 39.51z"/> <path class="cls-2" transform="translate(-305.49 -962.68)" d="M3350,3051.91c49,1.7,98,5.29,147,4.54,48.08-.73,96.09-6.16,144.16-8.94,16-.92,17.88-10.78,17.32-23.15-2.69-59.76,4.17-118.89,15.74-177.18,11.09-55.92,26.56-110.95,49.81-163.38,1.31-3,2.21-6.1,4.32-12,11.12,16.51,4.89,26.09,2.16,35.31-30,101.42-49.83,204.27-47.24,310.74.46,18.81,3,25.36,24.18,20.49,44-10.14,86.92-22.37,127.68-42.38,23.44-11.5,38.58-29.34,46-53.1,12.59-40.51,47-66.88,65-103.7,2.93-6,10-4.47,15.37-4.58,12.13-.27,18.88-8.13,24.75-17,6.22-9.37,6.38-14.6-7.74-17.33-22.62-4.36-31.08-23.22-19-38.11,12.73-15.69,25.38-7.64,38,1.87,25.11-80.86,28-160.93-1.18-240.56-4.5-12.28-8.08-26.28-21.56-33.7-8.85-4.88-4.63-14.48-6.22-22,68.47,58.49,123.82,126.88,167.56,206.2,97.46,176.78,71.58,381.53-67.6,529.45-102.13,108.55-228.63,174.79-367.66,221.05q-16,5.33-32.05,10.59c-42,10.32-83.65,22.12-126,30.63-78.07,15.69-156.86,26.67-236.76,26.62-37.87,0-75.76-.11-113.6-1.4-40-1.35-78.33,9.49-116.52,17.5-57.67,12.1-116,13.11-174,17.82-100.56,8.16-201.1,1.36-301.36-5.81-121.93-8.72-241.61-31-359.53-64.18-96-27-188.89-62.54-283.2-94.2-27.43-9.21-55.9-13.56-84-19.8-22.37-12.42-48-14.93-71.63-23.48,1-8.58,7.51-8.87,14.12-10,51.44-8.6,102.84-9.08,152.66,7.25,73.25,24,146.19,49.07,218.51,75.73,49.17,18.12,100.57,27.14,150.71,41.2,33.16,9.3,67.5,14.66,101.54,20.42,26.71,4.52,30.75,0,23.6-25.36-9.61-34.12-16.23-68.84-22-103.7-1.48-8.95-6.24-22.32,10.2-24.94,14.5-2.31,19.52,6.37,22.56,19,9.59,39.73,16.25,80,28.45,119.31,6,19.23,14.88,28.53,33.55,30.06,42.38,3.46,84.74,8.88,127.18,9.55,79.47,1.27,158.95,9.83,238.5.69,43.79-5,87.77-8.39,131.57-13.4,56.53-6.46,111.77-22.11,169.47-20.7,120.08,2.93,239.22-5.66,356.48-33.58,105.91-25.21,209.12-57.58,303.5-113.56,42.3-25.08,80.19-55.78,118-87.25,70-58.31,119.37-129.58,148.52-215.38,29.63-87.18,22.74-174.5-2.57-260.78-6.88-23.42-14-48.23-29.74-68.64.49,15.39,3.36,30.22,4.55,45.18,3.29,41.53,6.88,83.21-11.41,122.79-12.45,26.94-25.38,53.68-37,81-4.21,9.87-12.65,22.1-3.38,31.77,18.32,19.12,6.2,31.47-6.88,44.61-11.94,12-24.61,23.38-35.66,36.14-10.74,12.4-18.67,11-29.19-.47-17.54-19.18-30.19-41.61-44.68-62.83-7.59-11.1-15.19-15.7-26.86-3.79-19.57,20-40.27,38.88-60.26,58.47-12,11.8-10.6,25-.79,36.84a501.29,501.29,0,0,0,36.16,38.87c10.37,10.1,11.4,17.05-1.36,26.69-24.85,18.78-54.07,27.53-82,39.56-64.06,27.58-131,46.51-198.73,61-72.78,15.58-146.52,27.22-221,33.07-15.38,1.2-17.34-5.56-19.21-17.34C3349.62,3175.1,3342.64,3113.89,3350,3051.91Z"/> <path class="cls-3" transform="translate(-305.49 -962.68)" d="m351.77 2710.6c51.48 30.16 96.23 69.61 144.28 104.51 7.13 5.18 13.54 11.39 20 17.46 18.81 17.77 23.62 40.89 11.82 55.75s-32.59 16.3-54.62 2.75c-31.51-19.38-60.46-42.38-89.09-65.69-18-14.69-35.11-30.59-52.62-46 0.79-24.66 9.03-47.16 20.23-68.78z"/> <path class="cls-3" transform="translate(-305.49 -962.68)" d="m1833 1291.4c1.62-1.63 3.24-3.25 4.86-4.89z"/> <path class="cls-2" transform="translate(-305.49 -962.68)" d="m1318.7 2907.2c30.43 41.33 53.85 86.93 79.22 131.29 24.3 42.48 47.07 85.82 70.6 128.73 14.09 25.7 12.36 32.11-15.79 43.83-39 16.26-78.53 31.51-117.88 47.06-11.9 4.71-19.28 1.42-23.9-11.49-7-19.59-15.8-38.54-23.86-57.76-7.38-17.6-19-24.66-38.3-17.48-52.52 19.56-106.37 36-158.27 56.44-35.91 14.12-65.29 15.58-97.3-2.51-3.71-2.09-7.14-4.16-10.78-0.92-3.4 3-3.28 7.52-1.88 11.25 4.77 12.78 10 25.39 15.1 38.06 6.29 15.67 3.9 27.78-15.11 29.62-55.79 5.42-111.66 10.06-167.49 15-12.89 1.15-21.75-2.72-30.37-14.13-25.1-33.24-49.23-32.08-75.24 1.68-5.72 7.43-11.78 14.21-21.91 11.44-41.72-11.43-86-11.6-126.42-28.6-53.2-22.36-95-58.62-128.72-104.91-4.41-6.05-7.77-12.17-7.56-19.82a480.46 480.46 0 0 0 155.85 24.4c90.05-0.63 176.85-17.53 262.48-42.94 26-7.71 53.14-13 75.36-30.34 10.16 17.07 20.94 33.8 30.29 51.31 6.6 12.37 9.86 8.84 18.22 0.76 19.82-19.15 11.54-41.1 9.52-62.73 8.13-14.63 23.83-18.61 37.18-25.07 105.79-51.23 206.17-112.05 306.96-172.17z"/> <path class="cls-2" transform="translate(-305.49 -962.68)" d="m1357.4 2539.6c1.55 20.11-11.27 31.1-26.56 39.37-15.8 8.56-32.07 6.41-44.53-6.22-11.77-11.92-21.85-25.66-31.63-39.35-48.44-67.78-95-137-145.24-203.36-42.16-55.66-82.63-112.47-123.33-169.13-16-22.27-14.17-42.23 0.89-54.05s40.2-9.44 56.88 7.64c62.88 64.38 118.93 134.35 173.44 206q64.24 84.48 123.45 172.19c9.58 14.17 17.26 29.08 16.63 46.91z"/> <path class="cls-3" transform="translate(-305.49 -962.68)" d="m2774 1639.8c30.21 54.88 60.07 110 90.92 164.48 6 10.62 10.61 21.6 15.21 32.68 9.27 22.35 4.52 44.92-10.87 54-19.29 11.37-40 5.74-55.81-17.58-27.45-40.53-53.53-82-80.64-122.76-9.08-13.66-14.17-30.79-31.05-38.16 0.71-12.35-7.59-20.72-13.68-29.83-27.85-41.7-56.06-83.17-84.13-124.72 29-3.21 42-32.07 67.07-41.92 5.52-2.18 6-9 6.82-14.59 37.16 42.57 65.95 90.95 96.16 138.4z"/> <path class="cls-2" transform="translate(-305.49 -962.68)" d="m2677.8 1501.4c-0.81 5.59-1.3 12.41-6.82 14.59-25 9.85-38 38.71-67.07 41.92-38-50.84-75.61-101.94-114.05-152.43-28.74-37.74-58.58-74.64-87.81-112-6.44-8.23-13.15-16.4-18.42-25.38-8-13.59-14.2-28.15-0.32-41.87 12.78-12.62 28-14.77 44.57-8.09 24.07 9.69 40.54 29.53 57.57 47.09a2014 2014 0 0 1 185.66 221c3.39 4.67 6.39 9.26 6.69 15.17z"/> <path class="cls-4" transform="translate(-305.49 -962.68)" d="m524 2635.4c0.35-56.81 47.83-141 104.6-162.49 36.4-13.81 75.64 9.36 79.89 48.51 2 18.11-2.15 35.31-9.41 51.62-16.46 37-37.23 71.12-66.39 99.83-22.18 21.84-51.51 32.11-71.58 22.36-28.11-13.67-35.29-39.46-37.11-59.83z"/> <path class="cls-3" transform="translate(-305.49 -962.68)" d="m1791.7 2482.4c19.86 30.86 42.75 60.12 60.89 91.55 18.27 31.67 41.55 60.55 55.63 94.58 6.54 15.82 9.42 32.69-9.57 41.69-18.21 8.63-30-3-39.7-17.37-23.77-35.1-47.79-70-71.72-105-47.44-69.49-94.71-139.09-142.5-208.34-6.47-9.37-13-18.63-15.71-29.52-3.26-13-2.23-28 9.48-34.86 12.29-7.25 27.15-4.14 36.75 8.29 18.6 24.08 36.66 48.58 54.61 73.16 20.8 28.41 41.24 57.19 61.84 85.82z"/> <path class="cls-4" transform="translate(-305.49 -962.68)" d="m960.64 2228c-2.84 34.83-35.52 56-69.32 75.31-25.31 14.48-51.82 21.11-80 5.12-24.09-13.65-33.75-40.78-17.63-63.17 25.82-35.87 58.57-64.14 102.56-75.84 32.75-8.71 64.62 15.84 64.39 58.58z"/> <path class="cls-4" transform="translate(-305.49 -962.68)" d="m1855.2 1368.7c33.2-0.59 50.58 24 41 49.52-5.74 15.22-14.91 30-27.79 38.25-24.78 15.86-48.3 34.4-77.13 43.62-19 6.08-38.59 7.24-50.55-8.84-12.49-16.8-9.3-37.23 5.8-53 31.97-33.42 67.58-61.37 108.67-69.55z"/> <path class="cls-3" transform="translate(-305.49 -962.68)" d="m974.54 3104.4c2 21.63 10.3 43.58-9.52 62.73-8.36 8.08-11.62 11.61-18.22-0.76-9.35-17.51-20.13-34.24-30.29-51.31q-42-69.17-84-138.32c-2.51-4.12-5.51-8-7.92-12.13-11.75-20.33-11.88-50.6 0.89-52.54 17.82-2.7 30.69 10 40.52 24.62 33.81 50.07 66.55 100.81 96.55 153.27 3.2 5.54 5.13 12 11.99 14.44z"/> <path class="cls-3" transform="translate(-305.49 -962.68)" d="m2946.1 1461.1c18.9-2.81 27.93-17.15 37.16-31.48 5.76-9 13.63-16.53 22.54-4.65 23.47 31.31 49 61.37 59.66 100.6 4.75 17.49-2.6 28-15.73 36.23-14.35 9-28.08 7.06-38.32-6.76-15.74-21.25-30.94-42.93-45.8-64.81-5-7.32-8.44-15.61-17.07-19.6-0.81-3.18-1.62-6.35-2.44-9.53z"/> <path class="cls-3" transform="translate(-305.49 -962.68)" d="m2062 1959.8q32 49.47 63.87 99c3 4.7 6.05 9.64 7.72 14.89 4.49 14 3.8 27.52-10.08 36.14s-26 4.59-36.06-7.5c-28.75-34.51-53.28-72-78.69-109 18.24-10.48 30.37-30.49 53.24-33.53z"/> <path class="cls-2" transform="translate(-305.49 -962.68)" d="m2062 1959.8c-22.87 3-35 23.05-53.24 33.55l-4-4.36c0.47-7.75-0.39-14.62-10.35-15.34-24.14-21.72-40-49.84-57.62-76.4-10.52-15.87-1.68-32.18 9.89-43.19s26.43-9.17 39.69 0.7c12 8.92 18.25 22.23 26.57 33.9 16.76 23.44 32.76 47.39 49.06 71.14z"/> <path class="cls-3" transform="translate(-305.49 -962.68)" d="M974.76,2616.76c36.37,27.54,62.58,64.45,90.16,99.81,23.74,30.43,44.83,62.94,66.92,94.65A108.33,108.33,0,0,1,1140,2826c5.29,10.88,8.23,21.91-4.73,29.5-13.82,8.09-23,.7-29.7-11-24.21-41.8-49.17-83.2-72-125.73-18.6-34.6-44.41-64.93-59.14-101.71Z"/> <path class="cls-3" transform="translate(-305.49 -962.68)" d="m808.15 2480.8c-9.09 0.61-15.28-5-20.74-10.78-26.92-28.65-53.46-57.66-80.33-86.37-6.54-7-11.36-14.55-5.9-23.62 6.58-10.95 17.33-8.22 25.73-3.6 39.87 22 73 52.53 101.39 87.45 12.88 15.82-0.49 37.37-20.15 36.92z"/> <path class="cls-3" transform="translate(-305.49 -962.68)" d="m2383.7 1718.2c8.06 0.06 13.49 4.91 17.85 10.75 25.83 34.66 51.79 69.23 77 104.36 7.46 10.41 9.7 22.64-2.43 32.11-13.49 10.53-24.4 4.23-32.44-7.57-24.34-35.73-48.68-71.48-71.8-108-9.37-14.75-2.21-30.69 11.82-31.65z"/> <path class="cls-3" transform="translate(-305.49 -962.68)" d="m1264.5 1887.6c9.68 1.94 17.68 5.59 24.09 12 22.17 22.25 44.59 44.28 66.12 67.13 9.22 9.8 20.9 22.18 6.84 35.29-15.32 14.27-24.11-1.18-32.79-11.25-23.07-26.74-42-57.17-70.85-78.73-6-4.48-7.16-10.6-4.42-17.2 2.05-4.93 6.8-6.37 11.01-7.24z"/> <path class="cls-3" transform="translate(-305.49 -962.68)" d="m2015.9 1308.8a36.19 36.19 0 0 1 20 12.62c17 21.27 33.91 42.63 50.26 64.41 6.65 8.87 10.27 19-1.72 27-11 7.3-18.15 0.3-24.08-7.89-16.93-23.37-33.57-47-50.3-70.47-4.4-6.19-6.55-12.87-3.79-20.37 1.67-4.41 5.31-5.56 9.63-5.3z"/> <path class="cls-4" transform="translate(-305.49 -962.68)" d="m2169.1 1266.5c-13.84-3.09-28.15-6.12-31.33-22.27-2.73-13.87 6.12-22 18.2-27.58 15.36-7.15 30.25-15.76 48-8.8 16.62 6.51 21.51 23.74 9.56 36.84-11.73 12.88-27.6 18.69-44.43 21.81z"/> <path class="cls-2" transform="translate(-305.49 -962.68)" d="m1521.5 2505.7c0 20.12-13.69 34.41-32.51 34-18.61-0.45-31-13.33-31-32.3 0-21.15 12.25-35.28 30.9-35.5 19.07-0.29 32.61 13.76 32.61 33.8z"/> <path class="cls-4" transform="translate(-305.49 -962.68)" d="m1941.2 1539c0.14 18.1-16 36-32.19 36.74s-33.19-13.42-33.56-27.72c-0.41-15.85 19.25-37.19 35.59-36.14 16.56 1.02 28.31 9.86 30.16 27.12z"/> <path class="cls-4" transform="translate(-305.49 -962.68)" d="m1668.4 1558.2c-13.61 0.24-24.15-4.13-25.24-19.47-0.81-11.48 32.58-41.91 46.2-41.64 13.28 0.27 20.34 8.47 20.84 21.76 0.67 17.75-22.07 39.04-41.8 39.35z"/> <path class="cls-3" transform="translate(-305.49 -962.68)" d="m3035.5 1106.4c3.43 2.09 8.46 3.71 11.31 7.14 14.83 17.84 31.06 34.62 42.42 55.17 4.88 8.83 5.88 17.09-3 23.37-9.51 6.7-16.89 1.45-22.27-6.51-13-19.25-26.12-38.47-38.08-58.37-5.44-8.98-6.67-18.89 9.62-20.8z"/> <path class="cls-2" transform="translate(-305.49 -962.68)" d="m1280.2 2702.9c-1.28 17.67-9.64 29.53-27.7 30.06-15.76 0.47-25.23-9-26.39-25-1.2-16.81 14.63-33.44 31.06-32.92 18.22 0.53 20.89 14.03 23.03 27.86z"/> <path class="cls-3" transform="translate(-305.49 -962.68)" d="m1994.5 1973.7c10 0.72 10.82 7.59 10.35 15.34-5.81-3.53-8.06-9.44-10.35-15.34z"/> <path class="cls-3" transform="translate(-305.49 -962.68)" d="M969.74,2612.2l5,4.56-.34.33-4.53-5Z"/> <polygon class="cls-3" points="664.4 1649.4 663.21 1648.1 664.25 1649.5"/> <path class="cls-2" transform="translate(-305.49 -962.68)" d="m2850.9 1224.2-1.62-1.35 2.36 0.6z"/> <path class="cls-3" transform="translate(-305.49 -962.68)" d="M3350,3051.91c-7.37,62-.39,123.19,9.31,184.32,1.87,11.78,3.83,18.54,19.21,17.34,74.49-5.85,148.23-17.49,221-33.07,67.74-14.5,134.67-33.43,198.73-61,27.93-12,57.15-20.78,82-39.56,12.76-9.64,11.73-16.59,1.36-26.69a501.29,501.29,0,0,1-36.16-38.87c-9.81-11.85-11.25-25,.79-36.84,20-19.59,40.69-38.48,60.26-58.47,11.67-11.91,19.27-7.31,26.86,3.79,14.49,21.22,27.14,43.65,44.68,62.83,10.52,11.5,18.45,12.87,29.19.47,11.05-12.76,23.72-24.14,35.66-36.14,13.08-13.14,25.2-25.49,6.88-44.61-9.27-9.67-.83-21.9,3.38-31.77,11.63-27.3,24.56-54,37-81,18.29-39.58,14.7-81.26,11.41-122.79-1.19-15-4.06-29.79-4.55-45.18,15.78,20.41,22.86,45.22,29.74,68.64,25.31,86.28,32.2,173.6,2.57,260.78-29.15,85.8-78.51,157.07-148.52,215.38-37.8,31.47-75.69,62.17-118,87.25-94.38,56-197.59,88.35-303.5,113.56-117.26,27.92-236.4,36.51-356.48,33.58-57.7-1.41-112.94,14.24-169.47,20.7-43.8,5-87.78,8.37-131.57,13.4-79.55,9.14-159,.58-238.5-.69-42.44-.67-84.8-6.09-127.18-9.55-18.67-1.53-27.57-10.83-33.55-30.06-12.2-39.26-18.86-79.58-28.45-119.31-3-12.62-8.06-21.3-22.56-19-16.44,2.62-11.68,16-10.2,24.94,5.77,34.86,12.39,69.58,22,103.7,7.15,25.35,3.11,29.88-23.6,25.36-34-5.76-68.38-11.12-101.54-20.42-50.14-14.06-101.54-23.08-150.71-41.2C2115.21,3365.09,2042.27,3340,1969,3316c-49.82-16.33-101.22-15.85-152.66-7.25-6.61,1.11-13.1,1.4-14.12,10-16.38,2-32.11-9.81-48.74-2.28,40.93-39.77,90.23-68.72,134.64-104.06,119.36-95,242.17-185.59,361.48-280.74,89.09-71.05,182.51-136.72,271.05-208.43C2609.86,2651,2700.91,2581,2787.08,2505c48.74-43,100.36-82.73,150-124.75,68.15-57.7,129.57-122.31,189.09-188.68,14.39-16.05,30.57-30.95,40.78-50.55,3.37-6.46,9.41-8.36,16.43-7.45,29.16,11.35,61.5,10.73,90.17,23.9-49.38,20.5-87.08,57.27-124.59,93.08-87.66,83.69-173.27,169.53-259.88,254.33-45.11,44.17-94.12,85.61-102.39,154.23-.37,3.06-2.72,5.83-3.72,8.87-12.93,39.52-29.25,78-36.63,119.23-17,39.91-20.72,82.6-26,125-3.81,16.25-7.74,32.49-11.43,48.77-8.79,38.88-5.35,44.68,32.58,55.59,26.67,7.67,39.15,27.63,31.4,50.23-6.24,18.19-21.93,23.51-48.53,13.73-15.91-5.84-18.46.93-18.31,14,.26,23.36,2.27,46.93-.11,70-2.85,27.69,11.62,37.42,34.83,41.83,104,19.79,208.38,37,314.14,44.3,29,2,32.24-2.23,26.89-31.27-6.28-34-9.68-68.36-8.37-103,.45-11.82,2.12-25.23,15.15-27,14.86-2,12.68,13.58,14.47,22.39,8.63,42.49,17.36,84.92,28.31,126.92,3.59,13.78,9.78,21.46,24.34,21.47,42.69.05,85.39,0,128.09.42,14.36.14,18.06-5.43,15-19.39-10.34-46.5-14.11-93.63-12.22-141.31.77-19.28,7.44-38,4.57-57.54,9.75-56.84,17.74-114.06,34.34-169.48,4.36-14.56,10.22-28.72,16.1-42.76,4-9.5,10.73-16.91,22.31-13.87,12.1,3.17,16.69,13,14.84,24.29-5,30.78-12.27,61.23-16.66,92.1C3356.36,2972.11,3348.56,3011.58,3350,3051.91Zm-648.82-230.06c-35.25,17.91-58.73,45.54-82.37,71.08-65.1,70.33-135,135.55-205.66,200-11.44,10.42-12.28,15.14,3.39,20.13,71.48,22.76,142.72,46.3,214.3,68.78,20.08,6.31,29.29-1.35,25.93-20.6-10.42-59.76-.07-118.67,9.06-177.07C2674.21,2930.54,2688.72,2877.91,2701.19,2821.85Z"/> <path class="cls-3" transform="translate(-305.49 -962.68)" d="m2091.8 2543.1c-0.09-56.41 54.85-89.94 96.88-69.19 30.27 14.94 48.23 41.92 68.25 66.83 17.12 21.3 20.5 22 42 4.89 86.76-68.92 174-137.29 260.38-206.64 23.8-19.11 45.09-41.3 68.17-61.35 11.08-9.63 9.3-18.06 2.59-29.26-12.77-21.34-24.53-43.34-36.12-65.34-7-13.26-8-27.34 5.86-36.55 14.36-9.52 26.1-1.91 35.19 10.16 26.14 34.75 48.64 71.88 70.3 109.49 19.42 33.71 27.58 34 57.73 9.41 21.62-17.67 46-32.05 67.9-49.71 15.7-12.64 17.54-24.42 7.32-41.25-11.58-19.08-26.3-36.23-31.68-59.21-7-29.72-2.34-48.06 21.27-66.94 7.52-6 15.24-11.87 22.15-18.55 22.53-21.78 32.53-21.44 52.15 2.55 20.53 25.1 21.46 24.17 41.51-1 16-20 27.1-44 47.67-60.27 10.74-8.52 9.39-17.58 1.74-27.05-5.06-6.25-10.84-11.95-15.52-18.46-21.07-29.37-20.31-36.5 4.94-61.69 10.07-10 18.49-16.46 32.15-2.7 8.62 8.68 24.29 7.81 31.89 21.67 4 7.24 12.59 0.1 18.37-4.6 28.84-23.49 42.62-57.86 63-87.38 26.1-37.73 46.27-78.93 65.28-120.57 8-17.55 15.25-18.81 29.94-6 28.39 24.7 58.45 47.43 86.09 73.13 10.72 10 12.17 18.46 7.91 31.72-21.85 68-56.33 130-94.27 189.63-37.47 58.92-76.26 117.24-121.5 170.85-83.17 98.55-176.4 186.32-275 269.57-110.48 93.29-224.76 181.81-336 274.15-62.95 52.26-129.19 100.83-193.44 151.71-12.73 10.08-21 11.56-32.22-5.35q-79.14-119.62-151.27-243.52c-9.34-16.24-20.92-32.33-21.61-43.18z"/> <path class="cls-3" transform="translate(-305.49 -962.68)" d="m3306.7 1184.6c18.32 5.64 20.72 24.06 26.87 37.51 25.14 55 39.87 112.32 46.66 173.28 11.39 102.2-9.31 199.68-30.66 297.68-6 27.39-11.49 28.82-31.39 9.7-22.73-21.84-48.62-39.53-74.44-57.23-16.63-11.4-22.66-21.08-12.95-43.35 38.33-87.86 67.56-179.2 78.13-274.72 5.17-46.74 6.07-94.77-3.45-141.83z"/> <path class="cls-3" transform="translate(-305.49 -962.68)" d="m1859.9 2906.6c0.34 26.12-16.08 44.21-40.21 44.34-19.47 0.1-42-21.3-41.71-39.7 0.31-23.39 19.48-43 42.24-43.19 23.31-0.2 39.39 15.42 39.68 38.55z"/> <path class="cls-4" transform="translate(-305.49 -962.68)" d="m1700.3 3347.1c-2.54 3.36-5.94 4.24-9.9 3.45z"/> <path class="cls-3" transform="translate(-305.49 -962.68)" d="M3305.47,1185.62c-1-1.73-2-3.44-2.92-5.24-.07-.13,1-.82,1.52-1.25q1.3,2.73,2.62,5.45Z"/> <path class="cls-4" transform="translate(-305.49 -962.68)" d="m1685 3353.5-6.12 3.09c2.07-1.03 4.07-2.06 6.12-3.09z"/> <path class="cls-2" transform="translate(-305.49 -962.68)" d="m1226.5 3510.8c2.72-3 5.63-4 8.92-0.86z"/> <path class="cls-2" transform="translate(-305.49 -962.68)" d="m2746.3 2787.2c7.38-41.22 23.7-79.71 36.63-119.23 1-3 3.35-5.81 3.72-8.87 8.27-68.62 57.28-110.06 102.39-154.23 86.61-84.8 172.22-170.64 259.88-254.33 37.51-35.81 75.21-72.58 124.59-93.08 30.88-3.85 59 7.93 87.9 15.32 18.28 4.67 36.92 12 55.24 11.58 35.47-0.88 64.82 16.55 96.31 27.06 20.25 6.76 43.44 7 60.17 23.16-113.88 50.37-217.15 118.57-313.22 196.46-81.57 66.16-171.86 117.94-259.14 174.9-85.27 55.67-170 112.35-247.91 178.3-1.76 1.5-4.35 2-6.56 2.96z"/> <path class="cls-2" transform="translate(-305.49 -962.68)" d="m3291.1 3042.2c2.87 19.51-3.8 38.26-4.57 57.54-1.89 47.68 1.88 94.81 12.22 141.31 3.1 14-0.6 19.53-15 19.39-42.7-0.41-85.4-0.37-128.09-0.42-14.56 0-20.75-7.69-24.34-21.47-10.95-42-19.68-84.43-28.31-126.92-1.79-8.81 0.39-24.42-14.47-22.39-13 1.77-14.7 15.18-15.15 27-1.31 34.69 2.09 69 8.37 103 5.35 29 2.07 33.26-26.89 31.27-105.76-7.27-210.13-24.51-314.14-44.3-23.21-4.41-37.68-14.14-34.83-41.83 2.38-23.1 0.37-46.67 0.11-70-0.15-13.08 2.4-19.85 18.31-14 26.6 9.78 42.29 4.46 48.53-13.73 7.75-22.6-4.73-42.56-31.4-50.23-37.93-10.91-41.37-16.71-32.58-55.59 3.69-16.28 7.62-32.52 11.43-48.77 66 22.75 132.05 45.4 199.89 62.06 96.58 23.72 193.5 45.89 292.25 59 26.21 3.44 52.1 9.02 78.66 9.08z"/> <path class="cls-4" transform="translate(-305.49 -962.68)" d="m3639.2 2634.1c-7.17 40-15.64 84.8-29.66 128.28-5.43 16.83-2.91 35.41-18.83 49.94-23.88 21.8-56.33 16-67.34-14.46-6.65-18.4-3.55-36.11 0.13-54.41 9-44.79 16.92-89.91 35.39-132 8.35-19.06 20.39-35.73 45.55-30.31 23.09 4.94 34.69 21.47 34.76 52.96z"/> <path class="cls-4" transform="translate(-305.49 -962.68)" d="m3107 2847.8c15.41-43.66 24.1-89.82 48.19-130.42 6.52-11 15.16-16.61 28-11.46 13.18 5.3 18.14 16.28 15.55 29.22-3.15 15.67-8.36 30.93-12.94 46.29-8 26.87-15.23 54-24.75 80.37-5.64 15.59-18.54 25.8-36.07 19.94-14.98-4.98-18.46-18.77-17.98-33.94z"/> <path class="cls-4" transform="translate(-305.49 -962.68)" d="m3806.2 2602.4c-21.31-0.45-26.36-14.62-26.2-32.26 0.15-17.05 15.94-33.51 31.18-33.56 14.62-0.06 31.16 16.69 30.76 31.14-0.51 18.35-17.73 35.06-35.74 34.68z"/> <path class="cls-4" transform="translate(-305.49 -962.68)" d="M3499,2560c.1,18.43-17.92,37.82-35.22,36.83-18.28-1.06-26.51-13-27-30.5-.47-18.14,14.94-34.25,33.06-34S3497.45,2543,3499,2560Z"/> <path class="cls-4" transform="translate(-305.49 -962.68)" d="m3617.6 2404c14.85 2.26 28.9 7.65 31.38 26.23 1.95 14.65-16 35.1-31.21 34.47-17.69-0.74-27.49-10.29-27.28-29.59 0.19-18.11 6.55-29.39 27.11-31.11z"/> <path class="cls-3" transform="translate(-305.49 -962.68)" d="m2929.5 2732.7c19.62-0.76 27.86 10.43 27.87 28.25 0 19.26-10.6 30-29.89 29.85-16.21-0.17-27.76-6.92-28-25.72-0.22-20.54 10.3-32.18 30.02-32.38z"/> <path class="cls-4" transform="translate(-305.49 -962.68)" d="m3527.9 2369.5c17.93 0.31 29.63 6.89 29.35 23.8-0.29 16.64-13.42 23.62-27.8 24.36s-25.11-6.94-25.27-22.89c-0.18-16.68 9.72-24.49 23.72-25.27z"/> <polygon class="cls-3" points="2555.5 0.05 2556 0.53 2555.5 0"/> <path class="cls-2" transform="translate(-305.49 -962.68)" d="m2701.2 2821.8c-12.47 56.06-27 108.69-35.35 162.27-9.13 58.4-19.48 117.31-9.06 177.07 3.36 19.25-5.85 26.91-25.93 20.6-71.58-22.48-142.82-46-214.3-68.78-15.67-5-14.83-9.71-3.39-20.13 70.71-64.4 140.56-129.62 205.66-200 23.64-25.49 47.12-53.12 82.37-71.03z"/> <path class="cls-2" transform="translate(-305.49 -962.68)" d="m3289 1137.4s6.72 70.13 74.86 92.44c0.02 0-15.86-93.01-74.86-92.44z"/> </svg>