<?xml version="1.0" encoding="UTF-8"?>
<svg width="2048pt" height="2048pt" version="1.1" viewBox="0,0,2048,2048" xmlns="http://www.w3.org/2000/svg">
 <defs>
  <radialGradient id="z" cx="500.05" cy="280.51" r="552.92" gradientUnits="userSpaceOnUse">
   <stop stop-color="#af4c34" offset=".45113"/>
   <stop stop-color="#83402d" offset=".73308"/>
  </radialGradient>
  <linearGradient id="v" x1="541.97" x2="414.41" y1="-3.7584" y2="659.54" gradientTransform="translate(2.3199)" gradientUnits="userSpaceOnUse">
   <stop stop-color="#4a1d13" offset=".25376"/>
   <stop stop-color="#2f1710" offset="1"/>
  </linearGradient>
  <radialGradient id="ai" cx="303.19" cy="302.4" r="556.62" gradientTransform="matrix(1.4114 .24435 -.24435 1.4114 773.35 -183.79)" gradientUnits="userSpaceOnUse">
   <stop stop-color="#218300" offset=".16353"/>
   <stop stop-color="#114500" offset=".76504"/>
  </radialGradient>
  <radialGradient id="aj" cx="185.54" cy="358.01" r="442.37" gradientTransform="matrix(1.4114 .24435 -.24435 1.4114 789.92 -180.02)" gradientUnits="userSpaceOnUse">
   <stop stop-color="#218300" offset=".16353"/>
   <stop stop-color="#114500" offset=".76504"/>
  </radialGradient>
  <radialGradient id="ak" cx="467.58" cy="212.96" r="440.24" gradientTransform="matrix(1.4114 .24435 -.24435 1.4114 743.08 -180.62)" gradientUnits="userSpaceOnUse">
   <stop stop-color="#218300" offset=".16353"/>
   <stop stop-color="#114500" offset=".76504"/>
  </radialGradient>
  <radialGradient id="al" cx="423.26" cy="1060.8" r="614.65" gradientTransform="matrix(-.87103 .51886 .51886 .87103 462.4 -448.91)" gradientUnits="userSpaceOnUse">
   <stop stop-color="#f00" offset=".33271"/>
   <stop stop-color="#922020" offset="1"/>
  </radialGradient>
  <radialGradient id="am" cx="451.81" cy="956.93" r="419.23" gradientTransform="matrix(-.87103 .51886 .51886 .87103 462.4 -448.91)" gradientUnits="userSpaceOnUse">
   <stop stop-color="#165c00" offset=".37218"/>
   <stop stop-color="#061900" offset=".9718"/>
  </radialGradient>
  <radialGradient id="an" cx="610.18" cy="1139.4" r="457.6" gradientTransform="translate(-180.47)" gradientUnits="userSpaceOnUse">
   <stop stop-color="#ff0707" offset=".19737"/>
   <stop stop-color="#922020" offset="1"/>
  </radialGradient>
  <radialGradient id="ao" cx="590.73" cy="1049.3" r="273.87" gradientTransform="translate(-180.47)" gradientUnits="userSpaceOnUse">
   <stop stop-color="#165c00" offset=".37218"/>
   <stop stop-color="#061900" offset=".9718"/>
  </radialGradient>
  <radialGradient id="ap" cx="1249.5" cy="322.6" r="1037.9" gradientTransform="matrix(.99699 -.077556 .077556 .99699 -106.49 424.88)" gradientUnits="userSpaceOnUse">
   <stop stop-color="#511d83" offset=".29511"/>
   <stop stop-color="#260e3d" offset=".89474"/>
  </radialGradient>
  <radialGradient id="aa" cx="1428.7" cy="104.05" r="480.99" gradientTransform="matrix(.99699 -.077556 .077556 .99699 -11.276 348.7)" gradientUnits="userSpaceOnUse">
   <stop stop-color="#28a000" offset=".16353"/>
   <stop stop-color="#114500" offset=".76504"/>
  </radialGradient>
  <linearGradient id="w" x1="1281.7" x2="1348.3" y1="1413.1" y2="1488.2" gradientTransform="matrix(.64049 .51672 -.51672 .64049 669.46 214.2)" gradientUnits="userSpaceOnUse">
   <stop stop-color="#ff6c00" offset=".31579"/>
   <stop stop-color="#c25300" offset=".92293"/>
  </linearGradient>
  <radialGradient id="ab" cx="965.42" cy="1694.2" r="34.81" gradientTransform="matrix(.64049 .51672 -.51672 .64049 669.46 214.2)" gradientUnits="userSpaceOnUse">
   <stop stop-color="#ff6c00" offset=".31579"/>
   <stop stop-color="#d95c00" offset=".92293"/>
  </radialGradient>
  <radialGradient id="ac" cx="856.76" cy="1850.4" r="19.313" gradientTransform="matrix(.64049 .51672 -.51672 .64049 669.46 214.2)" gradientUnits="userSpaceOnUse">
   <stop stop-color="#ff6c00" offset=".31579"/>
   <stop stop-color="#d95c00" offset=".92293"/>
  </radialGradient>
  <linearGradient id="x" x1="1208.3" x2="1428.5" y1="785.07" y2="1044.5" gradientTransform="matrix(.64049 .51672 -.51672 .64049 669.46 214.2)" gradientUnits="userSpaceOnUse">
   <stop stop-color="#ff6c00" offset=".31579"/>
   <stop stop-color="#c25300" offset=".92293"/>
  </linearGradient>
  <linearGradient id="y" x1="1242.4" x2="1348.3" y1="1126.4" y2="1245.9" gradientTransform="matrix(.64049 .51672 -.51672 .64049 669.46 214.2)" gradientUnits="userSpaceOnUse">
   <stop stop-color="#ff6c00" offset=".31579"/>
   <stop stop-color="#c25300" offset=".92293"/>
  </linearGradient>
  <radialGradient id="ad" cx="876.08" cy="1539.7" r="29.344" gradientTransform="matrix(.64049 .51672 -.51672 .64049 669.46 214.2)" gradientUnits="userSpaceOnUse">
   <stop stop-color="#ff6c00" offset=".31579"/>
   <stop stop-color="#d95c00" offset=".92293"/>
  </radialGradient>
  <radialGradient id="ae" cx="869.57" cy="1344.5" r="17.571" gradientTransform="matrix(.64049 .51672 -.51672 .64049 669.46 214.2)" gradientUnits="userSpaceOnUse">
   <stop stop-color="#ff6c00" offset=".31579"/>
   <stop stop-color="#d95c00" offset=".92293"/>
  </radialGradient>
  <radialGradient id="af" cx="1454" cy="233.94" r="542.16" gradientTransform="matrix(.64049 .51672 -.51672 .64049 669.46 214.2)" gradientUnits="userSpaceOnUse">
   <stop stop-color="#007909" offset=".46992"/>
   <stop stop-color="#004305" offset="1"/>
  </radialGradient>
  <radialGradient id="ag" cx="1889" cy="623.19" r="117.18" gradientTransform="matrix(.43755 .69698 -.69698 .43755 1211.6 11.938)" gradientUnits="userSpaceOnUse">
   <stop stop-color="#007909" offset=".46992"/>
   <stop stop-color="#005907" offset="1"/>
  </radialGradient>
  <radialGradient id="ah" cx="1552.1" cy="387.56" r="841.52" gradientTransform="matrix(.64049 .51672 -.51672 .64049 631.64 204.85)" gradientUnits="userSpaceOnUse">
   <stop stop-color="#007909" offset=".46992"/>
   <stop stop-color="#004305" offset="1"/>
  </radialGradient>
 </defs>
 <g stroke="#000" stroke-linecap="round" stroke-linejoin="round" stroke-width="6.6">
  <path d="m37.997 121.47c0-37.304 203.44-67.546 454.4-67.546s454.4 30.241 454.4 67.546c0 37.304-203.44 67.545-454.4 67.545s-454.4-30.241-454.4-67.545z" fill="url(#z)"/>
  <path d="m42.244 128.87s32.643 219.79 44.26 301.11c17.065 119.46 52.533 351.1 122.81 449.48 12.101 16.943 31.041 26.129 44.211 39.3 30.871 30.87 215.06 14.737 260.36 14.737 98.012 0 218.15-5.38 299.66-68.774 82.636-64.272 89.143-192.72 108.07-287.38 27.073-135.36 31.519-262.88 27.945-374.49-0.992-30.957-1.155-77.105-1.155-77.105s6.74 18.672-77.406 35.567c-41.203 8.272-112.94 14.945-165.53 20.584-59.528 6.382-228.36 7.078-258.53 7.715-46.541 0.984-209.32-10.051-271.74-19.801-116.66-18.223-132.95-40.945-132.95-40.945z" fill="url(#v)"/>
 </g>
 <g stroke="#000" stroke-linecap="round" stroke-linejoin="round">
  <path d="m1422.2 954.15c29.85 1.406 92.86-113.32 92.1-142.65-3.38-129.9 48.51-263.37 32.66-394.78-13.75-114.02-73-259.17-188.16-310.11-5.79-2.558-77.03-52.116-100.96 11.686-23.79 63.408 18.15 147.81 12.56 155.39-8.21 11.143-183.95-265.71-227.26-15.555-7.33 42.341 9.75 81.072 5.77 104.08-0.29 1.685-40.6-38.504-40.86-38.792-37.83-41.566-96.092-104.54-158.86-67.149-38.973 23.214-109.51 129.65-94.91 181.81 46.833 167.27 216.84 365.81 306.3 520.87 20.68 35.838 290.95-8.126 361.62-4.797z" fill="url(#ai)" stroke-width="6.6"/>
  <path d="m958.31 970.11c-107.14-41.293-81.399-26.471-143.21-143.66-76.5-145.04-17.241-46.58-30.097-76.867-85.331-201.03-16.293-52.405-24.142-79.64-73.036-253.41-3.549-57.559-12.133-85.241-55.826-180.02 5.773-72.329 0.232-107.35-22.207-140.37 18.933-74.413 17.324-110.02-7.374-163.22 16.883-58.691 28.066-83.976 15.253-34.49 36.201-118.65 67.607-113.21 38.926 6.739 43.845 82.341 45.996 79.423 15.296-20.758 67.199-89.407 105.89-90.615s57.21 20.361 48.88 85.783c-3.65 28.567 93.93-43.159 16.11 128.66-11.29 24.937 164.14-121.89-13.93 147-26.55 40.094 233.92-177.5 17.4 94.085-22.11 27.737 178.68-138.93 25.27 115.15-41.36 68.489 74.04 102.02 115.15 171.04 30.37 50.986-139.6 117.53-264.41 69.422z" fill="url(#aj)" stroke-width="6.6"/>
  <path d="m1202.4 908.68c3.97-22.878 138.12 89.464 213.95 46.301 73.02-41.567 108.58-170.02 112.39-192.05 45.48-262.66 70.92-341.61-62.53-577.78-14.88-26.334-19.86-53.22-42.56-74.769-12.47-11.838-103.41-57.923-112.81-35.389-27.5 65.908 93.91 179.65 63.9 151.38-72.78-68.546-120.17-96.261-161.64-92.242-41.46 4.02-15.78 87.608-4.23 108.32 5.81 10.421-231.87 3.385 0.7 124.52 29.08 15.144-202.11-11.117 47.84 84.009 15.79 6.007-190.2-1.326 20.01 124.06 43.14 25.736-139.7 37.889 71.83 105.84 79.64 25.586-23.15 177.41-49.33 212.93-24.66 33.471-128.17-5.812-147.01 29.245" fill="url(#ak)" stroke-width="6.6"/>
  <path d="m1261.1 254.04c70.4 45.899 156.16 143.57 192.08 254.82" fill="none" stroke-width="2.3204"/>
  <path d="m1439 179.65c65.37 161.9 129.06 187.34 91.98 368.72" fill="none" stroke-width="2.3204"/>
  <path d="m802.97 358.61c-5.41 136.6-32.485 289.2 38.269 414.99 6.919 12.3 11.197 25.929 23.919 32.29" fill="none" stroke-width="2.3204"/>
  <path d="m990.73 264.13c-13.205 38.405-38.197 73.138-49.033 112.42-20.742 75.191-45.8 280.22-16.743 348.01" fill="none" stroke-width="2.3204"/>
  <path d="m1063.7 433.95c-39.71 90.253-88.498 193.24-88.498 294.2" fill="none" stroke-width="2.3204"/>
  <path d="m1287 491.39c30.61 18.955 72.72 44.311 95.67 74.148 17.65 22.95 24.04 53.938 44.25 74.147" fill="none" stroke-width="2.3204"/>
 </g>
 <g stroke="#000" stroke-linecap="round" stroke-linejoin="round" stroke-width="6.6">
  <path d="m431.54 699.68s5.898-116.1 249.3-132.72c129.7-8.86 235.74 114.57 261.65 212.71 52.398 198.52-0.526 370.64-218.89 467.58-168.63 74.87-320.76 177.43-470.21 15.41-114.54-124.18-222.35-331.23-81.585-449.2 207.83-174.17 259.74-113.78 259.74-113.78z" fill="url(#al)"/>
  <path d="m222.09 769.62c-1.9 1.133 70.427-50.401 112.53-69.73 30.278-13.9 95.863-9.565 95.863-9.565s21.415-59.575 76.139-81.369c95.915-38.198 168.73-50.739 155.61-42.274-7.878 5.083-46.192 16.721-73.729 37.563s-36.716 45.778-36.42 45.804c12.572 1.111 182.73 1.64 182.73 1.64s-50.195 14.226-89.34 29.091c-39.144 14.866-47.111 24.725-67.239 30.37-16.317 4.577 63.815 100.37 63.815 100.37l-155.04-61.014s-20.719 29.88-30.473 76.508-9.013 102.81-10.888 99.664c-4.47-7.504-10.537-42.725-21.223-80.71s-16.853-70.046-21.522-71.229c-2.128-0.539-34.05 28.411-65.868 55.893s-62.252 55.813-61.404 54.036c16.454-34.452 37.232-60.502 58.797-96.008 21.564-35.507 31.897-44.893 27.461-46.017-2.52-0.639-26.905 3.392-53.566 6.207-26.662 2.816-74.671 19.208-76.867 17.801" fill="url(#am)"/>
 </g>
 <g stroke="#000" stroke-linecap="round" stroke-linejoin="round" stroke-width="6.6">
  <path d="m425.46 957.72s-63.601-95.4-278.25 13.373c-114.37 57.957-141.93 216.09-114.35 312.32 55.806 194.67 187.54 313.82 421.51 285.74 180.68-21.68 361.36-11.57 406.23-224.3 34.383-163.04 21.217-392.91-157.61-421.82-264.03-42.684-277.53 34.691-277.53 34.691z" fill="url(#an)"/>
  <path d="m611.66 912.47c2.183 0-58.529-8.366-103.96-3.491-32.674 3.505-86.061 40.284-86.061 40.284s-48.218-39.674-105.59-30.518c-100.56 16.046-168.59 42.173-153.2 42.725 35.301 1.265 136.42 14.323 135.42 15.044-10.092 7.288-19.403 49.549-25.872 89.449-6.468 39.91-10.095 77.46-8.819 75.33 6.203-10.34 31.816-50.86 66.144-81.47 34.327-30.61 74.4-31.03 74.4-31.03s32.64 14.86 64.441 49.44c31.802 34.59 59.534 82.58 59.534 78.96 0-8.61-12.638-41.52-22.756-79.1s-21.076-67.86-17.717-71.22c1.531-1.54 43.194 6.88 84.029 14.11 40.834 7.23 80.924 15.87 79.308 14.79-31.333-20.88-62.089-32.47-98.285-51.673-36.196-19.202-49.69-21.94-46.498-25.132 1.813-1.813 24.51-10.707 48.524-21.779s46.38-20.209 47.53-22.509" fill="url(#ao)"/>
 </g>
 <path d="m1417.4 886.8c76.03-36.76 73.65-84.588 76.45-135.4 5.92-107.75-43.75-252.63 40.22-340.92 24.67-25.936 50.98-38.183 85.65-43.071 24.38-3.437 54.25-11.689 78.57-4.089 90.76 28.361 130.42 161.13 150.24 241.15 15.09 60.928 26.72 135.48 23.52 198.42-12.96 255.45-282.47 598.47-513.82 701.4-55.34 24.63-127.01 34.35-186.96 40.84-122.3 13.25-244.01-5.94-337.26-97.15-44.341-43.37-59.765-118.22-64.34-177.04-3.381-43.46-12.191-88.72-0.113-131.47 45.016-159.32 262.94-254.82 420.18-241.02 18.77 1.647 151.63 25.119 227.66-11.642z" fill="url(#ap)" stroke="#000" stroke-linecap="round" stroke-linejoin="round" stroke-width="6.6"/>
 <path d="m1488.4 522.97c0.58 14.502 0.62 28.601 1.75 43.102 2.81 36.185-3.81 58.822 12.13 11.867 11.39-33.55 60.94-105.63 65.42-105.98 5.33-0.414 9.28 21.97 11.78 27.909 9.77 23.134 25.43 42.3 36.79 61.194 1.56 2.588 5.03-26.451 5.73-29.271 4.49-18.033 11.03-64.99 22.71-78.634 7.19-8.404 63.87 72.202 73.17 75.98 19.99 8.124-14.19-82.287-10.57-86.519 14.56-17.016 113.85 53.403 113.85 53.403s-47.67-76.187-55.02-87.541c-49.66-76.694-163.86-52.548-165.97-54.348-15.12-12.94-141.34-137.98-185.6-100.86-28.8 24.159-48.98 54.142-12.8 56.41 33.11 2.076 65.69-21.205 144.9 56.622 10.46 10.276-61.75 70.323-58.27 156.67z" fill="url(#aa)" stroke="#000" stroke-linecap="round" stroke-linejoin="round" stroke-width="6.6"/>
 <g stroke="#000" stroke-linecap="round" stroke-linejoin="round" stroke-width="6.6">
  <path d="m85.222 1899.4c251-165.81 516.49-315.04 813.73-380.63 66.719-14.73 133.08-36.33 202.01-38.39 26.59-0.79 199.03-23.15 211.32 3.77 5.78 12.66 6.13 83.84 7.22 101.09 2.79 44.16 22.1 82.38 12.37 126.9-8.45 38.65-82.92 58.38-111.09 70.6-192.69 83.62-451.06 93.25-659.95 104.14-111.07 5.78-221.76 1.16-333.22 10.47-37.962 3.17-75.106 6.27-113.19 6.12-2.493-0.01-44.888 0.85-29.196-4.07z" fill="url(#w)"/>
  <path d="m1164 1717.2c-32.32-50.59-22.29-110.82-28.16-165.62" fill="none"/>
  <path d="m980.01 1742.1c-15.62-29.26-36.05-66.14-31.242-100.65 1.961-14.08 8.399-30.35 6.885-44.51" fill="none"/>
  <path d="m786.14 1769.5c-18.177-17.56-17.738-88.97-4.718-110.84" fill="none"/>
  <path d="m589.14 1796.3c-14.128-28.35-10.183-59.47-1.521-87.63" fill="none"/>
  <path d="m419.85 1834.5c-13.981-18.62-12.487-49.54-14.965-72.7" fill="url(#ab)"/>
  <path d="m268.88 1858.9c-10.144-7.66-12.407-21.87-13.671-33.68" fill="url(#ac)"/>
 </g>
 <g stroke="#000" stroke-linecap="round" stroke-linejoin="round" stroke-width="6.6">
  <path d="m1327.3 1383.7c-95.07 69.52-225.24 68.14-334.54 104.68-119.88 40.08-231.14 94.66-346.41 144.9-67.301 29.34-132.68 63.17-203 85.23-74.45 23.35-150.97 40.79-223.98 68.29-33.383 12.58-135.73 64.85-155.81 67-14.565 1.56 19.238-22.19 30.134-31.98 26.233-23.58 52.108-47.59 78.717-70.74 76.141-66.24 156.85-126.86 232.13-193.8 155.95-138.66 409.85-318.07 620.93-345.63 50.49-6.59 102.96-6.26 153.73-8.05 72.56-2.56 114.57 10.24 140.47 80.85 12.37 33.72 17.45 64.86 7.62 99.25z" fill="url(#x)"/>
  <path d="m1230.5 1325.1c18.34 19.69 22.33 69.36 36.29 91.99 23.72 38.46 24.73 94.35 20.75 137.99-1.57 17.22 4.46 71.21-11.65 81.54-14.19 9.1-284.25 20.51-389.89 29.72-50.246 4.38-99.854 15.67-149.84 22.01-141.28 17.92-281.42 33.63-423.61 39.32-73.928 2.96-147.09 13.33-220.63 21.2-2.2712 0.24-49.737 5.56-49.762 5.32-1.47-13.75 153.43-70.09 170.33-76.94 95.916-38.85 191.86-78.94 288.39-115.93 59.224-22.69 121.13-37.95 180.52-60.05 30.273-11.26 57.232-27.83 86.752-40.43 63.044-26.93 130.04-49.72 194.78-72.37 67.349-23.55 134.1-46.3 204.73-57.84 31.4-5.14 60.37-8.17 62.83-5.53z" fill="url(#y)"/>
  <path d="m1114.3 1557.3c-34.63-28.29-52.28-95.6-30.58-137.14" fill="none"/>
  <path d="m866.35 1599.7c-28.016-20.8-32.346-61.21-29.387-93.69" fill="none"/>
  <path d="m645.47 1642.7c-24.283-17.87-41.543-55.38-20.475-81.5" fill="none"/>
  <path d="m445.76 1678.2c-11.255-9.07-29.459-35.09-21.584-50.16" fill="url(#ad)"/>
  <path d="m1114.4 1339.6c-10.43-14.6-32.65-52.68-18.76-99.99" fill="none"/>
  <path d="m933.91 1393.1c-15.344-12.14-41.994-62.78-27.803-108.35" fill="none"/>
  <path d="m781.29 1450.2c-46.107-59.39-29.557-99-29.557-99" fill="none"/>
  <path d="m656.13 1509.4c-12.303-15.8-19.342-47.17-13.499-65.3" fill="none"/>
  <path d="m534.14 1544.6c-11.885-23.07-4.807-21.52-4.934-39.94" fill="url(#ae)"/>
  <path d="m443.07 1582.7s-10.594-13.71-4.619-30.68" fill="none"/>
 </g>
 <g stroke="#000" stroke-linecap="round" stroke-linejoin="round" stroke-width="6.6">
  <path d="m1247.9 1168.1c-2.06-19.26 3.59-35.19 14.46-51.49 9.57-14.34 21.52-35.6 37.25-43.94 24.98-13.23 54.06-19.58 79.64-2.52 1.88 1.25 25.94 21.58 26.02 19.19 0.23-6.48-0.22-17.35 2.51-23.24 19.03-41.07 34.87-54.7 81.16-53.63 35.41 0.82 71.31 23.53 95.21 49.75 14.04 15.39 15.3 36.95 15.86 36.25 19.05-23.61 25.25-61.34 68.6-40.29 31.35 15.22 63.04 33.99 80.88 67.79 17.85 33.8-12.79 64.74-9.49 67.4 0.25 0.2 37.24-32.68 67.13-19.39 29.89 13.28 42.61 41.26 52.42 72.52 10.54 33.6 6.7 92.69-37.05 101.85-20.51 4.29-45.53 3.86-45.43 4.86 1.24 11.59 43.86 31.69 42.74 63.34-0.61 17.17-7.84 29.85-18.39 42.92-38.32 47.51-78.64 24.97-116.45-5.53-2.1-1.69 5.34 32.84-8.79 57.88-18.03 31.94-46.17 38.06-80.87 37.61-38.74-0.5-92.07-21.68-109.21-59.23-6.75-14.78-7.17-34.04-10.33-49.84-1.56-7.81 0.5-29.69-4.51-23.49-12.54 15.56-15.09 65.12-48.29 62.1-86.91-7.92-167.89-243.67-175.07-310.87z" fill="url(#af)"/>
  <path d="m1328.3 1640.1c-3.49 30.48 26.11 168.54 55.61 188.96 29.44 20.37 62.25 32.23 95.16 11.57 14.88-9.34 14.71-44.06 10.48-41.41-1.58 1 2 3.17 2.99 4.76 5.23 8.33 10.46 16.65 15.68 24.98 17.11 27.24 26.88 66.97 66.52 61.06 42.97-6.42 91.72-29.84 103.33-73.16 2.95-11.02 6.54-23.49 7.97-34.85 0.78-6.23-7.15-15.42-1.83-18.76 0.03-0.01 33.97 38.76 37.45 41.17 63.53 43.96 165.71-23.97 119.2-98.05-2.72-4.35 13.27 18.03 41.3 28.8 41.27 15.85 116.35-6.87 121.22-57.86 3.87-40.53-38.81-74.96-72.52-83.82-1.37-0.36-39.39-4.62-37.37-1.41 0.13 0.21 38.13-11.07 3.46-55.24-24.98-31.83-73.66-52.42-112.96-58.44-33.25-5.08-67.7 7.63-96.13 23.87-7.72 4.41-15.49 8.85-22.6 14.19-3.2 2.4-5.15 12.93-7.28 9.54-18.18-28.97-30.71-70.49-57.05-93.53-33.78-29.55-97.07-6.85-130.1 12.02-18.49 10.56-38.34 31.49-30.45 30.73 16.59-1.62-14.06-82.46-42.9-84.18-20.01-1.2-36.54 6.73-49.63 19.65-28.97 28.59-41.13 81.61-37.05 114.36 2.64 21.19 4.89 42.6 9.96 63.4 1.69 6.96 9.69 32.94 7.54 51.65z" fill="url(#ag)"/>
  <path d="m1281.4 1564.6c-6.3-31.52-14.18-60.84-23.75-91.34-12.46-39.74-35.43-80.58-51.71-119.32-13.96-33.19-28.99-25.9-12.69-62.57 6.23-14 19.83-35.04 32.21-44.39 47.19-35.65 62.75-20.05 99.76-5.53s48.28 63.61 48.28 63.61-15.48-34.66-1.56-60.87c13.93-26.21 25.29-35.06 57.26-43.97 50.69-14.12 98.11-6.42 134.54 34.55 8.82 9.92 6.92 45.28 12.3 49.62 0.17 0.15 8.86-35.59 25.89-56.7 27.58-34.18 60.07-60.02 106.76-38.39 34.71 16.08 40.52 28.55 57.39 57.96 16.88 29.41 6.83 57.01 10.13 59.67 0.7 0.57 11.63-41.38 40.53-49.78 28.86-8.38 68.34 16.02 79.27 39.96 18.17 39.8 28.52 88.92-20.4 108.06-5.99 2.34-36.87 16.87-29.91 19.18 18.92 6.27 47.64 27.16 58.6 43.67 19.18 28.88-1.6 92.66-31.37 108.23-33.04 17.27-122.16-20.82-123.85-18.72-2.61 3.24 30.66 12.44 42.2 30.45 15.79 24.62-23.97 76.27-43.57 87.55-16.8 9.68-37.6 12.61-56.43 14.03-51.31 3.87-194.27-42.47-191.77-37.42 13.35 26.98 17.3 82.35-19.91 94.02-65.46 20.53-165.86-43.34-195.46-99.95-5.63-10.76-1.72-76.5-2.74-81.61z" fill="url(#ah)"/>
 </g>
</svg>
