<?xml version="1.0" encoding="UTF-8"?>
<svg viewBox="0 0 267.50854 312.87827" xmlns="http://www.w3.org/2000/svg">
 <defs>
  <filter id="q">
   <feGaussianBlur stdDeviation="1.1745"/>
  </filter>
  <filter id="p">
   <feGaussianBlur stdDeviation=".7357"/>
  </filter>
  <filter id="ae" x="-1.361" y="-1.4329" width="3.722" height="3.8658">
   <feGaussianBlur stdDeviation="7.5048"/>
  </filter>
  <filter id="ad" x="-1.1021" y="-2.048" width="3.2042" height="5.0959">
   <feGaussianBlur stdDeviation="7.5048"/>
  </filter>
  <filter id="ac" x="-.60038" y="-.6093" width="2.2008" height="2.2186">
   <feGaussianBlur stdDeviation="7.5048"/>
  </filter>
  <filter id="ab" x="-1.0506" y="-.57309" width="3.1013" height="2.1462">
   <feGaussianBlur stdDeviation="7.5048"/>
  </filter>
  <filter id="a" x="-1.7924" y="-.91923" width="4.5848" height="2.8385">
   <feGaussianBlur stdDeviation="7.5048"/>
  </filter>
  <filter id="aa" x="-1.4846" y="-1.2592" width="3.9692" height="3.5184">
   <feGaussianBlur stdDeviation="7.5048"/>
  </filter>
  <filter id="z" x="-.7745" y="-1.2113" width="2.549" height="3.4227">
   <feGaussianBlur stdDeviation="7.5048"/>
  </filter>
  <filter id="y" x="-.37082" y="-.65049" width="1.7416" height="2.301">
   <feGaussianBlur stdDeviation="7.5048"/>
  </filter>
  <filter id="x" x="-.94843" y="-.48639" width="2.8968" height="1.9728">
   <feGaussianBlur stdDeviation="3.971"/>
  </filter>
  <filter id="w" x="-.34631" y="-.08121" width="1.6926" height="1.1624">
   <feGaussianBlur stdDeviation="4.3064"/>
  </filter>
  <filter id="v" x="-.29449" y="-.28222" width="1.589" height="1.5644">
   <feGaussianBlur stdDeviation="8.0635"/>
  </filter>
  <filter id="u" x="-.219" y="-.24427" width="1.438" height="1.4885">
   <feGaussianBlur stdDeviation="10.6924"/>
  </filter>
  <filter id="t" x="-.15445" y="-.04733" width="1.3089" height="1.0946">
   <feGaussianBlur stdDeviation="2.0268"/>
  </filter>
  <filter id="s" x="-.26051" y="-.07605" width="1.521" height="1.1521">
   <feGaussianBlur stdDeviation="1.9287"/>
  </filter>
  <filter id="r" x="-.16762" y="-.38309" width="1.3352" height="1.7662">
   <feGaussianBlur stdDeviation="4.9859"/>
  </filter>
  <filter id="b" x="-1.1072" y="-.08799" width="3.2144" height="1.176">
   <feGaussianBlur stdDeviation="2.8188"/>
  </filter>
  <filter id="o" x="-.16664" y="-.16743" width="1.3333" height="1.3348">
   <feGaussianBlur stdDeviation="9.7526"/>
  </filter>
  <filter id="n" x="-.14202" y="-.39059" width="1.284" height="1.7812">
   <feGaussianBlur stdDeviation="5.7684"/>
  </filter>
  <filter id="m" x="-.15997" y="-.28061" width="1.3199" height="1.5612">
   <feGaussianBlur stdDeviation="3.2375"/>
  </filter>
  <filter id="l" x="-.42704" y="-.43338" width="1.8541" height="1.8668">
   <feGaussianBlur stdDeviation="5.338"/>
  </filter>
  <filter id="k" x="-.49086" y="-.58627" width="1.9817" height="2.1726">
   <feGaussianBlur stdDeviation="5.2566"/>
  </filter>
  <radialGradient id="j" cx="-54.286" cy="637.49" r="69.061" gradientTransform="matrix(.03103 1.1828 -1.4082 .03694 845.11 654.45)" gradientUnits="userSpaceOnUse">
   <stop stop-color="#ffe680" offset="0"/>
   <stop stop-color="#ffd42a" stop-opacity="0" offset="1"/>
  </radialGradient>
  <radialGradient id="i" cx="-149.39" cy="625.37" r="69.102" gradientTransform="matrix(.02067 .80626 -.68637 .0176 388.76 647.51)" gradientUnits="userSpaceOnUse">
   <stop stop-color="#fea" offset="0"/>
   <stop stop-color="#fc0" offset="1"/>
  </radialGradient>
  <radialGradient id="h" cx="90" cy="634.41" r="58.641" gradientTransform="matrix(1.2912 .07308 -.09203 1.6259 32.183 -435.73)" gradientUnits="userSpaceOnUse">
   <stop stop-color="#ffd42a" offset="0"/>
   <stop stop-color="#ffa000" offset="1"/>
  </radialGradient>
  <radialGradient id="g" cx="103.57" cy="618.69" r="51.216" gradientTransform="matrix(-.03727 .89208 -.9777 -.04085 712.32 497.38)" gradientUnits="userSpaceOnUse">
   <stop stop-color="#fea" offset="0"/>
   <stop stop-color="#ffb700" offset="1"/>
  </radialGradient>
  <radialGradient id="f" cx="18.183" cy="593.32" r="46.5" gradientTransform="matrix(1.0468 -.02355 .01474 .6553 -9.5959 204.37)" gradientUnits="userSpaceOnUse">
   <stop stop-color="#0a0" offset="0"/>
   <stop stop-color="#008000" offset="1"/>
  </radialGradient>
  <radialGradient id="e" cx="23.234" cy="542.09" r="22.857" gradientTransform="matrix(.64603 2.7788 -1.7502 .40691 956.98 247)" gradientUnits="userSpaceOnUse">
   <stop stop-color="#00d400" offset="0"/>
   <stop stop-color="#0a0" offset="1"/>
  </radialGradient>
  <radialGradient id="d" cx="-23.155" cy="588.62" r="38.638" gradientTransform="matrix(-.44291 .77085 -1.3137 -.75483 765.06 1057)" gradientUnits="userSpaceOnUse">
   <stop stop-color="#005800" offset="0"/>
   <stop stop-color="#32ff00" offset="1"/>
  </radialGradient>
  <radialGradient id="c" cx="64.416" cy="586.83" r="26.075" gradientTransform="matrix(.76029 .27119 -.29203 .81873 183.01 96.651)" gradientUnits="userSpaceOnUse">
   <stop stop-color="#ff0" offset="0"/>
   <stop stop-color="#ff0" stop-opacity="0" offset="1"/>
  </radialGradient>
 </defs>
 <g transform="translate(107.96 -511.48)">
  <path transform="matrix(1.286 0 0 .56994 -21.583 361.04)" d="m106.07 760.43-32.465-2.7721-6.8022 31.865-23.087-22.991-25.693 20.037-2.9074-32.453-32.562-1.1656 18.633-26.729-24.195-21.823 31.455-8.4986-4.5064-32.27 29.559 13.708 17.29-27.617 13.832 29.501 30.997-10.041-8.3674 31.49 30.199 12.232-26.651 18.744 15.271 28.782z" fill="#d45500" filter="url(#o)"/>
  <path d="m-89.286 605.93c0.84792-48.242 21.985-64.464 70.286-68.143 30.167-25.369 88.819-26.102 103.29 15.286l22.143 1.4286c60.521 13.496 49.969 171.27 1.1745 215.36-18.311 15.791-45.39 13.361-62.603-1.7855-8.0797 22.282-35.323 27.799-57.143 22.143-65.893-17.08-77.84-188.04-76.429-189.29" fill="#fc0"/>
  <path d="m52.143 546.65c13.27-19.192 28.944 9.7014 0 0z" fill="#fff" filter="url(#ad)"/>
  <path d="m-83.009 555.52c25.415-29.247 79.824-32.426 83.724 18.27l-2.8571-2.1428c-8.5076-1.2262-11.767 11.241-20.714 15.714v2.8571c4.0017 4.4524 1.4286 11.146 1.4286 12.857l3.5714 2.8571c4.1852 4.2326 7.5947 9.2163 10.714 14.286l2.8571-1.4286c13.697-5.308 16.619-1.6705 26.429 2.8572l2.8571 0.71428c20.504 15.335 16.429 52.044 16.429 77.143 0 55.465 17.369 84.949-40 93.571-30.384 4.5668-55.433-22.263-69.87-49.729-20.427-40.009-16.891-48.874-21.79-92.74-2.8363-28.962-7.6862-73.991 7.2221-95.086z" fill="url(#i)"/>
  <path d="m42.857 763.08c1.0748-43.117 17.438-82.871-15.714-138.57l-5.7143-4.2857c-8.9476-5.9695-25.838-5.43-31.429-5l-3.5714-2.1429c-31.377-31.832-74.286-6.4858-74.286 33.571l-1.4286 3.5714c1.0138 54.416 21.679 166.78 111.43 137.14 11.23-7.813 15.447-10.592 20.714-24.286z" fill="url(#j)"/>
  <path d="m59.286 600.22c-14.444-46.239 47.381-63.333 78.571-32.143 24.299 24.299 17.2 154.94-4.2857 176.43-10.487 10.487-27.597 23.311-35 30.714l-5 0.71428c-8.1406-4.2892-33.211 0.0068-38.571-10.714-8.0609-16.122 0.80926-142.4 4.2857-165z" fill="url(#g)"/>
  <path d="m45.143 770.65c-6.4268-46.36 3.0759-114.04-18.714-148.29l2.8571-7.8572c3.4642-1.3861 10.292-1.4182 14.429-3.2463 4.2559-1.8806 5.8308-5.5785 10.069-8.5554 63.606-44.682 104.27 40.89 83.421 118.58-5.1389 19.148-14.015 37.817-27.205 53.938-20.748 9.6117-45.961 8.3129-64.857-4.5714z" fill="url(#h)"/>
  <path d="m-72.857 620.93c12.49 17.42 31.968 42.52 48.571 16.429l-1.4286-3.5714c-13.322 5.8456-42.704-10.786-47.143-12.857z" fill="#fff" filter="url(#y)"/>
  <path transform="matrix(1.4386 0 0 1.4386 -22.471 -281.56)" d="m10.714 634.51c53.509 11.348-18.157 26.841 0 0z" fill="#fff" filter="url(#z)"/>
  <path d="m36.429 629.51c7.8774-33.501 22.828 7.7954 0 0z" fill="#fff" filter="url(#aa)"/>
  <path transform="matrix(1.6675 0 0 1.6675 -65.263 -409.35)" d="m86.429 609.51c60.286-29.029-12.676 43.978 0 0z" fill="#fff" filter="url(#k)"/>
  <path transform="matrix(1.0719 0 0 1.0719 -8.2726 -41.67)" d="m110 578.79c2.6087-32.715 21.244 35.118 0 0z" fill="#fff" filter="url(#a)"/>
  <path transform="matrix(1.2669 0 0 1.2669 19.824 -154.07)" d="m-82.857 593.08c-0.08934-16.529 9.7511-23.216 17.143-31.429v3.5714c-0.87825 16.056-9.3033 22.868-17.143 27.857" fill="#fff" filter="url(#ab)"/>
  <path d="m-42.143 583.79c11.764-32.74 20.773-39.275 30-9.2857l-2.1429 3.5714c-6.8643 10.316-14.797 5.7143-27.857 5.7143z" fill="#fff" filter="url(#ac)"/>
  <path d="m-1.4286 546.65c1.3953-21.716 29.067-10.962 0 0z" fill="#fff" filter="url(#ae)"/>
  <path d="m-40.406 595.77c31.615 7.2532 55.598 24.551 73.741 49.497l1.0102-5.0508c-6.4846-25.754 22.725-38.384 42.426-47.477l-5.0508-2.0203c-12.304-7.2818-5.5204-22.389-4.0406-29.294l-4.0406 3.0304c-28.756 16.427-57.188-14.555-71.721-24.244l-2.0203 4.0406c8.2949 39.724-11.414 50.772-30.305 51.518z" fill="#f60" filter="url(#u)"/>
  <path d="m-1.1344 569.77c5.4938 3.44 19.782-3.0907 27.353-8.5966l2.3445 3.126c8.7704 7.7267 16.478 8.5916 26.571 7.8151l1.563 3.1261c3.1498 5.0901 6.5359 5.6318 10.16 8.5966l-3.9076 1.563c-4.2309 8.1968 1.0248 11.341 2.3445 15.63h-3.9076c-2.7797 2.6965-5.2244 5.7181-7.8151 8.5966l-3.126-0.78149c-9.8549 0.36883-11.154 6.6977-14.849 12.504l-3.9076-3.1261c-5.1028-1.1738-10.626 0.0232-15.63 1.563l-3.9076-3.126c-18.836-6.4724-14.138-0.5582-17.975 5.4706l-3.126-3.126c-0.82882-5.8179-9.2247-9.906-11.723-11.723l-3.126-3.126c-1.3906-1.0583-1.563-3.1261-2.3445-4.6891l0.78151-3.9076c4.2694-6.8233 1.3434-10.106-0.78151-15.63l3.9076 1.563c9.7376-0.52039 10.206-9.4704 10.941-10.941l3.126 1.563c2.9976-0.38182 4.1338-1.3779 7.0336-2.3445z" fill="url(#f)"/>
  <path d="m-7.7143 589.22c16.306-22.494 13.494-54.765 25.714-75.714l3.5714 2.1429c5.6357 1.1352 11.936 4.3549 16.429 6.4286h-3.5714c-10.763 22.98 5.3791 52.536 2.1429 73.571l-3.5714-2.1429c-12.173 3.7477-37.014 0.0367-40.714-4.2857z" fill="url(#e)"/>
  <path d="m46 548.79c2.6087-32.715 21.244 35.118 0 0z" fill="#fff" filter="url(#a)"/>
  <path d="m46 548.79c2.6087-32.715 21.244 35.118 0 0z" fill="#fff" filter="url(#a)"/>
  <path d="m36 542.79c2.6087-32.715 21.244 35.118 0 0z" fill="#fff" filter="url(#a)"/>
  <path transform="matrix(1.6113 0 0 1.6113 9.155 -393.32)" d="m-20 642.79c2.6087-32.715 21.244 35.118 0 0z" fill="#fff" filter="url(#a)"/>
  <path transform="matrix(1.3622 0 0 1.3622 -18.48 -198.98)" d="m46 548.79c2.6087-32.715 21.244 35.118 0 0z" fill="#fff" filter="url(#x)"/>
  <path transform="matrix(.99986 -.01699 .01889 1.1119 -17.225 -81.512)" d="m45.494 764.11c-26.01-28.906-18.586-96.003-10.839-127.45l2.8932 0.5506c23.008 28.826 25.143 109.38 7.9456 126.9z" fill="#fc0" filter="url(#w)"/>
  <path d="m89.286 775.22c-16.548-18.203-39.26-44.394-41.429-75l-2.8571-7.1429c-11.335 22.67-19.992 80.198-45 95.714l29.286-7.8571c13.681 0.45148 10.195-25.612 15.714-34.286l4.2857 5.7143c2.1173 19.9 30.023 21.432 40 22.857z" fill="#f00" filter="url(#v)" opacity=".364"/>
  <path d="m24.625 516.84c-1.3682 3.1923-5.3869 12.585-6.8125 16.312l6.8125-16.312zm-6.8125 17.312-17.75 61.969c3.6111-5.3031-2.1386-11.176 0.30726-16.883l9.7214-4.9494c3.8132-14.236 3.5666-25.595 7.7213-40.137zm-8.9112 53.635c-4.7284 6.9438-17.436 22.518-15.589 31.834l15.589-31.834z" fill="#008000" filter="url(#t)" stroke="#000"/>
  <path d="m23.739 528.6c-1.5262 17.741-6.8104 43.531-16.92 60.862l1.5152-0.75762c11.428-7.7433 18.848-48.915 15.405-60.104z" fill="#fc0" filter="url(#s)" stroke="#000"/>
  <path d="m-15.405 600.82c7.9444 7.6979 13.178 1.8104 23.486 3.283 7.1571 1.0224 6.9136 8.2954 16.162 6.3134h1.0102c14.116-2.1276 19.317-7.161 27.274-14.395l0.50508-1.2627c4.4142 0.17315-9.9422-14.488-6.8185-11.364 1.9643 1.9643 10.298 1.9643 8.3338 0-4.1255-4.1255-9.5065-0.0271-13.89-0.75761-33.42-5.57-63.477-5.9115-56.063 18.183z" fill="#007500" filter="url(#r)" stroke="#00ab00"/>
  <path d="m26.264 523.8c-3.9543 21.446 1.1502 52.379-3.5355 74.246l-0.50508-1.5152c-5.9224 16.327 2.6026-92.863 4.0406-72.731z" fill="#008000" filter="url(#b)" stroke="#000"/>
  <path transform="matrix(.99511 -.0988 .0988 .99511 -55.574 5.376)" d="m29.547 527.84c-3.9543 21.446 1.1502 52.379-3.5355 74.246l-0.50508-1.5152c-5.9224 16.327 2.6026-92.863 4.0406-72.731z" fill="#00b900" filter="url(#b)" stroke="#000"/>
  <path d="m52.78 607.14c-4.6599-1.0754-12.12-1.1169-16.415 3.5355l-1.0102 0.50508-2.2728 5.3033c-5.0518-0.3886-11.616-2.951-17.173-1.0102l-1.2627 1.0102c-4.8669-4.3802-16.771-8.0164-21.466 0.50508l-0.50508 1.5152c-0.46795-6.0834-4.8445-11.267-11.364-12.627l-1.5152-1.5152c-1.0195-2.4848-2.6816-4.6699-4.2932-6.8185l1.0102-1.5152c5.2668-4.8591 1.4244-10.338 0.25254-13.385l1.2627 0.75761c7.4589 2.1313 9.2478-2.8383 11.869-8.0812l1.2627-0.50507c3.9957 0.42653 4.9975-1.8644 6.0609-3.5355l-4.7982 14.9v1.2627c1.8695 16.325 31.988 15.131 46.214 18.688l14.142 1.0102z" fill="url(#d)" filter="url(#q)"/>
  <path d="m9.0914 609.79c3.2975 2.1647 4.9861 4.8382 6.9448 7.4499m0.25254-0.63134c4.9141-4.9985 12.868-4.4677 18.94-3.283 3.0667-7.5664 10.112-6.9448 16.415-6.9448l0.12627-0.63134c1.5265-3.469 5.8921-4.6892 8.46-6.1872v-0.63134c-3.4293-5.4457-1.0818-11.228 0.37881-15.026l-0.88388-0.12627c-4.1787 0.20838-6.2195-6.1027-7.4499-10.102l-0.75761 0.25254c-4.7347 0.89406-10.575-0.8816-13.763-2.0203l0.25254 0.75761c8.1046 21.168-10.883 38.18-29.547 36.744" fill="url(#c)" filter="url(#p)"/>
  <path d="m1.0102 793.26c22.598-0.7441 48.979-43.556 47.477-73.741l2.5254 2.0203c6.6867 8.0711 3.7655 58.313 47.477 60.104l-5.0508 2.0203c-30.57 11.283-62.896 9.5965-92.429 9.5964z" fill="#d45500" filter="url(#n)" opacity=".59"/>
  <path d="m-72.857 620.93c12.49 17.42 31.968 42.52 48.571 16.429l-1.4286-3.5714c-13.322 5.8456-42.704-10.786-47.143-12.857z" fill="#fff" filter="url(#m)"/>
  <path d="m-78.143 565.79c11.764-32.74 20.773-39.275 30-9.2857l-2.1429 3.5714c-6.8643 10.316-14.797 5.7143-27.857 5.7143z" fill="#fff" filter="url(#l)"/>
 </g>
</svg>
