<?xml version="1.0" encoding="UTF-8"?>
<svg viewBox="0 0 714.43213 1400.1396" xmlns="http://www.w3.org/2000/svg" xmlns:xlink="http://www.w3.org/1999/xlink">
 <defs>
  <linearGradient id="a">
   <stop stop-color="#9c9c9c" offset="0"/>
   <stop stop-color="#fff" offset="1"/>
  </linearGradient>
  <linearGradient id="e" x1="331.85" x2="411.48" y1="625.35" y2="617.85" gradientUnits="userSpaceOnUse">
   <stop stop-color="#00a100" offset="0"/>
   <stop stop-color="#002400" offset="1"/>
  </linearGradient>
  <radialGradient id="d" cx="2044" cy="1007.1" r="97.176" gradientTransform="matrix(1.0276 -.00766 .0037 .61002 -60.171 410.77)" gradientUnits="userSpaceOnUse">
   <stop stop-color="#fffeb7" offset="0"/>
   <stop stop-color="#fffc00" offset="1"/>
  </radialGradient>
  <radialGradient id="c" cx="2009.5" cy="968.78" r="356.02" gradientTransform="matrix(.5777 -.02996 .02216 .42717 -823.95 -94.975)" gradientUnits="userSpaceOnUse" xlink:href="#a"/>
  <radialGradient id="b" cx="2009.5" cy="968.78" r="356.02" gradientTransform="matrix(-.49588 -.02555 -.02113 .36088 1397.4 -28.547)" gradientUnits="userSpaceOnUse" xlink:href="#a"/>
 </defs>
 <path d="m345.69 389.35c-32.369 170.96-26.082 352.22 33.768 560.55 47.849 166.56 63.481 451.32 61.533 450.24l27.014-0.7504-30.766-318.17c-27.173-131.8-69.375-242.55-78.792-399.21-7.5222-114.06 8.7062-228.12 33.018-342.18l-25.514 1.5008z" fill="url(#e)"/>
 <path d="m318.87 330.67c-157.55 232.55-5.7854 183.16 35.206 6.1692 121.55 168.02 86.586 93.359 44.607 7.8165 45.963 36.002 76.078 74.372 104.68 97.336 35.815 28.756 18.043-35.309-69.182-107.46 49.314 1.5974 153.72 97.253 176.14 108.35 43.243 21.393-5.2254-92.443-150.25-128.62 53.892 15.496 124.54 33.632 157.54 54.033 117.09 72.388 99.011-46.221-152.87-80.658 34.632-14.02 63.619-16.003 107.86-37.287 18.976-9.1294 40.696-14.073 56.929-27.388 29.72-24.378-119.48 10.838-180.8 47.55 82.737-15.775 171.97-344.66-28.257-15.863 121.09-290.95-41.377-204.06-32.826-5.7215 34.886-186.51-96.586-330.85-38.025 1.8838-44.774-241.08-133.93-238.25-27.742 6.3265-25.524-130.37-212.82-316.76-25.221 15.837-124.82-162.95-281.87-171.8-10.435 21.55-78.276-84.654-438.54-57.719 10.153 26.632-179.02-9.8738-277.98 168.71 22.495 9.5204z" fill="url(#b)" stroke="#000" stroke-width=".85171"/>
 <path d="m429.74 330.82c181.91 275.34 5.4913 216.8-41.045 7.2821-142.7 198.8-101.48 110.45-52.004 9.2266-53.775 42.587-89.11 87.987-122.58 115.15-41.908 34.016-20.774-41.803 81.305-127.16-57.444 1.8628-179.69 115.02-205.88 128.14-50.508 25.296 6.7149-109.42 175.86-152.15-62.871 18.311-145.27 39.738-183.84 63.866-136.86 85.615-115-54.764 178.59-95.383-40.239-16.614-73.985-18.978-125.36-44.195-22.038-10.817-47.3-16.68-66.115-32.45-34.447-28.872 139.07 12.895 210.24 56.384-96.253-18.718-197.94-408.05 33.017-18.76-139.04-344.45 49.579-241.5 38.27-6.7536-39.361-220.78 114.74-391.55 44.274 2.2512 53.786-285.33 157.61-281.93 32.267 7.504 30.614-154.3 250.01-374.8 29.266 18.76 146.48-192.8 329.45-203.19 12.006 25.514 91.74-100.15 511.14-68.07-12.006 31.517 208.57-11.586 322.6 199.85-26.264 11.256z" fill="url(#c)" stroke="#000"/>
 <path transform="matrix(1.1185 0 0 1.0087 -1921.5 -730.78)" d="m2143.9 1013.2a97.176 59.281 0 1 1 -194.35 0 97.176 59.281 0 1 1 194.35 0z" fill="url(#d)"/>
</svg>
